<?xml version="1.0" standalone="no"?>
<!DOCTYPE svg PUBLIC "-//W3C//DTD SVG 1.1//EN" "http://www.w3.org/Graphics/SVG/1.1/DTD/svg11.dtd" >
<svg xmlns="http://www.w3.org/2000/svg">
<metadata>
This is a custom SVG webfont generated by Font Squirrel.
Copyright   : Copyright c 2010 by Julia Petretta All rights reserved
Designer    : Julia Petretta
Foundry     : Julia Petretta
</metadata>
<defs>
<font id="webfontTbkI3BL4" horiz-adv-x="917" >
<font-face units-per-em="2048" ascent="1638" descent="-410" />
<missing-glyph horiz-adv-x="491" />
<glyph unicode=" "  horiz-adv-x="491" />
<glyph unicode="&#x09;" horiz-adv-x="491" />
<glyph unicode="&#xa0;" horiz-adv-x="491" />
<glyph unicode="!" horiz-adv-x="518" d="M195 467l-37 924l168 24l43 -78l-56 -870h-118zM147 100q0 43 31 75t76 32q43 0 74.5 -32t31.5 -75q0 -45 -31.5 -75.5t-74.5 -30.5q-45 0 -76 30.5t-31 75.5z" />
<glyph unicode="&#x22;" horiz-adv-x="581" d="M123 1024l-35 387l154 10l18 -45l-45 -350zM358 1026l-34 385l153 10l21 -45l-45 -350h-95z" />
<glyph unicode="#" horiz-adv-x="1214" d="M76 514l-15 82l15 25h278l76 245h-242l-14 82l14 27h277l125 397h104l17 -29l-117 -368h182l125 397h100l17 -29l-115 -368h232q12 0 12 -14v-95h-279l-75 -245h249q12 0 13 -15v-92h-295l-129 -416h-101l-18 27l121 389h-184l-132 -416h-100l-18 27l120 389h-243z M481 621h185l77 245h-184z" />
<glyph unicode="$" horiz-adv-x="970" d="M438 -221v213q-84 2 -167 17.5t-156 49.5l-23 316h119l55 -203q35 -16 82 -27.5t90 -13.5v553q-68 31 -130 63.5t-110 75.5t-77 101.5t-29 140.5q0 72 27.5 131t75 103t110 72t133.5 38v168h119v-164q72 -4 136.5 -21.5t129.5 -41.5l27 -316h-113l-86 217q-47 18 -94 25 v-485l31 -13q92 -43 152.5 -90t94 -96t47 -100.5t13.5 -104.5q0 -80 -26.5 -145.5t-71.5 -114.5t-107.5 -81t-132.5 -46v-221h-119zM750 371q0 78 -36 138t-141 114q-12 4 -16 8v-488q78 20 135.5 76t57.5 152zM238 1081q0 -47 16 -83.5t44 -64.5t63.5 -50.5t76.5 -40.5v432 q-39 -6 -75.5 -21.5t-64.5 -39t-44 -56.5t-16 -76z" />
<glyph unicode="%" horiz-adv-x="1302" d="M254 0h-96l-6 27l905 1390h88l-2 -31zM831 350v-8q0 -35 6.5 -78t21.5 -80t42 -61.5t68 -24.5q43 0 70.5 26t43 64.5t21.5 81.5t6 80t-6 80t-21.5 80t-43 62.5t-70.5 25.5t-70 -25.5t-41 -63.5t-19.5 -81t-7.5 -78zM713 350v12q0 57 14 119t45 111t79 81t118 32 q74 0 123 -33t78.5 -84t43 -113.5t13.5 -124.5q0 -59 -13.5 -122.5t-44 -116t-80 -86t-120.5 -33.5q-76 0 -124 33.5t-77 87t-41 116t-14 121.5zM197 1061v-8q0 -35 6 -78t21.5 -80t42 -61.5t67.5 -24.5q43 0 70.5 25.5t43 63.5t21.5 82t6 81t-6 80t-21.5 79.5t-43 61.5 t-70.5 25t-69.5 -26t-41 -62.5t-19.5 -79.5t-7 -78zM78 1061v12q0 57 14 117.5t45 111t80 82t117 31.5q72 0 121 -32.5t79.5 -84t44 -115t13.5 -122.5t-13.5 -124t-43 -117t-78.5 -86t-123 -34q-76 0 -124 35t-77 87t-41 116t-14 123z" />
<glyph unicode="&#x26;" horiz-adv-x="1232" d="M1106 791q-4 -33 -16.5 -89.5t-31 -122t-44 -135t-56.5 -127.5l-26 -49q53 -59 98 -97t68 -38q12 0 33.5 8.5t37.5 16.5q2 -14 6.5 -35t9.5 -41.5t10 -38.5t9 -31q-29 -10 -43 -12t-39 -2q-61 0 -127.5 44t-136.5 116q-55 -66 -142 -116t-218 -50q-102 0 -181 30.5 t-133.5 83t-83 120t-28.5 139.5t26.5 136t68.5 118.5t94 98.5t106 77l-15 26q-18 33 -39.5 66t-38 67.5t-27.5 74.5t-11 87q0 39 17 90t54 97.5t95.5 78t142.5 31.5q51 0 100 -18.5t88 -54t62.5 -86t23.5 -111.5q0 -104 -63.5 -201.5t-194.5 -196.5l80 -106 q25 -41 79 -113.5t120 -150.5q41 72 68.5 154.5t43.5 168.5h-84l-26 117h250zM487 633l-26 32q-12 15 -23 31q-41 -31 -80 -65.5t-69.5 -75.5t-49 -91t-18.5 -110q0 -57 24.5 -100t63.5 -72.5t88 -45t101 -15.5q78 0 145.5 38t120.5 103q-76 92 -147 190zM688 1128 q0 27 -9 56.5t-27.5 54.5t-47.5 40t-67 15q-49 0 -81 -15t-51.5 -41t-27.5 -58.5t-8 -65.5q0 -63 36.5 -134t90.5 -146q90 72 141 145t51 149z" />
<glyph unicode="'" horiz-adv-x="348" d="M125 1026l-35 385l154 10l18 -45l-45 -350h-92z" />
<glyph unicode="(" horiz-adv-x="528" d="M336 -332q-23 47 -60.5 134t-74.5 207t-63.5 267.5t-26.5 317.5q0 168 22.5 313.5t56 263t73.5 205.5t73 144h123q-33 -61 -69 -153.5t-65.5 -210.5t-49 -259t-19.5 -301q0 -164 22.5 -306.5t54.5 -260t66 -208.5l60 -153h-123z" />
<glyph unicode=")" horiz-adv-x="530" d="M72 -332l59 153q35 91 66.5 208.5t54 260t22.5 306.5q0 160 -19 301t-49 259t-66 210t-68 154h123q33 -55 72.5 -143.5t73.5 -206t56.5 -263t22.5 -313.5q0 -170 -26.5 -317.5t-63.5 -267.5t-75 -207l-60 -134h-123z" />
<glyph unicode="*" horiz-adv-x="679" d="M385 1415l16 -20l-41 -215l172 149l62 -78l-8 -22l-203 -86l213 -80l-39 -88l-27 -8l-172 141l35 -229l-96 -9l-18 21l38 213l-170 -148l-57 78l4 25l205 84l-215 80l41 88l22 8l172 -141l-32 229zM326 1143l8 -13h14l6 13l-8 12h-12z" />
<glyph unicode="+" horiz-adv-x="897" d="M500 1120v-346h327v-129h-327v-371h-105l-24 17v354h-305v103l16 26h289v346h129z" />
<glyph unicode="," horiz-adv-x="407" d="M68 -166l88 164l-47 238l159 26q4 -16 11.5 -54t7.5 -83q0 -47 -11.5 -98.5t-32 -98.5t-46 -89t-56.5 -70l-73 36v29z" />
<glyph unicode="-" horiz-adv-x="772" d="M129 514v113l16 16h486q12 0 12 -14v-115h-514z" />
<glyph unicode="." horiz-adv-x="421" d="M104 100q0 43 31 75t76 32q43 0 74.5 -32t31.5 -75q0 -45 -31.5 -75.5t-74.5 -30.5q-45 0 -76 30.5t-31 75.5z" />
<glyph unicode="/" horiz-adv-x="894" d="M154 0h-99l-6 27l694 1390h105l-2 -31z" />
<glyph unicode="0" horiz-adv-x="1161" d="M109 705q0 133 26.5 261t83.5 228t146.5 161.5t216.5 61.5q125 0 214 -61.5t146 -161.5t84 -228t27 -261t-27 -261.5t-84 -228.5t-146 -161.5t-214 -61.5q-127 0 -216.5 61.5t-146.5 161.5t-83.5 228.5t-26.5 261.5zM250 705q0 -100 16.5 -203t55 -186t102 -135 t158.5 -52q94 0 156.5 52t101.5 135t55 185.5t16 203.5q0 100 -16 203.5t-55 185.5t-101.5 134t-156.5 52t-158 -52t-102.5 -134t-55 -185.5t-16.5 -203.5z" />
<glyph unicode="1" horiz-adv-x="669" d="M84 100l215 39v1092l-211 -41l-18 117l323 110l45 -20v-1258l193 -26v-113h-533z" />
<glyph unicode="2" horiz-adv-x="1032" d="M98 0l-20 119q45 51 113 114l144 137q75 73 149.5 154.5t135 168.5t97.5 177.5t37 180.5q0 70 -27 115.5t-65.5 72.5t-84 37t-83.5 10q-70 0 -114 -14.5t-63 -24.5l-2 -4q-2 -2 -11 -19l-29 -54l-56 -103l-149 92q78 129 183 193.5t253 64.5q94 0 168 -29.5t123 -80 t74.5 -119t25.5 -148.5t-35 -168t-90 -176t-124.5 -171t-136.5 -154.5t-125 -127.5l-93 -89l-25 -25h498l70 221h100l-41 -350h-797z" />
<glyph unicode="3" horiz-adv-x="1054" d="M145 229q72 -53 158 -80.5t178 -27.5q61 0 118.5 17.5t101.5 50t70 81.5t26 115q0 90 -45 143.5t-115 81t-150.5 35.5t-154.5 8h-31v129q70 0 150.5 6.5t150.5 34t115 84t45 154.5q0 51 -22.5 93t-59.5 70.5t-85 45t-99 16.5q-49 0 -94.5 -9t-79.5 -34l-95 -176l-151 92 q72 129 177 193.5t259 64.5q70 0 141.5 -23.5t129 -68.5t93 -110.5t35.5 -149.5q0 -57 -17 -111.5t-48 -99.5t-75 -79t-99 -52q53 -10 103 -37t89 -69t62.5 -99t23.5 -127q0 -109 -41 -184.5t-107.5 -123.5t-151.5 -69.5t-175 -21.5q-106 0 -209.5 30.5t-191.5 90.5z" />
<glyph unicode="4" horiz-adv-x="1040" d="M332 115l311 32v263h-563l-64 131l627 874h139v-866h174v-139h-174v-260q63 -14 111.5 -21.5t52.5 -7.5v-117h-614v111zM643 549v663l-469 -663h469z" />
<glyph unicode="5" horiz-adv-x="1028" d="M227 1413h678v-137h-612v-352q33 4 63 4h60q117 0 212 -32t162.5 -91.5t105.5 -143t38 -188.5q0 -109 -38 -198t-103.5 -151.5t-156.5 -97t-198 -34.5q-104 0 -200.5 27.5t-178.5 93.5l74 116q59 -53 142 -80.5t165 -27.5q74 0 137.5 25.5t109.5 71.5t72.5 108.5 t26.5 136.5q0 102 -37.5 167.5t-99 102.5t-139.5 51.5t-156 14.5q-53 0 -101 -5.5t-89 -11.5v564z" />
<glyph unicode="6" horiz-adv-x="1153" d="M621 881q94 0 173.5 -32t138 -89.5t90.5 -137t32 -173.5q0 -98 -32 -181.5t-90.5 -145t-140 -96t-182.5 -34.5q-139 0 -235 65.5t-155.5 165t-87.5 220t-28 231.5q0 78 12.5 164t40 169t69.5 157.5t102.5 131t138.5 89t176 32.5q88 0 158.5 -21.5t121 -49t82 -54 t42.5 -39.5l-150 -145l-106 147q-20 10 -59.5 21.5t-86.5 11.5q-109 0 -183.5 -61.5t-120.5 -152.5t-66.5 -195.5t-20.5 -190.5q59 86 154.5 139.5t212.5 53.5zM612 121q76 0 132.5 29.5t92 75.5t53 104.5t17.5 115.5q0 133 -79.5 219.5t-221.5 86.5q-66 0 -123 -26 t-101 -69t-69.5 -101t-25.5 -124q10 -63 36.5 -119.5t67.5 -99.5t97 -67.5t124 -24.5z" />
<glyph unicode="7" horiz-adv-x="874" d="M209 1280l-62 -229h-86v362h756l37 -51l-453 -1362h-143l-10 29l459 1251h-498z" />
<glyph unicode="8" horiz-adv-x="1050" d="M164 1092q0 70 24.5 129t70.5 103t111.5 68.5t149.5 24.5q168 0 264.5 -85t96.5 -240q0 -96 -59.5 -171t-164.5 -157q86 -51 142.5 -99.5t91.5 -97.5t49 -101t14 -114q0 -66 -26.5 -129t-80.5 -115.5t-135 -84t-192 -31.5t-190.5 31.5t-132 84t-77 116t-24.5 128.5 q0 74 25.5 134.5t67.5 109.5t93.5 88t102.5 72q-92 63 -156.5 142t-64.5 194zM236 354q0 -57 23.5 -100t62 -72.5t90 -45t108.5 -15.5t110.5 15.5t93.5 45t64.5 72.5t24.5 100q0 66 -28.5 113t-73.5 84t-100.5 67.5t-106.5 63.5q-2 0 -6 4l-89 -63q-46 -33 -85 -72 t-63.5 -87.5t-24.5 -109.5zM741 1104q0 51 -20.5 86t-53 56.5t-71.5 31.5t-76 10q-27 0 -64.5 -9t-71.5 -29.5t-57.5 -54.5t-23.5 -85q0 -49 16.5 -87t47 -70.5t75.5 -61.5l101 -62l74 65q36 32 64 65.5t44 69.5t16 75z" />
<glyph unicode="9" horiz-adv-x="1095" d="M516 526q-98 0 -175 37t-129 98.5t-80 141.5t-28 166q0 74 23 152.5t74 144t130 107.5t193 42q104 0 179 -33.5t126.5 -91t82 -133.5t46 -157.5t20.5 -166.5t5 -161q0 -158 -36 -284t-101.5 -214t-155.5 -135t-198 -47q-72 0 -133.5 13t-111.5 33.5t-88 45.5t-65 47 l88 123q25 -25 58.5 -48.5t71.5 -42t80 -30.5t85 -12q63 0 126 25.5t113 89t81.5 170t36.5 268.5q-55 -72 -140.5 -110t-177.5 -38zM530 1286q-57 0 -107 -21.5t-88 -61.5t-59.5 -97t-21.5 -127q0 -66 17.5 -123t51 -102t86 -71t121.5 -26q49 0 96.5 18.5t87.5 51.5t68.5 79 t38.5 103q-10 84 -32.5 154t-57.5 119t-85 76.5t-116 27.5z" />
<glyph unicode=":" horiz-adv-x="471" d="M129 469q0 43 32 74.5t77 31.5q43 0 73.5 -31.5t30.5 -74.5q0 -45 -30.5 -76t-73.5 -31q-45 0 -77 31t-32 76zM129 899q0 43 32 75t77 32q43 0 73.5 -32t30.5 -75q0 -45 -30.5 -75.5t-73.5 -30.5q-45 0 -77 30.5t-32 75.5z" />
<glyph unicode=";" horiz-adv-x="466" d="M115 -195l73 -36q31 29 56.5 70.5t46 88.5t32 98.5t11.5 98.5q0 45 -7.5 83t-11.5 54l-159 -26l47 -238l-88 -164v-29zM115 530q0 43 31.5 75t76.5 32q43 0 74 -32t31 -75q0 -45 -31 -75.5t-74 -30.5q-45 0 -76.5 30.5t-31.5 75.5z" />
<glyph unicode="&#x3c;" horiz-adv-x="821" d="M668 991l-422 -297l422 -295v-145l-609 426v33l609 420v-142z" />
<glyph unicode="=" horiz-adv-x="897" d="M139 635h619v-129h-619v129zM139 889h619v-129h-619v129z" />
<glyph unicode="&#x3e;" horiz-adv-x="821" d="M154 1133l608 -420v-33l-608 -426v145l421 295l-421 297v142z" />
<glyph unicode="?" horiz-adv-x="813" d="M213 485q-2 10 -3 25.5t-1 34.5q0 74 28.5 125t71.5 89t93.5 70.5t93.5 70.5t71.5 88t28.5 124q0 29 -9 59.5t-33 55t-62.5 41t-98.5 16.5q-31 0 -69.5 -5t-67.5 -13l-55 -197h-105l39 293q63 20 131 35.5t142 15.5q90 0 154.5 -22.5t105.5 -62.5t60.5 -93t19.5 -115 q0 -78 -27 -137t-70 -107.5t-99 -89.5t-116 -79q-70 -47 -88 -101.5t-18 -91.5q0 -8 1 -15t1 -12zM178 100q0 43 32 75t77 32q43 0 73.5 -32t30.5 -75q0 -45 -30.5 -75.5t-73.5 -30.5q-45 0 -77 30.5t-32 75.5z" />
<glyph unicode="@" horiz-adv-x="1652" d="M813 -8q-78 0 -146.5 27.5t-119.5 82t-80 132t-29 180.5q0 129 40 212t98.5 129t125 63.5t117.5 17.5q92 0 174 -39l88 41l45 -13v-651q0 -20 7.5 -30.5t17.5 -15.5t21.5 -6t19.5 -1q43 0 82 31.5t68.5 83t47 115t17.5 124.5q0 127 -39 232.5t-110.5 181.5t-174 118 t-229.5 42q-135 0 -251 -47.5t-200 -130.5t-131 -193.5t-47 -237.5q0 -125 46 -240.5t127 -203.5t189.5 -141.5t235.5 -53.5q66 0 131.5 11.5t120.5 33.5l27 -8l-35 -131q-121 -35 -248 -35q-158 0 -292 63.5t-232 170t-153.5 247t-55.5 291.5q0 156 62.5 290t169 232.5 t247 155t293.5 56.5q154 0 281 -52.5t218 -145.5t140 -223t49 -286q0 -84 -23.5 -169t-68.5 -153.5t-112.5 -112.5t-155.5 -44q-117 0 -166 65q-27 -23 -79 -44t-128 -21zM829 707q-31 0 -73.5 -9.5t-82.5 -40t-69 -87t-29 -148.5q0 -94 25 -152.5t62.5 -91.5t81.5 -45 t83 -12q47 0 89 15.5t71 35.5v494q-29 16 -70 28.5t-88 12.5z" />
<glyph unicode="A" horiz-adv-x="1167" d="M745 0v90l166 43l-108 361h-457l-106 -367l180 -35v-92h-397l-27 96l110 37l392 1282h172l393 -1282l96 -37l-22 -96h-392zM571 1262l-186 -639h379z" />
<glyph unicode="B" horiz-adv-x="1140" d="M371 643v-504h262q76 0 127 22.5t81.5 59.5t44 83t13.5 95q0 51 -22.5 96.5t-62.5 78t-94 51t-120 18.5h-229zM838 1034q0 49 -16.5 93t-52.5 77t-94.5 52.5t-139.5 19.5h-164v-504h194q72 0 123 22.5t85 59.5t49.5 84t15.5 96zM127 0l-14 115l116 24v1145l-116 10v121 h426q109 0 191.5 -28.5t139 -79t85 -118t28.5 -145.5q0 -72 -16.5 -124t-43 -89.5t-58 -63.5t-62.5 -42q41 -18 84 -44t77.5 -64.5t57 -96t22.5 -137.5q0 -96 -32.5 -169t-92 -120t-143.5 -70.5t-184 -23.5h-465z" />
<glyph unicode="C" horiz-adv-x="1138" d="M227 713q2 -121 38 -226.5t104.5 -184.5t167 -125t225.5 -46q70 0 140.5 19.5t121.5 52.5l51 -125q-53 -37 -139 -61.5t-172 -24.5q-156 0 -282 54t-215 149.5t-137 227.5t-48 286q0 143 50 272t140 225.5t216 152.5t280 56q66 0 123 -7t117 -19l36 -324h-116l-49 201 q-16 2 -36 6t-71 4q-129 0 -228.5 -47t-169 -125t-107.5 -179t-40 -212z" />
<glyph unicode="D" horiz-adv-x="1239" d="M113 115l116 26v1143l-116 10v121h293q158 0 294 -42t235 -129t156.5 -219t57.5 -310q0 -182 -50 -316.5t-144.5 -223.5t-226.5 -132t-296 -43h-305zM1004 713q0 125 -39 228t-113 178t-181.5 116t-244.5 41h-55v-1137h90q162 0 266 50.5t165.5 131t86.5 184.5t25 208z " />
<glyph unicode="E" horiz-adv-x="1071" d="M113 1294v121h815l41 -350h-99l-69 211h-430v-504h331v-129h-331v-504h450l72 211h96l-39 -350h-823l-14 115l116 24v1145z" />
<glyph unicode="F" horiz-adv-x="1007" d="M672 0h-547l-12 115l116 24v1145l-116 10v121h815l43 -350h-99l-71 213h-430v-506h331v-129h-331v-496l311 -43z" />
<glyph unicode="G" horiz-adv-x="1243" d="M1114 641v-606q-76 -23 -158 -33t-165 -10q-154 0 -284 52t-224.5 145.5t-147.5 222.5t-53 284q0 158 50 290t143.5 227.5t224.5 148.5t291 53q76 0 147.5 -10t136.5 -27l23 -315h-129l-47 203q-31 4 -72 7t-70 3q-133 0 -236.5 -45t-174 -123t-106.5 -182.5t-36 -223.5 q0 -129 42 -233t118 -180t181.5 -117t234.5 -41q39 0 86 3t84 11v342l-252 29l37 125h356z" />
<glyph unicode="H" horiz-adv-x="1343" d="M975 131v533h-606v-533l118 -8v-123h-360l-10 115l112 16v1153l-118 8v123h362l8 -115l-112 -16v-491h606v491l-119 8v123h361l10 -115l-113 -16v-1153l119 -8v-123h-363l-8 115z" />
<glyph unicode="I" horiz-adv-x="600" d="M229 131v1153l-116 8v123h360l8 -115l-110 -16v-1153l116 -8v-123h-360l-8 115z" />
<glyph unicode="J" horiz-adv-x="733" d="M238 1300l12 115h395v-123l-119 -8v-989q0 -111 -30.5 -172.5t-71.5 -90t-84 -34.5t-68 -6q-70 0 -135 27.5t-114 70.5l79 119q20 -20 66.5 -51t114.5 -31q43 0 73.5 27.5t30.5 97.5v1032z" />
<glyph unicode="K" horiz-adv-x="1216" d="M229 131v1153l-116 8v123h360l8 -115l-110 -16v-698l573 706l-162 13v110h389v-115l-69 -14l-410 -506l367 -645l123 -18v-117h-217l-369 662l-225 -279v-252l116 -8v-123h-360l-8 115z" />
<glyph unicode="L" horiz-adv-x="1015" d="M111 1292v123h381l8 -115l-131 -16v-1145h450l72 211h96l-39 -350h-823l-14 115l116 16v1153z" />
<glyph unicode="M" horiz-adv-x="1701" d="M463 1415l399 -1237l383 1237h324l12 -123l-106 -10v-1145l122 -24v-113h-368l-10 113l114 26v1164l-395 -1272h-178l-402 1245v-1141l129 -20v-115h-360l-16 115l118 24v1145l-116 10v121h350z" />
<glyph unicode="N" horiz-adv-x="1349" d="M356 1288v-1153l138 -20v-115h-367l-16 115l118 24v1145l-118 10v121h342l553 -1261v1126l-132 20v115h365l21 -115l-125 -24v-1276h-215z" />
<glyph unicode="O" horiz-adv-x="1320" d="M662 -8q-145 0 -251 62.5t-174.5 163.5t-101.5 228t-33 256t33 256t101.5 228.5t174 165t251.5 63.5q145 0 250.5 -63.5t173 -165t100.5 -228.5t33 -256t-33 -256t-100.5 -228t-173 -163.5t-250.5 -62.5zM248 698q0 -104 22.5 -205.5t71.5 -182.5t128 -130t192 -49 t190.5 49t126.5 130t71.5 182.5t22.5 205.5t-22.5 208t-71.5 186t-127 133t-190 51q-113 0 -192 -51t-128 -133t-71.5 -186t-22.5 -208z" />
<glyph unicode="P" horiz-adv-x="1064" d="M481 680q121 0 197 25.5t118 68.5t56 97.5t14 111.5q0 76 -27.5 131t-76.5 91t-115.5 53.5t-144.5 17.5h-131v-596h110zM113 113l116 26v1145l-116 10v121h336q166 0 275.5 -39t173 -100.5t89 -138t25.5 -152.5q0 -117 -44 -202t-117 -138t-168 -78.5t-196 -25.5h-116 v-398l286 -39v-104h-530z" />
<glyph unicode="Q" horiz-adv-x="1329" d="M580 -59l436 -150l10 -57l-172 -125l-164 136l-158 140zM666 -8q-145 0 -252 62.5t-176.5 163.5t-102.5 228t-33 256t33 256t102.5 228.5t176 165t252.5 63.5q145 0 251.5 -63.5t175 -165t102.5 -228.5t34 -256t-34 -256t-102.5 -228t-175 -163.5t-251.5 -62.5zM252 698 q0 -104 22.5 -205.5t71.5 -182.5t128 -130t192 -49t190.5 49t126.5 130t71.5 182.5t22.5 205.5t-22.5 208t-71.5 187t-127 134t-190 51q-113 0 -192 -51t-128 -134t-71.5 -187t-22.5 -208z" />
<glyph unicode="R" horiz-adv-x="1114" d="M113 113l116 26v1145l-116 10v121h356q119 0 218 -25.5t171 -77.5t113 -133t41 -194q0 -84 -23.5 -149.5t-65.5 -115.5t-98.5 -86t-122.5 -56l209 -445l133 -29v-104h-241l-246 545q-23 -2 -45.5 -3t-44.5 -1h-96v-398l159 -39v-104h-403zM481 680q76 0 145.5 13.5 t123 48t85 93t31.5 148.5q0 78 -26.5 133t-72.5 91t-108.5 52.5t-136.5 16.5h-151v-596h110z" />
<glyph unicode="S" horiz-adv-x="1005" d="M229 375l56 -203q39 -18 93 -29.5t99 -11.5q53 0 105.5 14.5t93.5 44t66.5 74.5t25.5 107q0 78 -36 138t-140 114l-167 75q-85 37 -154.5 84t-114.5 114t-45 169q0 82 33.5 146.5t91 109.5t132 69.5t158.5 24.5q86 0 163 -18.5t153 -46.5l26 -316h-112l-86 217 q-39 16 -78 21.5t-82 5.5q-47 0 -92 -12.5t-81 -37t-58.5 -61.5t-22.5 -86q0 -68 33 -113.5t83 -78.5t112 -59l122 -52q92 -43 152.5 -90t94.5 -96t47 -100.5t13 -104.5q0 -94 -35.5 -168t-95 -124t-139.5 -76.5t-166 -26.5q-88 0 -177 15.5t-167 51.5l-22 316h118z" />
<glyph unicode="T" horiz-adv-x="1120" d="M260 0v106l232 37v1133h-281l-80 -199h-94l47 338h952l47 -338h-94l-80 199h-278v-1133l235 -37v-106h-606z" />
<glyph unicode="U" horiz-adv-x="1286" d="M854 1292v123h348l8 -115l-112 -16v-870q0 -100 -36 -179t-97.5 -132.5t-145.5 -82t-178 -28.5q-96 0 -178 29.5t-141.5 85t-92 133t-32.5 174.5v870l-119 8v123h362l9 -115l-113 -16v-848q0 -147 84 -227t233 -80q63 0 120.5 16.5t102 53.5t70 95t25.5 142v848z" />
<glyph unicode="V" horiz-adv-x="1150" d="M420 1415v-90l-180 -43l342 -1055l350 1061l-187 35v92h402v-96l-82 -37l-426 -1282h-133l-416 1282l-74 37v96h404z" />
<glyph unicode="W" horiz-adv-x="1753" d="M412 1415v-90l-160 -43l231 -1102l318 1188h174l311 -1200l234 1120l-160 35v92h373v-96l-82 -37l-273 -1282h-186l-309 1180l-308 -1180h-204l-265 1282l-79 37v96h385z" />
<glyph unicode="X" horiz-adv-x="1159" d="M41 0v111l92 14l359 586l-351 573l-96 23v108h399v-88l-145 -31l291 -475l264 475l-121 21v98h367v-110l-92 -15l-342 -592l338 -544l131 -48v-106h-406v106l127 13l-291 473l-280 -473l118 -21v-98h-362z" />
<glyph unicode="Y" horiz-adv-x="1103" d="M387 1415v-108l-129 -21l311 -610l287 612l-125 17v110h352v-123l-88 -20l-370 -774v-355l235 -37l-18 -106h-574l-20 106l237 37v383l-383 748l-88 18v123h373z" />
<glyph unicode="Z" horiz-adv-x="1110" d="M997 1237l-737 -1098h612l41 209h97v-348h-895l-19 154l754 1122h-606l-41 -209h-97v348h871z" />
<glyph unicode="[" horiz-adv-x="626" d="M180 1370h422q12 0 12 -16v-111h-309v-1483h309v-110q0 -16 -12 -17h-409l-27 33v1675z" />
<glyph unicode="\" horiz-adv-x="927" d="M47 1395l2 20h135l695 -1388l-7 -27h-124z" />
<glyph unicode="]" horiz-adv-x="626" d="M461 1341v-1675l-27 -33h-409q-12 0 -13 17v110h310v1483h-310v111q0 16 13 16h421z" />
<glyph unicode="^" horiz-adv-x="720" d="M106 1192l240 291h31l237 -287l-6 -14h-112l-136 141l-135 -141h-110z" />
<glyph unicode="_" horiz-adv-x="1173" d="M20 -129v102l25 27h1096q12 0 12 -14v-115h-1133z" />
<glyph unicode="`" horiz-adv-x="581" d="M399 1133l-286 245l90 109h53l213 -287z" />
<glyph unicode="a" d="M750 162q0 -23 9 -41.5t38 -18.5q10 0 21 3.5t22 7.5l22 -78q-23 -23 -52.5 -33t-59.5 -10q-55 0 -82 25.5t-37 64.5q-47 -43 -107.5 -66.5t-134.5 -23.5q-61 0 -116.5 18.5t-97.5 53t-66.5 85t-24.5 113.5q0 104 56.5 168t138 98.5t175 47t167.5 14.5v131 q0 66 -49.5 104.5t-131.5 38.5q-31 0 -72.5 -5t-68.5 -21l-33 -109l-168 31q18 57 52 98t78 68.5t95.5 41t104.5 13.5q170 0 246 -79t76 -212v-528zM219 268q0 -72 49 -115.5t135 -43.5q63 0 123 29.5t95 82.5v254q-53 0 -122 -7t-131.5 -28.5t-105.5 -62.5t-43 -109z" />
<glyph unicode="b" horiz-adv-x="991" d="M283 1427v-522q45 37 103 56.5t120 19.5q102 0 177 -40t124 -106.5t73.5 -154.5t24.5 -184t-25.5 -187.5t-77.5 -162t-132 -112.5t-189 -42q-59 0 -115.5 12t-105.5 41l-42 -30q-22 -15 -32 -15h-32v1354l-125 -8l-17 106l215 37zM477 109q82 0 138.5 32.5t91 87t49 122 t14.5 134.5q0 66 -14.5 133.5t-46 122t-85 89t-130.5 34.5q-57 0 -120 -28.5t-91 -75.5v-586q41 -33 91 -49t103 -16z" />
<glyph unicode="c" horiz-adv-x="829" d="M694 764l-121 96q-16 4 -38 4h-35q-84 0 -137.5 -34.5t-84 -90t-43 -125t-12.5 -139.5q0 -68 14.5 -134.5t49.5 -117.5t93 -82.5t148 -31.5q59 0 109.5 13t99.5 42l35 -101q-53 -41 -122.5 -56t-141.5 -15q-111 0 -189.5 40t-130 107.5t-76 155.5t-24.5 182 q0 98 23.5 189.5t75 161t131 111.5t192.5 42q92 0 163.5 -23.5t110.5 -52.5z" />
<glyph unicode="d" horiz-adv-x="1013" d="M584 1346l-17 106l215 37l56 -62v-1265q0 -23 9 -41.5t38 -18.5q10 0 21.5 3.5t21.5 7.5l22 -82q-23 -23 -59.5 -31t-54.5 -8q-53 0 -79 25.5t-36 58.5q-47 -43 -105.5 -63.5t-123.5 -20.5q-104 0 -180 43t-126.5 111.5t-75 156.5t-24.5 178q0 102 26.5 193.5t79 159 t132 107.5t188.5 40q63 0 111.5 -12.5t85.5 -28.5v414zM520 864q-84 0 -140 -32.5t-92 -86t-51.5 -120t-15.5 -136.5q0 -66 14.5 -133t48 -122.5t88 -90t132.5 -34.5q59 0 115.5 26.5t89.5 77.5v580q-35 39 -85.5 55t-103.5 16z" />
<glyph unicode="e" horiz-adv-x="907" d="M541 106q66 0 129 19.5t110 54.5l35 -110q-59 -43 -134 -60.5t-151 -17.5q-113 0 -195.5 38t-138 103.5t-83 153.5t-27.5 188q0 104 28.5 196.5t84 161t135.5 108.5t182 40q61 0 117.5 -18.5t97.5 -52t65.5 -84t24.5 -113.5q0 -111 -56 -176.5t-144.5 -100.5t-192.5 -46 t-201 -11q20 -119 95.5 -196t218.5 -77zM256 500q57 0 132 4t140.5 25.5t111.5 63.5t46 120q0 41 -15.5 69.5t-40 47t-55 26.5t-61.5 8q-72 0 -125 -29.5t-89 -79.5t-56.5 -116t-22.5 -139h35z" />
<glyph unicode="f" horiz-adv-x="636" d="M78 864l-29 94l14 23h144v240q0 119 58.5 193.5t191.5 74.5q61 0 119.5 -22.5t109.5 -53.5l-100 -139l-115 98q-10 0 -18.5 1t-18.5 1q-33 0 -52.5 -11t-29.5 -29.5t-13 -41t-3 -47.5v-264h225q10 0 10 -12v-105h-235v-739l225 -33v-92h-459l-16 90l121 29v745h-129z" />
<glyph unicode="g" horiz-adv-x="974" d="M463 981q74 0 136.5 -21.5t109.5 -62.5l186 92l39 -6l20 -139l-178 -23q27 -41 41 -91t14 -107q0 -80 -27.5 -146.5t-76.5 -114t-116.5 -74t-147.5 -26.5q-57 0 -107 12l-43 -63l6 -43l82 -23l72 -20l62 -14q63 -16 122.5 -38t105.5 -55.5t72.5 -85t26.5 -125.5 q0 -88 -35.5 -153.5t-94 -109.5t-134.5 -65.5t-154 -21.5t-149.5 21.5t-126.5 62.5t-89 102.5t-34 141.5q0 53 16.5 97t44 79t60.5 60.5t67 41.5q-31 20 -49 47t-18 68q0 43 23.5 80t52.5 68q-68 47 -107 121.5t-39 173.5q0 80 27 146.5t76 113.5t116.5 73.5t147.5 26.5z M174 -211q0 -53 27.5 -91t68.5 -62.5t89.5 -37t91.5 -12.5q55 0 107 14.5t94 40t67.5 63.5t25.5 87q0 59 -35.5 95t-91 58.5t-123 37t-130.5 30.5q-76 -27 -133.5 -83t-57.5 -140zM463 864q-111 0 -171.5 -68.5t-60.5 -172.5t60.5 -174t171.5 -70t172 69.5t61 174.5 q0 104 -61 172.5t-172 68.5z" />
<glyph unicode="h" horiz-adv-x="1019" d="M309 1427v-524q53 37 116.5 57.5t129.5 20.5q141 0 217 -75t76 -222v-565l125 -29v-90h-369l-8 90l123 29v551q0 195 -174 194q-63 0 -126 -23.5t-110 -64.5v-657l115 -27v-92h-352l-11 90l119 29v1235h-112l-19 100l201 35z" />
<glyph unicode="i" horiz-adv-x="509" d="M328 924v-803l125 -31v-90h-359l-18 88l123 31v733l-111 -8l-18 104l202 37zM121 1374q0 45 30.5 77t75.5 32t77 -32t32 -77t-32 -75.5t-77 -30.5t-75.5 30.5t-30.5 75.5z" />
<glyph unicode="j" horiz-adv-x="466" d="M109 1374q0 45 30.5 77t75.5 32t77 -32t32 -77t-32 -75.5t-77 -30.5t-75.5 30.5t-30.5 75.5zM47 842l-16 104l231 39l55 -61v-1264q0 -41 -8 -80t-30.5 -69.5t-60.5 -50t-97 -19.5q-33 0 -61.5 8t-50 19.5t-38 23.5t-24.5 21l67 98q16 -16 45 -35.5t64 -19.5 q45 0 55 36.5t10 88.5v1171z" />
<glyph unicode="k" horiz-adv-x="937" d="M309 1427v-872l361 334h-84l-17 96h283l29 -55l-344 -322l251 -495l107 -23v-90h-203l-262 512l-121 -115v-278l115 -27v-92h-352l-11 90l119 29v1235h-112l-19 100l205 35z" />
<glyph unicode="l" horiz-adv-x="493" d="M311 1427v-1310l125 -27v-90h-375l-10 90l131 29v1235h-112l-19 100l201 35z" />
<glyph unicode="m" horiz-adv-x="1570" d="M1399 119l125 -29v-90h-369l-8 90l123 29v551q0 195 -174 194q-47 0 -110.5 -16.5t-129.5 -85.5q6 -37 6 -78v-565l125 -29v-90h-369l-8 90l123 29v551q0 195 -174 194q-63 0 -125.5 -22.5t-109.5 -63.5v-657l125 -31v-90h-355l-12 88l113 31v741l-111 -8l-18 96l206 37 l45 -84q57 39 127 59.5t125 20.5q78 0 139.5 -24.5t100.5 -77.5q47 37 91 58t82 30.5t67.5 11.5t46.5 2q147 0 225 -75t78 -222v-565z" />
<glyph unicode="n" horiz-adv-x="1034" d="M862 119l125 -29v-90h-369l-8 90l123 29v551q0 195 -174 194q-63 0 -125.5 -22.5t-109.5 -63.5v-657l125 -31v-90h-355l-12 88l113 31v741l-111 -8l-18 96l206 37l45 -84q115 80 252 80q141 0 217 -75t76 -222v-565z" />
<glyph unicode="o" horiz-adv-x="1001" d="M86 492q0 98 26.5 188t79 157.5t129 107.5t179.5 40q109 0 187.5 -41t128.5 -110.5t74.5 -158.5t24.5 -183q0 -96 -24.5 -185.5t-74.5 -160t-129 -112.5t-187 -42q-106 0 -184 43t-129.5 112.5t-76 160t-24.5 184.5zM221 467q0 -66 15.5 -129.5t49 -113.5t87 -81.5 t127.5 -31.5q78 0 132 32.5t87 86t47 120t14 131.5q0 63 -14 132t-48 125.5t-87 92t-131 35.5q-80 0 -133.5 -41t-85 -100t-46 -130t-14.5 -128z" />
<glyph unicode="p" horiz-adv-x="1024" d="M61 844l-16 104l215 37l55 -74q45 33 103.5 51.5t120.5 18.5q102 0 177 -40t124 -106.5t73.5 -154.5t24.5 -184t-25.5 -187.5t-78 -162t-132 -112.5t-188.5 -42q-53 0 -103.5 9t-95.5 32v-459l248 -43v-90h-479l-18 90l120 29v1292zM510 109q82 0 138.5 32.5t91 87 t49 122t14.5 134.5q0 66 -14.5 133.5t-46 122t-85 89t-131.5 34.5q-57 0 -119.5 -28.5t-91.5 -75.5v-586q41 -33 91.5 -49t103.5 -16z" />
<glyph unicode="q" horiz-adv-x="989" d="M838 963v-1403l120 -29v-90h-483l-14 90l248 55v480q-31 -27 -86.5 -50.5t-137.5 -23.5q-84 0 -156.5 32.5t-125.5 95t-85 152.5t-32 207q0 150 44 248t107.5 155.5t136 80t130.5 22.5q72 0 123 -17.5t92 -43.5l47 59zM516 866q-47 0 -99 -16t-95 -58t-72 -116t-29 -187 t26.5 -185.5t67.5 -115.5t89.5 -60t93.5 -17q76 0 132 32.5t79 69.5v580q-20 25 -71.5 49t-121.5 24z" />
<glyph unicode="r" horiz-adv-x="790" d="M326 901q45 41 100 62.5t106 21.5q45 0 82 -12t67 -32.5t52.5 -44.5t38.5 -46l-156 -76l-69 94q-29 0 -67 -12t-72.5 -40t-58 -71t-23.5 -106v-508l286 -41v-90h-518l-18 90l121 29v731h-111l-16 98l200 35z" />
<glyph unicode="s" horiz-adv-x="813" d="M408 985q68 0 123 -19.5t97 -48t69.5 -63.5t41.5 -68l-159 -59l-48 104q-12 10 -40.5 22.5t-83.5 12.5q-23 0 -51.5 -7t-54.5 -23.5t-43 -42t-17 -64.5q0 -35 11 -58.5t38.5 -43t72 -38t109.5 -38.5q129 -43 187.5 -111.5t58.5 -173.5q0 -68 -28.5 -120t-74 -85.5 t-103.5 -51t-116 -17.5q-70 0 -124 19.5t-95 48t-68.5 63.5t-43.5 65l159 62l47 -107q10 -6 43 -19t95 -13q27 0 56.5 8t56 26.5t44 45t17.5 63.5t-11.5 64.5t-37 49t-68.5 41t-107 42.5q-111 35 -182.5 98t-71.5 168q0 63 25 113.5t67 84t96.5 52t113.5 18.5z" />
<glyph unicode="t" horiz-adv-x="620" d="M43 868l-29 90l15 23h180q0 125 1 219t1 125l115 29l12 -23q-2 -49 -2 -96v-254h217q10 0 10 -12v-101h-229v-661q0 -55 23.5 -75.5t68.5 -20.5q43 0 80 21.5t51 31.5l35 -105q-25 -18 -71 -42.5t-130 -24.5q-98 0 -143 63.5t-45 161.5v68q0 61 1 153t2 205t1 225h-164z " />
<glyph unicode="u" horiz-adv-x="1003" d="M594 850l-14 98l204 39l50 -59v-778q0 -27 14 -36.5t33 -9.5q12 0 22 3.5t15 3.5l16 -72q-12 -14 -43 -30.5t-74 -16.5q-82 0 -104 84q-47 -39 -110.5 -61.5t-129.5 -22.5q-59 0 -113.5 16.5t-97.5 54t-68.5 100t-25.5 156.5v531h-111l-18 98l207 37l51 -57v-602 q0 -80 22.5 -123t54.5 -63.5t67.5 -24.5t60.5 -4q57 0 117.5 28.5t85.5 67.5v643h-111z" />
<glyph unicode="v" horiz-adv-x="899" d="M393 0l-295 872h-78l-16 99l205 14l266 -797l260 684h-92l-10 99l205 14l39 -76l-353 -909h-131z" />
<glyph unicode="w" horiz-adv-x="1361" d="M750 911l243 -755l166 716h-92l-18 101l221 10l28 -53l-227 -930h-176l-205 672l-203 -672h-196l-174 872h-86l-17 101l226 10l159 -838l242 766h109z" />
<glyph unicode="x" horiz-adv-x="933" d="M82 0l-21 106h86l234 392l-234 364h-86v119h170l252 -389l234 389h143v-109h-67l-238 -391l236 -362h86v-119h-175l-249 385l-230 -385h-141z" />
<glyph unicode="y" horiz-adv-x="919" d="M893 911l-211 -576l-231 -622q-16 -45 -37 -93t-49.5 -88t-67.5 -65.5t-94 -25.5q-53 0 -97.5 21.5t-82.5 52.5l63 106q6 -6 17.5 -16.5t26.5 -20.5t33.5 -17t41.5 -7q31 0 53.5 19.5t40.5 48t31.5 62.5t23.5 64l54 150l-316 966h-69l-17 101l195 12l280 -872l271 759 h-74l-16 101l196 12z" />
<glyph unicode="z" horiz-adv-x="876" d="M776 860l-518 -741h389l33 192h96v-311h-680v119l504 741h-375l-32 -170h-97v291h680v-121z" />
<glyph unicode="{" horiz-adv-x="632" d="M29 647q45 0 86 14.5t72.5 40t51 64.5t19.5 88v47q0 35 -1 74t-1 74v57q0 66 11.5 125t40 103t76.5 71t124 27q33 0 61.5 -3.5l63.5 -7.5l-43 -157l-117 34l-18 -4q-39 -16 -51.5 -77.5t-12.5 -137.5q0 -51 2 -104t2 -103q0 -78 -15 -133t-44 -91t-69 -55.5t-91 -25.5 l-16 -2v-8l16 -2q104 -12 161.5 -82t57.5 -231q0 -49 -2 -99.5t-2 -99.5q0 -84 12.5 -150.5t51.5 -82.5l18 -7l117 35l43 -155q-35 -6 -63.5 -9.5t-61.5 -3.5q-76 0 -124 27t-76.5 72t-40 104t-11.5 125v57q0 41 1 83t1 79v51q0 104 -62.5 155.5t-166.5 51.5v172z" />
<glyph unicode="|" horiz-adv-x="452" d="M285 1364v-1704h-117v1704h117z" />
<glyph unicode="}" horiz-adv-x="634" d="M606 475q-106 0 -168.5 -51t-62.5 -156v-51q0 -37 1 -79t1 -83v-57q0 -66 -11.5 -125t-40 -104t-77.5 -72t-123 -27q-31 0 -60.5 3t-64.5 10l43 155l117 -35l20 7q39 16 50.5 82.5t11.5 150.5q0 49 -2 99.5t-2 99.5q0 162 57 231.5t162 81.5l16 2v8l-16 2q-51 6 -92 25.5 t-69 55.5t-43 91.5t-15 132.5q0 49 2 102.5t2 104.5q0 76 -11.5 137.5t-50.5 77.5l-20 4l-117 -34l-43 157l64.5 7.5t60.5 3.5q74 0 123 -27t77.5 -71t40 -103.5t11.5 -124.5v-57q0 -35 -1 -74t-1 -74v-47q0 -49 19.5 -88t51 -64.5t73.5 -40t87 -14.5v-172z" />
<glyph unicode="~" horiz-adv-x="792" d="M545 1272l114 86l76 -127q-39 -33 -87 -55.5t-105 -22.5q-39 0 -72 12l-65 26l-66 26q-33 12 -70 12q-43 0 -73.5 -29t-44.5 -65l-89 53l5 14q33 78 89 117t117 39q45 0 83 -13.5t71 -29.5l61 -30q29 -13 56 -13z" />
<glyph unicode="&#xa1;" horiz-adv-x="489" d="M299 532l55 -870l-43 -78l-168 25l37 923h119zM133 899q0 45 31 76t76 31q43 0 74.5 -31t31.5 -76q0 -43 -31.5 -74.5t-74.5 -31.5q-45 0 -76 31.5t-31 74.5z" />
<glyph unicode="&#xa2;" horiz-adv-x="835" d="M682 764l-121 96q-2 0 -4 1t-4 1v-753q47 4 89 17t83 38l35 -101q-43 -33 -96.5 -49t-110.5 -20v-318h-119v320q-94 12 -163.5 55t-114.5 108.5t-67.5 147.5t-22.5 170q0 90 21.5 175t67.5 152.5t114.5 114t164.5 58.5v270h119v-268q72 -8 129 -29.5t90 -44.5zM201 475 q0 -59 12 -117.5t40 -107.5t72 -84t109 -49v743q-68 -12 -111.5 -50t-71.5 -91t-39 -117t-11 -127z" />
<glyph unicode="&#xa3;" horiz-adv-x="997" d="M449 674q-4 -139 -17.5 -259t-75.5 -204q63 -6 118.5 -21.5t104.5 -32.5l89 -32q41 -14 73 -14l115 86l74 -127q-43 -33 -92.5 -55.5t-104.5 -22.5q-66 0 -124 14t-110 32l-99 32q-46 14 -85 14q-72 0 -105.5 -28.5t-43.5 -63.5l-111 37l4 14q20 47 50 77t67 62 q45 39 71.5 92.5t41 117t17.5 135t3 147.5h-143v110l14 19h129v276q0 98 29 163t74 102.5t101 54t112 16.5q43 0 80.5 -11t69.5 -27.5t56.5 -33t38.5 -28.5l-98 -135l-121 102q-10 2 -22.5 3t-22.5 1q-18 0 -46 -6t-52.5 -26.5t-41.5 -59.5t-17 -104v-287h282q12 0 12 -17 v-112h-294z" />
<glyph unicode="&#xa4;" horiz-adv-x="526" d="M344 1638v-909h-162v909h162zM182 -438v981h162v-981h-162z" />
<glyph unicode="&#xa5;" horiz-adv-x="1128" d="M248 430h248v59h-248v129h248v23l-357 643l-82 19v112h344v-96l-112 -23l286 -510l285 510l-117 19v100h328v-115l-65 -20l-371 -643v-19h233v-129h-233v-59h233v-129h-233v-158l233 -37l-16 -106h-561l-19 106l224 37v158h-248v129z" />
<glyph unicode="&#xa6;" horiz-adv-x="473" d="M172 594v778h129v-778h-129zM172 -354v766h129v-766h-129z" />
<glyph unicode="&#xa7;" horiz-adv-x="1013" d="M920 481q0 -80 -35 -146.5t-76 -111.5q41 -41 65.5 -94t24.5 -123q0 -84 -36 -146.5t-96 -104.5t-139 -63.5t-163 -21.5q-102 0 -177 17.5t-157 50.5l-20 311h118l41 -217q12 -6 34 -11t49.5 -10.5t59 -8.5t60.5 -3q49 0 98.5 11.5t89 36t64.5 64.5t25 97q0 55 -31 95 t-78 71t-102.5 55.5t-104.5 49.5q-150 72 -233.5 150.5t-83.5 197.5q0 72 28.5 132t73.5 105q-53 43 -81.5 97.5t-28.5 130.5q0 72 30.5 131t85 102t128 66.5t159.5 23.5q55 0 99 -5t83 -14.5t74 -20.5t70 -25l24 -316h-110l-86 226q-29 12 -65 19t-89 7q-51 0 -97 -13 t-82 -37t-56.5 -56.5t-20.5 -69.5q0 -55 31.5 -95t81 -72t109.5 -56l120 -49q166 -72 244 -154t78 -203zM477 729q-41 16 -79 34l-70 34q-25 -29 -43.5 -66t-18.5 -76q0 -41 18.5 -73.5t55.5 -63.5t94.5 -63.5l136.5 -73.5l70 -38q35 -19 70 -42q27 35 42 80t15 84 q0 53 -25.5 92t-65.5 69.5t-90 54.5t-100 44z" />
<glyph unicode="&#xa8;" horiz-adv-x="727" d="M106 1081q0 41 29 71t72 30q41 0 71.5 -30t30.5 -71q0 -43 -30.5 -72.5t-71.5 -29.5q-43 0 -72 29.5t-29 72.5zM418 1081q0 41 30.5 71t73.5 30q41 0 70 -30t29 -71q0 -43 -29 -72.5t-70 -29.5q-43 0 -73.5 29.5t-30.5 72.5z" />
<glyph unicode="&#xa9;" horiz-adv-x="1490" d="M471 750q0 -129 76 -208t211 -79q33 0 63.5 6t57 13t45 16.5t24.5 15.5l31 -108q-33 -20 -89 -41t-140 -21q-86 0 -159 28.5t-126 82t-84 127t-31 166.5q0 96 31 174.5t85 134t129 85t163 29.5q63 0 102 -4t62 -10l20 -223h-82l-26 115q-10 2 -39 3t-41 1 q-59 0 -110.5 -18.5t-89.5 -56.5t-60.5 -95t-22.5 -133zM84 762q0 137 49 257t137 210t209 142t266 52q143 0 265.5 -52t210.5 -142t137 -210t49 -257t-49 -257t-137 -210t-210 -142.5t-266 -52.5q-145 0 -266 52.5t-209 142.5t-137 210t-49 257zM203 762q0 -117 41 -217.5 t112.5 -172t172 -112.5t216.5 -41q117 0 217.5 41t172 112.5t112.5 172t41 217.5t-41 217t-112.5 172t-172 113t-217.5 41t-217 -41t-171.5 -113t-112.5 -172t-41 -217z" />
<glyph unicode="&#xaa;" horiz-adv-x="608" d="M471 1006q0 -27 16 -27q6 0 13.5 3t11.5 3l20 -63q-12 -10 -33.5 -21.5t-52.5 -11.5q-29 0 -44 9t-25 26q-47 -37 -119 -37q-31 0 -60.5 9t-54 27.5t-40 45t-15.5 63.5q0 53 26.5 87t66.5 52.5t88 25.5t93 9v45q0 8 -2 21.5t-10 26t-25.5 21.5t-45.5 9q-29 0 -50 -14 l-14 -60l-127 19q6 39 25.5 65.5t46 43t56.5 24.5t58 8q31 0 66 -8t63.5 -26.5t48 -50.5t19.5 -81v-243zM203 1034q0 -14 12 -37.5t57 -23.5q37 0 57.5 16.5t30.5 36.5l2 10v84q-31 0 -59.5 -4t-51 -13t-35.5 -25.5t-13 -43.5z" />
<glyph unicode="&#xab;" horiz-adv-x="929" d="M541 1049l-355 -357l355 -356l-84 -84l-437 438l437 443zM836 1006l-312 -314l312 -313l-84 -84l-394 395l394 400z" />
<glyph unicode="&#xac;" horiz-adv-x="1228" d="M952 854h-843v111l14 18h940l18 -16v-420q0 -14 -16 -15h-113v322z" />
<glyph unicode="&#xad;" horiz-adv-x="772" d="M672 537h-574v186h574v-186z" />
<glyph unicode="&#xae;" horiz-adv-x="1490" d="M84 762q0 137 49 257t137 210t209 142t266 52q143 0 265.5 -52t210.5 -142t137 -210t49 -257t-49 -257t-137 -210t-210 -142.5t-266 -52.5q-145 0 -266 52.5t-209 142.5t-137 210t-49 257zM203 762q0 -117 41 -217.5t112.5 -172t172 -112.5t216.5 -41q117 0 217.5 41 t172 112.5t112.5 172t41 217.5t-41 217t-112.5 172t-172 113t-217.5 41t-217 -41t-171.5 -113t-112.5 -172t-41 -217zM479 459l53 14v598l-53 6v105h187q186 0 274 -71t88 -193q0 -84 -47 -142.5t-127 -87.5l147 -219l70 -14v-90h-153l-181 297q-16 -2 -30 -3h-56v-184 l105 -20v-90h-269zM684 778q215 0 215 140q0 82 -59.5 114.5t-141.5 32.5h-47v-287h33z" />
<glyph unicode="&#xaf;" horiz-adv-x="747" d="M117 1290v111l14 18h485q14 0 15 -16v-113h-514z" />
<glyph unicode="&#xb0;" horiz-adv-x="540" d="M78 1290q0 92 47 152.5t145 60.5t145.5 -60.5t47.5 -152.5t-47 -153.5t-146 -61.5q-98 0 -145 61.5t-47 153.5zM186 1290q0 -43 20.5 -81t63.5 -38t64.5 38t21.5 81q0 39 -21.5 78t-64.5 39t-63.5 -39t-20.5 -78z" />
<glyph unicode="&#xb1;" horiz-adv-x="985" d="M555 1147v-227h283v-129h-283v-232h-113l-16 27v205h-283v98l27 31h256v227h129zM838 346h-695v119l17 24h678v-143z" />
<glyph unicode="&#xb2;" horiz-adv-x="542" d="M109 889l-7 57l52 46q37 34 74.5 77t66.5 90t29 90q0 70 -68 70q-16 0 -28.5 -3t-22.5 -7q-2 0 -4 -8.5t-19 -55.5l-96 29q20 78 75.5 109.5t114.5 31.5q61 0 108.5 -40t47.5 -115q0 -43 -15.5 -82t-38 -73t-47.5 -62l-46 -48l-21 -20h94l29 65h64l-23 -151h-319z" />
<glyph unicode="&#xb3;" horiz-adv-x="540" d="M139 1038q23 -20 50.5 -36.5t74.5 -16.5q49 0 68.5 21.5t19.5 42.5q0 20 -13 32.5t-32.5 18.5t-44 8t-49.5 2v90q113 0 113 66q0 18 -13.5 35.5t-50.5 17.5q-35 0 -49 -12l-25 -64l-100 31q18 61 65.5 101t120.5 40q27 0 55.5 -9t50 -27.5t36 -43t14.5 -55.5 q0 -39 -20.5 -74t-69.5 -43q55 -10 88 -39.5t33 -83.5q0 -76 -57.5 -113.5t-143.5 -37.5q-63 0 -107 21.5t-73 47.5z" />
<glyph unicode="&#xb4;" horiz-adv-x="571" d="M106 1198l213 285h56l90 -107l-287 -246z" />
<glyph unicode="&#xb5;" horiz-adv-x="1050" d="M618 850l-14 98l205 39l49 -59v-778q0 -27 15.5 -36.5t31.5 -9.5q12 0 22.5 3.5t14.5 3.5l16 -72q-12 -14 -41.5 -30.5t-72.5 -16.5q-84 0 -107 82q-41 -37 -98 -59.5t-133 -22.5q-102 0 -184 59q-2 -14 -3 -28v-31q0 -31 1.5 -59.5t1.5 -51.5v-442h-129v1411h-111 l-19 98l203 37l56 -65v-621q0 -68 26.5 -105.5t62 -56t69.5 -22.5t50 -4q53 0 111.5 24.5t87.5 69.5v645h-111z" />
<glyph unicode="&#x3bc;" horiz-adv-x="1050" d="M618 850l-14 98l205 39l49 -59v-778q0 -27 15.5 -36.5t31.5 -9.5q12 0 22.5 3.5t14.5 3.5l16 -72q-12 -14 -41.5 -30.5t-72.5 -16.5q-84 0 -107 82q-41 -37 -98 -59.5t-133 -22.5q-102 0 -184 59q-2 -14 -3 -28v-31q0 -31 1.5 -59.5t1.5 -51.5v-442h-129v1411h-111 l-19 98l203 37l56 -65v-621q0 -68 26.5 -105.5t62 -56t69.5 -22.5t50 -4q53 0 111.5 24.5t87.5 69.5v645h-111z" />
<glyph unicode="&#xb6;" horiz-adv-x="1071" d="M63 1024q0 66 24 135.5t76 125.5t138 93t211 37h434v-121h-86v-1294h-117v1294h-65v-1038q0 -37 -2 -62.5t-12 -35.5q-31 -35 -80 -85l-90 -89l-109 151l154 88v389q-111 2 -199 34t-149.5 86t-94.5 129t-33 163z" />
<glyph unicode="&#xb7;" horiz-adv-x="471" d="M129 817h195l18 -18v-277h-213v295z" />
<glyph unicode="&#xb8;" horiz-adv-x="815" d="M317 -217l-36 39l77 209h140l-45 -131q39 -4 76.5 -19.5t68.5 -43t50.5 -67.5t19.5 -94q0 -104 -71 -169.5t-214 -65.5q-76 0 -130 18l-106 37l89 168l151 -94q55 0 92 27.5t37 74.5q0 39 -40 75t-140 36h-19z" />
<glyph unicode="&#xb9;" horiz-adv-x="450" d="M104 958l78 17v325l-80 -12l-18 72l190 59l19 -10v-428l72 -18v-74h-254z" />
<glyph unicode="&#xba;" horiz-adv-x="606" d="M80 1153q0 68 17.5 118t48 81.5t70.5 48t85 16.5q94 0 159.5 -64.5t65.5 -199.5t-65.5 -200.5t-159.5 -65.5q-92 0 -156.5 65.5t-64.5 200.5zM195 1149q0 -72 27.5 -115t78.5 -43q55 0 83 43t28 115q0 70 -28 116t-83 46q-51 0 -78.5 -46t-27.5 -116z" />
<glyph unicode="&#xbb;" horiz-adv-x="931" d="M389 336l354 356l-354 357l84 84l436 -439l-436 -442zM94 379l312 313l-312 314l84 84l393 -396l-393 -399z" />
<glyph unicode="&#xbc;" horiz-adv-x="1224" d="M778 76l172 22v142h-301v131l301 399h109v-434h100v-96h-100v-144l74 -12v-84h-351zM260 -43h-98l-6 27l714 1431h107l-2 -29zM104 717l89 14v569l-103 -12l-16 72l211 59l18 -10v-672l72 -16v-76h-264zM950 336v278l-211 -278h211z" />
<glyph unicode="&#xbd;" horiz-adv-x="1280" d="M705 0l-11 63q14 16 49 48l78 71l89 88q46 47 85 95.5t63.5 96.5t24.5 89q0 47 -16 74.5t-38.5 42t-46.5 18.5t-38 4q-29 0 -53.5 -7t-38.5 -13l-59 -123l-111 69q37 63 105.5 111.5t160.5 48.5q102 0 172 -55t70 -170q0 -72 -40 -142.5t-94.5 -133t-108.5 -111.5 t-83 -78h228l38 104h78l-24 -190h-479zM102 717l88 14v569l-102 -12l-16 72l211 59l18 -10v-672l72 -16v-76h-264zM256 -43h-98l-6 27l714 1431h107l-2 -29z" />
<glyph unicode="&#xbe;" horiz-adv-x="1339" d="M893 76l172 22v142h-301v131l301 399h109v-434h100v-96h-100v-144l73 -12v-84h-350zM373 -43h-99l-8 27l717 1431h107l-5 -29zM127 776q31 -29 73 -48t95 -19q27 0 56.5 8t54 24.5t40 42t15.5 62.5q0 72 -58.5 108.5t-187.5 36.5v86q45 0 88 2t77 15.5t54.5 40t20.5 75.5 q0 29 -15.5 50.5t-37 36t-45 21.5t-42.5 7q-41 0 -63 -10l-35 -15l-55 -94l-90 58q12 25 32.5 50t51 46.5t72.5 36t98 14.5q43 0 84 -12.5t71.5 -38t50 -63t19.5 -89.5q0 -61 -37 -114.5t-108 -63.5q82 -12 119.5 -66.5t37.5 -111.5q0 -55 -23.5 -98t-62.5 -72t-87 -44 t-97 -15q-68 0 -124 17t-99 48zM1065 336v278l-211 -278h211z" />
<glyph unicode="&#xbf;" horiz-adv-x="784" d="M586 498q6 -23 6 -60q0 -76 -28.5 -126t-71.5 -89t-93.5 -70.5t-93.5 -69.5t-71.5 -88t-28.5 -124q0 -29 9 -59.5t32.5 -55t61.5 -41t98 -16.5q33 0 71.5 5t65.5 11l57 199h102l-38 -301q-25 -8 -58 -15.5t-69.5 -12.5t-72.5 -8t-65 -3q-180 0 -263 82t-83 207 q0 76 24.5 133t67.5 105.5t100 88.5l117 84q35 25 56.5 50.5t33 51t15.5 50.5t4 43q0 8 -1 14t-1 11zM621 881q0 -43 -31 -74t-76 -31q-43 0 -74.5 31t-31.5 74q0 47 31.5 77.5t74.5 30.5q45 0 76 -30.5t31 -77.5z" />
<glyph unicode="&#xc0;" horiz-adv-x="1167" d="M762 1468l-418 207l76 148l61 14l344 -272zM745 0v90l166 43l-108 361h-457l-106 -367l180 -35v-92h-397l-27 96l110 37l392 1282h172l393 -1282l96 -37l-22 -96h-392zM571 1262l-186 -639h379z" />
<glyph unicode="&#xc1;" horiz-adv-x="1167" d="M360 1565l324 272l61 -14l76 -148l-395 -207zM745 0v90l166 43l-108 361h-457l-106 -367l180 -35v-92h-397l-27 96l110 37l392 1282h172l393 -1282l96 -37l-22 -96h-392zM571 1262l-186 -639h379z" />
<glyph unicode="&#xc2;" horiz-adv-x="1167" d="M559 1810h33l287 -321h-150l-156 129l-153 -129h-152zM745 0v90l166 43l-108 361h-457l-106 -367l180 -35v-92h-397l-27 96l110 37l392 1282h172l393 -1282l96 -37l-22 -96h-392zM571 1262l-186 -639h379z" />
<glyph unicode="&#xc3;" horiz-adv-x="1167" d="M879 1712l75 -135q-16 -14 -36.5 -29.5t-44 -29t-47 -21.5t-44.5 -8q-47 0 -79.5 16.5t-63.5 36t-63.5 35.5t-77.5 16q-66 0 -98.5 -31.5t-55.5 -68.5l-76 63v33q6 12 21.5 35t43 45.5t68.5 38.5t101 16q76 0 130 -34l120 -80zM745 0v90l166 43l-108 361h-457l-106 -367 l180 -35v-92h-397l-27 96l110 37l392 1282h172l393 -1282l96 -37l-22 -96h-392zM571 1262l-186 -639h379z" />
<glyph unicode="&#xc4;" horiz-adv-x="1167" d="M745 0v90l166 43l-108 361h-457l-106 -367l180 -35v-92h-397l-27 96l110 37l392 1282h172l393 -1282l96 -37l-22 -96h-392zM571 1262l-186 -639h379zM260 1581q0 49 34 83t83 34q47 0 83 -34t36 -83t-36 -84t-83 -35q-49 0 -83 35t-34 84zM621 1581q0 49 35.5 83t86.5 34 q47 0 80 -34t33 -83t-32.5 -84t-80.5 -35q-51 0 -86.5 35t-35.5 84z" />
<glyph unicode="&#xc5;" horiz-adv-x="1161" d="M743 0v90l166 43l-108 361h-457l-106 -367l180 -35v-92h-398l-26 96l110 37l377 1239q-41 25 -65.5 69t-24.5 97q0 39 15.5 75t41 61.5t61.5 41t77 15.5q39 0 74.5 -15.5t61.5 -41t41 -61.5t15 -75q0 -55 -26.5 -99t-69.5 -71l379 -1235l96 -37l-22 -96h-392zM569 1262 l-186 -639h379zM508 1538q0 -35 21.5 -56.5t56.5 -21.5t55.5 21.5t20.5 56.5t-20.5 56.5t-55.5 21.5t-56.5 -21.5t-21.5 -56.5z" />
<glyph unicode="&#xc6;" horiz-adv-x="1474" d="M2 0l-27 96l109 37l485 1282h762l41 -350h-98l-70 211h-387v-531h291v-129h-291v-477h408l71 211h97l-39 -350h-758l-16 115l98 24v471h-277l-182 -483l176 -35v-92h-393zM678 1284l-23 2l-206 -547h229v545z" />
<glyph unicode="&#xc7;" horiz-adv-x="1144" d="M600 -184l-31 32l58 156q-125 23 -224.5 84.5t-170 153.5t-108.5 210.5t-38 256.5q0 143 50 272t140.5 225.5t216 152.5t279.5 56q66 0 123 -7t117 -19l37 -324h-117l-49 201q-16 2 -36 6t-71 4q-129 0 -229.5 -47t-171 -125t-107.5 -179.5t-37 -211.5q0 -121 36 -226.5 t105.5 -184.5t168 -125t225.5 -46q70 0 140.5 19.5t121.5 52.5l51 -125q-53 -37 -139 -61.5t-172 -24.5q-6 0 -12 1t-13 1l-24 -78q33 -4 66.5 -16.5t61 -37t44 -59t16.5 -82.5q0 -90 -61.5 -147t-188.5 -57q-57 0 -99 12t-81 29l-24 8l75 145l134 -82q49 0 80.5 24.5 t31.5 65.5q0 33 -34.5 65t-123.5 32h-16z" />
<glyph unicode="&#xc8;" horiz-adv-x="1071" d="M672 1468l-418 207l76 148l61 14l344 -272zM113 1294v121h815l41 -350h-99l-69 211h-430v-504h331v-129h-331v-504h450l72 211h96l-39 -350h-823l-14 115l116 24v1145z" />
<glyph unicode="&#xc9;" horiz-adv-x="1071" d="M354 1565l324 272l61 -14l76 -148l-395 -207zM113 1294v121h815l41 -350h-99l-69 211h-430v-504h331v-129h-331v-504h450l72 211h96l-39 -350h-823l-14 115l116 24v1145z" />
<glyph unicode="&#xca;" horiz-adv-x="1071" d="M514 1810h33l289 -321h-152l-156 129l-153 -129h-152zM113 1294v121h815l41 -350h-99l-69 211h-430v-504h331v-129h-331v-504h450l72 211h96l-39 -350h-823l-14 115l116 24v1145z" />
<glyph unicode="&#xcb;" horiz-adv-x="1071" d="M113 1294v121h815l41 -350h-99l-69 211h-430v-504h331v-129h-331v-504h450l72 211h96l-39 -350h-823l-14 115l116 24v1145zM244 1624q0 49 33.5 83t82.5 34q47 0 83 -34t36 -83t-35.5 -84t-83.5 -35q-49 0 -82.5 35t-33.5 84zM604 1624q0 49 36 83t87 34q47 0 80 -34 t33 -83t-33 -84t-80 -35q-51 0 -87 35t-36 84z" />
<glyph unicode="&#xcc;" horiz-adv-x="600" d="M498 1468l-416 207l74 148l63 14l344 -272zM229 131v1153l-116 8v123h360l8 -115l-110 -16v-1153l116 -8v-123h-360l-8 115z" />
<glyph unicode="&#xcd;" horiz-adv-x="600" d="M76 1565l321 272l64 -14l74 -148l-396 -207zM229 131v1153l-116 8v123h360l8 -115l-110 -16v-1153l116 -8v-123h-360l-8 115z" />
<glyph unicode="&#xce;" horiz-adv-x="600" d="M289 1810h33l286 -321h-149l-156 129l-153 -129h-152zM229 131v1153l-116 8v123h360l8 -115l-110 -16v-1153l116 -8v-123h-360l-8 115z" />
<glyph unicode="&#xcf;" horiz-adv-x="600" d="M41 1624q0 47 32.5 82t82.5 35q49 0 83.5 -35t34.5 -82q0 -49 -34.5 -84t-83.5 -35t-82 35t-33 84zM338 1624q0 47 35 82t84 35t81.5 -35t32.5 -82q0 -49 -32.5 -84t-81.5 -35t-84 35t-35 84zM229 131v1153l-116 8v123h360l8 -115l-110 -16v-1153l116 -8v-123h-360 l-8 115z" />
<glyph unicode="&#xd0;" horiz-adv-x="1241" d="M115 115l116 26v502h-184v113l14 16h170v512l-116 10v121h293q158 0 294 -42t235 -129t156.5 -219t57.5 -310q0 -182 -50 -316.5t-144.5 -223.5t-226.5 -132t-296 -43h-305zM1006 713q0 125 -39 228t-113 178t-181.5 116t-244.5 41h-55v-504h344q14 0 14 -14v-115h-358 v-504h90q162 0 266.5 50.5t165.5 131t86 184.5t25 208z" />
<glyph unicode="&#xd1;" horiz-adv-x="1349" d="M956 1712l76 -135q-16 -14 -36.5 -29.5t-44 -29t-47 -21.5t-44.5 -8q-47 0 -79.5 16.5t-63.5 36t-63.5 35.5t-78.5 16q-66 0 -98.5 -31.5t-54.5 -68.5l-76 63v33q6 12 21.5 35t43 45.5t68.5 38.5t101 16q76 0 130 -34l119 -80zM356 1288v-1153l138 -20v-115h-367l-16 115 l118 24v1145l-118 10v121h342l553 -1261v1126l-132 20v115h365l21 -115l-125 -24v-1276h-215z" />
<glyph unicode="&#xd2;" horiz-adv-x="1320" d="M850 1468l-416 207l74 148l63 14l344 -272zM662 -8q-145 0 -251 62.5t-174.5 163.5t-101.5 228t-33 256t33 256t101.5 228.5t174 165t251.5 63.5q145 0 250.5 -63.5t173 -165t100.5 -228.5t33 -256t-33 -256t-100.5 -228t-173 -163.5t-250.5 -62.5zM248 698 q0 -104 22.5 -205.5t71.5 -182.5t128 -130t192 -49t190.5 49t126.5 130t71.5 182.5t22.5 205.5t-22.5 208t-71.5 186t-127 133t-190 51q-113 0 -192 -51t-128 -133t-71.5 -186t-22.5 -208z" />
<glyph unicode="&#xd3;" horiz-adv-x="1320" d="M426 1565l324 272l61 -14l76 -148l-395 -207zM662 -8q-145 0 -251 62.5t-174.5 163.5t-101.5 228t-33 256t33 256t101.5 228.5t174 165t251.5 63.5q145 0 250.5 -63.5t173 -165t100.5 -228.5t33 -256t-33 -256t-100.5 -228t-173 -163.5t-250.5 -62.5zM248 698 q0 -104 22.5 -205.5t71.5 -182.5t128 -130t192 -49t190.5 49t126.5 130t71.5 182.5t22.5 205.5t-22.5 208t-71.5 186t-127 133t-190 51q-113 0 -192 -51t-128 -133t-71.5 -186t-22.5 -208z" />
<glyph unicode="&#xd4;" horiz-adv-x="1320" d="M629 1810h33l288 -321h-151l-156 129l-154 -129h-151zM662 -8q-145 0 -251 62.5t-174.5 163.5t-101.5 228t-33 256t33 256t101.5 228.5t174 165t251.5 63.5q145 0 250.5 -63.5t173 -165t100.5 -228.5t33 -256t-33 -256t-100.5 -228t-173 -163.5t-250.5 -62.5zM248 698 q0 -104 22.5 -205.5t71.5 -182.5t128 -130t192 -49t190.5 49t126.5 130t71.5 182.5t22.5 205.5t-22.5 208t-71.5 186t-127 133t-190 51q-113 0 -192 -51t-128 -133t-71.5 -186t-22.5 -208z" />
<glyph unicode="&#xd5;" horiz-adv-x="1320" d="M946 1712l76 -135q-16 -14 -36.5 -29.5t-44 -29t-47.5 -21.5t-44 -8q-47 0 -80 16.5t-63.5 36t-63.5 35.5t-78 16q-66 0 -98.5 -31.5t-54.5 -68.5l-76 63v33q6 12 21.5 35t43 45.5t68.5 38.5t100 16q76 0 130 -34l120 -80zM662 -8q-145 0 -251 62.5t-174.5 163.5 t-101.5 228t-33 256t33 256t101.5 228.5t174 165t251.5 63.5q145 0 250.5 -63.5t173 -165t100.5 -228.5t33 -256t-33 -256t-100.5 -228t-173 -163.5t-250.5 -62.5zM248 698q0 -104 22.5 -205.5t71.5 -182.5t128 -130t192 -49t190.5 49t126.5 130t71.5 182.5t22.5 205.5 t-22.5 208t-71.5 186t-127 133t-190 51q-113 0 -192 -51t-128 -133t-71.5 -186t-22.5 -208z" />
<glyph unicode="&#xd6;" horiz-adv-x="1320" d="M662 -8q-145 0 -251 62.5t-174.5 163.5t-101.5 228t-33 256t33 256t101.5 228.5t174 165t251.5 63.5q145 0 250.5 -63.5t173 -165t100.5 -228.5t33 -256t-33 -256t-100.5 -228t-173 -163.5t-250.5 -62.5zM248 698q0 -104 22.5 -205.5t71.5 -182.5t128 -130t192 -49 t190.5 49t126.5 130t71.5 182.5t22.5 205.5t-22.5 208t-71.5 186t-127 133t-190 51q-113 0 -192 -51t-128 -133t-71.5 -186t-22.5 -208zM383 1624q0 49 34 83t83 34q47 0 82.5 -34t35.5 -83t-35.5 -84t-82.5 -35q-49 0 -83 35t-34 84zM743 1624q0 49 36 83t87 34 q47 0 80 -34t33 -83t-33 -84t-80 -35q-51 0 -87 35t-36 84z" />
<glyph unicode="&#xd7;" horiz-adv-x="1050" d="M111 381l323 315l-313 324l90 90l315 -326l324 316l90 -92l-324 -316l314 -321l-90 -92l-316 325l-323 -313z" />
<glyph unicode="&#xd8;" horiz-adv-x="1320" d="M662 -8q-152 0 -267 69l-71 -147h-131l-7 27l103 209q-96 104 -141.5 252.5t-45.5 299.5q0 129 33 256t101.5 228.5t174 165t251.5 63.5q66 0 121 -13t104 -38l80 162h137l-2 -29l-103 -209q113 -104 166.5 -262t53.5 -324q0 -129 -33 -256t-100.5 -228t-173 -163.5 t-250.5 -62.5zM662 131q113 0 190.5 49t126.5 130t71.5 182.5t22.5 205.5q0 127 -32.5 249t-106.5 208l-475 -967q41 -29 91.5 -43t111.5 -14zM248 698q0 -113 25.5 -220t82.5 -191l469 952q-35 16 -75.5 26.5t-87.5 10.5q-113 0 -192 -51t-128 -133t-71.5 -186t-22.5 -208z " />
<glyph unicode="&#xd9;" horiz-adv-x="1286" d="M803 1468l-416 207l74 148l63 14l344 -272zM854 1292v123h348l8 -115l-112 -16v-870q0 -100 -36 -179t-97.5 -132.5t-145.5 -82t-178 -28.5q-96 0 -178 29.5t-141.5 85t-92 133t-32.5 174.5v870l-119 8v123h362l9 -115l-113 -16v-848q0 -147 84 -227t233 -80 q63 0 120.5 16.5t102 53.5t70 95t25.5 142v848z" />
<glyph unicode="&#xda;" horiz-adv-x="1286" d="M449 1565l323 272l62 -14l75 -148l-395 -207zM854 1292v123h348l8 -115l-112 -16v-870q0 -100 -36 -179t-97.5 -132.5t-145.5 -82t-178 -28.5q-96 0 -178 29.5t-141.5 85t-92 133t-32.5 174.5v870l-119 8v123h362l9 -115l-113 -16v-848q0 -147 84 -227t233 -80 q63 0 120.5 16.5t102 53.5t70 95t25.5 142v848z" />
<glyph unicode="&#xdb;" horiz-adv-x="1286" d="M621 1810h32l289 -321h-151l-156 129l-154 -129h-151zM854 1292v123h348l8 -115l-112 -16v-870q0 -100 -36 -179t-97.5 -132.5t-145.5 -82t-178 -28.5q-96 0 -178 29.5t-141.5 85t-92 133t-32.5 174.5v870l-119 8v123h362l9 -115l-113 -16v-848q0 -147 84 -227t233 -80 q63 0 120.5 16.5t102 53.5t70 95t25.5 142v848z" />
<glyph unicode="&#xdc;" horiz-adv-x="1286" d="M854 1292v123h348l8 -115l-112 -16v-870q0 -100 -36 -179t-97.5 -132.5t-145.5 -82t-178 -28.5q-96 0 -178 29.5t-141.5 85t-92 133t-32.5 174.5v870l-119 8v123h362l9 -115l-113 -16v-848q0 -147 84 -227t233 -80q63 0 120.5 16.5t102 53.5t70 95t25.5 142v848z M336 1624q0 49 33.5 83t83.5 34q47 0 82.5 -34t35.5 -83t-35.5 -84t-82.5 -35q-49 0 -83 35t-34 84zM696 1624q0 49 36 83t87 34q47 0 80 -34t33 -83t-33 -84t-80 -35q-51 0 -87 35t-36 84z" />
<glyph unicode="&#xdd;" horiz-adv-x="1103" d="M344 1565l324 272l61 -14l76 -148l-395 -207zM387 1415v-108l-129 -21l311 -610l287 612l-125 17v110h352v-123l-88 -20l-370 -774v-355l235 -37l-18 -106h-574l-20 106l237 37v383l-383 748l-88 18v123h373z" />
<glyph unicode="&#xde;" horiz-adv-x="1024" d="M229 131v1153l-116 8v123h362l8 -115l-112 -16v-135h88q102 0 195.5 -19.5t164 -64.5t112.5 -120t42 -185q0 -111 -43 -187.5t-115 -125t-166 -69t-196 -20.5h-82v-227l225 -27v-104h-467l-10 115zM444 500q80 0 149 11t120 41t80.5 79t29.5 127q0 76 -28.5 125 t-79.5 76.5t-120 38t-149 10.5h-75v-508h73z" />
<glyph unicode="&#xdf;" horiz-adv-x="1046" d="M438 178l80 -33q31 -12 60.5 -22t39.5 -14q113 0 174.5 67.5t61.5 163.5q0 92 -52 148.5t-157 109.5q-92 47 -140 95t-48 120q0 59 28.5 101t64.5 82t64.5 87t28.5 117q0 33 -11 63.5t-32.5 55t-52.5 39t-72 14.5q-53 0 -86 -20.5t-51.5 -52t-24.5 -72.5t-6 -82v-1145 h-235v90l106 23v1030q0 88 22.5 153.5t62.5 108.5t94.5 63.5t117.5 20.5q133 0 218 -76t85 -215q0 -78 -31.5 -136t-69.5 -102.5t-70 -76t-32 -54.5q0 -16 4.5 -31.5t16.5 -29.5t35.5 -29.5t64.5 -33.5q82 -37 138.5 -73t91.5 -79t49 -94t14 -119q0 -86 -35.5 -150.5 t-91 -108.5t-121 -66.5t-123.5 -22.5q-63 0 -123.5 16.5t-105.5 32.5z" />
<glyph unicode="&#xe0;" d="M750 162q0 -23 9 -41.5t38 -18.5q10 0 21 3.5t22 7.5l22 -78q-23 -23 -52.5 -33t-59.5 -10q-55 0 -82 25.5t-37 64.5q-47 -43 -107.5 -66.5t-134.5 -23.5q-61 0 -116.5 18.5t-97.5 53t-66.5 85t-24.5 113.5q0 104 56.5 168t138 98.5t175 47t167.5 14.5v131 q0 66 -49.5 104.5t-131.5 38.5q-31 0 -72.5 -5t-68.5 -21l-33 -109l-168 31q18 57 52 98t78 68.5t95.5 41t104.5 13.5q170 0 246 -79t76 -212v-528zM219 268q0 -72 49 -115.5t135 -43.5q63 0 123 29.5t95 82.5v254q-53 0 -122 -7t-131.5 -28.5t-105.5 -62.5t-43 -109z M553 1135l-287 245l90 109h54l213 -287z" />
<glyph unicode="&#xe1;" d="M750 162q0 -23 9 -41.5t38 -18.5q10 0 21 3.5t22 7.5l22 -78q-23 -23 -52.5 -33t-59.5 -10q-55 0 -82 25.5t-37 64.5q-47 -43 -107.5 -66.5t-134.5 -23.5q-61 0 -116.5 18.5t-97.5 53t-66.5 85t-24.5 113.5q0 104 56.5 168t138 98.5t175 47t167.5 14.5v131 q0 66 -49.5 104.5t-131.5 38.5q-31 0 -72.5 -5t-68.5 -21l-33 -109l-168 31q18 57 52 98t78 68.5t95.5 41t104.5 13.5q170 0 246 -79t76 -212v-528zM219 268q0 -72 49 -115.5t135 -43.5q63 0 123 29.5t95 82.5v254q-53 0 -122 -7t-131.5 -28.5t-105.5 -62.5t-43 -109z M305 1200l213 285h55l91 -107l-287 -245z" />
<glyph unicode="&#xe2;" d="M178 1122l238 293h33l237 -289l-6 -12h-113l-135 119l-135 -119h-111zM750 162q0 -23 9 -41.5t38 -18.5q10 0 21 3.5t22 7.5l22 -78q-23 -23 -52.5 -33t-59.5 -10q-55 0 -82 25.5t-37 64.5q-47 -43 -107.5 -66.5t-134.5 -23.5q-61 0 -116.5 18.5t-97.5 53t-66.5 85 t-24.5 113.5q0 104 56.5 168t138 98.5t175 47t167.5 14.5v131q0 66 -49.5 104.5t-131.5 38.5q-31 0 -72.5 -5t-68.5 -21l-33 -109l-168 31q18 57 52 98t78 68.5t95.5 41t104.5 13.5q170 0 246 -79t76 -212v-528zM219 268q0 -72 49 -115.5t135 -43.5q63 0 123 29.5t95 82.5 v254q-53 0 -122 -7t-131.5 -28.5t-105.5 -62.5t-43 -109z" />
<glyph unicode="&#xe3;" d="M672 1358l76 -127q-41 -35 -78 -56.5t-92 -21.5q-37 0 -66 12.5t-54 25.5l-50 26q-25 12 -54 12q-47 -4 -74.5 -28.5t-43.5 -65.5l-89 53l3 35q29 49 72.5 92t117.5 43q31 0 59.5 -10.5t56.5 -23.5l55 -28q28 -14 52 -22zM750 162q0 -23 9 -41.5t38 -18.5q10 0 21 3.5 t22 7.5l22 -78q-23 -23 -52.5 -33t-59.5 -10q-55 0 -82 25.5t-37 64.5q-47 -43 -107.5 -66.5t-134.5 -23.5q-61 0 -116.5 18.5t-97.5 53t-66.5 85t-24.5 113.5q0 104 56.5 168t138 98.5t175 47t167.5 14.5v131q0 66 -49.5 104.5t-131.5 38.5q-31 0 -72.5 -5t-68.5 -21 l-33 -109l-168 31q18 57 52 98t78 68.5t95.5 41t104.5 13.5q170 0 246 -79t76 -212v-528zM219 268q0 -72 49 -115.5t135 -43.5q63 0 123 29.5t95 82.5v254q-53 0 -122 -7t-131.5 -28.5t-105.5 -62.5t-43 -109z" />
<glyph unicode="&#xe4;" d="M182 1268q0 41 29 70.5t72 29.5q39 0 68.5 -29.5t29.5 -70.5q0 -39 -29.5 -70t-68.5 -31q-43 0 -72 31t-29 70zM469 1268q0 41 27.5 70.5t70.5 29.5q39 0 68 -29.5t29 -70.5q0 -39 -29 -70t-68 -31q-43 0 -70.5 31t-27.5 70zM750 162q0 -23 9 -41.5t38 -18.5q10 0 21 3.5 t22 7.5l22 -78q-23 -23 -52.5 -33t-59.5 -10q-55 0 -82 25.5t-37 64.5q-47 -43 -107.5 -66.5t-134.5 -23.5q-61 0 -116.5 18.5t-97.5 53t-66.5 85t-24.5 113.5q0 104 56.5 168t138 98.5t175 47t167.5 14.5v131q0 66 -49.5 104.5t-131.5 38.5q-31 0 -72.5 -5t-68.5 -21 l-33 -109l-168 31q18 57 52 98t78 68.5t95.5 41t104.5 13.5q170 0 246 -79t76 -212v-528zM219 268q0 -72 49 -115.5t135 -43.5q63 0 123 29.5t95 82.5v254q-53 0 -122 -7t-131.5 -28.5t-105.5 -62.5t-43 -109z" />
<glyph unicode="&#xe5;" d="M254 1231q0 78 53 131t131 53t131.5 -53t53.5 -131q0 -80 -53.5 -133.5t-131.5 -53.5t-131 53.5t-53 133.5zM360 1231q0 -37 21.5 -57.5t56.5 -20.5t56.5 20.5t21.5 57.5q0 35 -21.5 55.5t-56.5 20.5t-56.5 -20.5t-21.5 -55.5zM750 162q0 -23 9 -41.5t38 -18.5 q10 0 21 3.5t22 7.5l22 -78q-23 -23 -52.5 -33t-59.5 -10q-55 0 -82 25.5t-37 64.5q-47 -43 -107.5 -66.5t-134.5 -23.5q-61 0 -116.5 18.5t-97.5 53t-66.5 85t-24.5 113.5q0 104 56.5 168t138 98.5t175 47t167.5 14.5v131q0 66 -49.5 104.5t-131.5 38.5q-31 0 -72.5 -5 t-68.5 -21l-33 -109l-168 31q18 57 52 98t78 68.5t95.5 41t104.5 13.5q170 0 246 -79t76 -212v-528zM219 268q0 -72 49 -115.5t135 -43.5q63 0 123 29.5t95 82.5v254q-53 0 -122 -7t-131.5 -28.5t-105.5 -62.5t-43 -109z" />
<glyph unicode="&#xe6;" horiz-adv-x="1429" d="M621 721q0 16 -11.5 40.5t-35 47t-61.5 39t-91 16.5q-35 0 -71 -6t-52 -20l-33 -109l-168 31q8 55 41 96t79 68.5t100.5 42t105.5 14.5q90 0 174 -35t125 -129q59 80 144 124t180 44q141 0 227 -67.5t86 -196.5q0 -102 -50 -161.5t-128 -88.5t-171 -36t-180 -7h-75 q6 -94 38.5 -154.5t78 -96.5t96.5 -49t96 -13q66 0 117 21.5t82 49.5l36 -112q-47 -37 -106 -57.5t-162 -20.5q-90 0 -177 40t-146 126q-4 -10 -10.5 -17.5t-10.5 -15.5q-16 -18 -39.5 -42t-58.5 -45.5t-82 -35.5t-107 -14q-78 0 -137 22.5t-99 59.5t-60.5 83t-20.5 95 q0 98 43 156.5t112.5 89t156.5 40t175 9.5h50v174zM874 545q57 0 119 6t113 23.5t85 49t34 85.5q0 78 -56.5 117.5t-128.5 39.5q-49 0 -95 -19.5t-85 -58t-65.5 -99t-34.5 -142.5q23 0 51 -1t63 -1zM219 272q0 -74 53.5 -117.5t128.5 -43.5q84 0 140.5 35.5t79.5 72.5v213 h-68q-59 0 -119.5 -4t-107.5 -20.5t-77 -48.5t-30 -87z" />
<glyph unicode="&#xe7;" horiz-adv-x="831" d="M446 -150l-26 27l41 117q-98 8 -168 51t-116 108.5t-67.5 149.5t-21.5 174q0 98 23.5 189.5t75 161t131 111.5t192.5 42q92 0 163.5 -23.5t110.5 -52.5l-90 -141l-121 96q-16 4 -38 4h-35q-84 0 -137.5 -34.5t-84 -90t-43 -125t-12.5 -139.5q0 -68 14.5 -134.5 t49.5 -117.5t93 -82.5t148 -31.5q59 0 109.5 13t99.5 42l35 -101q-43 -33 -96 -49t-111 -20l-20 -60q29 -2 56.5 -13t50 -30.5t36.5 -50t14 -69.5q0 -74 -52 -123t-156 -49q-55 0 -95.5 13t-76.5 28l63 122l113 -69q41 0 67.5 20.5t26.5 55.5q0 29 -30 55t-103 26h-13z" />
<glyph unicode="&#xe8;" horiz-adv-x="907" d="M541 106q66 0 129 19.5t110 54.5l35 -110q-59 -43 -134 -60.5t-151 -17.5q-113 0 -195.5 38t-138 103.5t-83 153.5t-27.5 188q0 104 28.5 196.5t84 161t135.5 108.5t182 40q61 0 117.5 -18.5t97.5 -52t65.5 -84t24.5 -113.5q0 -111 -56 -176.5t-144.5 -100.5t-192.5 -46 t-201 -11q20 -119 95.5 -196t218.5 -77zM256 500q57 0 132 4t140.5 25.5t111.5 63.5t46 120q0 41 -15.5 69.5t-40 47t-55 26.5t-61.5 8q-72 0 -125 -29.5t-89 -79.5t-56.5 -116t-22.5 -139h35zM551 1133l-287 245l90 109h54l213 -287z" />
<glyph unicode="&#xe9;" horiz-adv-x="907" d="M541 106q66 0 129 19.5t110 54.5l35 -110q-59 -43 -134 -60.5t-151 -17.5q-113 0 -195.5 38t-138 103.5t-83 153.5t-27.5 188q0 104 28.5 196.5t84 161t135.5 108.5t182 40q61 0 117.5 -18.5t97.5 -52t65.5 -84t24.5 -113.5q0 -111 -56 -176.5t-144.5 -100.5t-192.5 -46 t-201 -11q20 -119 95.5 -196t218.5 -77zM256 500q57 0 132 4t140.5 25.5t111.5 63.5t46 120q0 41 -15.5 69.5t-40 47t-55 26.5t-61.5 8q-72 0 -125 -29.5t-89 -79.5t-56.5 -116t-22.5 -139h35zM362 1200l213 285h56l90 -107l-287 -245z" />
<glyph unicode="&#xea;" horiz-adv-x="907" d="M246 1122l237 293h33l238 -289l-6 -12h-113l-135 119l-135 -119h-111zM541 106q66 0 129 19.5t110 54.5l35 -110q-59 -43 -134 -60.5t-151 -17.5q-113 0 -195.5 38t-138 103.5t-83 153.5t-27.5 188q0 104 28.5 196.5t84 161t135.5 108.5t182 40q61 0 117.5 -18.5 t97.5 -52t65.5 -84t24.5 -113.5q0 -111 -56 -176.5t-144.5 -100.5t-192.5 -46t-201 -11q20 -119 95.5 -196t218.5 -77zM256 500q57 0 132 4t140.5 25.5t111.5 63.5t46 120q0 41 -15.5 69.5t-40 47t-55 26.5t-61.5 8q-72 0 -125 -29.5t-89 -79.5t-56.5 -116t-22.5 -139h35z " />
<glyph unicode="&#xeb;" horiz-adv-x="907" d="M250 1268q0 41 28.5 70.5t71.5 29.5q39 0 69 -29.5t30 -70.5q0 -39 -30 -70t-69 -31q-43 0 -71.5 31t-28.5 70zM537 1268q0 41 27.5 70.5t70.5 29.5q39 0 67.5 -29.5t28.5 -70.5q0 -39 -28.5 -70t-67.5 -31q-43 0 -70.5 31t-27.5 70zM541 106q66 0 129 19.5t110 54.5 l35 -110q-59 -43 -134 -60.5t-151 -17.5q-113 0 -195.5 38t-138 103.5t-83 153.5t-27.5 188q0 104 28.5 196.5t84 161t135.5 108.5t182 40q61 0 117.5 -18.5t97.5 -52t65.5 -84t24.5 -113.5q0 -111 -56 -176.5t-144.5 -100.5t-192.5 -46t-201 -11q20 -119 95.5 -196 t218.5 -77zM256 500q57 0 132 4t140.5 25.5t111.5 63.5t46 120q0 41 -15.5 69.5t-40 47t-55 26.5t-61.5 8q-72 0 -125 -29.5t-89 -79.5t-56.5 -116t-22.5 -139h35z" />
<glyph unicode="&#xec;" horiz-adv-x="509" d="M328 924v-803l125 -31v-90h-359l-18 88l123 31v733l-111 -8l-18 104l202 37zM356 1135l-286 245l90 109h53l213 -287z" />
<glyph unicode="&#xed;" horiz-adv-x="509" d="M328 924v-803l125 -31v-90h-359l-18 88l123 31v733l-111 -8l-18 104l202 37zM80 1198l213 285h55l90 -107l-286 -246z" />
<glyph unicode="&#xee;" horiz-adv-x="509" d="M-23 1122l238 293h33l237 -289l-8 -12h-110l-136 119l-137 -119h-108zM328 924v-803l125 -31v-90h-359l-18 88l123 31v733l-111 -8l-18 104l202 37z" />
<glyph unicode="&#xef;" horiz-adv-x="509" d="M6 1268q0 41 28.5 70.5t71.5 29.5q39 0 68 -29.5t29 -70.5q0 -39 -29 -70t-68 -31q-43 0 -71.5 31t-28.5 70zM270 1268q0 41 28 70.5t71 29.5q39 0 67.5 -29.5t28.5 -70.5q0 -39 -28.5 -70t-67.5 -31q-43 0 -71 31t-28 70zM328 924v-803l125 -31v-90h-359l-18 88l123 31 v733l-111 -8l-18 104l202 37z" />
<glyph unicode="&#xf0;" horiz-adv-x="1046" d="M346 1081l217 125q-55 55 -116.5 99.5t-120.5 76.5l59 109q72 -35 147.5 -89t145.5 -128l244 143l67 -121l-231 -120q80 -111 131 -251.5t51 -314.5q0 -98 -17.5 -206.5t-63.5 -200.5t-128 -151.5t-213 -59.5q-109 0 -188.5 38t-134 103.5t-81 152.5t-26.5 187t28.5 185 t81 147.5t125 97.5t162.5 35q102 0 172 -27.5t117 -68.5q-20 78 -53 145.5t-78 126.5l-240 -127zM494 821q-66 0 -115 -26.5t-83 -73.5t-51.5 -111.5t-17.5 -138.5q0 -102 26 -171t65.5 -112t91 -61t100.5 -18q90 0 145.5 43t86 109.5t43 146t14.5 155.5q-6 66 -36 114 t-73 81t-95 48t-101 15z" />
<glyph unicode="&#xf1;" horiz-adv-x="1034" d="M760 1358l76 -127q-41 -35 -78 -56.5t-92 -21.5q-37 0 -66 12.5t-54 25.5l-50 26q-25 12 -54 12q-47 -4 -74.5 -28.5t-43.5 -65.5l-88 53l2 35q29 49 72.5 92t117.5 43q31 0 59.5 -10.5t56.5 -23.5l55 -28q28 -14 52 -22zM862 119l125 -29v-90h-369l-8 90l123 29v551 q0 195 -174 194q-63 0 -125.5 -22.5t-109.5 -63.5v-657l125 -31v-90h-355l-12 88l113 31v741l-111 -8l-18 96l206 37l45 -84q115 80 252 80q141 0 217 -75t76 -222v-565z" />
<glyph unicode="&#xf2;" horiz-adv-x="1001" d="M86 492q0 98 26.5 188t79 157.5t129 107.5t179.5 40q109 0 187.5 -41t128.5 -110.5t74.5 -158.5t24.5 -183q0 -96 -24.5 -185.5t-74.5 -160t-129 -112.5t-187 -42q-106 0 -184 43t-129.5 112.5t-76 160t-24.5 184.5zM221 467q0 -66 15.5 -129.5t49 -113.5t87 -81.5 t127.5 -31.5q78 0 132 32.5t87 86t47 120t14 131.5q0 63 -14 132t-48 125.5t-87 92t-131 35.5q-80 0 -133.5 -41t-85 -100t-46 -130t-14.5 -128zM649 1133l-287 245l91 109h53l213 -287z" />
<glyph unicode="&#xf3;" horiz-adv-x="1001" d="M86 492q0 98 26.5 188t79 157.5t129 107.5t179.5 40q109 0 187.5 -41t128.5 -110.5t74.5 -158.5t24.5 -183q0 -96 -24.5 -185.5t-74.5 -160t-129 -112.5t-187 -42q-106 0 -184 43t-129.5 112.5t-76 160t-24.5 184.5zM221 467q0 -66 15.5 -129.5t49 -113.5t87 -81.5 t127.5 -31.5q78 0 132 32.5t87 86t47 120t14 131.5q0 63 -14 132t-48 125.5t-87 92t-131 35.5q-80 0 -133.5 -41t-85 -100t-46 -130t-14.5 -128zM348 1200l213 285h55l91 -107l-287 -245z" />
<glyph unicode="&#xf4;" horiz-adv-x="1001" d="M250 1122l237 293h33l236 -289l-6 -12h-111l-137 119l-135 -119h-109zM86 492q0 98 26.5 188t79 157.5t129 107.5t179.5 40q109 0 187.5 -41t128.5 -110.5t74.5 -158.5t24.5 -183q0 -96 -24.5 -185.5t-74.5 -160t-129 -112.5t-187 -42q-106 0 -184 43t-129.5 112.5 t-76 160t-24.5 184.5zM221 467q0 -66 15.5 -129.5t49 -113.5t87 -81.5t127.5 -31.5q78 0 132 32.5t87 86t47 120t14 131.5q0 63 -14 132t-48 125.5t-87 92t-131 35.5q-80 0 -133.5 -41t-85 -100t-46 -130t-14.5 -128z" />
<glyph unicode="&#xf5;" horiz-adv-x="1001" d="M717 1358l76 -127q-41 -35 -78 -56.5t-92 -21.5q-37 0 -66 12.5t-54 25.5l-50 26q-25 12 -54 12q-47 -4 -74.5 -28.5t-43.5 -65.5l-88 53l2 35q29 49 72.5 92t117.5 43q31 0 59.5 -10.5t56.5 -23.5l55 -28q28 -14 52 -22zM86 492q0 98 26.5 188t79 157.5t129 107.5 t179.5 40q109 0 187.5 -41t128.5 -110.5t74.5 -158.5t24.5 -183q0 -96 -24.5 -185.5t-74.5 -160t-129 -112.5t-187 -42q-106 0 -184 43t-129.5 112.5t-76 160t-24.5 184.5zM221 467q0 -66 15.5 -129.5t49 -113.5t87 -81.5t127.5 -31.5q78 0 132 32.5t87 86t47 120t14 131.5 q0 63 -14 132t-48 125.5t-87 92t-131 35.5q-80 0 -133.5 -41t-85 -100t-46 -130t-14.5 -128z" />
<glyph unicode="&#xf6;" horiz-adv-x="1001" d="M270 1268q0 41 29 70.5t72 29.5q39 0 68.5 -29.5t29.5 -70.5q0 -39 -29.5 -70t-68.5 -31q-43 0 -72 31t-29 70zM557 1268q0 41 27.5 70.5t70.5 29.5q39 0 68 -29.5t29 -70.5q0 -39 -29 -70t-68 -31q-43 0 -70.5 31t-27.5 70zM86 492q0 98 26.5 188t79 157.5t129 107.5 t179.5 40q109 0 187.5 -41t128.5 -110.5t74.5 -158.5t24.5 -183q0 -96 -24.5 -185.5t-74.5 -160t-129 -112.5t-187 -42q-106 0 -184 43t-129.5 112.5t-76 160t-24.5 184.5zM221 467q0 -66 15.5 -129.5t49 -113.5t87 -81.5t127.5 -31.5q78 0 132 32.5t87 86t47 120t14 131.5 q0 63 -14 132t-48 125.5t-87 92t-131 35.5q-80 0 -133.5 -41t-85 -100t-46 -130t-14.5 -128z" />
<glyph unicode="&#xf7;" horiz-adv-x="847" d="M115 737h618v-129h-618v129zM322 373q0 43 31.5 74.5t76.5 31.5q43 0 74 -31.5t31 -74.5q0 -45 -31 -76t-74 -31q-45 0 -76.5 31t-31.5 76zM322 967q0 43 31.5 74.5t76.5 31.5q43 0 74 -31.5t31 -74.5q0 -45 -31 -76t-74 -31q-45 0 -76.5 31t-31.5 76z" />
<glyph unicode="&#xf8;" horiz-adv-x="1001" d="M227 -184h-98l-6 26l121 242q-82 72 -120 180.5t-38 227.5q0 98 26.5 188t79 157.5t129 107.5t179.5 40q51 0 94 -10t82 -27l141 285h105l-2 -31l-156 -311q78 -70 114.5 -176.5t36.5 -222.5q0 -96 -24.5 -185.5t-74.5 -160t-129 -112.5t-187 -42q-90 0 -168 33zM221 467 q0 -72 19.5 -141.5t62.5 -122.5l315 633q-25 14 -54 22t-64 8q-80 0 -133.5 -41t-85 -100t-46 -130t-14.5 -128zM500 111q78 0 132 32.5t87 86t47 120t14 131.5q0 72 -19.5 148t-60.5 135l-313 -629q50 -24 113 -24z" />
<glyph unicode="&#xf9;" horiz-adv-x="1003" d="M594 850l-14 98l204 39l50 -59v-778q0 -27 14 -36.5t33 -9.5q12 0 22 3.5t15 3.5l16 -72q-12 -14 -43 -30.5t-74 -16.5q-82 0 -104 84q-47 -39 -110.5 -61.5t-129.5 -22.5q-59 0 -113.5 16.5t-97.5 54t-68.5 100t-25.5 156.5v531h-111l-18 98l207 37l51 -57v-602 q0 -80 22.5 -123t54.5 -63.5t67.5 -24.5t60.5 -4q57 0 117.5 28.5t85.5 67.5v643h-111zM545 1133l-287 245l90 109h53l213 -287z" />
<glyph unicode="&#xfa;" horiz-adv-x="1003" d="M594 850l-14 98l204 39l50 -59v-778q0 -27 14 -36.5t33 -9.5q12 0 22 3.5t15 3.5l16 -72q-12 -14 -43 -30.5t-74 -16.5q-82 0 -104 84q-47 -39 -110.5 -61.5t-129.5 -22.5q-59 0 -113.5 16.5t-97.5 54t-68.5 100t-25.5 156.5v531h-111l-18 98l207 37l51 -57v-602 q0 -80 22.5 -123t54.5 -63.5t67.5 -24.5t60.5 -4q57 0 117.5 28.5t85.5 67.5v643h-111zM348 1200l213 285h55l91 -107l-287 -245z" />
<glyph unicode="&#xfb;" horiz-adv-x="1003" d="M233 1122l238 293h33l237 -289l-8 -12h-110l-136 119l-137 -119h-108zM594 850l-14 98l204 39l50 -59v-778q0 -27 14 -36.5t33 -9.5q12 0 22 3.5t15 3.5l16 -72q-12 -14 -43 -30.5t-74 -16.5q-82 0 -104 84q-47 -39 -110.5 -61.5t-129.5 -22.5q-59 0 -113.5 16.5 t-97.5 54t-68.5 100t-25.5 156.5v531h-111l-18 98l207 37l51 -57v-602q0 -80 22.5 -123t54.5 -63.5t67.5 -24.5t60.5 -4q57 0 117.5 28.5t85.5 67.5v643h-111z" />
<glyph unicode="&#xfc;" horiz-adv-x="1003" d="M266 1268q0 41 29 70.5t72 29.5q39 0 67.5 -29.5t28.5 -70.5q0 -39 -28.5 -70t-67.5 -31q-43 0 -72 31t-29 70zM551 1268q0 41 27.5 70.5t70.5 29.5q39 0 69 -29.5t30 -70.5q0 -39 -30 -70t-69 -31q-43 0 -70.5 31t-27.5 70zM594 850l-14 98l204 39l50 -59v-778 q0 -27 14 -36.5t33 -9.5q12 0 22 3.5t15 3.5l16 -72q-12 -14 -43 -30.5t-74 -16.5q-82 0 -104 84q-47 -39 -110.5 -61.5t-129.5 -22.5q-59 0 -113.5 16.5t-97.5 54t-68.5 100t-25.5 156.5v531h-111l-18 98l207 37l51 -57v-602q0 -80 22.5 -123t54.5 -63.5t67.5 -24.5 t60.5 -4q57 0 117.5 28.5t85.5 67.5v643h-111z" />
<glyph unicode="&#xfd;" horiz-adv-x="919" d="M893 911l-211 -576l-231 -622q-16 -45 -37 -93t-49.5 -88t-67.5 -65.5t-94 -25.5q-53 0 -97.5 21.5t-82.5 52.5l63 106q6 -6 17.5 -16.5t26.5 -20.5t33.5 -17t41.5 -7q31 0 53.5 19.5t40.5 48t31.5 62.5t23.5 64l54 150l-316 966h-69l-17 101l195 12l280 -872l271 759 h-74l-16 101l196 12zM360 1200l213 285h56l90 -107l-287 -245z" />
<glyph unicode="&#xfe;" horiz-adv-x="995" d="M29 1364l-17 104l215 37l56 -59v-537q31 27 87 51.5t138 24.5t155.5 -33.5t128 -96t86 -154t31.5 -203.5q0 -152 -44 -250t-107.5 -154.5t-137 -79t-131.5 -22.5q-72 0 -122 15.5t-91 41.5q0 -41 3.5 -81t3.5 -68v-326l247 -43v-90h-479l-18 90l121 29v1812zM479 111 q45 0 97.5 15t95.5 57t71.5 115t28.5 187q0 113 -26.5 186.5t-67.5 116.5t-89 60.5t-93 17.5q-70 0 -128.5 -28.5t-84.5 -77.5v-582q23 -23 73.5 -45t122.5 -22z" />
<glyph unicode="&#xff;" horiz-adv-x="919" d="M225 1268q0 41 29 70.5t72 29.5q39 0 67.5 -29.5t28.5 -70.5q0 -39 -28.5 -70t-67.5 -31q-43 0 -72 31t-29 70zM510 1268q0 41 27.5 70.5t70.5 29.5q39 0 69 -29.5t30 -70.5q0 -39 -30 -70t-69 -31q-43 0 -70.5 31t-27.5 70zM893 911l-211 -576l-231 -622 q-16 -45 -37 -93t-49.5 -88t-67.5 -65.5t-94 -25.5q-53 0 -97.5 21.5t-82.5 52.5l63 106q6 -6 17.5 -16.5t26.5 -20.5t33.5 -17t41.5 -7q31 0 53.5 19.5t40.5 48t31.5 62.5t23.5 64l54 150l-316 966h-69l-17 101l195 12l280 -872l271 759h-74l-16 101l196 12z" />
<glyph unicode="&#x152;" horiz-adv-x="1757" d="M678 -8q-150 0 -258.5 62.5t-180 163.5t-106.5 228t-35 256q0 125 36 254t106.5 232.5t176 169t245.5 65.5h24q18 0 42 -1t47.5 -3t37.5 -4h801l41 -350h-99l-69 211h-430v-504h352v-129h-352v-504h450l72 211h96l-39 -350h-843q-29 -4 -57.5 -6t-57.5 -2zM688 1278 q-104 0 -187 -51t-139.5 -134t-87 -186.5t-30.5 -208.5q0 -104 25.5 -205.5t78.5 -182.5t135 -130t195 -49q70 0 130 17.5t107 60.5v1001q-47 41 -100 54.5t-127 13.5z" />
<glyph unicode="&#x153;" horiz-adv-x="1601" d="M86 492q0 98 26.5 188t79 157.5t129 107.5t179.5 40q135 0 222 -60.5t134 -156.5q57 98 149.5 156.5t204.5 58.5q61 0 117.5 -18.5t97.5 -52t66 -84t25 -113.5q0 -111 -53.5 -176.5t-138.5 -100.5t-190.5 -46t-211.5 -11q20 -119 95 -195.5t218 -76.5q66 0 129 19t111 54 l34 -110q-59 -43 -134 -60.5t-150 -17.5q-137 0 -230.5 55t-146.5 148q-49 -92 -134 -148.5t-214 -56.5q-106 0 -184 43t-129.5 112.5t-76 160t-24.5 184.5zM221 467q0 -66 15.5 -129.5t49 -113.5t87 -81.5t127.5 -31.5q76 0 129 31.5t86 81.5t48 113.5t17 129.5v14 q0 63 -14 132t-48 125.5t-87 92t-131 35.5q-80 0 -133.5 -41t-85 -100t-46 -130t-14.5 -128zM950 502q57 0 132 4t140.5 25.5t111.5 63.5t46 120q0 41 -15 69.5t-40 47t-55.5 26.5t-61.5 8q-72 0 -125 -29.5t-89 -79.5t-56 -116t-23 -139h35z" />
<glyph unicode="&#x178;" horiz-adv-x="1103" d="M290 1640q0 41 29 71t72 30q41 0 71.5 -30t30.5 -71q0 -43 -30.5 -72.5t-71.5 -29.5q-43 0 -72 29.5t-29 72.5zM602 1640q0 41 30.5 71t73.5 30q41 0 70 -30t29 -71q0 -43 -29 -72.5t-70 -29.5q-43 0 -73.5 29.5t-30.5 72.5zM387 1415v-108l-129 -21l311 -610l287 612 l-125 17v110h352v-123l-88 -20l-370 -774v-355l235 -37l-18 -106h-574l-20 106l237 37v383l-383 748l-88 18v123h373z" />
<glyph unicode="&#x2c6;" horiz-adv-x="720" d="M106 1192l240 291h31l237 -287l-6 -14h-112l-136 141l-135 -141h-110z" />
<glyph unicode="&#x2dc;" horiz-adv-x="491" d="M146 260l114 86l76 -127q-39 -33 -87 -55.5t-105 -22.5q-39 0 -72 12l-65 26l-66 26q-33 12 -70 12q-43 0 -73.5 -29t-44.5 -65l-89 53l5 14q33 78 89 117t117 39q45 0 83 -13.5t71 -29.5l61 -30q29 -13 56 -13z" />
<glyph unicode="&#x2000;" />
<glyph unicode="&#x2001;" horiz-adv-x="1837" />
<glyph unicode="&#x2002;" />
<glyph unicode="&#x2003;" horiz-adv-x="1837" />
<glyph unicode="&#x2004;" horiz-adv-x="612" />
<glyph unicode="&#x2005;" horiz-adv-x="458" />
<glyph unicode="&#x2006;" horiz-adv-x="305" />
<glyph unicode="&#x2007;" horiz-adv-x="305" />
<glyph unicode="&#x2008;" horiz-adv-x="229" />
<glyph unicode="&#x2009;" horiz-adv-x="366" />
<glyph unicode="&#x200a;" horiz-adv-x="100" />
<glyph unicode="&#x2010;" horiz-adv-x="772" d="M129 514v113l16 16h486q12 0 12 -14v-115h-514z" />
<glyph unicode="&#x2011;" horiz-adv-x="772" d="M129 514v113l16 16h486q12 0 12 -14v-115h-514z" />
<glyph unicode="&#x2012;" horiz-adv-x="772" d="M129 514v113l16 16h486q12 0 12 -14v-115h-514z" />
<glyph unicode="&#x2013;" horiz-adv-x="1013" d="M125 743h760v-127h-760v127z" />
<glyph unicode="&#x2014;" horiz-adv-x="1484" d="M125 743h1231v-127h-1231v127z" />
<glyph unicode="&#x2018;" horiz-adv-x="382" d="M297 1362l-68 -178l47 -238l-159 -26q-4 14 -13.5 58t-9.5 101q0 96 28 181.5t87 173.5l88 -52v-20z" />
<glyph unicode="&#x2019;" horiz-adv-x="370" d="M84 993l68 178l-48 238l160 27q4 -16 13.5 -59.5t9.5 -100.5q0 -96 -28 -181t-87 -173l-88 51v20z" />
<glyph unicode="&#x201a;" horiz-adv-x="423" d="M92 -162l80 180l-80 203l172 58q4 -8 12.5 -27t16.5 -44.5t14 -55t6 -60.5q0 -53 -16 -103t-38.5 -93t-48.5 -77t-44 -55l-74 46v28z" />
<glyph unicode="&#x201c;" horiz-adv-x="604" d="M528 1415l-67 -178l47 -238l-160 -26q-4 14 -13 58t-9 102q0 96 27.5 181t86.5 173l88 -51v-21zM301 1415l-68 -178l48 -264l-160 -33q-2 6 -5 27l-7 47q-4 27 -7.5 57.5t-3.5 61.5q0 96 28 181t87 173l88 -51v-21z" />
<glyph unicode="&#x201d;" horiz-adv-x="598" d="M84 993l68 178l-48 238l160 27q4 -16 13.5 -59.5t9.5 -100.5q0 -96 -28 -181t-87 -173l-88 51v20zM311 993l68 178l-47 265l160 32q2 -8 5 -27l7 -46q4 -27 7 -57.5t3 -61.5q0 -96 -27.5 -181t-87.5 -173l-88 51v20z" />
<glyph unicode="&#x201e;" horiz-adv-x="657" d="M84 -162l80 180l-80 203l172 58q4 -8 12 -27t16.5 -44.5t14.5 -55t6 -60.5q0 -53 -16.5 -103t-39 -93t-48 -77t-43.5 -55l-74 46v28zM326 -162l80 180l-80 250l172 51q4 -8 12 -32.5t16.5 -57t14.5 -69.5t6 -68q0 -53 -16.5 -103t-39 -93t-48 -77t-44.5 -55l-73 46v28z " />
<glyph unicode="&#x2022;" horiz-adv-x="516" d="M100 784q0 66 46.5 113t111.5 47q66 0 113 -47t47 -113t-47 -111.5t-113 -45.5t-112 45.5t-46 111.5z" />
<glyph unicode="&#x2026;" horiz-adv-x="1265" d="M948 100q0 43 31 75t76 32q43 0 74.5 -32t31.5 -75q0 -45 -31.5 -75.5t-74.5 -30.5q-45 0 -76 30.5t-31 75.5zM526 100q0 43 31 75t76 32q43 0 74.5 -32t31.5 -75q0 -45 -31.5 -75.5t-74.5 -30.5q-45 0 -76 30.5t-31 75.5zM104 100q0 43 31 75t76 32q43 0 74.5 -32 t31.5 -75q0 -45 -31.5 -75.5t-74.5 -30.5q-45 0 -76 30.5t-31 75.5z" />
<glyph unicode="&#x202f;" horiz-adv-x="366" />
<glyph unicode="&#x2039;" horiz-adv-x="718" d="M29 643l559 442l10 -4v-143l-405 -322l405 -319v-147l-12 -7l-557 447v53z" />
<glyph unicode="&#x203a;" horiz-adv-x="718" d="M690 590l-557 -447l-12 7v147l405 319l-405 322v143l10 4l559 -442v-53z" />
<glyph unicode="&#x205f;" horiz-adv-x="458" />
<glyph unicode="&#x20ac;" horiz-adv-x="1173" d="M70 635h143v82q0 20 2 43h-145v129h157q18 119 58.5 215t105 165.5t154.5 107.5t211 38q80 0 148.5 -7t127.5 -19l45 -324h-116l-58 201l-46 6t-93 4q-90 0 -157.5 -29.5t-115 -81t-76 -123t-42.5 -153.5h563v-129h-576q-2 -16 -2 -35v-90h576v-129h-563 q12 -80 38.5 -148.5t73.5 -119t118 -79t169 -28.5q70 0 140.5 19.5t121.5 52.5l51 -125q-53 -37 -139 -61.5t-172 -24.5q-133 0 -229.5 38t-163 105.5t-104 161.5t-52.5 209h-153v129z" />
<glyph unicode="&#x2122;" horiz-adv-x="2822" d="M1583 1415l399 -1237l383 1237h324l12 -123l-106 -10v-1145l122 -24v-113h-368l-10 113l114 26v1164l-395 -1272h-178l-402 1245v-1141l129 -20v-115h-360l-16 115l118 24v1145l-116 10v121h350zM260 0v106l232 37v1133h-281l-80 -199h-94l47 338h952l47 -338h-94 l-80 199h-278v-1133l235 -37v-106h-606z" />
<glyph unicode="&#xe000;" horiz-adv-x="980" d="M0 980h980v-980h-980v980z" />
<glyph unicode="&#xfb01;" horiz-adv-x="1146" d="M965 924v-803l125 -31v-90h-359l-18 88l123 31v733l-111 -8l-18 104l202 37zM758 1374q0 45 30.5 77t75.5 32t77 -32t32 -77t-32 -75.5t-77 -30.5t-75.5 30.5t-30.5 75.5zM78 864l-29 94l14 23h144v240q0 119 58.5 193.5t191.5 74.5q61 0 119.5 -22.5t109.5 -53.5 l-100 -139l-115 98q-10 0 -18.5 1t-18.5 1q-33 0 -52.5 -11t-29.5 -29.5t-13 -41t-3 -47.5v-264h225q10 0 10 -12v-105h-235v-739l225 -33v-92h-459l-16 90l121 29v745h-129z" />
<glyph unicode="&#xfb02;" horiz-adv-x="1130" d="M948 1427v-1310l125 -27v-90h-375l-10 90l131 29v1235h-112l-19 100l201 35zM78 864l-29 94l14 23h144v240q0 119 58.5 193.5t191.5 74.5q61 0 119.5 -22.5t109.5 -53.5l-100 -139l-115 98q-10 0 -18.5 1t-18.5 1q-33 0 -52.5 -11t-29.5 -29.5t-13 -41t-3 -47.5v-264h225 q10 0 10 -12v-105h-235v-739l225 -33v-92h-459l-16 90l121 29v745h-129z" />
<glyph unicode="&#xfb03;" horiz-adv-x="1783" d="M1602 924v-803l125 -31v-90h-359l-18 88l123 31v733l-111 -8l-18 104l202 37zM1395 1374q0 45 30.5 77t75.5 32t77 -32t32 -77t-32 -75.5t-77 -30.5t-75.5 30.5t-30.5 75.5zM715 864l-29 94l14 23h144v240q0 119 58.5 193.5t191.5 74.5q61 0 119.5 -22.5t109.5 -53.5 l-100 -139l-115 98q-10 0 -18.5 1t-18.5 1q-33 0 -52.5 -11t-29.5 -29.5t-13 -41t-3 -47.5v-264h225q10 0 10 -12v-105h-235v-739l225 -33v-92h-459l-16 90l121 29v745h-129zM78 864l-29 94l14 23h144v240q0 119 58.5 193.5t191.5 74.5q61 0 119.5 -22.5t109.5 -53.5 l-100 -139l-115 98q-10 0 -18.5 1t-18.5 1q-33 0 -52.5 -11t-29.5 -29.5t-13 -41t-3 -47.5v-264h225q10 0 10 -12v-105h-235v-739l225 -33v-92h-459l-16 90l121 29v745h-129z" />
<glyph unicode="&#xfb04;" horiz-adv-x="1767" d="M1585 1427v-1310l125 -27v-90h-375l-10 90l131 29v1235h-112l-19 100l201 35zM715 864l-29 94l14 23h144v240q0 119 58.5 193.5t191.5 74.5q61 0 119.5 -22.5t109.5 -53.5l-100 -139l-115 98q-10 0 -18.5 1t-18.5 1q-33 0 -52.5 -11t-29.5 -29.5t-13 -41t-3 -47.5v-264 h225q10 0 10 -12v-105h-235v-739l225 -33v-92h-459l-16 90l121 29v745h-129zM78 864l-29 94l14 23h144v240q0 119 58.5 193.5t191.5 74.5q61 0 119.5 -22.5t109.5 -53.5l-100 -139l-115 98q-10 0 -18.5 1t-18.5 1q-33 0 -52.5 -11t-29.5 -29.5t-13 -41t-3 -47.5v-264h225 q10 0 10 -12v-105h-235v-739l225 -33v-92h-459l-16 90l121 29v745h-129z" />
</font>
</defs>
</svg>
