<svg height="26" width="28" xmlns="http://www.w3.org/2000/svg"><path d="m1.93 1c-.514 0-.93.403-.93.9s.416.9.93.9h3.091c1.54 3.69 3.057 7.385 4.584 11.081l-1.405 3.272a.891.891 0 0 0 .085.847c.17.246.472.401.777.4h15.504c.492.007.944-.424.944-.9s-.452-.907-.944-.9h-14.108l.804-1.856 12.131-.744a.948.948 0 0 0 .833-.693l2.755-8.211c.122-.525-.355-1.099-.911-1.097h-18.549l-1.007-2.437a.954.954 0 0 0 -.864-.562zm6.338 4.8h16.63l-2.338 6.467-11.337.677zm3.895 13.2c-1.702 0-3.1 1.354-3.1 3s1.398 3 3.1 3 3.1-1.354 3.1-3-1.398-3-3.1-3zm9.303 0c-1.702 0-3.101 1.354-3.101 3s1.399 3 3.1 3c1.702 0 3.101-1.354 3.101-3s-1.399-3-3.1-3zm-9.303 1.8c.696 0 1.24.527 1.24 1.2s-.544 1.2-1.24 1.2-1.24-.527-1.24-1.2.544-1.2 1.24-1.2zm9.303 0c.695 0 1.24.527 1.24 1.2s-.545 1.2-1.24 1.2c-.697 0-1.24-.527-1.24-1.2s.543-1.2 1.24-1.2z" stroke="#000" stroke-width=".3"/></svg>