<svg height="30" viewBox="0 0 30 30" width="30" xmlns="http://www.w3.org/2000/svg"><path d="m203.339845 1c.455731 0 .846353.16275875 1.171874.48828061.325522.32552187.488281.71614374.488281 1.17187436v26.67968873c0 .4557315-.162759.8463525-.488281 1.1718752-.325521.3255223-.716143.4882811-1.171874.4882811h-7.63672v-11.6210935h3.886719l.585935-4.5312487h-4.472654v-2.890628c0-.7291681.152994-1.2760388.458986-1.640625.305987-.36458186.901687-.54687498 1.787109-.54687498l2.382813-.01953v-4.04296804c-.820317-.11718875-1.979163-.17578312-3.476563-.17578312-1.770843 0-3.186847.52083061-4.248047 1.56250059-1.061204 1.04167435-1.5918 2.51301307-1.5918 4.41406425v3.3398443h-3.906249v4.5312487h3.906249v11.6210935h-14.355467c-.455731 0-.846352-.1627588-1.171875-.4882811-.325522-.3255227-.488281-.7161437-.488281-1.1718752v-26.67968873c0-.45573062.162759-.84635249.488281-1.17187436.325523-.32552186.716144-.48828061 1.171875-.48828061z" fill="#3da9e0" fill-rule="evenodd" transform="translate(-175 -1)"/></svg>