<svg width="248" height="151" xmlns="http://www.w3.org/2000/svg"><defs><filter x="-23.7%" y="-42.9%" width="147.4%" height="185.7%" filterUnits="objectBoundingBox" id="a"><feOffset in="SourceAlpha" result="shadowOffsetOuter1"/><feGaussianBlur stdDeviation="15" in="shadowOffsetOuter1" result="shadowBlurOuter1"/><feColorMatrix values="0 0 0 0 1 0 0 0 0 1 0 0 0 0 1 0 0 0 0.15 0" in="shadowBlurOuter1" result="shadowMatrixOuter1"/><feMerge><feMergeNode in="shadowMatrixOuter1"/><feMergeNode in="SourceGraphic"/></feMerge></filter></defs><g filter="url(#a)" transform="translate(28 20)" fill="#3599CC" fill-rule="evenodd"><path d="M52.875 27.758a27.429 27.429 0 0 0-1.545-.045c-.52 0-1.034.016-1.546.045-6.61.378-12.581 3.161-17.057 7.494l18.58 18.68c.222.225.268.546.1.713-.167.169-.47.11-.677-.13 0 0-7.735-9.056-21.564-15.024h-.002a26.912 26.912 0 0 0-4.648 15.165c0 14.877 12.006 26.942 26.814 26.942 14.811 0 26.815-12.065 26.815-26.942 0-14.361-11.178-26.094-25.27-26.898M172.431 27.713v25.906c0 .312-.193.567-.43.567-.236 0-.411-.254-.388-.565 0 0 .897-11.883-4.658-25.908H136.37v26.549c0 12.133 8.22 22.364 19.45 25.533l-10.453 14.252 14.003 10.645 25.447-34.715A26.232 26.232 0 0 0 190 54.292v-26.58h-17.569zM108.035 27.56h-5.414C97.064 41.85 97.96 53.955 97.96 53.955c.024.317-.15.576-.386.576-.236 0-.43-.26-.43-.577V1.54H79.677v80.006s26.26.052 26.813.052c14.81 0 26.816-12.108 26.816-27.041 0-14.414-11.18-26.19-25.271-26.996M26.048 12.317C26.048 5.515 20.218 0 13.025 0 5.83 0 0 5.515 0 12.317c0 6.802 5.831 12.316 13.025 12.316 1.459 0 2.861-.23 4.171-.648a13.181 13.181 0 0 0 4.67-2.627c2.571-2.25 4.182-5.467 4.182-9.04M3.065 81.598h16.854V27.713H3.065z"/></g></svg>