<svg height="32" viewBox="0 0 32 32" width="32" xmlns="http://www.w3.org/2000/svg"><path d="m290.667991 15.9999448c0-2.9454141 2.387192-5.3337011 5.332671-5.3337011 2.94548 0 5.33394 2.388287 5.33394 5.3337011 0 2.9454142-2.388405 5.3337012-5.33394 5.3337012s-5.332671-2.388287-5.332671-5.3337012m-2.883411 0c0 4.5375687 3.678332 8.2157779 8.216137 8.2157779 4.53786 0 8.216137-3.6782092 8.216137-8.2157779s-3.678332-8.21577779-8.216137-8.21577779c-4.53786 0-8.216137 3.67820909-8.216137 8.21577779m14.837301-8.54145831c0 1.05979959.859528 1.92059365 1.920655 1.92059365 1.059858 0 1.920656-.86079406 1.920656-1.92059365 0-1.05974441-.859473-1.919104-1.920656-1.919104-1.061072-.00011035-1.920655.85935959-1.920655 1.919104m-13.086024 21.56498231c-1.559995-.0711167-2.407937-.3309219-2.971355-.5505617-.747032-.2908118-1.2795-.6371818-1.840436-1.1967366-.559667-.5597203-.907252-1.0921304-1.19674-1.8391597-.219696-.563472-.479502-1.4112455-.550564-2.9712347-.077462-1.6865539-.093075-2.1931435-.093075-6.4658313 0-4.2726877.016772-4.7780084.093075-6.46588641.071117-1.55982373.332192-2.40632824.550564-2.97123469.290813-.74697415.637184-1.27943945 1.19674-1.84037351.559668-.55960993 1.092135-.90713857 1.840436-1.1966814.563473-.21963987 1.41136-.4793898 2.971355-.55056172 1.686615-.07746154 2.193261-.09302005 6.46486-.09302005 4.272868 0 4.778191.0167723 6.466185.09302005 1.559884.07111675 2.406557.33219081 2.971245.55056172.747032.28954283 1.279554.63718181 1.840435 1.1966814.559667.55972028.906038 1.09339936 1.196796 1.84037351.21964.56352715.479446 1.41130062.550563 2.97123469.077517 1.68798831.093076 2.19319871.093076 6.46588641 0 4.2713637-.015448 4.7780085-.093076 6.4658313-.071117 1.5598789-.332192 2.4077627-.550563 2.9712347-.290813.7470293-.63724 1.2794394-1.196796 1.8391597-.559667.5596099-1.093403.90598-1.840435 1.1967366-.563529.2195295-1.411361.4793346-2.971245.5505617-1.68667.0775167-2.193317.0930752-6.466185.0930752-4.271599-.0001103-4.778245-.0155585-6.46486-.0930752m-.131917-28.92647637c-1.703442.07751671-2.866638.34769416-3.883849.74311212-1.052079.40838339-1.943827.95651754-2.834362 1.84555969-.889211.88915249-1.437182 1.78095323-1.845622 2.83424252-.395474 1.01715161-.665597 2.18034358-.743169 3.88366977-.078842 1.70597447-.096938 2.25134997-.096938 6.59642347s.018096 4.890449.096993 6.5964235c.077517 1.7033813.347695 2.8665733.74317 3.8837249.40844 1.05191.955141 1.94509 1.845621 2.8342425.889211.8890422 1.780959 1.435797 2.834362 1.8455045 1.018425.3954732 2.180352.6655403 3.883849.7431673 1.70736.0775167 2.251523.0969373 6.596667.0969373 4.346523 0 4.890631-.0180413 6.596722-.0969373 1.703443-.0775167 2.866639-.3476941 3.883794-.7431673 1.052079-.4097075 1.943883-.9564623 2.834362-1.8455045.889211-.8891525 1.435968-1.7823325 1.845677-2.8342425.395474-1.0171516.666866-2.1803436.74317-3.8837249.077517-1.7071883.095613-2.25135.095613-6.5964235s-.018096-4.890449-.095613-6.59647864c-.077573-1.70332619-.347696-2.86657334-.74317-3.88366977-.409709-1.05196516-.956466-1.94371074-1.845677-2.83424253-.889155-.88904214-1.782283-1.43717629-2.833093-1.84555968-1.018424-.39541796-2.18162-.66686437-3.883849-.74311212-1.706036-.0775167-2.251523-.09693726-6.596612-.09693726-4.346523.00005517-4.890631.0181516-6.598046.09699243" fill="#3da9e0" transform="translate(-280)"/></svg>