<svg width="38" height="38" xmlns="http://www.w3.org/2000/svg"><path d="M13 19.5a6.5 6.5 0 1 1 6.5 6.5 6.5 6.5 0 0 1-6.5-6.5M9 19c0 5.523 4.477 10 10 10s10-4.477 10-10S24.523 9 19 9 9 13.477 9 19m18-9.501a2.5 2.5 0 1 0 5.002 0A2.5 2.5 0 0 0 27 9.5M10.86 33.89c-1.843-.084-2.845-.391-3.51-.65a5.882 5.882 0 0 1-2.175-1.415 5.844 5.844 0 0 1-1.414-2.173c-.26-.666-.567-1.668-.651-3.51C3.018 24.147 3 23.55 3 18.5c0-5.05.02-5.646.11-7.64.084-1.844.393-2.844.65-3.512a5.882 5.882 0 0 1 1.415-2.174A5.838 5.838 0 0 1 7.349 3.76c.666-.259 1.668-.566 3.511-.65C12.853 3.018 13.452 3 18.5 3s5.645.02 7.64.11c1.843.084 2.843.392 3.51.65a5.863 5.863 0 0 1 2.175 1.415c.662.661 1.07 1.292 1.414 2.174.26.666.567 1.668.651 3.511.092 1.995.11 2.592.11 7.64s-.018 5.647-.11 7.641c-.084 1.843-.393 2.845-.65 3.511a5.865 5.865 0 0 1-1.415 2.173c-.661.662-1.292 1.07-2.174 1.414-.666.26-1.668.567-3.511.651-1.993.092-2.592.11-7.64.11s-5.647-.018-7.64-.11M11.167.115C9.144.207 7.763.528 6.555.998A9.326 9.326 0 0 0 3.19 3.189 9.298 9.298 0 0 0 .998 6.555c-.47 1.208-.79 2.589-.883 4.612C.021 13.193 0 13.84 0 19s.021 5.807.115 7.833c.092 2.023.413 3.404.883 4.612a9.292 9.292 0 0 0 2.191 3.366 9.32 9.32 0 0 0 3.366 2.191c1.21.47 2.59.79 4.612.883 2.028.092 2.674.115 7.834.115 5.161 0 5.807-.021 7.833-.115 2.023-.092 3.405-.413 4.612-.883a9.346 9.346 0 0 0 3.366-2.191 9.331 9.331 0 0 0 2.192-3.366c.47-1.208.792-2.589.882-4.612C37.98 24.806 38 24.16 38 19s-.021-5.807-.114-7.833c-.092-2.023-.412-3.404-.882-4.612a9.345 9.345 0 0 0-2.192-3.366A9.32 9.32 0 0 0 31.448.998c-1.21-.47-2.59-.792-4.612-.883C24.81.023 24.162 0 19.002 0c-5.161 0-5.807.022-7.835.115" fill="#FFF" fill-rule="nonzero"/></svg>