<?xml version="1.0" encoding="utf-8"?>
<!-- Generator: Adobe Illustrator 19.2.0, SVG Export Plug-In . SVG Version: 6.00 Build 0)  -->
<svg version="1.1" id="Layer_1" xmlns="http://www.w3.org/2000/svg" xmlns:xlink="http://www.w3.org/1999/xlink" x="0px" y="0px"
	 viewBox="0 0 628.8 383.8" style="enable-background:new 0 0 628.8 383.8;" xml:space="preserve">
<style type="text/css">
	.st0{fill:#E78124;}
</style>
<g>
	<path class="st0" d="M180.4,118.4c-1.5-0.1-3.1-0.1-4.6-0.1c-1.6,0-3.1,0-4.6,0.1c-19.8,1.1-37.7,9.4-51.1,22.4l55.7,55.7
		c0.7,0.7,0.8,1.6,0.3,2.1c-0.5,0.5-1.4,0.3-2-0.4c0,0-23.2-27-64.6-44.8c0,0,0,0,0,0c-8.8,12.9-13.9,28.5-13.9,45.2
		c0,44.4,36,80.4,80.4,80.4c44.4,0,80.4-36,80.4-80.4C256.2,155.8,222.7,120.8,180.4,118.4z"/>
	<path class="st0" d="M539.2,118.5v78.5c0,0.9-0.6,1.7-1.3,1.7c-0.7,0-1.2-0.8-1.2-1.7c0,0,2.7-36-14-78.5H431c0,0,0,78.8,0,80.4
		c0,36.8,24.7,67.8,58.3,77.4L458,319.4l42,32.3l76.3-105.2c9.8-13.3,15.5-29.7,15.5-47.5v-80.5H539.2z"/>
	<path class="st0" d="M348.2,118.4h-16.2c-16.7,42.5-14,78.5-14,78.5c0.1,0.9-0.5,1.7-1.2,1.7s-1.3-0.8-1.3-1.7V41h-52.4v238
		c0,0,78.8,0.2,80.4,0.2c44.4,0,80.4-36,80.4-80.4C424,155.9,390.4,120.8,348.2,118.4z"/>
	<path class="st0" d="M100.2,73.6c0-21.1-17.1-38.3-38.3-38.3c-21.1,0-38.3,17.1-38.3,38.3c0,21.1,17.1,38.3,38.3,38.3
		c4.3,0,8.4-0.7,12.3-2c5.2-1.7,9.8-4.5,13.7-8.2C95.4,94.7,100.2,84.7,100.2,73.6z"/>
	<rect x="36" y="117.9" class="st0" width="52.7" height="161.7"/>
</g>
</svg>
