<svg height="46" width="56" xmlns="http://www.w3.org/2000/svg"><g fill="#e88124" fill-rule="evenodd"><path d="M25.634 41.951l-6.891 1.84-3.011-10.606.364-.09c2.301-.562 4.966-.562 6.692-.375l.244.027zM13.256 31.774l-.336.066-2.806-10.203.342-.098c5.725-1.649 11.012-4.803 16.163-9.642l.445-.419 5.76 20.994-.605-.152c-6.493-1.635-12.519-1.807-18.963-.546zM7.87 33.36L5.046 22.895l3.337-.7 2.805 10.004zM32.48 5.153l8.256 30.204-.699-.303c-1.652-.719-3.36-1.461-5.03-2.006l-.185-.061-.05-.184-6.428-22.751 4.135-4.899zm-7.075 27.75c6.814.606 10.876 2.346 14.14 3.743.723.31 1.411.604 2.087.87.937.259 1.251.093 1.34.008.14-.133.157-.443.046-.875l-9.373-33.76c-.065-.368-.255-.592-.545-.666-.36-.092-.78.076-1.068.429-7.94 11.16-15.892 16.399-28.344 18.663-.548.134-.793.327-.646 1.046l3.37 12.274a.577.577 0 0 0 .301.363c.777.395 2.75-.242 4.49-.803.826-.267 1.68-.542 2.456-.732l.344-.084 3.282 11.53c.086.33.331.842 1.061.665l8.431-2.2a.938.938 0 0 0 .612-.452.707.707 0 0 0 .074-.558l-2.577-9.507.52.046z"/><path d="M45.043 18.432a1.003 1.003 0 0 1-1.24-.666.976.976 0 0 1 .68-1.213l5.453-1.557a1.003 1.003 0 0 1 1.24.665.976.976 0 0 1-.68 1.214zm1.072 13.605a.977.977 0 0 1-.711-1.196 1.002 1.002 0 0 1 1.222-.696l5.492 1.419a.977.977 0 0 1 .712 1.196 1.002 1.002 0 0 1-1.222.696zM40.346 5.975a1.015 1.015 0 0 1-1.403.175.965.965 0 0 1-.179-1.373L42.241.379a1.015 1.015 0 0 1 1.403-.174c.437.33.517.945.179 1.373z" fill-rule="nonzero"/></g></svg>