<svg height="46" width="56" xmlns="http://www.w3.org/2000/svg"><g fill="#e88124"><path d="M46.144 33.098h3.683c2.343 0 4.242-1.9 4.242-4.244v-9.44c0-2.345-1.9-4.245-4.242-4.245H35.588v-1.93h14.239A6.174 6.174 0 0 1 56 19.412v9.441a6.174 6.174 0 0 1-6.173 6.175h-1.742l.043 7.85-1.366-.608c-1.801-.8-3.219-1.844-4.286-3.074a9.363 9.363 0 0 1-1.922-3.449 8.59 8.59 0 0 1-.184-.719H26.174A6.173 6.173 0 0 1 20 28.854v-2.028h1.93v2.028a4.242 4.242 0 0 0 4.244 4.244h15.99l.016.949c.003.197.06.603.222 1.145a7.44 7.44 0 0 0 1.533 2.74 9.359 9.359 0 0 0 2.246 1.865z"/><path d="M7.892 27.791H6.156c-3.398 0-6.152-2.764-6.152-6.175v-9.442C.004 8.764 2.758 6 6.156 6h23.576c3.4 0 6.154 2.764 6.154 6.174v9.442c0 3.41-2.755 6.175-6.154 6.175h-14.15c-.045.22-.105.46-.183.72a9.37 9.37 0 0 1-1.916 3.448c-1.063 1.23-2.476 2.274-4.272 3.074l-1.361.607.042-7.849zm1.899 4.768a9.333 9.333 0 0 0 2.238-1.865 7.446 7.446 0 0 0 1.527-2.74c.162-.542.218-.947.222-1.145l.016-.949h15.938c2.337 0 4.23-1.9 4.23-4.244v-9.442a4.236 4.236 0 0 0-4.23-4.243H6.156a4.236 4.236 0 0 0-4.228 4.243v9.442a4.236 4.236 0 0 0 4.228 4.244h3.671z"/></g></svg>