<svg height="46" width="56" xmlns="http://www.w3.org/2000/svg"><path d="M33.643 38.867V22.34h7.885v16.528h-7.885zm5.862-1.972V24.311h-3.84v12.584zm-15.447 2.158V22.525h7.885v16.528zm5.862-1.972V24.496h-3.84v12.585zm-.944-26.666h-2.023V.663h2.023zm-2.023 0V.663h2.023v9.752zm19.125 9.59v22.02H10.232v-22.02L18.744 9.71h18.777zm-9.521-8.324H19.712l-7.457 9.02v19.352h31.8v-19.35zM14.33 39.053V22.525h7.885v16.528zm5.862-1.972V24.496h-3.84v12.585zm-9.96 4.944V19.368h35.846v22.657zm33.823-1.972V21.34h-31.8v18.714h31.8zM8 46v-5.835h40V46zm2.022-1.972h35.956v-1.892H10.022zm26.4-37.179H26.98L26.979 0h9.223l-2.246 3.48 2.466 3.37zm-4.9-3.3l1.018-1.577h-3.538v2.906h3.492l-.972-1.328z" fill="#e88124"/></svg>