<svg width="56" height="46" xmlns="http://www.w3.org/2000/svg"><path d="M44.102 18.732l-2.003-.188c.27-2.882-.734-4.568-2.62-5.492a6.968 6.968 0 0 0-1.937-.602 5.793 5.793 0 0 0-.846-.086V10.35c.946 0 2.296.22 3.668.893 2.619 1.284 4.089 3.751 3.738 7.489zM28.84 0l1.412 1.435a6.465 6.465 0 0 0-1.608 2.539c-.538 1.572-.483 3.291-.057 4.928.122.469.24.806.312.974l-1.85.791a9.393 9.393 0 0 1-.41-1.257c-.516-1.987-.584-4.087.101-6.09A8.466 8.466 0 0 1 28.84 0zm9.923 8.791c-2.647-.63-7.064.707-10.332 2.377l-.457.234-.458-.234a29.35 29.35 0 0 0-4.474-1.84c-2.363-.74-4.387-.969-5.808-.55-5.08 1.494-8.275 5.799-6.894 11.229 1.765 6.939 5.647 13.311 8.879 16.31 2.205 2.046 5.15 2.346 8.16.138l.595-.436.594.436c3.01 2.208 5.956 1.908 8.16-.138 3.231-2.999 7.113-9.371 8.879-16.31 1.463-5.757-1.4-9.92-6.844-11.216zm.466-1.96c6.49 1.544 10.082 6.771 8.328 13.673-1.863 7.322-5.95 14.032-9.461 17.29-2.736 2.54-6.486 3.038-10.122.695-3.637 2.343-7.386 1.845-10.123-.695-3.51-3.258-7.598-9.968-9.461-17.29-1.68-6.599 2.246-11.884 8.276-13.659 1.89-.556 4.268-.287 6.977.562a31.137 31.137 0 0 1 4.33 1.739c3.613-1.769 8.116-3.063 11.256-2.314z" fill="#E88124"/></svg>