<svg height="46" width="56" xmlns="http://www.w3.org/2000/svg"><path d="M19.6 29.951v12.34l-1.285-.352c-3.352-.92-5.76-2.716-7.334-5.123a12.356 12.356 0 0 1-1.69-3.987c-.19-.821-.262-1.47-.27-1.868L9 29.951zm-2.024 1.98H11.17a10.418 10.418 0 0 0 1.517 3.817c1.105 1.691 2.7 3.018 4.89 3.863v-7.68zM19.6 17.07v12.34l-1.285-.352c-3.352-.919-5.76-2.716-7.334-5.123a12.356 12.356 0 0 1-1.69-3.987c-.19-.82-.262-1.47-.27-1.867L9 17.07zm-8.43 1.98a10.418 10.418 0 0 0 1.517 3.817c1.105 1.692 2.7 3.018 4.89 3.863v-7.68zM19.6 4.025v12.34l-1.285-.353c-3.352-.918-5.76-2.715-7.334-5.123a12.356 12.356 0 0 1-1.69-3.986c-.19-.821-.262-1.471-.27-1.868L9 4.024h10.6zm-8.43 1.98a10.419 10.419 0 0 0 1.516 3.817c1.106 1.691 2.701 3.018 4.89 3.863v-7.68zm26.515 35.853l-1.285.353V29.87H47l-.02 1.01c-.009.397-.081 1.047-.271 1.868a12.355 12.355 0 0 1-1.69 3.987c-1.575 2.406-3.982 4.203-7.334 5.122zm5.628-6.19a10.418 10.418 0 0 0 1.517-3.817h-6.406v7.68c2.189-.846 3.784-2.172 4.89-3.862zm-5.628-6.691l-1.285.352v-12.34H47l-.02 1.01c-.009.397-.081 1.047-.271 1.868a12.357 12.357 0 0 1-1.69 3.987c-1.575 2.407-3.982 4.204-7.334 5.123zm.739-2.328c2.189-.845 3.784-2.172 4.89-3.862a10.419 10.419 0 0 0 1.516-3.818h-6.406zm-.74-10.718l-1.284.353V3.943H47l-.02 1.01c-.009.396-.081 1.046-.271 1.867a12.357 12.357 0 0 1-1.69 3.987c-1.574 2.407-3.982 4.204-7.334 5.123zm5.63-6.19a10.42 10.42 0 0 0 1.516-3.818h-6.406v7.68c2.189-.845 3.784-2.171 4.89-3.862zM28.32 30.497c3.158 0 5.718 2.504 5.718 5.594s-2.56 5.594-5.718 5.594-5.718-2.505-5.718-5.594c0-3.09 2.56-5.594 5.718-5.594zm0 1.98c-2.04 0-3.694 1.618-3.694 3.614 0 1.995 1.654 3.614 3.694 3.614s3.694-1.619 3.694-3.614c0-1.996-1.654-3.613-3.694-3.613zm0-14.976c3.158 0 5.718 2.505 5.718 5.594s-2.56 5.593-5.718 5.593-5.718-2.504-5.718-5.593c0-3.09 2.56-5.594 5.718-5.594zm0 1.98c-2.04 0-3.694 1.619-3.694 3.614s1.654 3.613 3.694 3.613 3.694-1.618 3.694-3.613c0-1.996-1.654-3.613-3.694-3.613zm.32-14.963c3.158 0 5.718 2.504 5.718 5.594s-2.56 5.593-5.718 5.593-5.718-2.504-5.718-5.593c0-3.09 2.56-5.594 5.718-5.594zm0 1.98c-2.04 0-3.694 1.618-3.694 3.614 0 1.995 1.654 3.613 3.694 3.613s3.694-1.617 3.694-3.613-1.654-3.614-3.694-3.614zM18.218 45V1h20.206v44zM36.4 43.02V2.98H20.242v40.04z" fill="#e88124"/></svg>