<svg height="46" width="56" xmlns="http://www.w3.org/2000/svg"><path d="M44.995 0l-1.267 1.811-3.08 4.401-.287.41v5.481h-1.837v-5.48l-.286-.411-3.08-4.4L33.893 0h-.002l-1.266 1.811-3.08 4.401-.288.41v5.481h-2.328v-5.48l-.289-.411-3.078-4.4L22.293 0l-1.267 1.811-3.079 4.401-.287.41v5.481h-2.12v-5.48l-.288-.411-3.079-4.4L10.905 0 9.638 1.811l-3.08 4.401-.287.41v5.481H3v7.162h3.27v8.334H3v7.161h3.27V42h9.27v-7.24h2.12V42h9.268v-7.24h2.328V42h9.268v-7.24h1.837V42h9.268v-7.24H53v-7.162h-3.371v-8.334H53v-7.162h-3.371V6.623l-.287-.411-3.08-4.4L44.996 0zm-3.08 34.76V7.126l3.08-4.401 3.079 4.401V40.42h-6.158v-5.66zm-11.103 0V7.126l3.079-4.401 3.079 4.401V40.42h-6.158zm-11.598 0V7.126l3.08-4.401 3.078 4.401V40.42h-6.158zm-11.388 0V7.126l3.08-4.401 3.079 4.401V40.42h-6.16v-5.66zm41.803-17.075h1.816v-4.002H49.63v4.002zm-11.105 0h1.838v-4.002h-1.838zm-11.596 0h2.328v-4.002h-2.328zm-11.388 0h2.12v-4.002h-2.12zm-10.985 0h1.717v-4.002H4.555zm33.97 9.913h1.837v-8.334h-1.838v8.334zm-11.597 0h2.328v-8.334h-2.328zm-11.388 0h2.12v-8.334h-2.12zm34.089 5.582h1.816v-4.002H49.63v4.002zm-11.105 0h1.838v-4.002h-1.838zm-11.596 0h2.328v-4.002h-2.328zm-11.388 0h2.12v-4.002h-2.12zm-10.985 0h1.717v-4.002H4.555z" fill="#e88124" fill-rule="evenodd"/></svg>