<svg width="26" height="26" xmlns="http://www.w3.org/2000/svg"><path d="M3.681 18.923c.972 0 1.79.333 2.455 1 .664.667.997 1.487.997 2.462 0 .974-.333 1.782-.997 2.423-.665.64-1.483.961-2.455.961-.971 0-1.79-.32-2.454-.961-.665-.641-.997-1.449-.997-2.423 0-.975.332-1.795.997-2.462.665-.667 1.483-1 2.454-1zM2.608 9.385c3.886 0 7.196 1.359 9.932 4.077 2.735 2.718 4.129 6.025 4.18 9.923v1.384c-.102.667-.512 1.052-1.227 1.154V26h-2.378c-.818 0-1.278-.41-1.38-1.23v-1.385c-.052-2.513-.96-4.654-2.723-6.423-1.764-1.77-3.899-2.654-6.404-2.654H1.227C.511 14.205.102 13.82 0 13.154v-2.462c0-.769.409-1.205 1.227-1.307h1.381zm23.392 14v1.384c-.102.667-.486 1.052-1.15 1.154V26h-2.455c-.767 0-1.201-.41-1.304-1.23v-1.385c-.05-5.077-1.879-9.41-5.483-13C12.003 6.795 7.67 5 2.608 5H1.227C.511 4.897.102 4.487 0 3.77V1.384C0 .615.409.179 1.227.077V0h1.381c6.442 0 11.939 2.282 16.49 6.846 4.55 4.564 6.85 10.077 6.902 16.539z" fill="#3DA9E0" fill-rule="evenodd"/></svg>