<svg width="20" height="20" xmlns="http://www.w3.org/2000/svg"><path d="M19.542 16.91l-4.774-4.772a7.772 7.772 0 0 0 .84-1.928c.198-.692.297-1.409.297-2.15a7.48 7.48 0 0 0-.655-3.079 8.365 8.365 0 0 0-1.769-2.57A8.687 8.687 0 0 0 10.91.654 7.465 7.465 0 0 0 7.817 0a7.608 7.608 0 0 0-3.043.618 8.046 8.046 0 0 0-2.498 1.669A7.622 7.622 0 0 0 .606 4.77 7.73 7.73 0 0 0 0 7.812C0 8.9.214 9.934.643 10.915a8.19 8.19 0 0 0 1.756 2.57 8.687 8.687 0 0 0 2.573 1.756 7.465 7.465 0 0 0 3.092.655c.726 0 1.418-.095 2.078-.284.66-.19 1.286-.45 1.88-.779l4.799 4.796c.23.247.515.371.853.371.338 0 .623-.124.853-.37l1.188-1.187c.23-.231.321-.487.272-.767-.05-.28-.198-.535-.445-.766zM2.399 7.812c0-.742.14-1.442.42-2.101.281-.66.669-1.232 1.164-1.718A5.707 5.707 0 0 1 5.714 2.83a5.19 5.19 0 0 1 2.103-.433c.758 0 1.48.157 2.164.47.684.313 1.286.729 1.806 1.248.52.52.932 1.12 1.237 1.805.305.684.457 1.397.457 2.138 0 .758-.14 1.467-.42 2.126a5.277 5.277 0 0 1-1.163 1.719 5.707 5.707 0 0 1-1.731 1.162 5.19 5.19 0 0 1-2.103.432 5.086 5.086 0 0 1-2.14-.47A6.152 6.152 0 0 1 4.12 11.78a6.148 6.148 0 0 1-1.25-1.805 5.134 5.134 0 0 1-.47-2.163z" fill="#000" fill-rule="evenodd"/></svg>