<svg width="38" height="38" xmlns="http://www.w3.org/2000/svg"><path d="M12.668 19a6.333 6.333 0 1 1 12.667 0 6.334 6.334 0 0 1-12.667 0m-3.424 0c0 5.388 4.368 9.756 9.757 9.756 5.389 0 9.757-4.368 9.757-9.756S24.389 9.244 19 9.244c-5.389 0-9.757 4.368-9.757 9.756m17.62-10.143a2.281 2.281 0 0 0 4.561 0 2.28 2.28 0 0 0-2.28-2.279 2.28 2.28 0 0 0-2.282 2.279m-15.54 25.608c-1.852-.084-2.859-.393-3.528-.653A5.911 5.911 0 0 1 5.61 32.39a5.873 5.873 0 0 1-1.421-2.184c-.261-.669-.57-1.675-.654-3.528-.092-2.003-.11-2.604-.11-7.678s.02-5.674.11-7.678c.084-1.853.394-2.858.654-3.529a5.911 5.911 0 0 1 1.42-2.185 5.867 5.867 0 0 1 2.186-1.421c.67-.261 1.676-.57 3.529-.654 2.003-.092 2.604-.11 7.677-.11 5.074 0 5.674.02 7.678.11 1.853.085 2.858.395 3.529.654a5.9 5.9 0 0 1 2.185 1.42c.665.666 1.076 1.3 1.422 2.186.26.67.569 1.676.653 3.529.092 2.004.11 2.604.11 7.678 0 5.072-.018 5.674-.11 7.678-.084 1.852-.394 2.86-.653 3.528a5.894 5.894 0 0 1-1.422 2.184c-.664.665-1.298 1.076-2.185 1.422-.67.26-1.676.569-3.529.653-2.002.092-2.604.11-7.678.11-5.073 0-5.674-.018-7.677-.11M11.167.115C9.144.207 7.763.528 6.555.998A9.326 9.326 0 0 0 3.19 3.189 9.298 9.298 0 0 0 .998 6.555c-.47 1.208-.79 2.589-.883 4.612C.021 13.193 0 13.84 0 19s.021 5.807.115 7.833c.092 2.023.413 3.404.883 4.612a9.292 9.292 0 0 0 2.191 3.366 9.32 9.32 0 0 0 3.366 2.191c1.21.47 2.59.79 4.612.883 2.028.092 2.674.115 7.834.115 5.161 0 5.807-.021 7.833-.115 2.023-.092 3.405-.413 4.612-.883a9.346 9.346 0 0 0 3.366-2.191 9.331 9.331 0 0 0 2.192-3.366c.47-1.208.792-2.589.882-4.612C37.98 24.806 38 24.16 38 19s-.021-5.807-.114-7.833c-.092-2.023-.412-3.404-.882-4.612a9.345 9.345 0 0 0-2.192-3.366A9.32 9.32 0 0 0 31.448.998c-1.21-.47-2.59-.792-4.612-.883C24.81.023 24.162 0 19.002 0c-5.161 0-5.807.022-7.835.115" fill="#FFF"/></svg>