<svg height="26" viewBox="0 0 32 26" width="32" xmlns="http://www.w3.org/2000/svg"><path d="m154 6.04000241c-.906939 1.30667257-2.003374 2.41999284-3.289339 3.33999663.013536.18666815.020303.46666814.020303.83999996 0 1.7333433-.257188 3.4633265-.771574 5.1900036-.514381 1.7266725-1.296103 3.3833227-2.345178 4.9699997-1.04907 1.5866726-2.29779 2.9899922-3.74619 4.2099978-1.448399 1.2200061-3.194576 2.1933295-5.23858 2.9199998-2.044003.7266704-4.230107 1.0900001-6.558374 1.0900001-3.668379 0-7.025367-.9666572-10.071068-2.8999997.473776.0533335 1.001689.0799998 1.583756.0799998 3.045699 0 5.759719-.9199908 8.142133-2.7600011-1.421329-.026665-2.693735-.4566598-3.81726-1.289998s-1.895091-1.8966617-2.31472-3.1900018c.446702.0666669.859558.1000026 1.238579.1000026.582068 0 1.157359-.0733331 1.725887-.2199994-1.516082-.3066694-2.771568-1.0499954-3.766497-2.2300005s-1.492385-2.5499935-1.492385-4.1100011v-.0799993c.920478.50667 1.908624.7799993 2.964467.8200012-.893406-.5866694-1.604059-1.3533318-2.13198-2.3000005-.527922-.94667325-.791878-1.97332792-.791878-3.07999986 0-1.17333882.297797-2.25999413.8934-3.26000176 1.637911 1.9866783 3.631123 3.57666158 5.979698 4.76999912 2.348571 1.193342 4.862929 1.8566687 7.543147 1.9900025-.108293-.5066701-.16244-.99999871-.16244-1.47999932 0-1.78667767.63959-3.30999408 1.918782-4.57000297 1.279197-1.26000442 2.825711-1.88999991 4.639597-1.88999991 1.8951 0 3.492377.67999229 4.791877 2.03999926 1.475475-.27999999 2.862938-.79999356 4.162439-1.55999864-.500851 1.53334264-1.461922 2.71999602-2.883251 3.56000046 1.258889-.13333376 2.51776-.46666366 3.776649-.99999867z" fill="#3da9e0" fill-rule="evenodd" transform="translate(-122 -3)"/></svg>