<svg height="32" width="32" xmlns="http://www.w3.org/2000/svg"><path d="m26 0h-20c-1.667 0-3.083.583-4.25 1.75s-1.75 2.583-1.75 4.25v20c0 1.667.583 3.083 1.75 4.25s2.583 1.75 4.25 1.75h20c1.667 0 3.083-.583 4.25-1.75s1.75-2.583 1.75-4.25v-20c0-1.667-.583-3.083-1.75-4.25s-2.583-1.75-4.25-1.75zm-.5 11.625c-.25 1.417-.77 2.844-1.563 4.281-.791 1.438-1.666 2.698-2.625 3.781-.958 1.084-1.833 1.98-2.625 2.688-.791.708-1.479 1.25-2.062 1.625s-1.156.48-1.719.313c-.562-.167-1.031-.428-1.406-.782a4.526 4.526 0 0 1 -.938-1.281c-.208-.417-.75-2.073-1.624-4.969-.876-2.896-1.417-4.468-1.626-4.718-.208-.167-.468-.209-.78-.126-.313.084-.615.23-.907.438l-.438.313-.812-1c.25-.292.583-.657 1-1.094.417-.438 1.135-1.063 2.156-1.875 1.021-.813 1.886-1.281 2.594-1.406.5-.125.927-.063 1.281.187s.636.646.844 1.188a12.7 12.7 0 0 1 .5 1.593c.125.521.24 1.156.344 1.906s.219 1.313.344 1.688c.625 2.583 1.145 3.875 1.562 3.875.542 0 1.417-1.167 2.625-3.5.625-1.042.677-1.896.156-2.563-.52-.666-1.302-.687-2.343-.062.291-1.917 1.395-3.27 3.312-4.063 1.708-.75 3.062-.625 4.063.376.708.708.937 1.77.687 3.187z" fill="#3da9e0" fill-rule="evenodd"/></svg>