<svg xmlns="http://www.w3.org/2000/svg"><defs><font horiz-adv-x="917"><font-face ascent="1638" descent="-410" units-per-em="2048"/><missing-glyph horiz-adv-x="491"/><glyph horiz-adv-x="491" unicode="&#x20;"/><glyph horiz-adv-x="491" unicode="&#x09;"/><glyph horiz-adv-x="491" unicode="&#xa0;"/><glyph d="M195 467l-37 924 168 24 43-78-56-870h-118zM147 100q0 43 31 75t76 32q43 0 74.5-32t31.5-75q0-45-31.5-75.5t-74.5-30.5q-45 0-76 30.5t-31 75.5z" horiz-adv-x="518" unicode="&#x21;"/><glyph d="M123 1024l-35 387 154 10 18-45-45-350zM358 1026l-34 385 153 10 21-45-45-350h-95z" horiz-adv-x="581" unicode="&#x22;"/><glyph d="M76 514l-15 82 15 25h278l76 245h-242l-14 82 14 27h277l125 397h104l17-29-117-368h182l125 397h100l17-29-115-368h232q12 0 12-14v-95h-279l-75-245h249q12 0 13-15v-92h-295l-129-416h-101l-18 27 121 389h-184l-132-416h-100l-18 27 120 389h-243zM481 621h185l77 245h-184z" horiz-adv-x="1214" unicode="&#x23;"/><glyph d="M438-221v213q-84 2-167 17.5t-156 49.5l-23 316h119l55-203q35-16 82-27.5t90-13.5v553q-68 31-130 63.5t-110 75.5-77 101.5-29 140.5q0 72 27.5 131t75 103 110 72 133.5 38v168h119v-164q72-4 136.5-21.5t129.5-41.5l27-316h-113l-86 217q-47 18-94 25v-485l31-13q92-43 152.5-90t94-96 47-100.5 13.5-104.5q0-80-26.5-145.5t-71.5-114.5-107.5-81-132.5-46v-221h-119zM750 371q0 78-36 138t-141 114q-12 4-16 8v-488q78 20 135.5 76t57.5 152zM238 1081q0-47 16-83.5t44-64.5 63.5-50.5 76.5-40.5v432q-39-6-75.5-21.5t-64.5-39-44-56.5-16-76z" horiz-adv-x="970" unicode="&#x24;"/><glyph d="M254 0h-96l-6 27 905 1390h88l-2-31zM831 350v-8q0-35 6.5-78t21.5-80 42-61.5 68-24.5q43 0 70.5 26t43 64.5 21.5 81.5 6 80-6 80-21.5 80-43 62.5-70.5 25.5-70-25.5-41-63.5-19.5-81-7.5-78zM713 350v12q0 57 14 119t45 111 79 81 118 32q74 0 123-33t78.5-84 43-113.5 13.5-124.5q0-59-13.5-122.5t-44-116-80-86-120.5-33.5q-76 0-124 33.5t-77 87-41 116-14 121.5zM197 1061v-8q0-35 6-78t21.5-80 42-61.5 67.5-24.5q43 0 70.5 25.5t43 63.5 21.5 82 6 81-6 80-21.5 79.5-43 61.5-70.5 25-69.5-26-41-62.5-19.5-79.5-7-78zM78 1061v12q0 57 14 117.5t45 111 80 82 117 31.5q72 0 121-32.5t79.5-84 44-115 13.5-122.5-13.5-124-43-117-78.5-86-123-34q-76 0-124 35t-77 87-41 116-14 123z" horiz-adv-x="1302" unicode="&#x25;"/><glyph d="M1106 791q-4-33-16.5-89.5t-31-122-44-135-56.5-127.5l-26-49q53-59 98-97t68-38q12 0 33.5 8.5t37.5 16.5q2-14 6.5-35t9.5-41.5 10-38.5 9-31q-29-10-43-12t-39-2q-61 0-127.5 44t-136.5 116q-55-66-142-116t-218-50q-102 0-181 30.5t-133.5 83-83 120-28.5 139.5 26.5 136 68.5 118.5 94 98.5 106 77l-15 26q-18 33-39.5 66t-38 67.5-27.5 74.5-11 87q0 39 17 90t54 97.5 95.5 78 142.5 31.5q51 0 100-18.5t88-54 62.5-86 23.5-111.5q0-104-63.5-201.5t-194.5-196.5l80-106q25-41 79-113.5t120-150.5q41 72 68.5 154.5t43.5 168.5h-84l-26 117h250zM487 633l-26 32q-12 15-23 31-41-31-80-65.5t-69.5-75.5-49-91-18.5-110q0-57 24.5-100t63.5-72.5 88-45 101-15.5q78 0 145.5 38t120.5 103q-76 92-147 190zM688 1128q0 27-9 56.5t-27.5 54.5-47.5 40-67 15q-49 0-81-15t-51.5-41-27.5-58.5-8-65.5q0-63 36.5-134t90.5-146q90 72 141 145t51 149z" horiz-adv-x="1232" unicode="&#x26;"/><glyph d="M125 1026l-35 385 154 10 18-45-45-350h-92z" horiz-adv-x="348" unicode="&#x27;"/><glyph d="M336-332q-23 47-60.5 134t-74.5 207-63.5 267.5-26.5 317.5q0 168 22.5 313.5t56 263 73.5 205.5 73 144h123q-33-61-69-153.5t-65.5-210.5-49-259-19.5-301q0-164 22.5-306.5t54.5-260 66-208.5l60-153h-123z" horiz-adv-x="528" unicode="&#x28;"/><glyph d="M72-332l59 153q35 91 66.5 208.5t54 260 22.5 306.5q0 160-19 301t-49 259-66 210-68 154h123q33-55 72.5-143.5t73.5-206 56.5-263 22.5-313.5q0-170-26.5-317.5t-63.5-267.5-75-207l-60-134h-123z" horiz-adv-x="530" unicode="&#x29;"/><glyph d="M385 1415l16-20-41-215 172 149 62-78-8-22-203-86 213-80-39-88-27-8-172 141 35-229-96-9-18 21 38 213-170-148-57 78 4 25 205 84-215 80 41 88 22 8 172-141-32 229zM326 1143l8-13h14l6 13-8 12h-12z" horiz-adv-x="679" unicode="&#x2a;"/><glyph d="M500 1120v-346h327v-129h-327v-371h-105l-24 17v354h-305v103l16 26h289v346h129z" horiz-adv-x="897" unicode="&#x2b;"/><glyph d="M68-166l88 164-47 238 159 26q4-16 11.5-54t7.5-83q0-47-11.5-98.5t-32-98.5-46-89-56.5-70l-73 36v29z" horiz-adv-x="407" unicode="&#x2c;"/><glyph d="M129 514v113l16 16h486q12 0 12-14v-115h-514z" horiz-adv-x="772" unicode="&#x2d;"/><glyph d="M104 100q0 43 31 75t76 32q43 0 74.5-32t31.5-75q0-45-31.5-75.5t-74.5-30.5q-45 0-76 30.5t-31 75.5z" horiz-adv-x="421" unicode="&#x2e;"/><glyph d="M154 0h-99l-6 27 694 1390h105l-2-31z" horiz-adv-x="894" unicode="&#x2f;"/><glyph d="M109 705q0 133 26.5 261t83.5 228 146.5 161.5 216.5 61.5q125 0 214-61.5t146-161.5 84-228 27-261-27-261.5-84-228.5-146-161.5-214-61.5q-127 0-216.5 61.5t-146.5 161.5-83.5 228.5-26.5 261.5zM250 705q0-100 16.5-203t55-186 102-135 158.5-52q94 0 156.5 52t101.5 135 55 185.5 16 203.5q0 100-16 203.5t-55 185.5-101.5 134-156.5 52-158-52-102.5-134-55-185.5-16.5-203.5z" horiz-adv-x="1161" unicode="&#x30;"/><glyph d="M84 100l215 39v1092l-211-41-18 117 323 110 45-20v-1258l193-26v-113h-533z" horiz-adv-x="669" unicode="&#x31;"/><glyph d="M98 0l-20 119q45 51 113 114l144 137q75 73 149.5 154.5t135 168.5 97.5 177.5 37 180.5q0 70-27 115.5t-65.5 72.5-84 37-83.5 10q-70 0-114-14.5t-63-24.5l-2-4q-2-2-11-19l-29-54-56-103-149 92q78 129 183 193.5t253 64.5q94 0 168-29.5t123-80 74.5-119 25.5-148.5-35-168-90-176-124.5-171-136.5-154.5-125-127.5l-93-89-25-25h498l70 221h100l-41-350h-797z" horiz-adv-x="1032" unicode="&#x32;"/><glyph d="M145 229q72-53 158-80.5t178-27.5q61 0 118.5 17.5t101.5 50 70 81.5 26 115q0 90-45 143.5t-115 81-150.5 35.5-154.5 8h-31v129q70 0 150.5 6.5t150.5 34 115 84 45 154.5q0 51-22.5 93t-59.5 70.5-85 45-99 16.5q-49 0-94.5-9t-79.5-34l-95-176-151 92q72 129 177 193.5t259 64.5q70 0 141.5-23.5t129-68.5 93-110.5 35.5-149.5q0-57-17-111.5t-48-99.5-75-79-99-52q53-10 103-37t89-69 62.5-99 23.5-127q0-109-41-184.5t-107.5-123.5-151.5-69.5-175-21.5q-106 0-209.5 30.5t-191.5 90.5z" horiz-adv-x="1054" unicode="&#x33;"/><glyph d="M332 115l311 32v263h-563l-64 131 627 874h139v-866h174v-139h-174v-260q63-14 111.5-21.5t52.5-7.5v-117h-614v111zM643 549v663l-469-663h469z" horiz-adv-x="1040" unicode="&#x34;"/><glyph d="M227 1413h678v-137h-612v-352q33 4 63 4h60q117 0 212-32t162.5-91.5 105.5-143 38-188.5q0-109-38-198t-103.5-151.5-156.5-97-198-34.5q-104 0-200.5 27.5t-178.5 93.5l74 116q59-53 142-80.5t165-27.5q74 0 137.5 25.5t109.5 71.5 72.5 108.5 26.5 136.5q0 102-37.5 167.5t-99 102.5-139.5 51.5-156 14.5q-53 0-101-5.5t-89-11.5v564z" horiz-adv-x="1028" unicode="&#x35;"/><glyph d="M621 881q94 0 173.5-32t138-89.5 90.5-137 32-173.5q0-98-32-181.5t-90.5-145-140-96-182.5-34.5q-139 0-235 65.5t-155.5 165-87.5 220-28 231.5q0 78 12.5 164t40 169 69.5 157.5 102.5 131 138.5 89 176 32.5q88 0 158.5-21.5t121-49 82-54 42.5-39.5l-150-145-106 147q-20 10-59.5 21.5t-86.5 11.5q-109 0-183.5-61.5t-120.5-152.5-66.5-195.5-20.5-190.5q59 86 154.5 139.5t212.5 53.5zM612 121q76 0 132.5 29.5t92 75.5 53 104.5 17.5 115.5q0 133-79.5 219.5t-221.5 86.5q-66 0-123-26t-101-69-69.5-101-25.5-124q10-63 36.5-119.5t67.5-99.5 97-67.5 124-24.5z" horiz-adv-x="1153" unicode="&#x36;"/><glyph d="M209 1280l-62-229h-86v362h756l37-51-453-1362h-143l-10 29 459 1251h-498z" horiz-adv-x="874" unicode="&#x37;"/><glyph d="M164 1092q0 70 24.5 129t70.5 103 111.5 68.5 149.5 24.5q168 0 264.5-85t96.5-240q0-96-59.5-171t-164.5-157q86-51 142.5-99.5t91.5-97.5 49-101 14-114q0-66-26.5-129t-80.5-115.5-135-84-192-31.5-190.5 31.5-132 84-77 116-24.5 128.5q0 74 25.5 134.5t67.5 109.5 93.5 88 102.5 72q-92 63-156.5 142t-64.5 194zM236 354q0-57 23.5-100t62-72.5 90-45 108.5-15.5 110.5 15.5 93.5 45 64.5 72.5 24.5 100q0 66-28.5 113t-73.5 84-100.5 67.5-106.5 63.5q-2 0-6 4l-89-63q-46-33-85-72t-63.5-87.5-24.5-109.5zM741 1104q0 51-20.5 86t-53 56.5-71.5 31.5-76 10q-27 0-64.5-9t-71.5-29.5-57.5-54.5-23.5-85q0-49 16.5-87t47-70.5 75.5-61.5l101-62 74 65q36 32 64 65.5t44 69.5 16 75z" horiz-adv-x="1050" unicode="&#x38;"/><glyph d="M516 526q-98 0-175 37t-129 98.5-80 141.5-28 166q0 74 23 152.5t74 144 130 107.5 193 42q104 0 179-33.5t126.5-91 82-133.5 46-157.5 20.5-166.5 5-161q0-158-36-284t-101.5-214-155.5-135-198-47q-72 0-133.5 13t-111.5 33.5-88 45.5-65 47l88 123q25-25 58.5-48.5t71.5-42 80-30.5 85-12q63 0 126 25.5t113 89 81.5 170 36.5 268.5q-55-72-140.5-110t-177.5-38zM530 1286q-57 0-107-21.5t-88-61.5-59.5-97-21.5-127q0-66 17.5-123t51-102 86-71 121.5-26q49 0 96.5 18.5t87.5 51.5 68.5 79 38.5 103q-10 84-32.5 154t-57.5 119-85 76.5-116 27.5z" horiz-adv-x="1095" unicode="&#x39;"/><glyph d="M129 469q0 43 32 74.5t77 31.5q43 0 73.5-31.5t30.5-74.5q0-45-30.5-76t-73.5-31q-45 0-77 31t-32 76zM129 899q0 43 32 75t77 32q43 0 73.5-32t30.5-75q0-45-30.5-75.5t-73.5-30.5q-45 0-77 30.5t-32 75.5z" horiz-adv-x="471" unicode="&#x3a;"/><glyph d="M115-195l73-36q31 29 56.5 70.5t46 88.5 32 98.5 11.5 98.5q0 45-7.5 83t-11.5 54l-159-26 47-238-88-164v-29zM115 530q0 43 31.5 75t76.5 32q43 0 74-32t31-75q0-45-31-75.5t-74-30.5q-45 0-76.5 30.5t-31.5 75.5z" horiz-adv-x="466" unicode="&#x3b;"/><glyph d="M668 991l-422-297 422-295v-145l-609 426v33l609 420v-142z" horiz-adv-x="821" unicode="&#x3c;"/><glyph d="M139 635h619v-129h-619v129zM139 889h619v-129h-619v129z" horiz-adv-x="897" unicode="&#x3d;"/><glyph d="M154 1133l608-420v-33l-608-426v145l421 295-421 297v142z" horiz-adv-x="821" unicode="&#x3e;"/><glyph d="M213 485q-2 10-3 25.5t-1 34.5q0 74 28.5 125t71.5 89 93.5 70.5 93.5 70.5 71.5 88 28.5 124q0 29-9 59.5t-33 55-62.5 41-98.5 16.5q-31 0-69.5-5t-67.5-13l-55-197h-105l39 293q63 20 131 35.5t142 15.5q90 0 154.5-22.5t105.5-62.5 60.5-93 19.5-115q0-78-27-137t-70-107.5-99-89.5-116-79q-70-47-88-101.5t-18-91.5q0-8 1-15t1-12zM178 100q0 43 32 75t77 32q43 0 73.5-32t30.5-75q0-45-30.5-75.5t-73.5-30.5q-45 0-77 30.5t-32 75.5z" horiz-adv-x="813" unicode="&#x3f;"/><glyph d="M813-8q-78 0-146.5 27.5t-119.5 82-80 132-29 180.5q0 129 40 212t98.5 129 125 63.5 117.5 17.5q92 0 174-39l88 41 45-13v-651q0-20 7.5-30.5t17.5-15.5 21.5-6 19.5-1q43 0 82 31.5t68.5 83 47 115 17.5 124.5q0 127-39 232.5t-110.5 181.5-174 118-229.5 42q-135 0-251-47.5t-200-130.5-131-193.5-47-237.5q0-125 46-240.5t127-203.5 189.5-141.5 235.5-53.5q66 0 131.5 11.5t120.5 33.5l27-8-35-131q-121-35-248-35-158 0-292 63.5t-232 170-153.5 247-55.5 291.5q0 156 62.5 290t169 232.5 247 155 293.5 56.5q154 0 281-52.5t218-145.5 140-223 49-286q0-84-23.5-169t-68.5-153.5-112.5-112.5-155.5-44q-117 0-166 65-27-23-79-44t-128-21zM829 707q-31 0-73.5-9.5t-82.5-40-69-87-29-148.5q0-94 25-152.5t62.5-91.5 81.5-45 83-12q47 0 89 15.5t71 35.5v494q-29 16-70 28.5t-88 12.5z" horiz-adv-x="1652" unicode="&#x40;"/><glyph d="M745 0v90l166 43-108 361h-457l-106-367 180-35v-92h-397l-27 96 110 37 392 1282h172l393-1282 96-37-22-96h-392zM571 1262l-186-639h379z" horiz-adv-x="1167" unicode="&#x41;"/><glyph d="M371 643v-504h262q76 0 127 22.5t81.5 59.5 44 83 13.5 95q0 51-22.5 96.5t-62.5 78-94 51-120 18.5h-229zM838 1034q0 49-16.5 93t-52.5 77-94.5 52.5-139.5 19.5h-164v-504h194q72 0 123 22.5t85 59.5 49.5 84 15.5 96zM127 0l-14 115 116 24v1145l-116 10v121h426q109 0 191.5-28.5t139-79 85-118 28.5-145.5q0-72-16.5-124t-43-89.5-58-63.5-62.5-42q41-18 84-44t77.5-64.5 57-96 22.5-137.5q0-96-32.5-169t-92-120-143.5-70.5-184-23.5h-465z" horiz-adv-x="1140" unicode="&#x42;"/><glyph d="M227 713q2-121 38-226.5t104.5-184.5 167-125 225.5-46q70 0 140.5 19.5t121.5 52.5l51-125q-53-37-139-61.5t-172-24.5q-156 0-282 54t-215 149.5-137 227.5-48 286q0 143 50 272t140 225.5 216 152.5 280 56q66 0 123-7t117-19l36-324h-116l-49 201q-16 2-36 6t-71 4q-129 0-228.5-47t-169-125-107.5-179-40-212z" horiz-adv-x="1138" unicode="&#x43;"/><glyph d="M113 115l116 26v1143l-116 10v121h293q158 0 294-42t235-129 156.5-219 57.5-310q0-182-50-316.5t-144.5-223.5-226.5-132-296-43h-305zM1004 713q0 125-39 228t-113 178-181.5 116-244.5 41h-55v-1137h90q162 0 266 50.5t165.5 131 86.5 184.5 25 208z" horiz-adv-x="1239" unicode="&#x44;"/><glyph d="M113 1294v121h815l41-350h-99l-69 211h-430v-504h331v-129h-331v-504h450l72 211h96l-39-350h-823l-14 115 116 24v1145z" horiz-adv-x="1071" unicode="&#x45;"/><glyph d="M672 0h-547l-12 115 116 24v1145l-116 10v121h815l43-350h-99l-71 213h-430v-506h331v-129h-331v-496l311-43z" horiz-adv-x="1007" unicode="&#x46;"/><glyph d="M1114 641v-606q-76-23-158-33t-165-10q-154 0-284 52t-224.5 145.5-147.5 222.5-53 284q0 158 50 290t143.5 227.5 224.5 148.5 291 53q76 0 147.5-10t136.5-27l23-315h-129l-47 203q-31 4-72 7t-70 3q-133 0-236.5-45t-174-123-106.5-182.5-36-223.5q0-129 42-233t118-180 181.5-117 234.5-41q39 0 86 3t84 11v342l-252 29 37 125h356z" horiz-adv-x="1243" unicode="&#x47;"/><glyph d="M975 131v533h-606v-533l118-8v-123h-360l-10 115 112 16v1153l-118 8v123h362l8-115-112-16v-491h606v491l-119 8v123h361l10-115-113-16v-1153l119-8v-123h-363l-8 115z" horiz-adv-x="1343" unicode="&#x48;"/><glyph d="M229 131v1153l-116 8v123h360l8-115-110-16v-1153l116-8v-123h-360l-8 115z" horiz-adv-x="600" unicode="&#x49;"/><glyph d="M238 1300l12 115h395v-123l-119-8v-989q0-111-30.5-172.5t-71.5-90-84-34.5-68-6q-70 0-135 27.5t-114 70.5l79 119q20-20 66.5-51t114.5-31q43 0 73.5 27.5t30.5 97.5v1032z" horiz-adv-x="733" unicode="&#x4a;"/><glyph d="M229 131v1153l-116 8v123h360l8-115-110-16v-698l573 706-162 13v110h389v-115l-69-14-410-506 367-645 123-18v-117h-217l-369 662-225-279v-252l116-8v-123h-360l-8 115z" horiz-adv-x="1216" unicode="&#x4b;"/><glyph d="M111 1292v123h381l8-115-131-16v-1145h450l72 211h96l-39-350h-823l-14 115 116 16v1153z" horiz-adv-x="1015" unicode="&#x4c;"/><glyph d="M463 1415l399-1237 383 1237h324l12-123-106-10v-1145l122-24v-113h-368l-10 113 114 26v1164l-395-1272h-178l-402 1245v-1141l129-20v-115h-360l-16 115 118 24v1145l-116 10v121h350z" horiz-adv-x="1701" unicode="&#x4d;"/><glyph d="M356 1288v-1153l138-20v-115h-367l-16 115 118 24v1145l-118 10v121h342l553-1261v1126l-132 20v115h365l21-115-125-24v-1276h-215z" horiz-adv-x="1349" unicode="&#x4e;"/><glyph d="M662-8q-145 0-251 62.5t-174.5 163.5-101.5 228-33 256 33 256 101.5 228.5 174 165 251.5 63.5q145 0 250.5-63.5t173-165 100.5-228.5 33-256-33-256-100.5-228-173-163.5-250.5-62.5zM248 698q0-104 22.5-205.5t71.5-182.5 128-130 192-49 190.5 49 126.5 130 71.5 182.5 22.5 205.5-22.5 208-71.5 186-127 133-190 51q-113 0-192-51t-128-133-71.5-186-22.5-208z" horiz-adv-x="1320" unicode="&#x4f;"/><glyph d="M481 680q121 0 197 25.5t118 68.5 56 97.5 14 111.5q0 76-27.5 131t-76.5 91-115.5 53.5-144.5 17.5h-131v-596h110zM113 113l116 26v1145l-116 10v121h336q166 0 275.5-39t173-100.5 89-138 25.5-152.5q0-117-44-202t-117-138-168-78.5-196-25.5h-116v-398l286-39v-104h-530z" horiz-adv-x="1064" unicode="&#x50;"/><glyph d="M580-59l436-150 10-57-172-125-164 136-158 140zM666-8q-145 0-252 62.5t-176.5 163.5-102.5 228-33 256 33 256 102.5 228.5 176 165 252.5 63.5q145 0 251.5-63.5t175-165 102.5-228.5 34-256-34-256-102.5-228-175-163.5-251.5-62.5zM252 698q0-104 22.5-205.5t71.5-182.5 128-130 192-49 190.5 49 126.5 130 71.5 182.5 22.5 205.5-22.5 208-71.5 187-127 134-190 51q-113 0-192-51t-128-134-71.5-187-22.5-208z" horiz-adv-x="1329" unicode="&#x51;"/><glyph d="M113 113l116 26v1145l-116 10v121h356q119 0 218-25.5t171-77.5 113-133 41-194q0-84-23.5-149.5t-65.5-115.5-98.5-86-122.5-56l209-445 133-29v-104h-241l-246 545q-23-2-45.5-3t-44.5-1h-96v-398l159-39v-104h-403zM481 680q76 0 145.5 13.5t123 48 85 93 31.5 148.5q0 78-26.5 133t-72.5 91-108.5 52.5-136.5 16.5h-151v-596h110z" horiz-adv-x="1114" unicode="&#x52;"/><glyph d="M229 375l56-203q39-18 93-29.5t99-11.5q53 0 105.5 14.5t93.5 44 66.5 74.5 25.5 107q0 78-36 138t-140 114l-167 75q-85 37-154.5 84t-114.5 114-45 169q0 82 33.5 146.5t91 109.5 132 69.5 158.5 24.5q86 0 163-18.5t153-46.5l26-316h-112l-86 217q-39 16-78 21.5t-82 5.5q-47 0-92-12.5t-81-37-58.5-61.5-22.5-86q0-68 33-113.5t83-78.5 112-59l122-52q92-43 152.5-90t94.5-96 47-100.5 13-104.5q0-94-35.5-168t-95-124-139.5-76.5-166-26.5q-88 0-177 15.5t-167 51.5l-22 316h118z" horiz-adv-x="1005" unicode="&#x53;"/><glyph d="M260 0v106l232 37v1133h-281l-80-199h-94l47 338h952l47-338h-94l-80 199h-278v-1133l235-37v-106h-606z" horiz-adv-x="1120" unicode="&#x54;"/><glyph d="M854 1292v123h348l8-115-112-16v-870q0-100-36-179t-97.5-132.5-145.5-82-178-28.5q-96 0-178 29.5t-141.5 85-92 133-32.5 174.5v870l-119 8v123h362l9-115-113-16v-848q0-147 84-227t233-80q63 0 120.5 16.5t102 53.5 70 95 25.5 142v848z" horiz-adv-x="1286" unicode="&#x55;"/><glyph d="M420 1415v-90l-180-43 342-1055 350 1061-187 35v92h402v-96l-82-37-426-1282h-133l-416 1282-74 37v96h404z" horiz-adv-x="1150" unicode="&#x56;"/><glyph d="M412 1415v-90l-160-43 231-1102 318 1188h174l311-1200 234 1120-160 35v92h373v-96l-82-37-273-1282h-186l-309 1180-308-1180h-204l-265 1282-79 37v96h385z" horiz-adv-x="1753" unicode="&#x57;"/><glyph d="M41 0v111l92 14 359 586-351 573-96 23v108h399v-88l-145-31 291-475 264 475-121 21v98h367v-110l-92-15-342-592 338-544 131-48v-106h-406v106l127 13-291 473-280-473 118-21v-98h-362z" horiz-adv-x="1159" unicode="&#x58;"/><glyph d="M387 1415v-108l-129-21 311-610 287 612-125 17v110h352v-123l-88-20-370-774v-355l235-37-18-106h-574l-20 106 237 37v383l-383 748-88 18v123h373z" horiz-adv-x="1103" unicode="&#x59;"/><glyph d="M997 1237l-737-1098h612l41 209h97v-348h-895l-19 154 754 1122h-606l-41-209h-97v348h871z" horiz-adv-x="1110" unicode="&#x5a;"/><glyph d="M180 1370h422q12 0 12-16v-111h-309v-1483h309v-110q0-16-12-17h-409l-27 33v1675z" horiz-adv-x="626" unicode="&#x5b;"/><glyph d="M47 1395l2 20h135l695-1388-7-27h-124z" horiz-adv-x="927" unicode="&#x5c;"/><glyph d="M461 1341v-1675l-27-33h-409q-12 0-13 17v110h310v1483h-310v111q0 16 13 16h421z" horiz-adv-x="626" unicode="&#x5d;"/><glyph d="M106 1192l240 291h31l237-287-6-14h-112l-136 141-135-141h-110z" horiz-adv-x="720" unicode="&#x5e;"/><glyph d="M20-129v102l25 27h1096q12 0 12-14v-115h-1133z" horiz-adv-x="1173" unicode="&#x5f;"/><glyph d="M399 1133l-286 245 90 109h53l213-287z" horiz-adv-x="581" unicode="&#x60;"/><glyph d="M750 162q0-23 9-41.5t38-18.5q10 0 21 3.5t22 7.5l22-78q-23-23-52.5-33t-59.5-10q-55 0-82 25.5t-37 64.5q-47-43-107.5-66.5t-134.5-23.5q-61 0-116.5 18.5t-97.5 53-66.5 85-24.5 113.5q0 104 56.5 168t138 98.5 175 47 167.5 14.5v131q0 66-49.5 104.5t-131.5 38.5q-31 0-72.5-5t-68.5-21l-33-109-168 31q18 57 52 98t78 68.5 95.5 41 104.5 13.5q170 0 246-79t76-212v-528zM219 268q0-72 49-115.5t135-43.5q63 0 123 29.5t95 82.5v254q-53 0-122-7t-131.5-28.5-105.5-62.5-43-109z" unicode="&#x61;"/><glyph d="M283 1427v-522q45 37 103 56.5t120 19.5q102 0 177-40t124-106.5 73.5-154.5 24.5-184-25.5-187.5-77.5-162-132-112.5-189-42q-59 0-115.5 12t-105.5 41l-42-30q-22-15-32-15h-32v1354l-125-8-17 106 215 37zM477 109q82 0 138.5 32.5t91 87 49 122 14.5 134.5q0 66-14.5 133.5t-46 122-85 89-130.5 34.5q-57 0-120-28.5t-91-75.5v-586q41-33 91-49t103-16z" horiz-adv-x="991" unicode="&#x62;"/><glyph d="M694 764l-121 96q-16 4-38 4h-35q-84 0-137.5-34.5t-84-90-43-125-12.5-139.5q0-68 14.5-134.5t49.5-117.5 93-82.5 148-31.5q59 0 109.5 13t99.5 42l35-101q-53-41-122.5-56t-141.5-15q-111 0-189.5 40t-130 107.5-76 155.5-24.5 182q0 98 23.5 189.5t75 161 131 111.5 192.5 42q92 0 163.5-23.5t110.5-52.5z" horiz-adv-x="829" unicode="&#x63;"/><glyph d="M584 1346l-17 106 215 37 56-62v-1265q0-23 9-41.5t38-18.5q10 0 21.5 3.5t21.5 7.5l22-82q-23-23-59.5-31t-54.5-8q-53 0-79 25.5t-36 58.5q-47-43-105.5-63.5t-123.5-20.5q-104 0-180 43t-126.5 111.5-75 156.5-24.5 178q0 102 26.5 193.5t79 159 132 107.5 188.5 40q63 0 111.5-12.5t85.5-28.5v414zM520 864q-84 0-140-32.5t-92-86-51.5-120-15.5-136.5q0-66 14.5-133t48-122.5 88-90 132.5-34.5q59 0 115.5 26.5t89.5 77.5v580q-35 39-85.5 55t-103.5 16z" horiz-adv-x="1013" unicode="&#x64;"/><glyph d="M541 106q66 0 129 19.5t110 54.5l35-110q-59-43-134-60.5t-151-17.5q-113 0-195.5 38t-138 103.5-83 153.5-27.5 188q0 104 28.5 196.5t84 161 135.5 108.5 182 40q61 0 117.5-18.5t97.5-52 65.5-84 24.5-113.5q0-111-56-176.5t-144.5-100.5-192.5-46-201-11q20-119 95.5-196t218.5-77zM256 500q57 0 132 4t140.5 25.5 111.5 63.5 46 120q0 41-15.5 69.5t-40 47-55 26.5-61.5 8q-72 0-125-29.5t-89-79.5-56.5-116-22.5-139h35z" horiz-adv-x="907" unicode="&#x65;"/><glyph d="M78 864l-29 94 14 23h144v240q0 119 58.5 193.5t191.5 74.5q61 0 119.5-22.5t109.5-53.5l-100-139-115 98q-10 0-18.5 1t-18.5 1q-33 0-52.5-11t-29.5-29.5-13-41-3-47.5v-264h225q10 0 10-12v-105h-235v-739l225-33v-92h-459l-16 90 121 29v745h-129z" horiz-adv-x="636" unicode="&#x66;"/><glyph d="M463 981q74 0 136.5-21.5t109.5-62.5l186 92 39-6 20-139-178-23q27-41 41-91t14-107q0-80-27.5-146.5t-76.5-114-116.5-74-147.5-26.5q-57 0-107 12l-43-63 6-43 82-23 72-20 62-14q63-16 122.5-38t105.5-55.5 72.5-85 26.5-125.5q0-88-35.5-153.5t-94-109.5-134.5-65.5-154-21.5-149.5 21.5-126.5 62.5-89 102.5-34 141.5q0 53 16.5 97t44 79 60.5 60.5 67 41.5q-31 20-49 47t-18 68q0 43 23.5 80t52.5 68q-68 47-107 121.5t-39 173.5q0 80 27 146.5t76 113.5 116.5 73.5 147.5 26.5zM174-211q0-53 27.5-91t68.5-62.5 89.5-37 91.5-12.5q55 0 107 14.5t94 40 67.5 63.5 25.5 87q0 59-35.5 95t-91 58.5-123 37-130.5 30.5q-76-27-133.5-83t-57.5-140zM463 864q-111 0-171.5-68.5t-60.5-172.5 60.5-174 171.5-70 172 69.5 61 174.5q0 104-61 172.5t-172 68.5z" horiz-adv-x="974" unicode="&#x67;"/><glyph d="M309 1427v-524q53 37 116.5 57.5t129.5 20.5q141 0 217-75t76-222v-565l125-29v-90h-369l-8 90 123 29v551q0 195-174 194-63 0-126-23.5t-110-64.5v-657l115-27v-92h-352l-11 90 119 29v1235h-112l-19 100 201 35z" horiz-adv-x="1019" unicode="&#x68;"/><glyph d="M328 924v-803l125-31v-90h-359l-18 88 123 31v733l-111-8-18 104 202 37zM121 1374q0 45 30.5 77t75.5 32 77-32 32-77-32-75.5-77-30.5-75.5 30.5-30.5 75.5z" horiz-adv-x="509" unicode="&#x69;"/><glyph d="M109 1374q0 45 30.5 77t75.5 32 77-32 32-77-32-75.5-77-30.5-75.5 30.5-30.5 75.5zM47 842l-16 104 231 39 55-61v-1264q0-41-8-80t-30.5-69.5-60.5-50-97-19.5q-33 0-61.5 8t-50 19.5-38 23.5-24.5 21l67 98q16-16 45-35.5t64-19.5q45 0 55 36.5t10 88.5v1171z" horiz-adv-x="466" unicode="&#x6a;"/><glyph d="M309 1427v-872l361 334h-84l-17 96h283l29-55-344-322 251-495 107-23v-90h-203l-262 512-121-115v-278l115-27v-92h-352l-11 90 119 29v1235h-112l-19 100 205 35z" horiz-adv-x="937" unicode="&#x6b;"/><glyph d="M311 1427v-1310l125-27v-90h-375l-10 90 131 29v1235h-112l-19 100 201 35z" horiz-adv-x="493" unicode="&#x6c;"/><glyph d="M1399 119l125-29v-90h-369l-8 90 123 29v551q0 195-174 194-47 0-110.5-16.5t-129.5-85.5q6-37 6-78v-565l125-29v-90h-369l-8 90 123 29v551q0 195-174 194-63 0-125.5-22.5t-109.5-63.5v-657l125-31v-90h-355l-12 88 113 31v741l-111-8-18 96 206 37 45-84q57 39 127 59.5t125 20.5q78 0 139.5-24.5t100.5-77.5q47 37 91 58t82 30.5 67.5 11.5 46.5 2q147 0 225-75t78-222v-565z" horiz-adv-x="1570" unicode="&#x6d;"/><glyph d="M862 119l125-29v-90h-369l-8 90 123 29v551q0 195-174 194-63 0-125.5-22.5t-109.5-63.5v-657l125-31v-90h-355l-12 88 113 31v741l-111-8-18 96 206 37 45-84q115 80 252 80 141 0 217-75t76-222v-565z" horiz-adv-x="1034" unicode="&#x6e;"/><glyph d="M86 492q0 98 26.5 188t79 157.5 129 107.5 179.5 40q109 0 187.5-41t128.5-110.5 74.5-158.5 24.5-183q0-96-24.5-185.5t-74.5-160-129-112.5-187-42q-106 0-184 43t-129.5 112.5-76 160-24.5 184.5zM221 467q0-66 15.5-129.5t49-113.5 87-81.5 127.5-31.5q78 0 132 32.5t87 86 47 120 14 131.5q0 63-14 132t-48 125.5-87 92-131 35.5q-80 0-133.5-41t-85-100-46-130-14.5-128z" horiz-adv-x="1001" unicode="&#x6f;"/><glyph d="M61 844l-16 104 215 37 55-74q45 33 103.5 51.5t120.5 18.5q102 0 177-40t124-106.5 73.5-154.5 24.5-184-25.5-187.5-78-162-132-112.5-188.5-42q-53 0-103.5 9t-95.5 32v-459l248-43v-90h-479l-18 90 120 29v1292zM510 109q82 0 138.5 32.5t91 87 49 122 14.5 134.5q0 66-14.5 133.5t-46 122-85 89-131.5 34.5q-57 0-119.5-28.5t-91.5-75.5v-586q41-33 91.5-49t103.5-16z" horiz-adv-x="1024" unicode="&#x70;"/><glyph d="M838 963v-1403l120-29v-90h-483l-14 90 248 55v480q-31-27-86.5-50.5t-137.5-23.5q-84 0-156.5 32.5t-125.5 95-85 152.5-32 207q0 150 44 248t107.5 155.5 136 80 130.5 22.5q72 0 123-17.5t92-43.5l47 59zM516 866q-47 0-99-16t-95-58-72-116-29-187 26.5-185.5 67.5-115.5 89.5-60 93.5-17q76 0 132 32.5t79 69.5v580q-20 25-71.5 49t-121.5 24z" horiz-adv-x="989" unicode="&#x71;"/><glyph d="M326 901q45 41 100 62.5t106 21.5q45 0 82-12t67-32.5 52.5-44.5 38.5-46l-156-76-69 94q-29 0-67-12t-72.5-40-58-71-23.5-106v-508l286-41v-90h-518l-18 90 121 29v731h-111l-16 98 200 35z" horiz-adv-x="790" unicode="&#x72;"/><glyph d="M408 985q68 0 123-19.5t97-48 69.5-63.5 41.5-68l-159-59-48 104q-12 10-40.5 22.5t-83.5 12.5q-23 0-51.5-7t-54.5-23.5-43-42-17-64.5q0-35 11-58.5t38.5-43 72-38 109.5-38.5q129-43 187.5-111.5t58.5-173.5q0-68-28.5-120t-74-85.5-103.5-51-116-17.5q-70 0-124 19.5t-95 48-68.5 63.5-43.5 65l159 62 47-107q10-6 43-19t95-13q27 0 56.5 8t56 26.5 44 45 17.5 63.5-11.5 64.5-37 49-68.5 41-107 42.5q-111 35-182.5 98t-71.5 168q0 63 25 113.5t67 84 96.5 52 113.5 18.5z" horiz-adv-x="813" unicode="&#x73;"/><glyph d="M43 868l-29 90 15 23h180q0 125 1 219t1 125l115 29 12-23q-2-49-2-96v-254h217q10 0 10-12v-101h-229v-661q0-55 23.5-75.5t68.5-20.5q43 0 80 21.5t51 31.5l35-105q-25-18-71-42.5t-130-24.5q-98 0-143 63.5t-45 161.5v68q0 61 1 153t2 205 1 225h-164z" horiz-adv-x="620" unicode="&#x74;"/><glyph d="M594 850l-14 98 204 39 50-59v-778q0-27 14-36.5t33-9.5q12 0 22 3.5t15 3.5l16-72q-12-14-43-30.5t-74-16.5q-82 0-104 84-47-39-110.5-61.5t-129.5-22.5q-59 0-113.5 16.5t-97.5 54-68.5 100-25.5 156.5v531h-111l-18 98 207 37 51-57v-602q0-80 22.5-123t54.5-63.5 67.5-24.5 60.5-4q57 0 117.5 28.5t85.5 67.5v643h-111z" horiz-adv-x="1003" unicode="&#x75;"/><glyph d="M393 0l-295 872h-78l-16 99 205 14 266-797 260 684h-92l-10 99 205 14 39-76-353-909h-131z" horiz-adv-x="899" unicode="&#x76;"/><glyph d="M750 911l243-755 166 716h-92l-18 101 221 10 28-53-227-930h-176l-205 672-203-672h-196l-174 872h-86l-17 101 226 10 159-838 242 766h109z" horiz-adv-x="1361" unicode="&#x77;"/><glyph d="M82 0l-21 106h86l234 392-234 364h-86v119h170l252-389 234 389h143v-109h-67l-238-391 236-362h86v-119h-175l-249 385-230-385h-141z" horiz-adv-x="933" unicode="&#x78;"/><glyph d="M893 911l-211-576-231-622q-16-45-37-93t-49.5-88-67.5-65.5-94-25.5q-53 0-97.5 21.5t-82.5 52.5l63 106q6-6 17.5-16.5t26.5-20.5 33.5-17 41.5-7q31 0 53.5 19.5t40.5 48 31.5 62.5 23.5 64l54 150-316 966h-69l-17 101 195 12 280-872 271 759h-74l-16 101 196 12z" horiz-adv-x="919" unicode="&#x79;"/><glyph d="M776 860l-518-741h389l33 192h96v-311h-680v119l504 741h-375l-32-170h-97v291h680v-121z" horiz-adv-x="876" unicode="&#x7a;"/><glyph d="M29 647q45 0 86 14.5t72.5 40 51 64.5 19.5 88v47q0 35-1 74t-1 74v57q0 66 11.5 125t40 103 76.5 71 124 27q33 0 61.5-3.5l63.5-7.5-43-157-117 34-18-4q-39-16-51.5-77.5t-12.5-137.5q0-51 2-104t2-103q0-78-15-133t-44-91-69-55.5-91-25.5l-16-2v-8l16-2q104-12 161.5-82t57.5-231q0-49-2-99.5t-2-99.5q0-84 12.5-150.5t51.5-82.5l18-7 117 35 43-155q-35-6-63.5-9.5t-61.5-3.5q-76 0-124 27t-76.5 72-40 104-11.5 125v57q0 41 1 83t1 79v51q0 104-62.5 155.5t-166.5 51.5v172z" horiz-adv-x="632" unicode="&#x7b;"/><glyph d="M285 1364v-1704h-117v1704h117z" horiz-adv-x="452" unicode="&#x7c;"/><glyph d="M606 475q-106 0-168.5-51t-62.5-156v-51q0-37 1-79t1-83v-57q0-66-11.5-125t-40-104-77.5-72-123-27q-31 0-60.5 3t-64.5 10l43 155 117-35 20 7q39 16 50.5 82.5t11.5 150.5q0 49-2 99.5t-2 99.5q0 162 57 231.5t162 81.5l16 2v8l-16 2q-51 6-92 25.5t-69 55.5-43 91.5-15 132.5q0 49 2 102.5t2 104.5q0 76-11.5 137.5t-50.5 77.5l-20 4-117-34-43 157 64.5 7.5t60.5 3.5q74 0 123-27t77.5-71 40-103.5 11.5-124.5v-57q0-35-1-74t-1-74v-47q0-49 19.5-88t51-64.5 73.5-40 87-14.5v-172z" horiz-adv-x="634" unicode="&#x7d;"/><glyph d="M545 1272l114 86 76-127q-39-33-87-55.5t-105-22.5q-39 0-72 12l-65 26-66 26q-33 12-70 12-43 0-73.5-29t-44.5-65l-89 53 5 14q33 78 89 117t117 39q45 0 83-13.5t71-29.5l61-30q29-13 56-13z" horiz-adv-x="792" unicode="&#x7e;"/><glyph d="M299 532l55-870-43-78-168 25 37 923h119zM133 899q0 45 31 76t76 31q43 0 74.5-31t31.5-76q0-43-31.5-74.5t-74.5-31.5q-45 0-76 31.5t-31 74.5z" horiz-adv-x="489" unicode="&#xa1;"/><glyph d="M682 764l-121 96q-2 0-4 1t-4 1v-753q47 4 89 17t83 38l35-101q-43-33-96.5-49t-110.5-20v-318h-119v320q-94 12-163.5 55t-114.5 108.5-67.5 147.5-22.5 170q0 90 21.5 175t67.5 152.5 114.5 114 164.5 58.5v270h119v-268q72-8 129-29.5t90-44.5zM201 475q0-59 12-117.5t40-107.5 72-84 109-49v743q-68-12-111.5-50t-71.5-91-39-117-11-127z" horiz-adv-x="835" unicode="&#xa2;"/><glyph d="M449 674q-4-139-17.5-259t-75.5-204q63-6 118.5-21.5t104.5-32.5l89-32q41-14 73-14l115 86 74-127q-43-33-92.5-55.5t-104.5-22.5q-66 0-124 14t-110 32l-99 32q-46 14-85 14-72 0-105.5-28.5t-43.5-63.5l-111 37 4 14q20 47 50 77t67 62q45 39 71.5 92.5t41 117 17.5 135 3 147.5h-143v110l14 19h129v276q0 98 29 163t74 102.5 101 54 112 16.5q43 0 80.5-11t69.5-27.5 56.5-33 38.5-28.5l-98-135-121 102q-10 2-22.5 3t-22.5 1q-18 0-46-6t-52.5-26.5-41.5-59.5-17-104v-287h282q12 0 12-17v-112h-294z" horiz-adv-x="997" unicode="&#xa3;"/><glyph d="M344 1638v-909h-162v909h162zM182-438v981h162v-981h-162z" horiz-adv-x="526" unicode="&#xa4;"/><glyph d="M248 430h248v59h-248v129h248v23l-357 643-82 19v112h344v-96l-112-23 286-510 285 510-117 19v100h328v-115l-65-20-371-643v-19h233v-129h-233v-59h233v-129h-233v-158l233-37-16-106h-561l-19 106 224 37v158h-248v129z" horiz-adv-x="1128" unicode="&#xa5;"/><glyph d="M172 594v778h129v-778h-129zM172-354v766h129v-766h-129z" horiz-adv-x="473" unicode="&#xa6;"/><glyph d="M920 481q0-80-35-146.5t-76-111.5q41-41 65.5-94t24.5-123q0-84-36-146.5t-96-104.5-139-63.5-163-21.5q-102 0-177 17.5t-157 50.5l-20 311h118l41-217q12-6 34-11t49.5-10.5 59-8.5 60.5-3q49 0 98.5 11.5t89 36 64.5 64.5 25 97q0 55-31 95t-78 71-102.5 55.5-104.5 49.5q-150 72-233.5 150.5t-83.5 197.5q0 72 28.5 132t73.5 105q-53 43-81.5 97.5t-28.5 130.5q0 72 30.5 131t85 102 128 66.5 159.5 23.5q55 0 99-5t83-14.5 74-20.5 70-25l24-316h-110l-86 226q-29 12-65 19t-89 7q-51 0-97-13t-82-37-56.5-56.5-20.5-69.5q0-55 31.5-95t81-72 109.5-56l120-49q166-72 244-154t78-203zM477 729q-41 16-79 34l-70 34q-25-29-43.5-66t-18.5-76q0-41 18.5-73.5t55.5-63.5 94.5-63.5l136.5-73.5 70-38q35-19 70-42 27 35 42 80t15 84q0 53-25.5 92t-65.5 69.5-90 54.5-100 44z" horiz-adv-x="1013" unicode="&#xa7;"/><glyph d="M106 1081q0 41 29 71t72 30q41 0 71.5-30t30.5-71q0-43-30.5-72.5t-71.5-29.5q-43 0-72 29.5t-29 72.5zM418 1081q0 41 30.5 71t73.5 30q41 0 70-30t29-71q0-43-29-72.5t-70-29.5q-43 0-73.5 29.5t-30.5 72.5z" horiz-adv-x="727" unicode="&#xa8;"/><glyph d="M471 750q0-129 76-208t211-79q33 0 63.5 6t57 13 45 16.5 24.5 15.5l31-108q-33-20-89-41t-140-21q-86 0-159 28.5t-126 82-84 127-31 166.5q0 96 31 174.5t85 134 129 85 163 29.5q63 0 102-4t62-10l20-223h-82l-26 115q-10 2-39 3t-41 1q-59 0-110.5-18.5t-89.5-56.5-60.5-95-22.5-133zM84 762q0 137 49 257t137 210 209 142 266 52q143 0 265.5-52t210.5-142 137-210 49-257-49-257-137-210-210-142.5-266-52.5q-145 0-266 52.5t-209 142.5-137 210-49 257zM203 762q0-117 41-217.5t112.5-172 172-112.5 216.5-41q117 0 217.5 41t172 112.5 112.5 172 41 217.5-41 217-112.5 172-172 113-217.5 41-217-41-171.5-113-112.5-172-41-217z" horiz-adv-x="1490" unicode="&#xa9;"/><glyph d="M471 1006q0-27 16-27 6 0 13.5 3t11.5 3l20-63q-12-10-33.5-21.5t-52.5-11.5q-29 0-44 9t-25 26q-47-37-119-37-31 0-60.5 9t-54 27.5-40 45-15.5 63.5q0 53 26.5 87t66.5 52.5 88 25.5 93 9v45q0 8-2 21.5t-10 26-25.5 21.5-45.5 9q-29 0-50-14l-14-60-127 19q6 39 25.5 65.5t46 43 56.5 24.5 58 8q31 0 66-8t63.5-26.5 48-50.5 19.5-81v-243zM203 1034q0-14 12-37.5t57-23.5q37 0 57.5 16.5t30.5 36.5l2 10v84q-31 0-59.5-4t-51-13-35.5-25.5-13-43.5z" horiz-adv-x="608" unicode="&#xaa;"/><glyph d="M541 1049l-355-357 355-356-84-84-437 438 437 443zM836 1006l-312-314 312-313-84-84-394 395 394 400z" horiz-adv-x="929" unicode="&#xab;"/><glyph d="M952 854h-843v111l14 18h940l18-16v-420q0-14-16-15h-113v322z" horiz-adv-x="1228" unicode="&#xac;"/><glyph d="M672 537h-574v186h574v-186z" horiz-adv-x="772" unicode="&#xad;"/><glyph d="M84 762q0 137 49 257t137 210 209 142 266 52q143 0 265.5-52t210.5-142 137-210 49-257-49-257-137-210-210-142.5-266-52.5q-145 0-266 52.5t-209 142.5-137 210-49 257zM203 762q0-117 41-217.5t112.5-172 172-112.5 216.5-41q117 0 217.5 41t172 112.5 112.5 172 41 217.5-41 217-112.5 172-172 113-217.5 41-217-41-171.5-113-112.5-172-41-217zM479 459l53 14v598l-53 6v105h187q186 0 274-71t88-193q0-84-47-142.5t-127-87.5l147-219 70-14v-90h-153l-181 297q-16-2-30-3h-56v-184l105-20v-90h-269zM684 778q215 0 215 140 0 82-59.5 114.5t-141.5 32.5h-47v-287h33z" horiz-adv-x="1490" unicode="&#xae;"/><glyph d="M117 1290v111l14 18h485q14 0 15-16v-113h-514z" horiz-adv-x="747" unicode="&#xaf;"/><glyph d="M78 1290q0 92 47 152.5t145 60.5 145.5-60.5 47.5-152.5-47-153.5-146-61.5q-98 0-145 61.5t-47 153.5zM186 1290q0-43 20.5-81t63.5-38 64.5 38 21.5 81q0 39-21.5 78t-64.5 39-63.5-39-20.5-78z" horiz-adv-x="540" unicode="&#xb0;"/><glyph d="M555 1147v-227h283v-129h-283v-232h-113l-16 27v205h-283v98l27 31h256v227h129zM838 346h-695v119l17 24h678v-143z" horiz-adv-x="985" unicode="&#xb1;"/><glyph d="M109 889l-7 57 52 46q37 34 74.5 77t66.5 90 29 90q0 70-68 70-16 0-28.5-3t-22.5-7q-2 0-4-8.5t-19-55.5l-96 29q20 78 75.5 109.5t114.5 31.5q61 0 108.5-40t47.5-115q0-43-15.5-82t-38-73-47.5-62l-46-48-21-20h94l29 65h64l-23-151h-319z" horiz-adv-x="542" unicode="&#xb2;"/><glyph d="M139 1038q23-20 50.5-36.5t74.5-16.5q49 0 68.5 21.5t19.5 42.5q0 20-13 32.5t-32.5 18.5-44 8-49.5 2v90q113 0 113 66 0 18-13.5 35.5t-50.5 17.5q-35 0-49-12l-25-64-100 31q18 61 65.5 101t120.5 40q27 0 55.5-9t50-27.5 36-43 14.5-55.5q0-39-20.5-74t-69.5-43q55-10 88-39.5t33-83.5q0-76-57.5-113.5t-143.5-37.5q-63 0-107 21.5t-73 47.5z" horiz-adv-x="540" unicode="&#xb3;"/><glyph d="M106 1198l213 285h56l90-107-287-246z" horiz-adv-x="571" unicode="&#xb4;"/><glyph d="M618 850l-14 98 205 39 49-59v-778q0-27 15.5-36.5t31.5-9.5q12 0 22.5 3.5t14.5 3.5l16-72q-12-14-41.5-30.5t-72.5-16.5q-84 0-107 82-41-37-98-59.5t-133-22.5q-102 0-184 59-2-14-3-28v-31q0-31 1.5-59.5t1.5-51.5v-442h-129v1411h-111l-19 98 203 37 56-65v-621q0-68 26.5-105.5t62-56 69.5-22.5 50-4q53 0 111.5 24.5t87.5 69.5v645h-111z" horiz-adv-x="1050" unicode="&#xb5;"/><glyph d="M618 850l-14 98 205 39 49-59v-778q0-27 15.5-36.5t31.5-9.5q12 0 22.5 3.5t14.5 3.5l16-72q-12-14-41.5-30.5t-72.5-16.5q-84 0-107 82-41-37-98-59.5t-133-22.5q-102 0-184 59-2-14-3-28v-31q0-31 1.5-59.5t1.5-51.5v-442h-129v1411h-111l-19 98 203 37 56-65v-621q0-68 26.5-105.5t62-56 69.5-22.5 50-4q53 0 111.5 24.5t87.5 69.5v645h-111z" horiz-adv-x="1050" unicode="&#x3bc;"/><glyph d="M63 1024q0 66 24 135.5t76 125.5 138 93 211 37h434v-121h-86v-1294h-117v1294h-65v-1038q0-37-2-62.5t-12-35.5q-31-35-80-85l-90-89-109 151 154 88v389q-111 2-199 34t-149.5 86-94.5 129-33 163z" horiz-adv-x="1071" unicode="&#xb6;"/><glyph d="M129 817h195l18-18v-277h-213v295z" horiz-adv-x="471" unicode="&#xb7;"/><glyph d="M317-217l-36 39 77 209h140l-45-131q39-4 76.5-19.5t68.5-43 50.5-67.5 19.5-94q0-104-71-169.5t-214-65.5q-76 0-130 18l-106 37 89 168 151-94q55 0 92 27.5t37 74.5q0 39-40 75t-140 36h-19z" horiz-adv-x="815" unicode="&#xb8;"/><glyph d="M104 958l78 17v325l-80-12-18 72 190 59 19-10v-428l72-18v-74h-254z" horiz-adv-x="450" unicode="&#xb9;"/><glyph d="M80 1153q0 68 17.5 118t48 81.5 70.5 48 85 16.5q94 0 159.5-64.5t65.5-199.5-65.5-200.5-159.5-65.5q-92 0-156.5 65.5t-64.5 200.5zM195 1149q0-72 27.5-115t78.5-43q55 0 83 43t28 115q0 70-28 116t-83 46q-51 0-78.5-46t-27.5-116z" horiz-adv-x="606" unicode="&#xba;"/><glyph d="M389 336l354 356-354 357 84 84 436-439-436-442zM94 379l312 313-312 314 84 84 393-396-393-399z" horiz-adv-x="931" unicode="&#xbb;"/><glyph d="M778 76l172 22v142h-301v131l301 399h109v-434h100v-96h-100v-144l74-12v-84h-351zM260-43h-98l-6 27 714 1431h107l-2-29zM104 717l89 14v569l-103-12-16 72 211 59 18-10v-672l72-16v-76h-264zM950 336v278l-211-278h211z" horiz-adv-x="1224" unicode="&#xbc;"/><glyph d="M705 0l-11 63q14 16 49 48l78 71 89 88q46 47 85 95.5t63.5 96.5 24.5 89q0 47-16 74.5t-38.5 42-46.5 18.5-38 4q-29 0-53.5-7t-38.5-13l-59-123-111 69q37 63 105.5 111.5t160.5 48.5q102 0 172-55t70-170q0-72-40-142.5t-94.5-133-108.5-111.5-83-78h228l38 104h78l-24-190h-479zM102 717l88 14v569l-102-12-16 72 211 59 18-10v-672l72-16v-76h-264zM256-43h-98l-6 27 714 1431h107l-2-29z" horiz-adv-x="1280" unicode="&#xbd;"/><glyph d="M893 76l172 22v142h-301v131l301 399h109v-434h100v-96h-100v-144l73-12v-84h-350zM373-43h-99l-8 27 717 1431h107l-5-29zM127 776q31-29 73-48t95-19q27 0 56.5 8t54 24.5 40 42 15.5 62.5q0 72-58.5 108.5t-187.5 36.5v86q45 0 88 2t77 15.5 54.5 40 20.5 75.5q0 29-15.5 50.5t-37 36-45 21.5-42.5 7q-41 0-63-10l-35-15-55-94-90 58q12 25 32.5 50t51 46.5 72.5 36 98 14.5q43 0 84-12.5t71.5-38 50-63 19.5-89.5q0-61-37-114.5t-108-63.5q82-12 119.5-66.5t37.5-111.5q0-55-23.5-98t-62.5-72-87-44-97-15q-68 0-124 17t-99 48zM1065 336v278l-211-278h211z" horiz-adv-x="1339" unicode="&#xbe;"/><glyph d="M586 498q6-23 6-60 0-76-28.5-126t-71.5-89-93.5-70.5-93.5-69.5-71.5-88-28.5-124q0-29 9-59.5t32.5-55 61.5-41 98-16.5q33 0 71.5 5t65.5 11l57 199h102l-38-301q-25-8-58-15.5t-69.5-12.5-72.5-8-65-3q-180 0-263 82t-83 207q0 76 24.5 133t67.5 105.5 100 88.5l117 84q35 25 56.5 50.5t33 51 15.5 50.5 4 43q0 8-1 14t-1 11zM621 881q0-43-31-74t-76-31q-43 0-74.5 31t-31.5 74q0 47 31.5 77.5t74.5 30.5q45 0 76-30.5t31-77.5z" horiz-adv-x="784" unicode="&#xbf;"/><glyph d="M762 1468l-418 207 76 148 61 14 344-272zM745 0v90l166 43-108 361h-457l-106-367 180-35v-92h-397l-27 96 110 37 392 1282h172l393-1282 96-37-22-96h-392zM571 1262l-186-639h379z" horiz-adv-x="1167" unicode="&#xc0;"/><glyph d="M360 1565l324 272 61-14 76-148-395-207zM745 0v90l166 43-108 361h-457l-106-367 180-35v-92h-397l-27 96 110 37 392 1282h172l393-1282 96-37-22-96h-392zM571 1262l-186-639h379z" horiz-adv-x="1167" unicode="&#xc1;"/><glyph d="M559 1810h33l287-321h-150l-156 129-153-129h-152zM745 0v90l166 43-108 361h-457l-106-367 180-35v-92h-397l-27 96 110 37 392 1282h172l393-1282 96-37-22-96h-392zM571 1262l-186-639h379z" horiz-adv-x="1167" unicode="&#xc2;"/><glyph d="M879 1712l75-135q-16-14-36.5-29.5t-44-29-47-21.5-44.5-8q-47 0-79.5 16.5t-63.5 36-63.5 35.5-77.5 16q-66 0-98.5-31.5t-55.5-68.5l-76 63v33q6 12 21.5 35t43 45.5 68.5 38.5 101 16q76 0 130-34l120-80zM745 0v90l166 43-108 361h-457l-106-367 180-35v-92h-397l-27 96 110 37 392 1282h172l393-1282 96-37-22-96h-392zM571 1262l-186-639h379z" horiz-adv-x="1167" unicode="&#xc3;"/><glyph d="M745 0v90l166 43-108 361h-457l-106-367 180-35v-92h-397l-27 96 110 37 392 1282h172l393-1282 96-37-22-96h-392zM571 1262l-186-639h379zM260 1581q0 49 34 83t83 34q47 0 83-34t36-83-36-84-83-35q-49 0-83 35t-34 84zM621 1581q0 49 35.5 83t86.5 34q47 0 80-34t33-83-32.5-84-80.5-35q-51 0-86.5 35t-35.5 84z" horiz-adv-x="1167" unicode="&#xc4;"/><glyph d="M743 0v90l166 43-108 361h-457l-106-367 180-35v-92h-398l-26 96 110 37 377 1239q-41 25-65.5 69t-24.5 97q0 39 15.5 75t41 61.5 61.5 41 77 15.5q39 0 74.5-15.5t61.5-41 41-61.5 15-75q0-55-26.5-99t-69.5-71l379-1235 96-37-22-96h-392zM569 1262l-186-639h379zM508 1538q0-35 21.5-56.5t56.5-21.5 55.5 21.5 20.5 56.5-20.5 56.5-55.5 21.5-56.5-21.5-21.5-56.5z" horiz-adv-x="1161" unicode="&#xc5;"/><glyph d="M2 0l-27 96 109 37 485 1282h762l41-350h-98l-70 211h-387v-531h291v-129h-291v-477h408l71 211h97l-39-350h-758l-16 115 98 24v471h-277l-182-483 176-35v-92h-393zM678 1284l-23 2-206-547h229v545z" horiz-adv-x="1474" unicode="&#xc6;"/><glyph d="M600-184l-31 32 58 156q-125 23-224.5 84.5t-170 153.5-108.5 210.5-38 256.5q0 143 50 272t140.5 225.5 216 152.5 279.5 56q66 0 123-7t117-19l37-324h-117l-49 201q-16 2-36 6t-71 4q-129 0-229.5-47t-171-125-107.5-179.5-37-211.5q0-121 36-226.5t105.5-184.5 168-125 225.5-46q70 0 140.5 19.5t121.5 52.5l51-125q-53-37-139-61.5t-172-24.5q-6 0-12 1t-13 1l-24-78q33-4 66.5-16.5t61-37 44-59 16.5-82.5q0-90-61.5-147t-188.5-57q-57 0-99 12t-81 29l-24 8 75 145 134-82q49 0 80.5 24.5t31.5 65.5q0 33-34.5 65t-123.5 32h-16z" horiz-adv-x="1144" unicode="&#xc7;"/><glyph d="M672 1468l-418 207 76 148 61 14 344-272zM113 1294v121h815l41-350h-99l-69 211h-430v-504h331v-129h-331v-504h450l72 211h96l-39-350h-823l-14 115 116 24v1145z" horiz-adv-x="1071" unicode="&#xc8;"/><glyph d="M354 1565l324 272 61-14 76-148-395-207zM113 1294v121h815l41-350h-99l-69 211h-430v-504h331v-129h-331v-504h450l72 211h96l-39-350h-823l-14 115 116 24v1145z" horiz-adv-x="1071" unicode="&#xc9;"/><glyph d="M514 1810h33l289-321h-152l-156 129-153-129h-152zM113 1294v121h815l41-350h-99l-69 211h-430v-504h331v-129h-331v-504h450l72 211h96l-39-350h-823l-14 115 116 24v1145z" horiz-adv-x="1071" unicode="&#xca;"/><glyph d="M113 1294v121h815l41-350h-99l-69 211h-430v-504h331v-129h-331v-504h450l72 211h96l-39-350h-823l-14 115 116 24v1145zM244 1624q0 49 33.5 83t82.5 34q47 0 83-34t36-83-35.5-84-83.5-35q-49 0-82.5 35t-33.5 84zM604 1624q0 49 36 83t87 34q47 0 80-34t33-83-33-84-80-35q-51 0-87 35t-36 84z" horiz-adv-x="1071" unicode="&#xcb;"/><glyph d="M498 1468l-416 207 74 148 63 14 344-272zM229 131v1153l-116 8v123h360l8-115-110-16v-1153l116-8v-123h-360l-8 115z" horiz-adv-x="600" unicode="&#xcc;"/><glyph d="M76 1565l321 272 64-14 74-148-396-207zM229 131v1153l-116 8v123h360l8-115-110-16v-1153l116-8v-123h-360l-8 115z" horiz-adv-x="600" unicode="&#xcd;"/><glyph d="M289 1810h33l286-321h-149l-156 129-153-129h-152zM229 131v1153l-116 8v123h360l8-115-110-16v-1153l116-8v-123h-360l-8 115z" horiz-adv-x="600" unicode="&#xce;"/><glyph d="M41 1624q0 47 32.5 82t82.5 35q49 0 83.5-35t34.5-82q0-49-34.5-84t-83.5-35-82 35-33 84zM338 1624q0 47 35 82t84 35 81.5-35 32.5-82q0-49-32.5-84t-81.5-35-84 35-35 84zM229 131v1153l-116 8v123h360l8-115-110-16v-1153l116-8v-123h-360l-8 115z" horiz-adv-x="600" unicode="&#xcf;"/><glyph d="M115 115l116 26v502h-184v113l14 16h170v512l-116 10v121h293q158 0 294-42t235-129 156.5-219 57.5-310q0-182-50-316.5t-144.5-223.5-226.5-132-296-43h-305zM1006 713q0 125-39 228t-113 178-181.5 116-244.5 41h-55v-504h344q14 0 14-14v-115h-358v-504h90q162 0 266.5 50.5t165.5 131 86 184.5 25 208z" horiz-adv-x="1241" unicode="&#xd0;"/><glyph d="M956 1712l76-135q-16-14-36.5-29.5t-44-29-47-21.5-44.5-8q-47 0-79.5 16.5t-63.5 36-63.5 35.5-78.5 16q-66 0-98.5-31.5t-54.5-68.5l-76 63v33q6 12 21.5 35t43 45.5 68.5 38.5 101 16q76 0 130-34l119-80zM356 1288v-1153l138-20v-115h-367l-16 115 118 24v1145l-118 10v121h342l553-1261v1126l-132 20v115h365l21-115-125-24v-1276h-215z" horiz-adv-x="1349" unicode="&#xd1;"/><glyph d="M850 1468l-416 207 74 148 63 14 344-272zM662-8q-145 0-251 62.5t-174.5 163.5-101.5 228-33 256 33 256 101.5 228.5 174 165 251.5 63.5q145 0 250.5-63.5t173-165 100.5-228.5 33-256-33-256-100.5-228-173-163.5-250.5-62.5zM248 698q0-104 22.5-205.5t71.5-182.5 128-130 192-49 190.5 49 126.5 130 71.5 182.5 22.5 205.5-22.5 208-71.5 186-127 133-190 51q-113 0-192-51t-128-133-71.5-186-22.5-208z" horiz-adv-x="1320" unicode="&#xd2;"/><glyph d="M426 1565l324 272 61-14 76-148-395-207zM662-8q-145 0-251 62.5t-174.5 163.5-101.5 228-33 256 33 256 101.5 228.5 174 165 251.5 63.5q145 0 250.5-63.5t173-165 100.5-228.5 33-256-33-256-100.5-228-173-163.5-250.5-62.5zM248 698q0-104 22.5-205.5t71.5-182.5 128-130 192-49 190.5 49 126.5 130 71.5 182.5 22.5 205.5-22.5 208-71.5 186-127 133-190 51q-113 0-192-51t-128-133-71.5-186-22.5-208z" horiz-adv-x="1320" unicode="&#xd3;"/><glyph d="M629 1810h33l288-321h-151l-156 129-154-129h-151zM662-8q-145 0-251 62.5t-174.5 163.5-101.5 228-33 256 33 256 101.5 228.5 174 165 251.5 63.5q145 0 250.5-63.5t173-165 100.5-228.5 33-256-33-256-100.5-228-173-163.5-250.5-62.5zM248 698q0-104 22.5-205.5t71.5-182.5 128-130 192-49 190.5 49 126.5 130 71.5 182.5 22.5 205.5-22.5 208-71.5 186-127 133-190 51q-113 0-192-51t-128-133-71.5-186-22.5-208z" horiz-adv-x="1320" unicode="&#xd4;"/><glyph d="M946 1712l76-135q-16-14-36.5-29.5t-44-29-47.5-21.5-44-8q-47 0-80 16.5t-63.5 36-63.5 35.5-78 16q-66 0-98.5-31.5t-54.5-68.5l-76 63v33q6 12 21.5 35t43 45.5 68.5 38.5 100 16q76 0 130-34l120-80zM662-8q-145 0-251 62.5t-174.5 163.5-101.5 228-33 256 33 256 101.5 228.5 174 165 251.5 63.5q145 0 250.5-63.5t173-165 100.5-228.5 33-256-33-256-100.5-228-173-163.5-250.5-62.5zM248 698q0-104 22.5-205.5t71.5-182.5 128-130 192-49 190.5 49 126.5 130 71.5 182.5 22.5 205.5-22.5 208-71.5 186-127 133-190 51q-113 0-192-51t-128-133-71.5-186-22.5-208z" horiz-adv-x="1320" unicode="&#xd5;"/><glyph d="M662-8q-145 0-251 62.5t-174.5 163.5-101.5 228-33 256 33 256 101.5 228.5 174 165 251.5 63.5q145 0 250.5-63.5t173-165 100.5-228.5 33-256-33-256-100.5-228-173-163.5-250.5-62.5zM248 698q0-104 22.5-205.5t71.5-182.5 128-130 192-49 190.5 49 126.5 130 71.5 182.5 22.5 205.5-22.5 208-71.5 186-127 133-190 51q-113 0-192-51t-128-133-71.5-186-22.5-208zM383 1624q0 49 34 83t83 34q47 0 82.5-34t35.5-83-35.5-84-82.5-35q-49 0-83 35t-34 84zM743 1624q0 49 36 83t87 34q47 0 80-34t33-83-33-84-80-35q-51 0-87 35t-36 84z" horiz-adv-x="1320" unicode="&#xd6;"/><glyph d="M111 381l323 315-313 324 90 90 315-326 324 316 90-92-324-316 314-321-90-92-316 325-323-313z" horiz-adv-x="1050" unicode="&#xd7;"/><glyph d="M662-8q-152 0-267 69l-71-147h-131l-7 27 103 209q-96 104-141.5 252.5t-45.5 299.5q0 129 33 256t101.5 228.5 174 165 251.5 63.5q66 0 121-13t104-38l80 162h137l-2-29-103-209q113-104 166.5-262t53.5-324q0-129-33-256t-100.5-228-173-163.5-250.5-62.5zM662 131q113 0 190.5 49t126.5 130 71.5 182.5 22.5 205.5q0 127-32.5 249t-106.5 208l-475-967q41-29 91.5-43t111.5-14zM248 698q0-113 25.5-220t82.5-191l469 952q-35 16-75.5 26.5t-87.5 10.5q-113 0-192-51t-128-133-71.5-186-22.5-208z" horiz-adv-x="1320" unicode="&#xd8;"/><glyph d="M803 1468l-416 207 74 148 63 14 344-272zM854 1292v123h348l8-115-112-16v-870q0-100-36-179t-97.5-132.5-145.5-82-178-28.5q-96 0-178 29.5t-141.5 85-92 133-32.5 174.5v870l-119 8v123h362l9-115-113-16v-848q0-147 84-227t233-80q63 0 120.5 16.5t102 53.5 70 95 25.5 142v848z" horiz-adv-x="1286" unicode="&#xd9;"/><glyph d="M449 1565l323 272 62-14 75-148-395-207zM854 1292v123h348l8-115-112-16v-870q0-100-36-179t-97.5-132.5-145.5-82-178-28.5q-96 0-178 29.5t-141.5 85-92 133-32.5 174.5v870l-119 8v123h362l9-115-113-16v-848q0-147 84-227t233-80q63 0 120.5 16.5t102 53.5 70 95 25.5 142v848z" horiz-adv-x="1286" unicode="&#xda;"/><glyph d="M621 1810h32l289-321h-151l-156 129-154-129h-151zM854 1292v123h348l8-115-112-16v-870q0-100-36-179t-97.5-132.5-145.5-82-178-28.5q-96 0-178 29.5t-141.5 85-92 133-32.5 174.5v870l-119 8v123h362l9-115-113-16v-848q0-147 84-227t233-80q63 0 120.5 16.5t102 53.5 70 95 25.5 142v848z" horiz-adv-x="1286" unicode="&#xdb;"/><glyph d="M854 1292v123h348l8-115-112-16v-870q0-100-36-179t-97.5-132.5-145.5-82-178-28.5q-96 0-178 29.5t-141.5 85-92 133-32.5 174.5v870l-119 8v123h362l9-115-113-16v-848q0-147 84-227t233-80q63 0 120.5 16.5t102 53.5 70 95 25.5 142v848zM336 1624q0 49 33.5 83t83.5 34q47 0 82.5-34t35.5-83-35.5-84-82.5-35q-49 0-83 35t-34 84zM696 1624q0 49 36 83t87 34q47 0 80-34t33-83-33-84-80-35q-51 0-87 35t-36 84z" horiz-adv-x="1286" unicode="&#xdc;"/><glyph d="M344 1565l324 272 61-14 76-148-395-207zM387 1415v-108l-129-21 311-610 287 612-125 17v110h352v-123l-88-20-370-774v-355l235-37-18-106h-574l-20 106 237 37v383l-383 748-88 18v123h373z" horiz-adv-x="1103" unicode="&#xdd;"/><glyph d="M229 131v1153l-116 8v123h362l8-115-112-16v-135h88q102 0 195.5-19.5t164-64.5 112.5-120 42-185q0-111-43-187.5t-115-125-166-69-196-20.5h-82v-227l225-27v-104h-467l-10 115zM444 500q80 0 149 11t120 41 80.5 79 29.5 127q0 76-28.5 125t-79.5 76.5-120 38-149 10.5h-75v-508h73z" horiz-adv-x="1024" unicode="&#xde;"/><glyph d="M438 178l80-33q31-12 60.5-22t39.5-14q113 0 174.5 67.5t61.5 163.5q0 92-52 148.5t-157 109.5q-92 47-140 95t-48 120q0 59 28.5 101t64.5 82 64.5 87 28.5 117q0 33-11 63.5t-32.5 55-52.5 39-72 14.5q-53 0-86-20.5t-51.5-52-24.5-72.5-6-82v-1145h-235v90l106 23v1030q0 88 22.5 153.5t62.5 108.5 94.5 63.5 117.5 20.5q133 0 218-76t85-215q0-78-31.5-136t-69.5-102.5-70-76-32-54.5q0-16 4.5-31.5t16.5-29.5 35.5-29.5 64.5-33.5q82-37 138.5-73t91.5-79 49-94 14-119q0-86-35.5-150.5t-91-108.5-121-66.5-123.5-22.5q-63 0-123.5 16.5t-105.5 32.5z" horiz-adv-x="1046" unicode="&#xdf;"/><glyph d="M750 162q0-23 9-41.5t38-18.5q10 0 21 3.5t22 7.5l22-78q-23-23-52.5-33t-59.5-10q-55 0-82 25.5t-37 64.5q-47-43-107.5-66.5t-134.5-23.5q-61 0-116.5 18.5t-97.5 53-66.5 85-24.5 113.5q0 104 56.5 168t138 98.5 175 47 167.5 14.5v131q0 66-49.5 104.5t-131.5 38.5q-31 0-72.5-5t-68.5-21l-33-109-168 31q18 57 52 98t78 68.5 95.5 41 104.5 13.5q170 0 246-79t76-212v-528zM219 268q0-72 49-115.5t135-43.5q63 0 123 29.5t95 82.5v254q-53 0-122-7t-131.5-28.5-105.5-62.5-43-109zM553 1135l-287 245 90 109h54l213-287z" unicode="&#xe0;"/><glyph d="M750 162q0-23 9-41.5t38-18.5q10 0 21 3.5t22 7.5l22-78q-23-23-52.5-33t-59.5-10q-55 0-82 25.5t-37 64.5q-47-43-107.5-66.5t-134.5-23.5q-61 0-116.5 18.5t-97.5 53-66.5 85-24.5 113.5q0 104 56.5 168t138 98.5 175 47 167.5 14.5v131q0 66-49.5 104.5t-131.5 38.5q-31 0-72.5-5t-68.5-21l-33-109-168 31q18 57 52 98t78 68.5 95.5 41 104.5 13.5q170 0 246-79t76-212v-528zM219 268q0-72 49-115.5t135-43.5q63 0 123 29.5t95 82.5v254q-53 0-122-7t-131.5-28.5-105.5-62.5-43-109zM305 1200l213 285h55l91-107-287-245z" unicode="&#xe1;"/><glyph d="M178 1122l238 293h33l237-289-6-12h-113l-135 119-135-119h-111zM750 162q0-23 9-41.5t38-18.5q10 0 21 3.5t22 7.5l22-78q-23-23-52.5-33t-59.5-10q-55 0-82 25.5t-37 64.5q-47-43-107.5-66.5t-134.5-23.5q-61 0-116.5 18.5t-97.5 53-66.5 85-24.5 113.5q0 104 56.5 168t138 98.5 175 47 167.5 14.5v131q0 66-49.5 104.5t-131.5 38.5q-31 0-72.5-5t-68.5-21l-33-109-168 31q18 57 52 98t78 68.5 95.5 41 104.5 13.5q170 0 246-79t76-212v-528zM219 268q0-72 49-115.5t135-43.5q63 0 123 29.5t95 82.5v254q-53 0-122-7t-131.5-28.5-105.5-62.5-43-109z" unicode="&#xe2;"/><glyph d="M672 1358l76-127q-41-35-78-56.5t-92-21.5q-37 0-66 12.5t-54 25.5l-50 26q-25 12-54 12-47-4-74.5-28.5t-43.5-65.5l-89 53 3 35q29 49 72.5 92t117.5 43q31 0 59.5-10.5t56.5-23.5l55-28q28-14 52-22zM750 162q0-23 9-41.5t38-18.5q10 0 21 3.5t22 7.5l22-78q-23-23-52.5-33t-59.5-10q-55 0-82 25.5t-37 64.5q-47-43-107.5-66.5t-134.5-23.5q-61 0-116.5 18.5t-97.5 53-66.5 85-24.5 113.5q0 104 56.5 168t138 98.5 175 47 167.5 14.5v131q0 66-49.5 104.5t-131.5 38.5q-31 0-72.5-5t-68.5-21l-33-109-168 31q18 57 52 98t78 68.5 95.5 41 104.5 13.5q170 0 246-79t76-212v-528zM219 268q0-72 49-115.5t135-43.5q63 0 123 29.5t95 82.5v254q-53 0-122-7t-131.5-28.5-105.5-62.5-43-109z" unicode="&#xe3;"/><glyph d="M182 1268q0 41 29 70.5t72 29.5q39 0 68.5-29.5t29.5-70.5q0-39-29.5-70t-68.5-31q-43 0-72 31t-29 70zM469 1268q0 41 27.5 70.5t70.5 29.5q39 0 68-29.5t29-70.5q0-39-29-70t-68-31q-43 0-70.5 31t-27.5 70zM750 162q0-23 9-41.5t38-18.5q10 0 21 3.5t22 7.5l22-78q-23-23-52.5-33t-59.5-10q-55 0-82 25.5t-37 64.5q-47-43-107.5-66.5t-134.5-23.5q-61 0-116.5 18.5t-97.5 53-66.5 85-24.5 113.5q0 104 56.5 168t138 98.5 175 47 167.5 14.5v131q0 66-49.5 104.5t-131.5 38.5q-31 0-72.5-5t-68.5-21l-33-109-168 31q18 57 52 98t78 68.5 95.5 41 104.5 13.5q170 0 246-79t76-212v-528zM219 268q0-72 49-115.5t135-43.5q63 0 123 29.5t95 82.5v254q-53 0-122-7t-131.5-28.5-105.5-62.5-43-109z" unicode="&#xe4;"/><glyph d="M254 1231q0 78 53 131t131 53 131.5-53 53.5-131q0-80-53.5-133.5t-131.5-53.5-131 53.5-53 133.5zM360 1231q0-37 21.5-57.5t56.5-20.5 56.5 20.5 21.5 57.5q0 35-21.5 55.5t-56.5 20.5-56.5-20.5-21.5-55.5zM750 162q0-23 9-41.5t38-18.5q10 0 21 3.5t22 7.5l22-78q-23-23-52.5-33t-59.5-10q-55 0-82 25.5t-37 64.5q-47-43-107.5-66.5t-134.5-23.5q-61 0-116.5 18.5t-97.5 53-66.5 85-24.5 113.5q0 104 56.5 168t138 98.5 175 47 167.5 14.5v131q0 66-49.5 104.5t-131.5 38.5q-31 0-72.5-5t-68.5-21l-33-109-168 31q18 57 52 98t78 68.5 95.5 41 104.5 13.5q170 0 246-79t76-212v-528zM219 268q0-72 49-115.5t135-43.5q63 0 123 29.5t95 82.5v254q-53 0-122-7t-131.5-28.5-105.5-62.5-43-109z" unicode="&#xe5;"/><glyph d="M621 721q0 16-11.5 40.5t-35 47-61.5 39-91 16.5q-35 0-71-6t-52-20l-33-109-168 31q8 55 41 96t79 68.5 100.5 42 105.5 14.5q90 0 174-35t125-129q59 80 144 124t180 44q141 0 227-67.5t86-196.5q0-102-50-161.5t-128-88.5-171-36-180-7h-75q6-94 38.5-154.5t78-96.5 96.5-49 96-13q66 0 117 21.5t82 49.5l36-112q-47-37-106-57.5t-162-20.5q-90 0-177 40t-146 126q-4-10-10.5-17.5t-10.5-15.5q-16-18-39.5-42t-58.5-45.5-82-35.5-107-14q-78 0-137 22.5t-99 59.5-60.5 83-20.5 95q0 98 43 156.5t112.5 89 156.5 40 175 9.5h50v174zM874 545q57 0 119 6t113 23.5 85 49 34 85.5q0 78-56.5 117.5t-128.5 39.5q-49 0-95-19.5t-85-58-65.5-99-34.5-142.5q23 0 51-1t63-1zM219 272q0-74 53.5-117.5t128.5-43.5q84 0 140.5 35.5t79.5 72.5v213h-68q-59 0-119.5-4t-107.5-20.5-77-48.5-30-87z" horiz-adv-x="1429" unicode="&#xe6;"/><glyph d="M446-150l-26 27 41 117q-98 8-168 51t-116 108.5-67.5 149.5-21.5 174q0 98 23.5 189.5t75 161 131 111.5 192.5 42q92 0 163.5-23.5t110.5-52.5l-90-141-121 96q-16 4-38 4h-35q-84 0-137.5-34.5t-84-90-43-125-12.5-139.5q0-68 14.5-134.5t49.5-117.5 93-82.5 148-31.5q59 0 109.5 13t99.5 42l35-101q-43-33-96-49t-111-20l-20-60q29-2 56.5-13t50-30.5 36.5-50 14-69.5q0-74-52-123t-156-49q-55 0-95.5 13t-76.5 28l63 122 113-69q41 0 67.5 20.5t26.5 55.5q0 29-30 55t-103 26h-13z" horiz-adv-x="831" unicode="&#xe7;"/><glyph d="M541 106q66 0 129 19.5t110 54.5l35-110q-59-43-134-60.5t-151-17.5q-113 0-195.5 38t-138 103.5-83 153.5-27.5 188q0 104 28.5 196.5t84 161 135.5 108.5 182 40q61 0 117.5-18.5t97.5-52 65.5-84 24.5-113.5q0-111-56-176.5t-144.5-100.5-192.5-46-201-11q20-119 95.5-196t218.5-77zM256 500q57 0 132 4t140.5 25.5 111.5 63.5 46 120q0 41-15.5 69.5t-40 47-55 26.5-61.5 8q-72 0-125-29.5t-89-79.5-56.5-116-22.5-139h35zM551 1133l-287 245 90 109h54l213-287z" horiz-adv-x="907" unicode="&#xe8;"/><glyph d="M541 106q66 0 129 19.5t110 54.5l35-110q-59-43-134-60.5t-151-17.5q-113 0-195.5 38t-138 103.5-83 153.5-27.5 188q0 104 28.5 196.5t84 161 135.5 108.5 182 40q61 0 117.5-18.5t97.5-52 65.5-84 24.5-113.5q0-111-56-176.5t-144.5-100.5-192.5-46-201-11q20-119 95.5-196t218.5-77zM256 500q57 0 132 4t140.5 25.5 111.5 63.5 46 120q0 41-15.5 69.5t-40 47-55 26.5-61.5 8q-72 0-125-29.5t-89-79.5-56.5-116-22.5-139h35zM362 1200l213 285h56l90-107-287-245z" horiz-adv-x="907" unicode="&#xe9;"/><glyph d="M246 1122l237 293h33l238-289-6-12h-113l-135 119-135-119h-111zM541 106q66 0 129 19.5t110 54.5l35-110q-59-43-134-60.5t-151-17.5q-113 0-195.5 38t-138 103.5-83 153.5-27.5 188q0 104 28.5 196.5t84 161 135.5 108.5 182 40q61 0 117.5-18.5t97.5-52 65.5-84 24.5-113.5q0-111-56-176.5t-144.5-100.5-192.5-46-201-11q20-119 95.5-196t218.5-77zM256 500q57 0 132 4t140.5 25.5 111.5 63.5 46 120q0 41-15.5 69.5t-40 47-55 26.5-61.5 8q-72 0-125-29.5t-89-79.5-56.5-116-22.5-139h35z" horiz-adv-x="907" unicode="&#xea;"/><glyph d="M250 1268q0 41 28.5 70.5t71.5 29.5q39 0 69-29.5t30-70.5q0-39-30-70t-69-31q-43 0-71.5 31t-28.5 70zM537 1268q0 41 27.5 70.5t70.5 29.5q39 0 67.5-29.5t28.5-70.5q0-39-28.5-70t-67.5-31q-43 0-70.5 31t-27.5 70zM541 106q66 0 129 19.5t110 54.5l35-110q-59-43-134-60.5t-151-17.5q-113 0-195.5 38t-138 103.5-83 153.5-27.5 188q0 104 28.5 196.5t84 161 135.5 108.5 182 40q61 0 117.5-18.5t97.5-52 65.5-84 24.5-113.5q0-111-56-176.5t-144.5-100.5-192.5-46-201-11q20-119 95.5-196t218.5-77zM256 500q57 0 132 4t140.5 25.5 111.5 63.5 46 120q0 41-15.5 69.5t-40 47-55 26.5-61.5 8q-72 0-125-29.5t-89-79.5-56.5-116-22.5-139h35z" horiz-adv-x="907" unicode="&#xeb;"/><glyph d="M328 924v-803l125-31v-90h-359l-18 88 123 31v733l-111-8-18 104 202 37zM356 1135l-286 245 90 109h53l213-287z" horiz-adv-x="509" unicode="&#xec;"/><glyph d="M328 924v-803l125-31v-90h-359l-18 88 123 31v733l-111-8-18 104 202 37zM80 1198l213 285h55l90-107-286-246z" horiz-adv-x="509" unicode="&#xed;"/><glyph d="M-23 1122l238 293h33l237-289-8-12h-110l-136 119-137-119h-108zM328 924v-803l125-31v-90h-359l-18 88 123 31v733l-111-8-18 104 202 37z" horiz-adv-x="509" unicode="&#xee;"/><glyph d="M6 1268q0 41 28.5 70.5t71.5 29.5q39 0 68-29.5t29-70.5q0-39-29-70t-68-31q-43 0-71.5 31t-28.5 70zM270 1268q0 41 28 70.5t71 29.5q39 0 67.5-29.5t28.5-70.5q0-39-28.5-70t-67.5-31q-43 0-71 31t-28 70zM328 924v-803l125-31v-90h-359l-18 88 123 31v733l-111-8-18 104 202 37z" horiz-adv-x="509" unicode="&#xef;"/><glyph d="M346 1081l217 125q-55 55-116.5 99.5t-120.5 76.5l59 109q72-35 147.5-89t145.5-128l244 143 67-121-231-120q80-111 131-251.5t51-314.5q0-98-17.5-206.5t-63.5-200.5-128-151.5-213-59.5q-109 0-188.5 38t-134 103.5-81 152.5-26.5 187 28.5 185 81 147.5 125 97.5 162.5 35q102 0 172-27.5t117-68.5q-20 78-53 145.5t-78 126.5l-240-127zM494 821q-66 0-115-26.5t-83-73.5-51.5-111.5-17.5-138.5q0-102 26-171t65.5-112 91-61 100.5-18q90 0 145.5 43t86 109.5 43 146 14.5 155.5q-6 66-36 114t-73 81-95 48-101 15z" horiz-adv-x="1046" unicode="&#xf0;"/><glyph d="M760 1358l76-127q-41-35-78-56.5t-92-21.5q-37 0-66 12.5t-54 25.5l-50 26q-25 12-54 12-47-4-74.5-28.5t-43.5-65.5l-88 53 2 35q29 49 72.5 92t117.5 43q31 0 59.5-10.5t56.5-23.5l55-28q28-14 52-22zM862 119l125-29v-90h-369l-8 90 123 29v551q0 195-174 194-63 0-125.5-22.5t-109.5-63.5v-657l125-31v-90h-355l-12 88 113 31v741l-111-8-18 96 206 37 45-84q115 80 252 80 141 0 217-75t76-222v-565z" horiz-adv-x="1034" unicode="&#xf1;"/><glyph d="M86 492q0 98 26.5 188t79 157.5 129 107.5 179.5 40q109 0 187.5-41t128.5-110.5 74.5-158.5 24.5-183q0-96-24.5-185.5t-74.5-160-129-112.5-187-42q-106 0-184 43t-129.5 112.5-76 160-24.5 184.5zM221 467q0-66 15.5-129.5t49-113.5 87-81.5 127.5-31.5q78 0 132 32.5t87 86 47 120 14 131.5q0 63-14 132t-48 125.5-87 92-131 35.5q-80 0-133.5-41t-85-100-46-130-14.5-128zM649 1133l-287 245 91 109h53l213-287z" horiz-adv-x="1001" unicode="&#xf2;"/><glyph d="M86 492q0 98 26.5 188t79 157.5 129 107.5 179.5 40q109 0 187.5-41t128.5-110.5 74.5-158.5 24.5-183q0-96-24.5-185.5t-74.5-160-129-112.5-187-42q-106 0-184 43t-129.5 112.5-76 160-24.5 184.5zM221 467q0-66 15.5-129.5t49-113.5 87-81.5 127.5-31.5q78 0 132 32.5t87 86 47 120 14 131.5q0 63-14 132t-48 125.5-87 92-131 35.5q-80 0-133.5-41t-85-100-46-130-14.5-128zM348 1200l213 285h55l91-107-287-245z" horiz-adv-x="1001" unicode="&#xf3;"/><glyph d="M250 1122l237 293h33l236-289-6-12h-111l-137 119-135-119h-109zM86 492q0 98 26.5 188t79 157.5 129 107.5 179.5 40q109 0 187.5-41t128.5-110.5 74.5-158.5 24.5-183q0-96-24.5-185.5t-74.5-160-129-112.5-187-42q-106 0-184 43t-129.5 112.5-76 160-24.5 184.5zM221 467q0-66 15.5-129.5t49-113.5 87-81.5 127.5-31.5q78 0 132 32.5t87 86 47 120 14 131.5q0 63-14 132t-48 125.5-87 92-131 35.5q-80 0-133.5-41t-85-100-46-130-14.5-128z" horiz-adv-x="1001" unicode="&#xf4;"/><glyph d="M717 1358l76-127q-41-35-78-56.5t-92-21.5q-37 0-66 12.5t-54 25.5l-50 26q-25 12-54 12-47-4-74.5-28.5t-43.5-65.5l-88 53 2 35q29 49 72.5 92t117.5 43q31 0 59.5-10.5t56.5-23.5l55-28q28-14 52-22zM86 492q0 98 26.5 188t79 157.5 129 107.5 179.5 40q109 0 187.5-41t128.5-110.5 74.5-158.5 24.5-183q0-96-24.5-185.5t-74.5-160-129-112.5-187-42q-106 0-184 43t-129.5 112.5-76 160-24.5 184.5zM221 467q0-66 15.5-129.5t49-113.5 87-81.5 127.5-31.5q78 0 132 32.5t87 86 47 120 14 131.5q0 63-14 132t-48 125.5-87 92-131 35.5q-80 0-133.5-41t-85-100-46-130-14.5-128z" horiz-adv-x="1001" unicode="&#xf5;"/><glyph d="M270 1268q0 41 29 70.5t72 29.5q39 0 68.5-29.5t29.5-70.5q0-39-29.5-70t-68.5-31q-43 0-72 31t-29 70zM557 1268q0 41 27.5 70.5t70.5 29.5q39 0 68-29.5t29-70.5q0-39-29-70t-68-31q-43 0-70.5 31t-27.5 70zM86 492q0 98 26.5 188t79 157.5 129 107.5 179.5 40q109 0 187.5-41t128.5-110.5 74.5-158.5 24.5-183q0-96-24.5-185.5t-74.5-160-129-112.5-187-42q-106 0-184 43t-129.5 112.5-76 160-24.5 184.5zM221 467q0-66 15.5-129.5t49-113.5 87-81.5 127.5-31.5q78 0 132 32.5t87 86 47 120 14 131.5q0 63-14 132t-48 125.5-87 92-131 35.5q-80 0-133.5-41t-85-100-46-130-14.5-128z" horiz-adv-x="1001" unicode="&#xf6;"/><glyph d="M115 737h618v-129h-618v129zM322 373q0 43 31.5 74.5t76.5 31.5q43 0 74-31.5t31-74.5q0-45-31-76t-74-31q-45 0-76.5 31t-31.5 76zM322 967q0 43 31.5 74.5t76.5 31.5q43 0 74-31.5t31-74.5q0-45-31-76t-74-31q-45 0-76.5 31t-31.5 76z" horiz-adv-x="847" unicode="&#xf7;"/><glyph d="M227-184h-98l-6 26 121 242q-82 72-120 180.5t-38 227.5q0 98 26.5 188t79 157.5 129 107.5 179.5 40q51 0 94-10t82-27l141 285h105l-2-31-156-311q78-70 114.5-176.5t36.5-222.5q0-96-24.5-185.5t-74.5-160-129-112.5-187-42q-90 0-168 33zM221 467q0-72 19.5-141.5t62.5-122.5l315 633q-25 14-54 22t-64 8q-80 0-133.5-41t-85-100-46-130-14.5-128zM500 111q78 0 132 32.5t87 86 47 120 14 131.5q0 72-19.5 148t-60.5 135l-313-629q50-24 113-24z" horiz-adv-x="1001" unicode="&#xf8;"/><glyph d="M594 850l-14 98 204 39 50-59v-778q0-27 14-36.5t33-9.5q12 0 22 3.5t15 3.5l16-72q-12-14-43-30.5t-74-16.5q-82 0-104 84-47-39-110.5-61.5t-129.5-22.5q-59 0-113.5 16.5t-97.5 54-68.5 100-25.5 156.5v531h-111l-18 98 207 37 51-57v-602q0-80 22.5-123t54.5-63.5 67.5-24.5 60.5-4q57 0 117.5 28.5t85.5 67.5v643h-111zM545 1133l-287 245 90 109h53l213-287z" horiz-adv-x="1003" unicode="&#xf9;"/><glyph d="M594 850l-14 98 204 39 50-59v-778q0-27 14-36.5t33-9.5q12 0 22 3.5t15 3.5l16-72q-12-14-43-30.5t-74-16.5q-82 0-104 84-47-39-110.5-61.5t-129.5-22.5q-59 0-113.5 16.5t-97.5 54-68.5 100-25.5 156.5v531h-111l-18 98 207 37 51-57v-602q0-80 22.5-123t54.5-63.5 67.5-24.5 60.5-4q57 0 117.5 28.5t85.5 67.5v643h-111zM348 1200l213 285h55l91-107-287-245z" horiz-adv-x="1003" unicode="&#xfa;"/><glyph d="M233 1122l238 293h33l237-289-8-12h-110l-136 119-137-119h-108zM594 850l-14 98 204 39 50-59v-778q0-27 14-36.5t33-9.5q12 0 22 3.5t15 3.5l16-72q-12-14-43-30.5t-74-16.5q-82 0-104 84-47-39-110.5-61.5t-129.5-22.5q-59 0-113.5 16.5t-97.5 54-68.5 100-25.5 156.5v531h-111l-18 98 207 37 51-57v-602q0-80 22.5-123t54.5-63.5 67.5-24.5 60.5-4q57 0 117.5 28.5t85.5 67.5v643h-111z" horiz-adv-x="1003" unicode="&#xfb;"/><glyph d="M266 1268q0 41 29 70.5t72 29.5q39 0 67.5-29.5t28.5-70.5q0-39-28.5-70t-67.5-31q-43 0-72 31t-29 70zM551 1268q0 41 27.5 70.5t70.5 29.5q39 0 69-29.5t30-70.5q0-39-30-70t-69-31q-43 0-70.5 31t-27.5 70zM594 850l-14 98 204 39 50-59v-778q0-27 14-36.5t33-9.5q12 0 22 3.5t15 3.5l16-72q-12-14-43-30.5t-74-16.5q-82 0-104 84-47-39-110.5-61.5t-129.5-22.5q-59 0-113.5 16.5t-97.5 54-68.5 100-25.5 156.5v531h-111l-18 98 207 37 51-57v-602q0-80 22.5-123t54.5-63.5 67.5-24.5 60.5-4q57 0 117.5 28.5t85.5 67.5v643h-111z" horiz-adv-x="1003" unicode="&#xfc;"/><glyph d="M893 911l-211-576-231-622q-16-45-37-93t-49.5-88-67.5-65.5-94-25.5q-53 0-97.5 21.5t-82.5 52.5l63 106q6-6 17.5-16.5t26.5-20.5 33.5-17 41.5-7q31 0 53.5 19.5t40.5 48 31.5 62.5 23.5 64l54 150-316 966h-69l-17 101 195 12 280-872 271 759h-74l-16 101 196 12zM360 1200l213 285h56l90-107-287-245z" horiz-adv-x="919" unicode="&#xfd;"/><glyph d="M29 1364l-17 104 215 37 56-59v-537q31 27 87 51.5t138 24.5 155.5-33.5 128-96 86-154 31.5-203.5q0-152-44-250t-107.5-154.5-137-79-131.5-22.5q-72 0-122 15.5t-91 41.5q0-41 3.5-81t3.5-68v-326l247-43v-90h-479l-18 90 121 29v1812zM479 111q45 0 97.5 15t95.5 57 71.5 115 28.5 187q0 113-26.5 186.5t-67.5 116.5-89 60.5-93 17.5q-70 0-128.5-28.5t-84.5-77.5v-582q23-23 73.5-45t122.5-22z" horiz-adv-x="995" unicode="&#xfe;"/><glyph d="M225 1268q0 41 29 70.5t72 29.5q39 0 67.5-29.5t28.5-70.5q0-39-28.5-70t-67.5-31q-43 0-72 31t-29 70zM510 1268q0 41 27.5 70.5t70.5 29.5q39 0 69-29.5t30-70.5q0-39-30-70t-69-31q-43 0-70.5 31t-27.5 70zM893 911l-211-576-231-622q-16-45-37-93t-49.5-88-67.5-65.5-94-25.5q-53 0-97.5 21.5t-82.5 52.5l63 106q6-6 17.5-16.5t26.5-20.5 33.5-17 41.5-7q31 0 53.5 19.5t40.5 48 31.5 62.5 23.5 64l54 150-316 966h-69l-17 101 195 12 280-872 271 759h-74l-16 101 196 12z" horiz-adv-x="919" unicode="&#xff;"/><glyph d="M678-8q-150 0-258.5 62.5t-180 163.5-106.5 228-35 256q0 125 36 254t106.5 232.5 176 169 245.5 65.5h24q18 0 42-1t47.5-3 37.5-4h801l41-350h-99l-69 211h-430v-504h352v-129h-352v-504h450l72 211h96l-39-350h-843q-29-4-57.5-6t-57.5-2zM688 1278q-104 0-187-51t-139.5-134-87-186.5-30.5-208.5q0-104 25.5-205.5t78.5-182.5 135-130 195-49q70 0 130 17.5t107 60.5v1001q-47 41-100 54.5t-127 13.5z" horiz-adv-x="1757" unicode="&#x152;"/><glyph d="M86 492q0 98 26.5 188t79 157.5 129 107.5 179.5 40q135 0 222-60.5t134-156.5q57 98 149.5 156.5t204.5 58.5q61 0 117.5-18.5t97.5-52 66-84 25-113.5q0-111-53.5-176.5t-138.5-100.5-190.5-46-211.5-11q20-119 95-195.5t218-76.5q66 0 129 19t111 54l34-110q-59-43-134-60.5t-150-17.5q-137 0-230.5 55t-146.5 148q-49-92-134-148.5t-214-56.5q-106 0-184 43t-129.5 112.5-76 160-24.5 184.5zM221 467q0-66 15.5-129.5t49-113.5 87-81.5 127.5-31.5q76 0 129 31.5t86 81.5 48 113.5 17 129.5v14q0 63-14 132t-48 125.5-87 92-131 35.5q-80 0-133.5-41t-85-100-46-130-14.5-128zM950 502q57 0 132 4t140.5 25.5 111.5 63.5 46 120q0 41-15 69.5t-40 47-55.5 26.5-61.5 8q-72 0-125-29.5t-89-79.5-56-116-23-139h35z" horiz-adv-x="1601" unicode="&#x153;"/><glyph d="M290 1640q0 41 29 71t72 30q41 0 71.5-30t30.5-71q0-43-30.5-72.5t-71.5-29.5q-43 0-72 29.5t-29 72.5zM602 1640q0 41 30.5 71t73.5 30q41 0 70-30t29-71q0-43-29-72.5t-70-29.5q-43 0-73.5 29.5t-30.5 72.5zM387 1415v-108l-129-21 311-610 287 612-125 17v110h352v-123l-88-20-370-774v-355l235-37-18-106h-574l-20 106 237 37v383l-383 748-88 18v123h373z" horiz-adv-x="1103" unicode="&#x178;"/><glyph d="M106 1192l240 291h31l237-287-6-14h-112l-136 141-135-141h-110z" horiz-adv-x="720" unicode="&#x2c6;"/><glyph d="M146 260l114 86 76-127q-39-33-87-55.5t-105-22.5q-39 0-72 12l-65 26-66 26q-33 12-70 12-43 0-73.5-29t-44.5-65l-89 53 5 14q33 78 89 117t117 39q45 0 83-13.5t71-29.5l61-30q29-13 56-13z" horiz-adv-x="491" unicode="&#x2dc;"/><glyph unicode="&#x2000;"/><glyph horiz-adv-x="1837" unicode="&#x2001;"/><glyph unicode="&#x2002;"/><glyph horiz-adv-x="1837" unicode="&#x2003;"/><glyph horiz-adv-x="612" unicode="&#x2004;"/><glyph horiz-adv-x="458" unicode="&#x2005;"/><glyph horiz-adv-x="305" unicode="&#x2006;"/><glyph horiz-adv-x="305" unicode="&#x2007;"/><glyph horiz-adv-x="229" unicode="&#x2008;"/><glyph horiz-adv-x="366" unicode="&#x2009;"/><glyph horiz-adv-x="100" unicode="&#x200a;"/><glyph d="M129 514v113l16 16h486q12 0 12-14v-115h-514z" horiz-adv-x="772" unicode="&#x2010;"/><glyph d="M129 514v113l16 16h486q12 0 12-14v-115h-514z" horiz-adv-x="772" unicode="&#x2011;"/><glyph d="M129 514v113l16 16h486q12 0 12-14v-115h-514z" horiz-adv-x="772" unicode="&#x2012;"/><glyph d="M125 743h760v-127h-760v127z" horiz-adv-x="1013" unicode="&#x2013;"/><glyph d="M125 743h1231v-127h-1231v127z" horiz-adv-x="1484" unicode="&#x2014;"/><glyph d="M297 1362l-68-178 47-238-159-26q-4 14-13.5 58t-9.5 101q0 96 28 181.5t87 173.5l88-52v-20z" horiz-adv-x="382" unicode="&#x2018;"/><glyph d="M84 993l68 178-48 238 160 27q4-16 13.5-59.5t9.5-100.5q0-96-28-181t-87-173l-88 51v20z" horiz-adv-x="370" unicode="&#x2019;"/><glyph d="M92-162l80 180-80 203 172 58q4-8 12.5-27t16.5-44.5 14-55 6-60.5q0-53-16-103t-38.5-93-48.5-77-44-55l-74 46v28z" horiz-adv-x="423" unicode="&#x201a;"/><glyph d="M528 1415l-67-178 47-238-160-26q-4 14-13 58t-9 102q0 96 27.5 181t86.5 173l88-51v-21zM301 1415l-68-178 48-264-160-33q-2 6-5 27l-7 47q-4 27-7.5 57.5t-3.5 61.5q0 96 28 181t87 173l88-51v-21z" horiz-adv-x="604" unicode="&#x201c;"/><glyph d="M84 993l68 178-48 238 160 27q4-16 13.5-59.5t9.5-100.5q0-96-28-181t-87-173l-88 51v20zM311 993l68 178-47 265 160 32q2-8 5-27l7-46q4-27 7-57.5t3-61.5q0-96-27.5-181t-87.5-173l-88 51v20z" horiz-adv-x="598" unicode="&#x201d;"/><glyph d="M84-162l80 180-80 203 172 58q4-8 12-27t16.5-44.5 14.5-55 6-60.5q0-53-16.5-103t-39-93-48-77-43.5-55l-74 46v28zM326-162l80 180-80 250 172 51q4-8 12-32.5t16.5-57 14.5-69.5 6-68q0-53-16.5-103t-39-93-48-77-44.5-55l-73 46v28z" horiz-adv-x="657" unicode="&#x201e;"/><glyph d="M100 784q0 66 46.5 113t111.5 47q66 0 113-47t47-113-47-111.5-113-45.5-112 45.5-46 111.5z" horiz-adv-x="516" unicode="&#x2022;"/><glyph d="M948 100q0 43 31 75t76 32q43 0 74.5-32t31.5-75q0-45-31.5-75.5t-74.5-30.5q-45 0-76 30.5t-31 75.5zM526 100q0 43 31 75t76 32q43 0 74.5-32t31.5-75q0-45-31.5-75.5t-74.5-30.5q-45 0-76 30.5t-31 75.5zM104 100q0 43 31 75t76 32q43 0 74.5-32t31.5-75q0-45-31.5-75.5t-74.5-30.5q-45 0-76 30.5t-31 75.5z" horiz-adv-x="1265" unicode="&#x2026;"/><glyph horiz-adv-x="366" unicode="&#x202f;"/><glyph d="M29 643l559 442 10-4v-143l-405-322 405-319v-147l-12-7-557 447v53z" horiz-adv-x="718" unicode="&#x2039;"/><glyph d="M690 590l-557-447-12 7v147l405 319-405 322v143l10 4 559-442v-53z" horiz-adv-x="718" unicode="&#x203a;"/><glyph horiz-adv-x="458" unicode="&#x205f;"/><glyph d="M70 635h143v82q0 20 2 43h-145v129h157q18 119 58.5 215t105 165.5 154.5 107.5 211 38q80 0 148.5-7t127.5-19l45-324h-116l-58 201-46 6t-93 4q-90 0-157.5-29.5t-115-81-76-123-42.5-153.5h563v-129h-576q-2-16-2-35v-90h576v-129h-563q12-80 38.5-148.5t73.5-119 118-79 169-28.5q70 0 140.5 19.5t121.5 52.5l51-125q-53-37-139-61.5t-172-24.5q-133 0-229.5 38t-163 105.5-104 161.5-52.5 209h-153v129z" horiz-adv-x="1173" unicode="&#x20ac;"/><glyph d="M1583 1415l399-1237 383 1237h324l12-123-106-10v-1145l122-24v-113h-368l-10 113 114 26v1164l-395-1272h-178l-402 1245v-1141l129-20v-115h-360l-16 115 118 24v1145l-116 10v121h350zM260 0v106l232 37v1133h-281l-80-199h-94l47 338h952l47-338h-94l-80 199h-278v-1133l235-37v-106h-606z" horiz-adv-x="2822" unicode="&#x2122;"/><glyph d="M0 980h980v-980h-980v980z" horiz-adv-x="980" unicode="&#xe000;"/><glyph d="M965 924v-803l125-31v-90h-359l-18 88 123 31v733l-111-8-18 104 202 37zM758 1374q0 45 30.5 77t75.5 32 77-32 32-77-32-75.5-77-30.5-75.5 30.5-30.5 75.5zM78 864l-29 94 14 23h144v240q0 119 58.5 193.5t191.5 74.5q61 0 119.5-22.5t109.5-53.5l-100-139-115 98q-10 0-18.5 1t-18.5 1q-33 0-52.5-11t-29.5-29.5-13-41-3-47.5v-264h225q10 0 10-12v-105h-235v-739l225-33v-92h-459l-16 90 121 29v745h-129z" horiz-adv-x="1146" unicode="&#xfb01;"/><glyph d="M948 1427v-1310l125-27v-90h-375l-10 90 131 29v1235h-112l-19 100 201 35zM78 864l-29 94 14 23h144v240q0 119 58.5 193.5t191.5 74.5q61 0 119.5-22.5t109.5-53.5l-100-139-115 98q-10 0-18.5 1t-18.5 1q-33 0-52.5-11t-29.5-29.5-13-41-3-47.5v-264h225q10 0 10-12v-105h-235v-739l225-33v-92h-459l-16 90 121 29v745h-129z" horiz-adv-x="1130" unicode="&#xfb02;"/><glyph d="M1602 924v-803l125-31v-90h-359l-18 88 123 31v733l-111-8-18 104 202 37zM1395 1374q0 45 30.5 77t75.5 32 77-32 32-77-32-75.5-77-30.5-75.5 30.5-30.5 75.5zM715 864l-29 94 14 23h144v240q0 119 58.5 193.5t191.5 74.5q61 0 119.5-22.5t109.5-53.5l-100-139-115 98q-10 0-18.5 1t-18.5 1q-33 0-52.5-11t-29.5-29.5-13-41-3-47.5v-264h225q10 0 10-12v-105h-235v-739l225-33v-92h-459l-16 90 121 29v745h-129zM78 864l-29 94 14 23h144v240q0 119 58.5 193.5t191.5 74.5q61 0 119.5-22.5t109.5-53.5l-100-139-115 98q-10 0-18.5 1t-18.5 1q-33 0-52.5-11t-29.5-29.5-13-41-3-47.5v-264h225q10 0 10-12v-105h-235v-739l225-33v-92h-459l-16 90 121 29v745h-129z" horiz-adv-x="1783" unicode="&#xfb03;"/><glyph d="M1585 1427v-1310l125-27v-90h-375l-10 90 131 29v1235h-112l-19 100 201 35zM715 864l-29 94 14 23h144v240q0 119 58.5 193.5t191.5 74.5q61 0 119.5-22.5t109.5-53.5l-100-139-115 98q-10 0-18.5 1t-18.5 1q-33 0-52.5-11t-29.5-29.5-13-41-3-47.5v-264h225q10 0 10-12v-105h-235v-739l225-33v-92h-459l-16 90 121 29v745h-129zM78 864l-29 94 14 23h144v240q0 119 58.5 193.5t191.5 74.5q61 0 119.5-22.5t109.5-53.5l-100-139-115 98q-10 0-18.5 1t-18.5 1q-33 0-52.5-11t-29.5-29.5-13-41-3-47.5v-264h225q10 0 10-12v-105h-235v-739l225-33v-92h-459l-16 90 121 29v745h-129z" horiz-adv-x="1767" unicode="&#xfb04;"/></font>
</defs>
</svg>
