<svg xmlns="http://www.w3.org/2000/svg"><defs><font horiz-adv-x="1187"><font-face ascent="1649" descent="-399" units-per-em="2048"/><missing-glyph horiz-adv-x="395"/><glyph horiz-adv-x="395" unicode="&#x20;"/><glyph horiz-adv-x="395" unicode="&#x09;"/><glyph horiz-adv-x="395" unicode="&#xa0;"/><glyph d="M213 139q0 33 12.5 61.5t33 49 48.5 33.5q28 12 62 12 33 0 61.5-12.5t49-33 32.5-49 12-61.5q0-34-12-61-12-29-33-49-16-16-49-31-29-12-61-12-34 0-62 12-33 14-49 31-20 20-33 49-12 27-12 61zM254 895v586h238v-586q0-102-9-182-9-89-24-191h-172q-15 101-25 191-8 80-8 182z" horiz-adv-x="737" unicode="&#x21;"/><glyph d="M135 1186v295h219v-295l-22-160q-6-41-27-70-16-23-63-22-37 0-58 22-23 27-28 70zM512 1186v295h219v-295l-22-160q-6-41-27-70-16-23-64-22-37 0-57 22-23 27-29 70z" horiz-adv-x="864" unicode="&#x22;"/><glyph d="M41 487q0 20 2 33l14 80h193l53 283h-217l18 104q6 41 31 59.5t82 18.5h113l63 330q10 45 37 63 33 23 70 23h114l-77-416h208l80 416h113q37 0 57-21 25-25 25-51 0-4-1-9t-1-7l-64-328h209l-20-107q-6-37-33-57-25-18-78-18h-102l-53-283h145q29 0 49-16 18-14 19-54 0-8-5-32l-12-80h-221l-80-418h-117q-33 0-53 25-20 23-20 61v8 10l61 314h-209l-61-326q-10-51-41-72-33-20-74-20h-111l78 418h-119q-29 0-49 16-16 14-16 53zM459 600h209l53 283h-209z" unicode="&#x23;"/><glyph d="M70 178l77 117q8 14 29 24 16 8 35 9 25 0 47-15l59-39q23-14 76-41 51-25 99-32l38 458q-70 20-143 50-82 31-129 71-57 47-90 117-37 78-37 172 0 76 33 154 31 74 90 133 53 53 147 94 92 39 199 45l10 127q4 29 21 45 20 20 49 21h94l-18-203q106-18 186-62 78-41 139-100l-61-92q-16-25-29-31-16-10-37-10-10 0-34 10-8 4-24.5 11.5l-25.5 11.5q-10 4-28.5 13l-30.5 15q-25 10-74 23l-35-422q39-12 146-51 74-29 131-70 57-43 94-106 35-61 35-162 0-95-31-178-29-80-94-148-61-66-149-104-84-37-203-47l-13-150q-4-29-20-45-20-20-49-20h-94l20 221q-119 14-225 65-112 53-180 121zM371 1094q0-33 14-68 10-27 37-53 20-20 57-41 25-14 70-31l33 377q-63-6-97-23-41-18-65-43-27-27-37-53-12-30-12-65zM647 197q111 16 166 73.5t55 155.5q0 33-14 68-10 27-39 51-31 27-57 39-55 25-74 30z" unicode="&#x24;"/><glyph d="M61 1122q0 80 27 156 23 68 72 119 47 49 106 73 61 25 137 25t138-25q63-25 108-73 49-51 72-119 25-70 24.5-156t-26.5-151q-25-59-76-115-45-47-111-74-61-25-129-24-76 0-137 24-59 25-106 74-49 53-72 115-27 73-27 151zM139 0l1100 1442q10 12 31 26 18 12 51 13h182l-1097-1444q-8-10-33-27-16-10-45-10h-189zM258 1122q0-59 12-96 14-41 29-61 18-25 47-35 25-8 57.5-8t57.5 8q29 10 47 35 23 29 33 61 10 31 10 96.5t-10 98.5q-12 37-33 65-16 20-47 35-23 10-57.5 10t-57.5-10q-31-14-47-35-14-18-29-65-12-41-12-99zM897 348q0 80 27 156 23 68 71 119 47 49 107 73 61 25 137 25t137-25q63-25 109-73 49-51 71-119 25-70 25-156t-27-151q-25-59-75-115-45-47-110.5-73.5t-129.5-26.5q-72 0-137 26-59 25-107 74-49 53-71 115-27 73-27 151zM1094 348q0-57 12-96t30.5-63.5 45.5-32.5q31-10 57.5-10.5t57 10 46.5 32.5q23 31 33 64 12 39 13 96 0 58-13 98-12 37-33 66-16 20-47 35-23 10-57.5 10t-56.5-10q-29-12-45-35-18-25-31-66-12-40-12-98z" horiz-adv-x="1644" unicode="&#x25;"/><glyph d="M66 408q0 68 22 131 20 59 64 114 43 57 94 97 57 45 119 73-51 72-78 150-25 74-25 145 0 82 27 148 27 68 82 118 53 49 133 82 78 31 176 31 92 0 160-27 76-31 123-73 47-45 79-107 29-53 35-123l-162-32q-2 0-3-1l-3-1h-8q-16 0-31 10-14 12-22 28-10 33-23 52-18 29-34.5 43t-49.5 28q-23 10-61 11-47 0-78-14.5t-57-41.5q-25-25-37-57.5t-12-69.5q0-25 8-61 8-35 20-57 20-37 37-58 33-41 57-65l394-410q27 53 53 137 23 76 29 146 2 23 14 37 12 16 37 16h158q0-135-37-258-35-115-111-227l311-322h-247q-25 0-35 2-20 4-29 8-16 8-25 15-12 9-24 24l-102 105q-94-78-220-125-117-45-260-45-90 0-168 28-83 31-147 86-66 57-105 133-38 79-38 177zM324 428q0-55 18-100 18-47 53-78 29-27 78-47 43-18 96-19 88 0 164 29 72 27 135 78l-389 401q-80-51-119-121-36-67-36-143z" horiz-adv-x="1462" unicode="&#x26;"/><glyph d="M135 1186v295h219v-295l-22-160q-6-41-27-70-16-23-63-22-37 0-58 22-23 27-28 70z" horiz-adv-x="487" unicode="&#x27;"/><glyph d="M109 643q0 119 16 250 16 125 49 244 31 111 88 237.5t127 233.5l115-68q16-10 24.5-20.5t8.5-32.5q0-16-13-45-90-168-145-385-51-199-51-414 0-217 51-416 55-215 145-383 8-16 10.5-24t2.5-21q0-23-8.5-33t-24.5-20l-115-70q-70 106-127 233.5t-88 237.5q-33 119-49 244-16 131-16 252z" horiz-adv-x="614" unicode="&#x28;"/><glyph d="M78-201q0 12 2 20.5t10 24.5q90 168 146 383 51 199 51 416 0 215-51 414-55 217-146 385-12 29-12 45 0 23 8 33t25 20l114 68q70-106 127.5-233.5t87.5-237.5q33-119 49-244 16-131 17-250 0-121-17-252-16-125-49-244-31-111-88-237.5t-127-233.5l-114 70q-16 10-24.5 20t-8.5 33z" horiz-adv-x="614" unicode="&#x29;"/><glyph d="M78 1081l164 95q20 14 34 18 23 8 39 10-29 4-39 10-29 14-34 19l-164 96 59 103 162-97q4-2 16.5-10l18.5-12q14-12 26-27-8 25-10 37t-2 41v188h121v-188q0-29-2-41t-10-37q12 14 26 27 4 4 33 22l164 95 59-103-161-94q-18-12-37-19-25-8-37-10 31-6 74-28l161-95-59-102-164 94q-29 18-33 23-20 16-28 26 14-39 14-78v-188h-121v188q0 29 2 41.5t10 36.5q-8-10-28-26-4-4-33-23l-160-94z" horiz-adv-x="819" unicode="&#x2a;"/><glyph d="M94 594v188h395v418h205v-418h400v-188h-400v-422h-205v422h-395z" unicode="&#x2b;"/><glyph d="M82 156q0 33 10 53 14 29 31 45 14 14 47 29 27 12 59 12 37 0 70-14 27-12 47.5-39t28.5-56q10-35 10-65 0-45-16-105-12-45-43-106-25-49-72-106.5t-94-94.5l-45 41q-18 15-19 37 0 9 6 18l13 19q12 12 28 31 29 35 33 41l13 19q13 19 18 30 12 27 18 59-35 0-57 10-27 12-45 33-20 25-30.5 47.5t-10.5 61.5z" horiz-adv-x="460" unicode="&#x2c;"/><glyph d="M102 512v213h531v-213h-531z" horiz-adv-x="735" unicode="&#x2d;"/><glyph d="M74 139q0 33 12 61.5t32.5 49 49.5 33.5q28 12 61 12t61.5-12.5 49-33 33-49 12.5-61.5q0-34-12-61-12-29-33-49-16-16-49-31-29-12-62-12-34 0-61 12-33 14-49 31-20 20-33 49-12 27-12 61z" horiz-adv-x="460" unicode="&#x2e;"/><glyph d="M-18-98l598 1532q18 41 51 65 31 23 78 23h106l-592-1526q-10-25-22.5-41t-32.5-29q-12-8-41-16t-39-8h-106z" horiz-adv-x="792" unicode="&#x2f;"/><glyph d="M51 741q0 190 41 336 41 147 113 236 76 94 172 139t215 45 215-45q100-47 174-139 70-86 115-236 41-135 41-336 0-203-41-338-45-150-115-235-74-92-174-139-96-45-215-45t-215 45-172 139q-72 88-113 235-41 145-41 338zM311 741q0-162 25-266 27-115 61-168 41-63 90-88 53-27 105-26 49 0 106 26 47 23 90 88 37 57 64 168 25 104 25 266t-25 267q-27 111-64 168-41 63-90 86-51 25-106 24.5t-105-24.5q-51-25-90-86-35-53-61-168-25-105-25-267z" unicode="&#x30;"/><glyph d="M168 1098l453 385h206v-1295h267v-188h-820v188h301v865q0 70 3 106l-213-180q-10-10-26.5-14t-27.5-4q-20 0-37 8-14 8-24 20z" unicode="&#x31;"/><glyph d="M86 0v84q0 31 10 53 12 29 35 51l451 451q72 76 100 111 47 57 74 102 33 55 47 104 16 55 16 111 0 51-16 94-14 37-45 68-29 29-68 41-47 14-88 14-90 0-149.5-47t-83.5-123q-12-37-33-55.5t-57-18.5q-8 0-33 4l-135 25q14 98 61 186 43 80 109 134 68 55 151 81 82 27 184 27 100 0 186.5-30.5t148-86 93.5-131.5q33-74 33-174 0-80-24-151-25-70-64-133-39-61-96-123l-113-121-334-342q53 16 97 22 61 8 90 9h379q43 0 65-23 25-25 25-61v-152h-1016z" unicode="&#x32;"/><glyph d="M92 377l113 45q29 12 57 12 25 0 47-12 20-12 33-33 12-25 41-70 23-37 51-61 29-27 74-45 39-16 98-16 66 0 113 20 49 22 80 55 37 41 49 76 16 45 16 82 0 55-12 98-12 45-47 74-37 31-103 49-59 16-180 17v180q88 0 154 16 59 14 98 47 37 31 51 70 14 37 15 90 0 104-58 160-55 53-155 53-96 0-152-47-57-47-82-123-12-37-32.5-55.5t-57.5-18.5q-10 0-35 4l-133 25q14 104 60 186 41 76 110 134 68 55 152 81 82 27 182 27 109 0 186-29 84-31 141.5-82t88-120.5 30.5-151.5q0-72-14-123t-47-94q-31-40-74-68-47-31-98-47 137-45 199-127 66-88 65-217 0-106-41-194-39-84-110-144-70-57-162-88-86-29-193-28-115 0-196 24-74 23-144 78-61 49-104 123-43 76-74 168z" unicode="&#x33;"/><glyph d="M25 545l700 938h240v-926h186v-145q0-18-12.5-35t-40.5-17h-133v-360h-222v360h-624q-25 0-45 17-18 14-25 41zM293 557h450v485q0 47 2 72 4 53 9 78z" unicode="&#x34;"/><glyph d="M78 158l78 108q25 33 65 33 25 0 51-16 16-10 62-35 39-20 80-35 49-16 112-16 74 0 123 20 47 20 88 64 33 37 54 96 18 55 18 123 0 121-70 188-72 68-207 68-113 0-217-39l-155 45 123 719h729v-109q0-53-33-86-35-35-115-35h-407l-54-309q96 20 183 21 115 0 207-35 86-33 149-97 59-59 90-143 31-83 31-178 0-121-41-215-43-98-117-166-82-76-174-109-100-37-219-36-74 0-131 14-72 18-119 39-53 23-100 55-45 31-84 66z" unicode="&#x35;"/><glyph d="M90 504q0 111 41 215 41 106 131 227l354 475q16 23 53.5 41.5t82.5 18.5h225l-440-539q-14-16-27-33l-25-30q47 23 93 34 49 12 108 13 82 0 164-29 74-27 139-84 59-53 96-137 37-82 37-195 0-102-37-194-35-86-106-158-66-66-166-106-96-39-213-39t-213 36q-90 35-162 107-59 59-100 164-35 90-35 213zM332 465q0-70 16-113 18-51 51-86 35-37 82-55 55-20 113-21 66 0 113 21 51 23 85.5 57.5t57.5 85.5q20 47 20 109 0 66-18 115-16 45-57 86-33 33-86 53-49 18-111 18-61 0-108.5-20.5t-84-57-55-86-18.5-106.5z" unicode="&#x36;"/><glyph d="M98 1311v170h1024v-109q0-53-10-80-4-12-12-29.5t-10-21.5l-560-1155q-18-37-48.5-61.5t-86.5-24.5h-182l573 1130q41 80 78 121h-708q-23 0-41 19-17 16-17 41z" unicode="&#x37;"/><glyph d="M80 416q0 131 63 221 63 92 201 135-106 45-162 129-53 80-53 199 0 82 35 157 31 68 94 125 57 51 148 84 86 31 188 31t188-31q90-33 148-84 63-57 94-125 35-76 35-157 0-117-55-199-57-84-160-129 137-43 200-135 63-90 64-221 0-98-37-178t-104-136q-72-57-164-88-95-31-209-30-114 0-209 30-92 31-164 88-68 55-104.5 135.5t-36.5 178.5zM340 420q0-51 16-96 14-39 50-74 33-33 77.5-51.5t110-18.5 111 18.5 77.5 51.5q35 35 49 74 16 45 17 96 0 123-68 184-70 63-186.5 63.5t-185.5-63.5q-68-61-68-184zM377 1096q0-51 10-86 14-47 35-74 27-33 70-51 47-20 102-20.5t102 20.5q43 18 70 51 20 27 35 74 10 35 10 86 0 43-12 80-12 35-41 67-27 29-66 47-35 16-98.5 16.5t-97.5-16.5q-43-20-68-47-27-29-39-67-12-37-12-80z" unicode="&#x38;"/><glyph d="M133 1015.5q0 102.5 37 188.5 37 88 104 152 70 66 160 102 98 39 205 39 119 0 205-35t153-102q65-65 99-154 35-92 34-198 0-68-12-129-14-72-33-119-18-49-53-111-14-25-69-108l-338-484q-16-23-52-41-31-16-77-16h-234l459 573 33 43q16 20 30 41-45-29-112-49-61-18-129-18-74 0-150 28-80 31-133 80-59 57-92 133-35 82-35 184.5zM385 1036q0-123 65.5-188.5t180.5-65.5q55 0 110 21 43 16 80 53 31 31 49 78 18 45 19 100 0 53-21 109-16 45-51 80-33 33-80 51-41 16-102 16-57 0-103-18-49-20-79-53-31-34-50-80-18-46-18-103z" unicode="&#x39;"/><glyph d="M115 139q0 33 12 61.5t32.5 49 49.5 33.5q28 12 61 12t61.5-12.5 49-33 33-49 12.5-61.5q0-34-12-61-12-29-33-49-16-16-49-31-29-12-62-12-34 0-61 12-33 14-49 31-20 20-33 49-12 27-12 61zM115 868.5q0 32.5 12 61t32.5 49 49.5 33.5q28 12 61 12t61.5-12.5 49-33 33-49 12.5-61-12-59.5q-12-29-33-49.5t-49-32.5q-23-10-62-10t-61 10q-29 12-49.5 32.5t-32.5 49.5q-12 27-12 59.5z" horiz-adv-x="542" unicode="&#x3a;"/><glyph d="M115 868.5q0 32.5 12 61t32.5 49 49.5 33.5q28 12 61 12t61.5-12.5 49-33 33-49 12.5-61-12-59.5q-12-29-33-49.5t-49-32.5q-23-10-62-10t-61 10q-29 12-49.5 32.5t-32.5 49.5q-12 27-12 59.5zM123 156q0 33 10 53 14 29 31 45 14 14 47 29 27 12 59 12 37 0 70-14 27-12 47.5-39t28.5-56q10-35 10-65 0-45-16-105-12-45-43-106-25-49-72-106.5t-94-94.5l-45 41q-18 15-19 37 0 9 6 18l13 19q12 12 28 31 29 35 33 41l13 19q13 19 18 30 12 27 18 59-35 0-57 10-27 12-45 33-20 25-30.5 47.5t-10.5 61.5z" horiz-adv-x="542" unicode="&#x3b;"/><glyph d="M143 639v102l811 422v-180q0-12-12-37-8-16-33-28l-372-191q-16-8-50-20-31-12-55-17 25-4 55-16 33-12 50-21l372-190q23-12 33-31 12-25 12-37v-180z" unicode="&#x3c;"/><glyph d="M139 414v188h908v-188h-908zM139 774v189h908v-189h-908z" unicode="&#x3d;"/><glyph d="M233 215v180q0 12 13 37 10 18 33 31l372 190q49 23 105 37-25 4-56 17-33 12-49 20l-372 191q-25 12-33 28-12 25-13 37v180l811-422v-102z" unicode="&#x3e;"/><glyph d="M37 1348q27 25 78 57 47 31 90 49 37 16 102 31 55 12 123 12 88 0 162-24.5t125-69.5q55-49 82-111 29-68 28-145 0-76-22-133-20-53-57-101-31-37-74-71l-76-58q-33-25-61-53-27-27-33-59l-23-150h-174l-16 166v10 9q0 45 20 77 16 27 58 64 29 27 73 57 27 18 72 60 33 31 55 71 25 45 25 99 0 29-14 65-10 23-39 49-23 18-60 33-34 12-73 12-51 0-99-14-41-12-69-29-25-14-47-28-18-12-35-13-39 0-54 31zM231 139q0 33 12.5 61.5t33 49 49.5 33.5q28 12 61 12 31 0 59.5-12.5t49-33 33-49 12.5-61.5q0-34-13-61-12-29-32-49-16-16-50-31-29-12-59-12-34 0-61 12-33 14-50 31-20 20-32 49-13 27-13 61z" horiz-adv-x="860" unicode="&#x3f;"/><glyph d="M70 598q0 113 26 213 27 96 80 193 49 88 127 167 66 68 164 129 82 51 195 84 104 31 219 31 145 0 280-49 133-47 236-139 100-88 164-221 61-129 61-293 0-111-31-207-31-94-90-166t-137-111q-82-41-170-41-72 0-125 33-55 33-76 107-63-78-129-107-72-33-143-33-57 0-113 25-49 22-80 61-37 47-49 93-16 59-16 116 0 53 16.5 119t44.5 117q31 55 74 104 39 45 104 84 57 35 135 57.5t167 22.5q80 0 135-12 41-8 108-37l-98-379q-16-70-16-108 0-25 8-54 4-16 20-32 10-8 31-17 12-4 41-4 45 0 80 27 43 33 67.5 75.5t44.5 118.5q16 59 17 148 0 137-41 233-45 106-115 170-76 70-178 103-109 35-227 34-127 0-248-51-113-47-201-139-80-84-131-207-47-115-47-258 0-170 51-297t143.5-213 215.5-129q117-41 266-41 88 0 147 8 86 12 127 23 45 12 103 35 51 20 86 41 18 10 32 10 31 0 43-33l35-92q-104-68-250-113-141-43-323-43-190 0-344 58-158 59-273 168-117 111-180 266-63 153-63 352zM659 492q0-63 29-103 29-37 82-37 29 0 53 8 33 10 54 29 18 16 45 57 20 31 32 86l74 289q-33 6-65 6-61 0-119-28.5t-96-73.5q-37-43-64-109-25-61-25-124z" horiz-adv-x="1683" unicode="&#x40;"/><glyph d="M6 0l582 1481h280l582-1481h-213q-33 0-57.5 18.5t-32.5 42.5l-111 304h-614l-111-304q-8-23-32-41-27-20-58-20h-215zM492 559h473l-181 494-26 75q-2 6-29 97-2-10-13-44t-16-53q0-4-28-79z" horiz-adv-x="1454" unicode="&#x41;"/><glyph d="M150 0v1481h509q150 0 250-27 98-27 168-80 68-53 99-125 29-70 28-164 0-53-14-98-14-43-47-90-25-35-82-74-43-31-119-57 305-68 305-332 0-96-35-172-37-78-106-139-63-55-168-90-98-33-229-33h-559zM426 215h279q77 0 129 18 51 18 81 50 33 33 46 71 14 47 14 88 0 47-17 86-16 41-46.5 65.5t-84.5 41.5q-49 14-122 14h-279v-434zM426 840h219q141 0 213 51t72 162q0 117-65.5 166t-205.5 49h-233v-428z" horiz-adv-x="1333" unicode="&#x42;"/><glyph d="M63 741q0 168 56 306 55 139 155 239 102 102 240 156 141 55 309 55 164 0 289-53 119-51 211-139l-92-129q-8-12-21-21-10-8-34-8-27 0-50 16-31 23-61 41-39 23-96 41-51 16-148 17-111 0-192-35-90-39-150-105-63-70-98-164-37-98-37-217 0-125 37-223 39-102 94-164 59-66 143-102 78-35 177-35 57 0 102 6 47 6 84 19 35 12 72 34 45 29 69 52 12 12 20.5 16t24.5 4q25 0 39-16l109-119q-90-113-221-170-135-59-316-59-160 0-297 57-135 57-225 156-96 104-143 239-50 137-50 305z" horiz-adv-x="1372" unicode="&#x43;"/><glyph d="M150 0v1481h565q166 0 305-56 143-57 237.5-151t151.5-234q55-135 55-298.5t-55-299.5q-57-141-152-235-98-98-237-154-133-53-305-53h-565zM426 219h289q113 0 194 35 86 37 147.5 104.5t94.5 163.5 33 219q0 121-33 217.5t-94 163.5q-59 63-148 103-86 37-194 37h-289v-1043z" horiz-adv-x="1529" unicode="&#x44;"/><glyph d="M150 0v1481h933v-219h-657v-410h518v-213h-518v-418h657v-221h-933z" horiz-adv-x="1171" unicode="&#x45;"/><glyph d="M150 0v1481h933v-219h-657v-439h555v-221h-555v-602h-276z" horiz-adv-x="1148" unicode="&#x46;"/><glyph d="M63 741q0 168 56 306 55 138 153 239 96 98 242 156 141 55 320 55 186 0 313-53 133-55 225-141l-80-123q-27-39-63-39-23 0-49 16-18 12-36 21.5l-32 17.5q-31 16-76 32.5t-92 25-121 8.5q-106 0-196-37t-151.5-104.5-96.5-166-35-213.5q0-131 37-229 39-104 100-168 65-68 154-104 90-37 194-37 102 0 162 16 82 23 131 47v271h-184q-27 0-41 14-16 16-16 35v155h491v-598q-59-43-117-71-61-31-129-49-74-20-147-29-88-10-172-10-158 0-297 57t-236 156q-102 104-155 239-56 137-56 305z" horiz-adv-x="1480" unicode="&#x47;"/><glyph d="M150 0v1481h276v-637h696v637h277v-1481h-277v647h-696v-647h-276z" horiz-adv-x="1548" unicode="&#x48;"/><glyph d="M184 0v1481h275v-1481h-275z" horiz-adv-x="643" unicode="&#x49;"/><glyph d="M39 12l14 164q4 25 17 35 18 14 45 14 8 0 45-8 29-6 69-6 63 0 105 16 45 18 76 56 29 35 45 94 16 61 16 143v961h274v-955q0-125-30-225-31-98-92-170-68-76-152-111-92-37-213-36-53 0-106 6-50 6-113 22z" horiz-adv-x="894" unicode="&#x4a;"/><glyph d="M160 0v1483h274v-623h66q43 0 63 10 27 14 43 35l410 516q25 35 53.5 47.5t71.5 12.5h237l-497-617q-31-35-45-47-20-16-48-31 27-10 62-36 23-16 51-58l516-692h-246q-43 0-71 14-27 14-41 39l-420 549q-18 23-45 37-25 12-74 12h-86v-651h-274z" horiz-adv-x="1429" unicode="&#x4b;"/><glyph d="M150 0v1481h276v-1254h592v-227h-868z" horiz-adv-x="1058" unicode="&#x4c;"/><glyph d="M150 0v1481h206q6 0 17.5-1t15.5-1q8 0 25-4 10-2 20-13 4-4 17-24l442-824q20-35 33-67l28-72q4 12 14.5 37t14.5 37q12 33 33 67l438 822q9 15 19 24 10 10 18 13 16 4 25 4 4 0 15 1t17 1h207v-1481h-244v956q0 8 1 29t1 31q0 12 3.5 35.5t3.5 27.5l-449-839q-18-33-39-45-23-14-57-15h-39q-35 0-57 15-20 12-39 45l-455 841q0-2 3-27.5t3-37.5q0-10 1-30.5t1-29.5v-956h-243z" horiz-adv-x="1904" unicode="&#x4d;"/><glyph d="M150 0v1481h145q6 0 15-1t14-1q12 0 22-6l19-13q12-12 20-22l778-992q0 4-3 31t-3 39-1 33.5-1 32.5v899h244v-1481h-142q-31 0-55 10-22 9-43 37l-774 985q0-4 3-27.5t3-35.5q0-10 1-30.5t1-29.5v-909h-243z" horiz-adv-x="1548" unicode="&#x4e;"/><glyph d="M70 741q0 168 53 301 55 138 153 240t238 158q143 57 305 57 172 0 307-57 143-61 238-158 94-98 152-240 53-133 53-301 0-170-53-303-57-141-152-239-98-102-238-158-143-57-307-57-162 0-305 57-139 55-238 158-98 101-153 239-53 133-53 303zM350 741q0-123 33-219t94.5-163.5 147.5-104.5q82-35 194-35 115 0 197 35 86 37 147 104 61 70 92 164 31 98 31 219 0 119-31 217-31 94-92 164-61 68-147 105-82 35-197 35-113 0-194-35-86-37-147.5-104.5t-94.5-164-33-217.5z" horiz-adv-x="1636" unicode="&#x4f;"/><glyph d="M160 0v1481h481q145 0 256-35 104-33 180-98 71-61 105-148 35-88 35-192 0-108-37-197-37-90-107-154-68-61-180-100-108-37-252-37h-207v-520h-274zM434 737h207q78 0 133 19 57 18 92 53 37 37 55.5 86t18.5 113q0 59-18 108-18 47-56 82-35 33-92 51-55 18-133 19h-207v-531z" horiz-adv-x="1280" unicode="&#x50;"/><glyph d="M70 741q0 168 53 301 55 138 153 240t238 158q143 57 305 57 172 0 307-57 143-61 238-158 94-98 152-240 53-133 53-301 0-102-21-190-23-92-57-170-33-70-94-145-53-66-127-117l377-410h-228q-41 0-88 15-40 12-74 49l-217 239q-47-14-106-20-74-8-115-8-162 0-305 57-139 55-238 158-98 101-153 239-53 133-53 303zM350 741q0-123 33-219t94.5-163.5 147.5-104.5q82-35 194-35 115 0 197 35 86 37 147 104 61 70 92 164 31 98 31 219 0 119-31 217-31 94-92 164-61 68-147 105-82 35-197 35-113 0-194-35-86-37-147.5-104.5t-94.5-164-33-217.5z" horiz-adv-x="1636" unicode="&#x51;"/><glyph d="M160 0v1481h450q152 0 260-31 104-31 177-88 74-59 102-135 31-80 31-172 0-78-21-142-20-66-63-120-47-59-103-97-63-41-139-65 55-33 90-84l371-547h-248q-39 0-61 14-27 16-43 41l-312 473q-18 29-36.5 39.5t-61.5 10.5h-119v-578h-274zM434 776h172q77 0 135 19 55 16 97 55 37 34 55 80 18 45 18 104 0 113-73 174-72 59-228 60h-176v-492z" horiz-adv-x="1341" unicode="&#x52;"/><glyph d="M37 178l80 133q10 12 26.5 22.5t36.5 10.5q25 0 53-20 35-25 72-48 47-29 94-47 53-20 133-20 115 0 180.5 55t65.5 162q0 59-28 94-33 39-78 62-49 25-110.5 43t-123.5 39q-68 23-127 49-57 27-108 73-45 41-78 115-29 63-29 172 0 74 33 156 31 78 94.5 137t151.5 96q84 35 207 35 129 0 241-41 111-39 189-115l-70-129q-16-27-24-32-14-8-37-8.5t-45 14.5q-16 10-62 35-49 27-80 36-49 16-110 17-51 0-101-14-37-10-71-39-25-20-43-60-14-31-15-76 0-55 29-86 35-37 78-59 51-27 108-43l127-43q68-23 125.5-51.5t108.5-73.5q45-39 78-108 29-59 28-158 0-102-32-187-37-92-101-153-70-68-162-103-94-37-217-36-61 0-139 14-66 12-133 39-61 25-116.5 61.5t-98.5 79.5z" horiz-adv-x="1097" unicode="&#x53;"/><glyph d="M25 1253v228h1167v-228h-444v-1253h-277v1253h-446z" horiz-adv-x="1218" unicode="&#x54;"/><glyph d="M131 594v887h277v-887q0-90 22-152 27-76 66-118 37-43 106-74 63-29 143-29t144 29q70 31 106 74 39 45 66 116 25 68 24 154v887h275v-887q0-133-43-244-47-121-121-194-82-82-195-127-111-45-256-45t-255.5 45-192.5 127q-78 78-123 194-43 111-43 244z" horiz-adv-x="1490" unicode="&#x55;"/><glyph d="M4 1481h221q37 0 60-19 25-20 34-45l349-901q12-29 32-98 6-20 16.5-60.5t12.5-50.5q25 117 59 209l347 901q10 29 32 45 25 18 60 19h223l-598-1481h-250z" horiz-adv-x="1454" unicode="&#x56;"/><glyph d="M12 1481h232q37 0 59.5-16.5t32.5-47.5l252-885q12-41 16-71 2-8 7-36t7-44q9 43 19 80 8 31 22 71l291 885q12 31 31 45 25 18 59 19h82q35 0 57.5-16.5t32.5-47.5l291-885q20-63 37-145 2 14 8 39t8 37q6 33 17 69l250 885q6 25 32 45 25 18 60 19h215l-459-1481h-250l-323 1012-13 41-12 49q-2-6-4-16.5t-4-18.5-4-14l-12-41-328-1012h-250z" horiz-adv-x="2142" unicode="&#x57;"/><glyph d="M12 0l492 762-471 719h274q25 0 41.5-8.5t24.5-24.5l336-543 12 25q0 2 4 12t8 14l309 486q23 39 60 39h262l-475-707 489-774h-276q-27 0-43 14-14 12-29 33l-342 567q0-4-10-22l-10-21-328-524q-8-12-29-33-14-14-41-14h-258z" horiz-adv-x="1390" unicode="&#x58;"/><glyph d="M-8 1481h244q35 0 57-19 20-18 35-43l270-493q12-20 41-84 4-8 33-78 10 35 30 78 39 82 39 84l271 493q16 29 32 43 20 18 58 19h246l-541-906v-575h-275v575z" horiz-adv-x="1339" unicode="&#x59;"/><glyph d="M63 0v109q0 20 6.5 38.5t20.5 36.5l762 1078h-741v219h1097v-101q0-45-28-86l-758-1073h766v-221h-1125z" horiz-adv-x="1263" unicode="&#x5a;"/><glyph d="M119-315v1900h418v-100q0-27-18.5-45.5t-47.5-18.5h-143v-1573h143q29 0 47.5-18t18.5-47v-98h-418z" horiz-adv-x="614" unicode="&#x5b;"/><glyph d="M-29 1522h109q47 0 78-23 33-25 51-65l598-1532h-107q-43 0-79.5 24.5t-55.5 69.5z" horiz-adv-x="798" unicode="&#x5c;"/><glyph d="M78-217q0 29 18.5 47t46.5 18h144v1573h-144q-29 0-47 18.5t-18 45.5v100h418v-1900h-418v98z" horiz-adv-x="614" unicode="&#x5d;"/><glyph d="M125 795l383 686h164l381-686h-185q-25 0-39 12-18 14-26 31l-162 297-29 53q-8 16-20 53-16-49-19-53-8-16-28-53l-160-297q-9-18-25-31-16-12-41-12h-194z" unicode="&#x5e;"/><glyph d="M0-137h807v-164h-807v164z" horiz-adv-x="806" unicode="&#x5f;"/><glyph d="M0 1497h236q39 0 61-14 18-12 35-41l147-248h-143q-23 0-47 8-20 6-37 27z" horiz-adv-x="653" unicode="&#x60;"/><glyph d="M82 268q0 55 33 117 31 59 102 104 76 47 195 78 123 33 301 35v62q0 104-45 155t-131 51q-66 0-103-14-41-16-69-33l-58-32q-20-12-55-13-25 0-43 13-16 10-31 32l-47 82q178 164 438 164 94 0 164-29 76-33 123-84 53-59 76-129 27-80 26-163v-664h-114q-37 0-56 10-23 12-30 43l-23 76q-29-27-78-63-29-20-79-46-43-20-86-28-41-8-103-8-68 0-123 18-63 20-98 53-41 37-62 88-24 59-24 125zM324 283q0-68 41-96.5t102-28.5q37 0 72 6 27 4 61.5 22.5t56.5 34.5q28 22 56 49v179q-115-6-187-19-61-10-118-37-45-20-64-49-20-30-20-61z" horiz-adv-x="1071" unicode="&#x61;"/><glyph d="M139 0v1522h252v-600q59 66 141 106 78 39 185 39 90 0 157-35 74-39 123-102 51-66 80-168.5t29-229.5q0-109-33-217-29-98-90-174-53-68-143-114-82-43-187-43-43 0-88 10-43 10-73 26-29 16-60 43-39 35-55 56l-10-70q-6-25-20.5-37t-41.5-12h-166zM391 272q41-51 94-73 51-23 109-23 55 0 104 23 47 23 78 65 35 47 51 111 16 59 16.5 157.5t-14.5 157.5q-15 65-43 105-27 39-67 57-39 18-88 18-82 0-135-32-57-35-105-95v-471z" horiz-adv-x="1167" unicode="&#x62;"/><glyph d="M66 528q0 117 32 213 34 98 99 172 63 72 159 113 98 41 217 41 113 0 207-39 90-37 160-106l-68-95q-10-12-20-20t-33-8q-20 0-37 10-6 4-21.5 13l-23.5 14q-23 14-59.5 26t-87.5 12q-68 0-117-24-55-27-84-68-34-46-49-110-16-70-16-144 0-86 18-151 20-68 51-109 35-43 82-67 49-25 108.5-25t98.5 17q45 18 63 32 37 29 43 33 16 14 43 14 31 0 46-22l73-94q-43-49-90-82-51-35-102-54-55-18-111-28-49-8-110-8-98 0-184.5 36.5t-150 106.5-100 170-36.5 231z" horiz-adv-x="976" unicode="&#x63;"/><glyph d="M61 522q0 109 33 217 29 98 90 174 53 68 144 115 80 41 186 41 90 0 150-27 61-27 112-75v555h252v-1522h-154q-49 0-63 45l-20 102q-29-33-70-65-43-37-78-53-43-20-88-33-49-12-104-12-86 0-156 36-74 39-125 105-53 68-80 168-29 104-29 229zM324 522q0-96 14-155 15-65 43-105 29-41 67.5-59.5t88.5-18.5q82 0 135 33 57 35 104 94v471q-41 51-94 74-47 20-108.5 20.5t-104.5-20.5q-47-23-78-65-35-47-51-111-16-60-16-158z" horiz-adv-x="1167" unicode="&#x64;"/><glyph d="M66 549q0 109 32.5 201t100.5 165q63 68 159 111 94 41 211 41 98 0 183-31 82-31 145-94 61-61 94-149 33-86 33-203 0-35-2-47.5t-10-28.5q-6-10-17-16-8-4-28-4h-652q12-162 88-238t201-76q66 0 107 15 61 23 77 30 39 20 58 33 23 14 49 14 14 0 26.5-6t20.5-16l74-94q-43-49-94-82-53-33-111-54-59-20-115-28-51-8-114-8-111 0-205 36-90 35-164 109-68 68-109 176-38 103-38 244zM322 647h475q0 41-15 92-12 39-41 76-27 33-69.5 51.5t-98.5 18.5q-111 0-172-61.5t-79-176.5z" horiz-adv-x="1093" unicode="&#x65;"/><glyph d="M25 938v102h155v78q0 96 27 164 27 70 78 121 47 47 125 76 76 29 163 28 68 0 136-20l-7-127q-4-31-26-37-33-8-62-8-47 0-79.5-8.5t-59.5-34.5q-25-25-37-64-12-40-12-98v-70h272v-180h-264v-860h-254v860l-90 14q-33 6-49 20.5t-16 43.5z" horiz-adv-x="716" unicode="&#x66;"/><glyph d="M33-92q0 78 45 125 43 47 125 78-39 20-64 57-23 33-22 94 0 27 8 49 12 33 25 49 20 27 43 48 16 14 61 38-80 43-127 115-45 70-45 168 0 80 30.5 141.5t88.5 106.5q55 43 131 67 78 25 168 25 59 0 127-14 59-12 106-39h303v-94q0-25-12-37-16-16-41-21l-94-16q8-20 14-57 6-31 6-62 0-80-30-141-33-66-86.5-107t-130.5-67q-74-25-162-25-61 0-117 12-49-31-49-67 0-33 28.5-47.5t77.5-20.5q66-8 109-8 57 0 123-6 59-6 123-19 55-10 108-40 49-27 78-74 29-45 29-123 0-70-35-135-34-65-98-117-61-51-160-82-95-31-215-31-125 0-207 23-89 25-148 61-57 35-86 88-28 52-28 105zM252-59q0-23 14-52 10-23 43-41 33-20 80-28 43-8 117-8 78 0 121 10 59 14 86 28 33 16 49 46 14 23 14 57 0 33-18 51-14 14-49 29-23 8-76 16-33 4-90 8l-99 4q-66 4-96 9-47-27-69-56-27-32-27-73zM311 723q0-37 13-68 14-35 34-55 27-27 60-37 37-12 82-12 49 0 82 12 31 10 57 35 20 16 35 55 10 27 10 70 0 78-45 123-47 47-139 47-94 0-141.5-47t-47.5-123z" horiz-adv-x="1058" unicode="&#x67;"/><glyph d="M135 0v1522h254v-584q59 55 135 94 70 35 172 35 88 0 152-29 72-33 113-82 43-51 67-127 23-68 23-161v-668h-252v668q0 94-45 149-43 53-136 53-65 0-122-30-55-29-107-80v-760h-254z" horiz-adv-x="1163" unicode="&#x68;"/><glyph d="M119 1356q0 35 12 65 10 25 34.5 49.5t51.5 34.5q37 14 62 15 29 0 63-15 27-10 51-35 29-29 37-49 12-31 12-65t-12-62q-10-23-37-49-25-25-51-35-31-12-63-12-31 0-62 12-27 10-51 35-23 23-35 49-12 28-12 62zM152 0v1051h254v-1051h-254z" horiz-adv-x="555" unicode="&#x69;"/><glyph d="M-59-348l8 135q2 20 16 27 12 6 51 6t64 6q29 6 43 24 16 20 22 46 6 28 7 67v1088h254v-1088q0-66-18.5-127t-57.5-106q-41-47-105-72-70-27-155-27-45 0-66 4zM119 1356q0 35 12 65 10 25 34.5 49.5t51.5 34.5q37 14 62 15 29 0 63-15 27-10 51-35 29-29 37-49 12-31 12-65t-12-62q-10-23-37-49-25-25-51-35-31-12-63-12-31 0-62 12-27 10-51 35-23 23-35 49-12 28-12 62z" horiz-adv-x="550" unicode="&#x6a;"/><glyph d="M139 0v1522h252v-871h47q25 0 41 6 10 4 29 27l262 324q12 14 37 30 18 12 51 13h232l-328-392q-25-29-35-38-20-20-39-31 22-15 37-37 4-4 15.5-18.5t17.5-24.5l350-510h-227q-27 0-52 10-20 8-36 35l-269 397q-18 29-28 33-16 6-47 6h-58v-481h-252z" horiz-adv-x="1128" unicode="&#x6b;"/><glyph d="M152 0v1522h254v-1522h-254z" horiz-adv-x="555" unicode="&#x6c;"/><glyph d="M135 0v1051h156q47 0 63-47l17-78q37 41 57 57 37 29 66 45 25 14 73 29 33 10 86 10 102 0 164-53 66-57 96-144 25 53 62 91 33 33 80 59 41 25 94 37 41 10 100 10 88 0 154-27 70-29 113-77 49-55 71-125 23-68 23-170v-668h-252v668q0 102-43 151-45 51-131 51-33 0-72-14-33-12-57-37-20-20-39-63-16-39-17-88v-668h-254v668q0 109-40.5 155.5t-126.5 46.5q-53 0-100.5-26.5t-88.5-73.5v-770h-254z" horiz-adv-x="1724" unicode="&#x6d;"/><glyph d="M135 0v1051h156q47 0 63-47l19-82q29 33 65 59 43 31 76 47 45 20 84 29 51 10 98 10 88 0 152-29 72-33 113-82 43-51 67-127 23-68 23-161v-668h-252v668q0 94-45 149-43 53-136 53-65 0-122-30-55-29-107-80v-760h-254z" horiz-adv-x="1163" unicode="&#x6e;"/><glyph d="M61 528q0 117 39 224 35 98 105 170 66 68 164 106 100 39 215 39 113 0 213-39 98-39 164-106 70-72 104-170 37-100 37-223t-37-226q-37-101-104-172-68-72-164-108-100-39-213-39-115 0-215 39-96 37-164 108t-105 172q-39 106-39 225zM324 524q0-168 63.5-256t196.5-88q135 0 194 86 61 89 62 258 0 172-61.5 260t-194.5 88-196.5-88-63.5-260z" horiz-adv-x="1163" unicode="&#x6f;"/><glyph d="M135-344v1395h156q25 0 41-10.5t22-36.5l21-97q61 70 145 117 82 45 193 45 90 0 157-35 71-37 123-104 51-66 80-168.5t29-229.5q0-109-33-217-29-98-90-174-55-70-141-114-84-43-187-43-88 0-151 28-68 31-111 74v-430h-254zM389 272q43-52 92-73 51-23 109-23 55 0 104 22.5t80 65.5 49 111q16 59 16.5 157.5t-14.5 157.5q-15 65-43 105-27 39-65 57-41 18-90 18-82 0-135.5-32.5t-102.5-94.5v-471z" horiz-adv-x="1157" unicode="&#x70;"/><glyph d="M61 522q0 109 33 217 29 98 90 174 53 68 144 115 80 41 186 41 55 0 90-8 40-9 74-25 33-14 63-39 18-14 56-51l14 58q6 29 20 36 16 10 43 11h154v-1395h-252v475q-25-27-67-59-45-35-74-47-29-14-86-29-46-12-98-12-86 0-156 36-74 39-125 105-53 68-80 168-29 104-29 229zM324 522q0-96 14-155 15-65 43-105 29-41 67.5-59.5t88.5-18.5q82 0 135 33 57 35 104 94v471q-41 51-94 74-47 20-108.5 20.5t-104.5-20.5q-47-23-78-65-35-47-51-111-16-60-16-158z" horiz-adv-x="1167" unicode="&#x71;"/><glyph d="M135 0v1051h148q41 0 55-14.5t20-49.5l15-127q55 96 133 154 76 55 170 55 80 0 129-35l-33-190q-2-16-14.5-24.5t-26.5-8.5q-6 0-43 8-29 6-70 6-80 0-135-43-53-41-94-127v-655h-254z" horiz-adv-x="835" unicode="&#x72;"/><glyph d="M43 113l59 96q12 20 25 27 16 10 41 10 18 0 43-15l49-28q31-16 66-29 43-14 94-14 47 0 78 12 37 14 53 29 25 20 31 39 8 23 8 47 0 39-21 61-18 20-59 41-39 18-82 31-18 4-53 16.5t-43 14.5q-33 10-94 38-49 23-84 56-37 33-58 82-23 51-22 118 0 65 24 123 25 57 76 102.5t125 69.5q80 27 172 27 113 0 197-35 90-37 147-94l-57-92q-10-18-21-23-16-8-28-8-10 0-39 12-20 10-49 23-35 14-64 22-41 10-82 11-76 0-119-31t-43-84q0-31 23-57 16-18 57-39 47-23 82-33 16-4 94-29 33-10 95-39 45-20 84-53 37-31 57-76 23-49 22-110 0-72-28-139-28-65-80-111-55-49-131-72-86-27-180-26-49 0-107 10-51 8-98 26-55 20-88 41-47 29-72 52z" horiz-adv-x="894" unicode="&#x73;"/><glyph d="M41 913v103l168 26 53 287q2 18 19 31 14 12 38 12h132v-332h274v-180h-274v-569q0-49 24.5-76t65.5-27q29 0 39 4.5t26 12.5q8 4 21 12 6 4 20 4 12 0 17-4l16-16 76-123q-53-43-127-70-72-25-150-24-135 0-208.5 77.5t-73.5 212.5v586h-107q-16 0-35 14-14 12-14 39z" horiz-adv-x="792" unicode="&#x74;"/><glyph d="M115 383v668h252v-668q0-94 45-150 43-53 133-53 65 0 123 31 61 33 108 80v760h252v-1051h-154q-49 0-63 45l-18 86q-34-34-68-61-31-25-74-45-40-18-86-31-39-10-98-10-88 0-151.5 28.5t-110.5 81.5q-41 45-68 127-22 68-22 162z" horiz-adv-x="1163" unicode="&#x75;"/><glyph d="M14 1051h211q25 0 45.5-14.5t26.5-32.5l203-562q10-29 28-96 6-25 21-94 8 39 22 94 12 49 31 96l207 562q6 18 26.5 32.5t43.5 14.5h198l-415-1051h-230z" horiz-adv-x="1091" unicode="&#x76;"/><glyph d="M8 1051h201q25 0 47-15 18-12 25-32l149-562q16-61 21-90l16-88q4 14 11 44t11 44q12 45 27 90l176 564q6 23 24.5 35t41.5 12h112q29 0 47.5-12.5t24.5-34.5l172-574q4-14 11.5-43t11.5-43l12-41.5t10-42.5q10 70 15 90 6 29 22 90l156 562q6 20 24 32 20 14 45 15h193l-334-1051h-203q-35 0-49 45l-188 606q-12 41-17 62l-12 59q-2-10-7-30.5t-7-30.5q-2-14-17-60l-190-606q-14-45-58-45h-192z" horiz-adv-x="1619" unicode="&#x77;"/><glyph d="M25 0l360 541-346 510h244q25 0 41-8.5t24-24.5l219-350q2 6 6.5 16t6.5 16q6 18 18 37l178 275q12 16 27 28 14 10 33 11h231l-346-498 360-553h-243q-29 0-45 14-10 8-27 33l-225 367q-9-37-25-62l-197-305q-8-12-28-33-14-14-41-14h-225z" horiz-adv-x="1105" unicode="&#x78;"/><glyph d="M8 1051h221q31 0 45-15 16-16 25-32l225-545q8-18 21-56 4-10 8-32.5t4-24.5q6 20 18 57 6 18 23 56l209 545q8 18 28.5 32.5t41.5 14.5h204l-573-1340q-14-31-29-41-20-14-55-14h-188l196 422z" horiz-adv-x="1091" unicode="&#x79;"/><glyph d="M70 0v106q0 18 8 41 10 29 24 46l504 663h-508v195h797v-105q0-25-10-51-8-20-23-43l-500-657h519v-195h-811z" horiz-adv-x="960" unicode="&#x7a;"/><glyph d="M29 561v148q63 0 94 39 29 37 29 100 0 47-7 96-8 59-14 96-12 70-16 97-6 49-6 100 0 74 22 141 20 59 70 109 47 47 116 72 76 27 168 26h56v-115q0-12-6-22-6-8-15-14-12-8-18-10.5t-17-2.5h-10q-72 0-108-45-39-49-39-125 0-39 8-108l12-101 12-96q6-45 7-94 0-45-11-74-14-41-32-63-25-33-50-49-33-23-65-31 35-12 65-33 25-16 50-49 16-23 32-66 10-29 11-71 0-51-7-97l-12-94-12-100q-8-70-8-109 0-74 39-122 37-45 108-46h10q4 0 16.5-4t18.5-8 15-16q6-8 6-25v-110h-56q-96 0-168 24-70 25-116 72-49 51-70 108-23 68-22 144 0 49 6 98 4 27 16 96 6 37 14 97 6 49 7 96 0 66-29 102-31 39-94 39z" horiz-adv-x="614" unicode="&#x7b;"/><glyph d="M209-344v1929h197v-1929h-197z" horiz-adv-x="614" unicode="&#x7c;"/><glyph d="M74-205q0 16 6 25 8 12 14 16t18.5 8 16.5 4h10q72 0 109 46 39 49 39 122 0 39-8 109l-13 100-12 94q-6 45-6 97 0 43 10 71 16 43 33 66 25 33 49 49 31 20 66 33-33 8-66 31-25 16-49 49-18 23-33 63-10 29-10 74 0 49 6 94l12 96 13 101q8 70 8 108 0 76-39 125-37 45-109 45h-10q-10 0-16.5 2t-18.5 11q-8 6-14 14-6 10-6 22v115h55q92 0 168-26 70-25 117-72 49-49 69-109 23-68 23-141 0-51-6-100-4-27-17-97-6-37-14-96-6-49-6-96 0-63 29-100 31-39 94-39v-148q-63 0-94-39-29-37-29-102 0-47 6-96 8-59 14-97 12-70 17-96 6-49 6-98 0-76-23-144-20-57-69-108-47-47-117-72-72-25-168-24h-55v110z" horiz-adv-x="614" unicode="&#x7d;"/><glyph d="M100 408q0 82 20.5 143t61.5 108q39 45 96.5 70t131.5 25q66 0 104-13 66-20 94-32l84-31q37-14 70-14 59 0 90 36 33 39 33 103h202q0-80-20-141-22-65-61-111-39-45-96.5-69.5t-131.5-24.5q-59 0-104 14-84 27-94 31l-84 30q-43 16-70 17-59 0-90-37-33-39-33-104h-203z" unicode="&#x7e;"/><glyph d="M127 524q0 113 33 209 35 98 100 168 72 76 162 115 98 43 221 49l16 160q4 29 21 45 20 20 47 20h92l-20-235q84-16 147-49 72-37 121-84l-66-91q-6-12-20-20-12-8-31-8-12 0-28 6l-37 18q-29 14-45 21-8 2-58 16l-57-688q55 6 90 21 47 20 62 28l23 15.5t22 13.5q18 12 41 12 33 0 47-20l69-90q-37-43-80-74-41-31-90-49-46-18-98-31-47-10-102-14l-13-152q-4-27-20-43-20-20-49-20h-95l21 219q-94 12-170 55-80 45-135 109-59 68-90 161-31 92-31 207zM377 524q0-135 49-221 47-82 143-115l58 684q-125-14-189-106-61-90-61-242z" unicode="&#xa2;"/><glyph d="M41 614v82q0 37 20 60 20 25 64 24h111v242q0 92 28 182 27 84 88.5 151.5t145.5 102.5q94 39 207 39 86 0 147-20 70-23 115-58 57-43 87.5-84t63.5-106l-100-64q-37-16-60-16-35 0-65 35-12 14-39 41-23 23-41 32-25 14-49.5 20.5t-58.5 6.5q-104 0-158-70-51-66-51-190v-244h417v-100q0-20-20-45-18-20-51-21h-346v-198q0-63-27-121-25-52-68-98 78 18 150 18h600v-106q0-14-8-39-8-20-21-35-14-14-34.5-24.5t-45.5-10.5h-981v160q45 12 66 22 37 18 55 37 23 23 39 55 14 29 15 74v266h-195z" unicode="&#xa3;"/><glyph d="M12 1481h209q39 0 58-17 27-23 36-45l224-499q20-43 32-84 6-18 21-78 14 59 20 78 16 53 31 84l223 499q12 23 35 43 20 18 57 19h211l-407-834h282v-139h-327v-98h327v-140h-327v-270h-254v270h-328v140h328v98h-328v139h283z" unicode="&#xa5;"/><glyph d="M53 741q0 98 29 201 29 100 76 180 51 86 118 154 63 63 154 117 84 49 180 77 92 27 201 27 106 0 201-27 92-27 180-77 90-53 153.5-117t116.5-154q51-88 78-180 27-94 27-200.5t-27-200.5q-27-92-78-181-53-90-116.5-153.5t-153.5-116.5q-88-51-180-78-94-27-201-26-109 0-201 26-96 29-180 78-90 53-154 117-68 68-118 153-45 78-76 181-29 98-29 200zM193 741q0-137 47-249 49-115 131-201 83-86 196-135t244-50q127 0 242 50 117 51 198 135 86 90 133 201 47 113 48 249 0 84-23 170-22 83-61 154-39 68-97 129-45 47-125 98-63 41-149 64-92 25-166 24-76 0-168-24-82-23-147-64-80-51-125-98-57-61-97-129-40-71-61-154-20-80-20-170zM362 743q0 109 35 191 41 94 101 151 72 68 149 99 84 33 184 33 117 0 197-37 84-39 137-99l-67-90-17-16q-8-8-26.5-8t-32.5 8q-4 2-16.5 11t-20.5 13q-18 10-55 21-45 12-84 12-53 0-109-20-45-16-82-58-31-35-51-90-18-53-18-121 0-71 18-122 18-49 51-91 31-37 74-55t94-18q57 0 84 8 49 14 56 18 14 8 38 25 14 8 39 16 14 0 21-4 14-10 16-12l84-90q-57-74-145-111-90-39-205-39-101 0-184 37-84 37-142 101-63 72-92 149-31 86-31 188z" horiz-adv-x="1619" unicode="&#xa9;"/><glyph d="M102 512v213h531v-213h-531z" horiz-adv-x="735" unicode="&#xad;"/><glyph d="M53 741q0 98 29 201 29 100 76 180 51 86 118 154 63 63 154 117 84 49 180 77 92 27 201 27 106 0 201-27 92-27 180-77 90-53 153.5-117t116.5-154q51-88 78-180 27-94 27-200.5t-27-200.5q-27-92-78-181-53-90-116.5-153.5t-153.5-116.5q-88-51-180-78-94-27-201-26-109 0-201 26-96 29-180 78-90 53-154 117-68 68-118 153-45 78-76 181-29 98-29 200zM193 741q0-137 47-249 49-115 131-201 83-86 196-135t244-50q127 0 242 50 117 51 198 135 86 90 133 201 47 113 48 249 0 84-23 170-22 83-61 154-39 68-97 129-45 47-125 98-63 41-149 64-92 25-166 24-76 0-168-24-82-23-147-64-80-51-125-98-57-61-97-129-40-71-61-154-20-80-20-170zM475 283v919h330q190 0 280.5-67.5t90.5-196.5q0-88-50-160-47-70-145-100 20-10 39-33 14-16 31-47l186-315h-213q-45 0-63 34l-148 269q-10 16-22 22-16 8-39 8h-56v-333h-221zM696 774h90q55 0 86 8 39 10 54 25 18 18 24 45 8 33 8 57 0 31-6 56-6 29-22 41-20 16-47 22-41 8-78 8h-109v-262z" horiz-adv-x="1619" unicode="&#xae;"/><glyph d="M193 1194l145 248q16 31 35 41 25 14 61 14h246l-252-268q-16-20-37-27-25-8-47-8h-151z" horiz-adv-x="653" unicode="&#xb4;"/><glyph horiz-adv-x="841" unicode="&#x2000;"/><glyph horiz-adv-x="1685" unicode="&#x2001;"/><glyph horiz-adv-x="841" unicode="&#x2002;"/><glyph horiz-adv-x="1685" unicode="&#x2003;"/><glyph horiz-adv-x="561" unicode="&#x2004;"/><glyph horiz-adv-x="419" unicode="&#x2005;"/><glyph horiz-adv-x="280" unicode="&#x2006;"/><glyph horiz-adv-x="280" unicode="&#x2007;"/><glyph horiz-adv-x="208" unicode="&#x2008;"/><glyph horiz-adv-x="335" unicode="&#x2009;"/><glyph horiz-adv-x="92" unicode="&#x200a;"/><glyph d="M102 512v213h531v-213h-531z" horiz-adv-x="735" unicode="&#x2010;"/><glyph d="M102 512v213h531v-213h-531z" horiz-adv-x="735" unicode="&#x2011;"/><glyph d="M102 512v213h531v-213h-531z" horiz-adv-x="735" unicode="&#x2012;"/><glyph d="M168 524v181h829v-181h-829z" horiz-adv-x="1163" unicode="&#x2013;"/><glyph d="M168 524v181h1388v-181h-1388z" horiz-adv-x="1724" unicode="&#x2014;"/><glyph d="M100 1229q0 106 52 196 55 96 151 172l78-49q12-8 14-14 4-12 4-16 0-6-4-19-2-4-10-12-2-4-27-37-14-18-26-45-8-16-21-53-8-25-8-62 0-41 10-73 12-41 39-82 8-14 8-29 0-33-36-45l-154-62q-70 113-70 230z" horiz-adv-x="460" unicode="&#x2018;"/><glyph d="M88 1053q0 18 14 32 4 4 12.5 16.5t14.5 18.5q12 14 27 43 16 31 20 54 8 37 8 61 0 34-12 74-16 51-37 84-8 10-8 26 0 35 37 47l151 60q35-53 54-115 16-51 16-115 0-106-51-196-53-94-150-172l-78 49q-12 8-14 14-4 13-4 19z" horiz-adv-x="460" unicode="&#x2019;"/><glyph d="M100 1229q0 106 52 196 55 96 151 172l78-49q12-8 14-14 4-12 4-16 0-6-4-19-2-4-10-12-2-4-27-37-14-18-26-45-8-16-21-53-8-25-8-62 0-41 10-73 12-41 39-82 8-14 8-29 0-33-36-45l-154-62q-70 113-70 230zM440 1229q0 106 52 196 55 96 151 172l78-49q12-8 14-14 4-12 4-16 0-6-4-19-2-4-10-12-2-4-27-37-14-18-26-45-8-16-21-53-8-25-8-62 0-41 10-73 12-41 39-82 8-14 8-29 0-33-36-45l-154-62q-70 113-70 230z" horiz-adv-x="800" unicode="&#x201c;"/><glyph d="M88 1053q0 18 14 32l27 33q10 12 27 45 16 31 20 54 8 37 8 61 0 34-12 74-16 51-37 84-8 10-8 26 0 35 37 47l151 60q35-53 54-115 16-51 16-115 0-106-51-196-53-94-150-172l-78 49q-12 8-14 14-4 13-4 19zM428 1053q0 18 14 32l27 33q10 12 27 45 16 31 20 54 8 37 8 61 0 34-12 74-16 51-37 84-8 10-8 26 0 35 37 47l151 60q35-53 54-115 16-51 16-115 0-106-51-196-53-94-150-172l-78 49q-12 8-14 14-4 13-4 19z" horiz-adv-x="800" unicode="&#x201d;"/><glyph d="M147 606q0 98 35 174 39 84 97 142 66 66 139 96 82 35 174 35 88 0 174-35 80-33 143-96 53-53 95-142 37-80 36-174 0-90-36-170-41-88-95-141-61-61-143-94-90-37-174-37-86 0-174 37-78 33-139 94-57 57-97 141-35 76-35 170z" unicode="&#x2022;"/><glyph d="M74 139q0 33 12 61.5t32.5 49 49.5 33.5q28 12 61 12t61.5-12.5 49-33 33-49 12.5-61.5q0-34-12-61-12-29-33-49-16-16-49-31-29-12-62-12-34 0-61 12-33 14-49 31-20 20-33 49-12 27-12 61zM623 139q0 39 10 62 12 29 33 49 18 18 51 33 28 12 61 12t60-12q29-12 49-33t32.5-49.5 12.5-61.5q0-34-12-61-12-29-33-49-16-16-49-31-27-12-60-12-34 0-61 12-37 16-51 31-20 20-33 49-10 22-10 61zM1167 139q0 33 12.5 61.5t33 49 49.5 33.5q28 12 61 12t61.5-12.5 49-33 33-49 12.5-61.5q0-34-13-61-12-29-32-49-16-16-50-31-29-12-61-12-34 0-61 12-33 14-50 31-20 20-32 49-13 27-13 61z" horiz-adv-x="1552" unicode="&#x2026;"/><glyph horiz-adv-x="335" unicode="&#x202f;"/><glyph horiz-adv-x="419" unicode="&#x205f;"/><glyph d="M37 553v139h119v25 24 33 35h-119v141h137q25 125 76 226 55 106 123 172 74 72 168 108 98 39 202 39 141 0 244-55.5t170-147.5l-88-96q-6-8-22-20-10-8-31-9-16 0-27 9l-26 20q-6 6-15.5 12t-17.5 15q-18 14-41 26-20 10-58 21-31 8-77 8-121 0-203-82-83-83-117-246h516v-78q0-23-20.5-43t-50.5-20h-461v-35-33-24-25h434v-78q0-25-18.5-43t-51.5-18h-352q27-174 111-264 80-86 200-86 72 0 119 20 49 20 74 43 18 16 47 45 20 20 41 21 8 0 20-4 6-2 17-13l108-102q-70-111-180-168-113-59-258-59-117 0-215 41-96 41-165.5 112.5t-117.5 179.5q-45 100-63 234h-131z" unicode="&#x20ac;"/><glyph d="M57 1337v144h512v-144h-168v-473h-176v473h-168zM643 864v617h150q27 0 34-2 10-2 21-25l135-262q8-16 14-35l13-37q2 6 7 18.5t7 18.5 16 35l136 262q10 18 22 23 16 4 35 4h149v-617h-153v307l12 103-158-309q-18-39-59-39h-25q-41 0-61 39l-154 305 11-99v-307h-152z" horiz-adv-x="1486" unicode="&#x2122;"/><glyph d="M0 1050h1050v-1050h-1050v1050z" horiz-adv-x="1050" unicode="&#xe000;"/><glyph d="M25 938v102h155v35q0 90 33 178 31 82 94 144 61 59 164 94 100 35 234 35 55 0 86-4 49-6 77-15l-8-131q-2-23-24-28-16-4-58-5-100 0-168-18-66-18-108-51-41-31-60-86-16-47-16-121v-27h651v-1040h-254v860h-389v-860h-254v860l-90 14q-33 6-49 20.5t-16 43.5z" horiz-adv-x="1230" unicode="&#xfb01;"/><glyph d="M25 938v102h155v45q0 76 27 160 25 80 80 137.5t137 94.5q78 35 197 34 92 0 176-6 83-6 166-6h143v-1499h-252v1323q-18 0-53 1t-53 3q-70 4-89 4-113 0-174-63-59-61-59-183v-45h248v-180h-240v-860h-254v860l-90 14q-33 6-49 20.5t-16 43.5z" horiz-adv-x="1263" unicode="&#xfb02;"/><glyph d="M1555 1356q0 35 12 65 10 25 34.5 49.5t51.5 34.5q37 14 62 15 29 0 63-15 27-10 51-35 29-29 37-49 12-31 12-65t-12-62q-10-23-37-49-25-25-51-35-31-12-63-12-31 0-62 12-27 10-51 35-23 23-35 49-12 28-12 62zM1588 0v1051h254v-1051h-254zM742 938v102h155v78q0 96 27 164 27 70 78 121 47 47 125 76 76 29 163 28 68 0 136-20l-7-127q-4-31-26-37-33-8-62-8-47 0-79.5-8.5t-59.5-34.5q-25-25-37-64-12-40-12-98v-70h272v-180h-264v-860h-254v860l-90 14q-33 6-49 20.5t-16 43.5zM25 938v102h155v78q0 96 27 164 27 70 78 121 47 47 125 76 76 29 163 28 68 0 136-20l-7-127q-4-31-26-37-33-8-62-8-47 0-79.5-8.5t-59.5-34.5q-25-25-37-64-12-40-12-98v-70h272v-180h-264v-860h-254v860l-90 14q-33 6-49 20.5t-16 43.5z" horiz-adv-x="1990" unicode="&#xfb03;"/><glyph d="M1588 0v1522h254v-1522h-254zM742 938v102h155v78q0 96 27 164 27 70 78 121 47 47 125 76 76 29 163 28 68 0 136-20l-7-127q-4-31-26-37-33-8-62-8-47 0-79.5-8.5t-59.5-34.5q-25-25-37-64-12-40-12-98v-70h272v-180h-264v-860h-254v860l-90 14q-33 6-49 20.5t-16 43.5zM25 938v102h155v78q0 96 27 164 27 70 78 121 47 47 125 76 76 29 163 28 68 0 136-20l-7-127q-4-31-26-37-33-8-62-8-47 0-79.5-8.5t-59.5-34.5q-25-25-37-64-12-40-12-98v-70h272v-180h-264v-860h-254v860l-90 14q-33 6-49 20.5t-16 43.5z" horiz-adv-x="1990" unicode="&#xfb04;"/></font>
</defs>
</svg>
