<svg xmlns="http://www.w3.org/2000/svg"><defs><font horiz-adv-x="1187"><font-face ascent="1649" descent="-399" units-per-em="2048"/><missing-glyph horiz-adv-x="395"/><glyph horiz-adv-x="395" unicode="&#x20;"/><glyph horiz-adv-x="395" unicode="&#x09;"/><glyph horiz-adv-x="395" unicode="&#xa0;"/><glyph d="M154 160q0 33 14 69 12 31 36.5 55.5t57.5 37.5q39 14 72 14t72-14q33-12 57-37t37-56q14-37 14-69.5t-14-67.5q-12-31-37-55.5t-57-36.5q-39-14-72-14t-72 14q-33 12-57.5 36.5t-36.5 55.5q-14 35-14 68zM254 680q0 39 4 113 2 41 10 112l72 586h285l-72-586q-14-106-32.5-186t-53.5-191h-207q-4 53-4 78 0 12-1 37t-1 37z" horiz-adv-x="714" unicode="&#x21;"/><glyph d="M184 1196l37 295h266l-36-295-48-160q-16-55-43-82-29-29-77-28-43 0-66 28-20 27-24 82zM569 1196l37 295h266l-36-295-48-160q-16-55-43-82-29-29-77-28-43 0-66 28-20 27-24 82z" horiz-adv-x="847" unicode="&#x22;"/><glyph d="M12 469q0 23 11 57l28 95h182l76 251h-207l39 123q16 47 47 68 33 20 101 20h76l92 310q16 49 53 71 43 27 88 27h141l-125-408h177l124 408h138q39 0 61-21 25-20 25-53 0-12-4-28l-91-306h201l-41-122q-15-46-49-68-33-20-96-21h-72l-74-251h117q37 0 53-15 18-15 19-49 0-23-10-57l-29-94h-207l-121-406h-143q-34 0-55 25-20 23-21 61 0 4 1 8t1 8q0 8 4 21l84 283h-176l-88-300q-9-28-25-49-12-18-34-32-18-12-43-18.5t-47-6.5h-138l125 406h-96q-33 0-53 16-19 16-19 47zM483 621h181l73 251h-176z" unicode="&#x23;"/><glyph d="M2 180l113 135q14 16 35 29 23 12 45 12t47-12q16-8 53-33l61-39q33-16 82-30l86 401q-65 18-129 43-53 20-114 68-53 41-84 102.5t-31 153.5q0 88 39 178 37 88 108 155 71 68 172.5 111t227.5 49l26 115q6 31 31 51 27 23 59 23h113l-45-201q106-20 182-66 68-39 123-98l-88-108q-23-27-39-37-14-10-43-11-10 0-35 9-18 6-43 18l-51 25q-33 14-59 22l-82-377q59-20 131-47 61-25 117-65 55-43 84-97 33-61 32-141 0-96-39-194-37-94-110-164-82-78-174-119-98-43-234-53l-28-135q-6-28-31-50-23-20-59-20h-113l47 211q-61 10-113 26-68 23-104 41-59 29-92 54-41 28-74 65zM461 1077q0-57 35-90 39-35 92-59l71 323q-55-6-94-22-35-14-61-41-25-25-33-51-10-31-10-60zM623 233q106 16 153 70 51 57 51 143 0 57-34 86-43 37-93 56z" unicode="&#x24;"/><glyph d="M35 0l1216 1446q14 12 41 28.5t62 16.5h223l-1219-1448q-20-20-41-31-25-12-55-12h-227zM119 1077q0 100 28 174 31 82 82 135 57 59 121 89 66 29 150 28 68 0 118-22 57-27 93-66 39-45 59.5-100t20.5-131q0-100-33-174-35-80-88-133-57-57-121-86t-141-29q-72 0-119 22-63 31-92 64-35 41-58 102-20 55-20 127zM354 1077q0-72 20.5-98.5t57.5-26.5q31 0 49 11 25 14 39 38 14 27 25 72 10 47 10 107 0 72-23 104-20 31-57 31-28 0-49-12-25-14-39-41-15-28-25-74-8-41-8-111zM817 299q0 94 31 174 33 86 80 135 57 59 121 88 66 29 149 29 68 0 119-23 57-27 92-65 39-47 59-102 20-59 21-132 0-100-33-174-35-78-88-131-55-55-122.5-85.5t-139.5-30.5-119 22q-57 27-90 66-39 45-59.5 100t-20.5 129zM1053 299q0-72 20-98 23-29 57-29 28 0 50 12 27 16 39 37 18 33 26 72t8 108q0 74-22.5 102.5t-56.5 28.5q-31 0-52-12-23-12-37-39-15-28-24-73-8-41-8-109z" horiz-adv-x="1548" unicode="&#x25;"/><glyph d="M27 369q0 80 24 147 27 72 66 125 45 59 100 104 63 51 127 82-29 66-41 123-12 61-12 115 0 84 33 170 31 78 90 141 53 55 143 94 86 37 193 37 90 0 159.5-28.5t114.5-73.5q43-43 70-111 23-57 22-131l-184-35q-12-2-31-2-27 0-37 11-12 12-20 34-35 111-123 111-33 0-62-16-27-14-45-43-20-31-28-64-10-41-10.5-73.5t14.5-86.5q12-43 47-98l278-369q55 113 80 244 6 29 21 45 16 18 45 19h217q-18-152-72-283-52-129-129-233l244-324h-266q-47 0-63.5 4t-45.5 16q-18 8-39 25-10 8-35 41l-18 23q-89-61-190-93-109-33-211-32-104 0-182 26.5t-136 77.5q-51 47-82 123-26 68-26 158zM342 410q0-41 10-78 10-39 29-60 25-27 55-39 39-14 82-14 52 0 105 19 49 18 98 53l-266 364q-63-55-88-114-25-61-25-131z" horiz-adv-x="1366" unicode="&#x26;"/><glyph d="M184 1196l37 295h266l-36-295-48-160q-16-55-43-82-29-29-77-28-43 0-66 28-20 27-24 82z" horiz-adv-x="464" unicode="&#x27;"/><glyph d="M70 416q0 168 20 311 20 137 70 297 45 141 121 295 66 131 184 301l127-78q6-2 24-22 10-10 11-33 0-16-4-27-4-8-19-35-63-117-108-221-41-96-84-237-37-121-56-258-20-147-20-271 0-94 4-143 8-104 14-152 8-74 25-149 18-88 35-137 0-4 2-11.5t4-11.5q2-8 2-20 0-29-14-45-8-10-37-27l-146-80q-37 82-69 180-31 96-50 193-20 111-28 194-8 89-8 187z" horiz-adv-x="565" unicode="&#x28;"/><glyph d="M-29-205q0 6 8.5 26.5t16.5 35.5q63 113 108 221 45 104 84 237 37 123 56 256 20 147 20 273 0 94-4 143-8 104-14 152-8 74-25 149-18 88-35 137-2 4-4 11.5t-2 11.5q-4 16-4 20 0 25 17 45 8 10 36 27l146 80q37-82 69-180 31-96 50-193 16-90 26-194 10-109 10-187 0-168-20-311-20-150-68-297-41-131-123-295-66-131-184-301l-127 78q-4 2-24 22-13 13-13 33z" horiz-adv-x="565" unicode="&#x29;"/><glyph d="M119 1077l145 90 41 21q18 10 39 12-41 6-72 29l-125 92 86 119 125-92q20-12 31-21l25-24q-4 25-4 40v19q0 10 2 16l22 181h144l-23-179q-4-29-8-45-6-29-15-43 20 20 33 31 23 18 37 25l146 90 55-119-146-90q-23-14-41-19-31-8-41-10 4 0 39-12 8-2 35-21l123-90-84-116-125 88q-20 12-31 22l-24 25q4-12 4-21v-22-17q0-4-1-8t-1-8l-23-180h-143l23 178q6 47 20 80-18-18-31-27-25-16-37-22l-145-88z" horiz-adv-x="753" unicode="&#x2a;"/><glyph d="M96 578l29 221h379l51 405h248l-49-405h383l-29-221h-383l-49-410h-250l51 410h-381z" unicode="&#x2b;"/><glyph d="M31 180q0 34 12 62 14 31 35 49 23 20 55 33 31 12 70 12 43 0 79.5-16.5t57-43 33.5-61.5q10-31 10-76 0-47-16-108-12-47-50-117-33-61-79-115-51-57-111-102l-55 49q-8 8-17 21-6 8-6 24 0 15 19 37l17 17.5t24 27.5q12 12 45 59 25 35 32 72-37 4-63 19-33 18-49 36-20 23-33 56-10 24-10 65z" horiz-adv-x="483" unicode="&#x2c;"/><glyph d="M94 498l31 247h514l-33-247h-512z" horiz-adv-x="702" unicode="&#x2d;"/><glyph d="M25 160q0 33 14 69 12 31 36.5 55.5t57.5 37.5q39 14 72 14 31 0 69-14 33-12 58-37 29-29 39-56 14-37 14-69.5t-14-67.5q-10-27-39-55-25-25-58-37-39-14-69-14-33 0-72 14-33 12-57.5 36.5t-36.5 55.5q-14 35-14 68z" horiz-adv-x="483" unicode="&#x2e;"/><glyph d="M-94-102l698 1491q25 51 68 77 47 29 100 29h129l-692-1487q-10-23-33-49-20-23-43-35-33-16-49-20-25-6-47-6h-131z" horiz-adv-x="768" unicode="&#x2f;"/><glyph d="M63 590q0 225 52 405 49 170 137 287 84 111 205 168t256 57q98 0 188-39 84-37 146-112 59-76 94-191 33-111 33-266 0-223-52-403-49-170-137-287-86-115-207-170-119-55-254-55-102 0-188 36-82 35-146 115-59 76-94 191-33 110-33 264zM383 598q0-104 16-180 14-66 41-113 23-39 60-59 31-16 65-17 61 0 115 41 57 43 92 123 39 86 59 209 23 131 23 291 0 104-16 180-14 66-41 113-23 39-60 59-31 16-65 17-63 0-116.5-41t-90.5-123q-39-86-59-209-23-131-23-291z" unicode="&#x30;"/><glyph d="M201 0l26 221h289l96 803 23 94-203-155q-25-16-35-19-25-4-30-4-31 0-45 10-16 10-27 25l-80 127 510 391h254l-156-1272h250l-29-221h-843z" unicode="&#x31;"/><glyph d="M10 0l13 98q3 28 18 62 12 29 49 61l488 434q82 76 122 121 47 53 80 109 35 59 45 102 14 61 15 111 0 72-41 116-41 43-119 43-45 0-70-10-29-10-57-30-23-16-49-46-20-25-33-53-25-49-49-65-29-18-70-19-14 0-43 4l-157 27q31 113 86 195 53 80 133 137 76 53 168 82 96 29 192 28.5t178-28.5q74-27 135-80 51-45 84-121 29-66 29-152 0-94-27-168-29-80-73-145-43-63-113-133l-137-131-338-307q59 16 113 24 61 10 102 10h297q49 0 72-22 25-25 24-64l-1-2q-1-2-1-4 0-4-2-22l-6-56q-2-10-4-26.5l-5-40-5-39.5h-1043z" unicode="&#x32;"/><glyph d="M63 381l144 55q12 6 36.5 10.5t35.5 4.5q31 0 55-13 23-12 33-37 35-90 82-129t126-39q61 0 105 21 51 25 78 55 37 43 49 84 16 53 16 99 0 37-12 67-12 29-43 51-33 23-88 35-49 10-152 10l29 211q90 0 156 17 63 16 98 45 39 33 53 71 14 41 15 99 0 74-41 119-39 41-119 40-72 0-129-40-53-39-82-99-25-49-49-65-29-18-70-19-2 0-8 1t-10 1q-14 0-23 2l-158 27q31 113 86 195 51 78 132 137 70 53 167 82 96 29 193 28 98 0 178-28 82-29 131-76 52-49 80-111 27-59 27-133 0-88-17-143-18-59-51-103-37-45-82-71-49-29-116-47 109-45 159.5-117t50.5-180q0-82-22-156-22-71-62-129-37-53-94-98t-119-74q-53-27-137-43-70-14-147-14-113 0-187 22-86 27-139 72-63 53-98 123-37 76-60 180z" unicode="&#x33;"/><glyph d="M16 561l807 930h301l-112-918h153l-24-170q-2-23-21-38-16-16-47-17h-90l-41-348h-276l43 348h-598q-31 0-55.5 18.5t-26.5 51.5zM348 573h387l49 410q2 16 11 68l16 71z" unicode="&#x34;"/><glyph d="M12 170l111 129q16 18 39 29 18 8 43 8 29 0 55-17 12-8 25.5-16l29.5-18q43-27 74-37 45-16 105-17 68 0 124 27 55 27 87 66 37 47 51 98 16 59 16 115 0 90-55 143-57 53-168 53-49 0-92-8-59-10-109-27l-182 52 219 741h758l-17-127q-2-29-16-55-14-29-37-45-31-23-61-31-33-8-84-8h-365l-76-264q31 6 80 10 53 4 76 4 106 0 190.5-31t137.5-84q55-55 82-127 29-76 28-155 0-129-49-240-47-106-135-188-82-76-203-121-123-45-250-45-78 0-137 14-53 12-117 41-53 23-98 59-51 39-80 72z" unicode="&#x35;"/><glyph d="M68 442q0 139 59 264t172 257l395 456q23 29 72 51 43 20 100 21h273l-549-578q35 14 78 21 57 8 88 8 76 0 145-24 66-23 123-74t88-119q33-72 33-170 0-119-45-221-47-104-127-182-78-76-193-123-109-45-241-45-109 0-201 34-86 33-148 95-63 63-92 145-30 86-30 184zM358 434q0-49 13-86 12-35 39-65 23-27 63-43 35-14 90-15 57 0 104.5 20.5t86.5 59.5 59 88q23 55 23 113 0 47-16.5 90t-41.5 68q-23 23-69 41-43 16-88 16-57 0-105-21-41-18-82-59-37-37-55-90-21-58-21-117z" unicode="&#x36;"/><glyph d="M123 0l672 1085q20 35 53 74 31 37 61 66h-665q-27 0-43 16-18 18-19 43 0 18 2 35 0 8 3 24.5t6 26.5q6 43 8 60 4 33 8 61h1044l-14-117q-8-53-14-76-10-37-25-57l-702-1173q-20-31-52-48-37-20-65-20h-258z" unicode="&#x37;"/><glyph d="M51 375q0 78 17 133 18 63 55 115 35 49 94 90 63 43 135 65-86 43-127 110.5t-41 164.5q0 94 41 180 39 82 113 143 78 63 170 97 100 35 209 34 96 0 178-28.5t137-77.5q59-53 88-115 31-68 31-143 0-133-61-225-63-94-187-144 115-43 164-121 51-80 51-178 0-106-45-203-43-92-121-155-80-66-186-99-111-35-236-34-106 0-198 28.5t-150 77.5q-63 55-96 125-35 76-35 160zM371 401q0-45 10-73 14-39 35-60 25-25 59.5-39t83.5-14q63 0 109 18 43 16 75 54 29 31 45 82 14 43 15 100 0 39-10 76-10 33-33 57-27 25-60 37-43 14-88 14-68 0-112-18-47-18-76-53t-41-80q-12-48-12-101zM481 1057q0-23 8-64 6-27 27-55 16-23 49-39 29-14 76-14 72 0 109 22 39 25 61 60 27 41 31 75 8 57 8 80 0 33-8 59.5t-29 51.5q-23 27-49 37-31 12-74 12-59 0-94-16-39-18-66-52-25-31-36-71-13-40-13-86z" unicode="&#x38;"/><glyph d="M160 0l540 567q8 8 16.5 17.5t16.5 17.5l29 33q-55-27-107-39-55-12-116-12-74 0-133 22-63 25-115 70-55 49-84 115-31 70-31 163 0 111 45 213 47 109 121 176 84 78 186 119 113 45 234 45 100 0 192-32 82-29 144-91 57-57 88-137t31-174q0-78-17-153-16-74-45-138-33-70-72-127-63-92-94-127l-381-458q-25-31-67-50-47-20-99-20h-282zM487 995q0-88 48-139 46-49 141-49 53 0 104 20 47 18 78 54 35 39 51.5 82t16.5 106q0 49-14.5 84t-41 61.5-63.5 39-80 12.5q-51 0-98-20.5t-76-55.5q-31-37-49-86-17-43-17-109z" unicode="&#x39;"/><glyph d="M25 160q0 33 14 69 12 31 36.5 55.5t57.5 37.5q39 14 72 14 31 0 69-14 33-12 58-37 29-29 39-56 14-37 14-69.5t-14-67.5q-10-27-39-55-25-25-58-37-39-14-69-14-33 0-72 14-33 12-57.5 36.5t-36.5 55.5q-14 35-14 68zM123 860q0 33 14 70 10 27 37 53 29 29 57 39 39 14 72 14 31 0 70-14 29-10 57.5-39t38.5-53q14-37 14-70t-14-69q-10-27-39-56-25-25-57-37-39-14-70-14-33 0-72 14-33 12-57 37t-37 56q-14 36-14 69z" horiz-adv-x="483" unicode="&#x3a;"/><glyph d="M25 180q0 34 12 62 14 31 35 49 23 20 55 33 31 12 70 12 43 0 79-17 34-15 56-43 25-33 35-61 10-31 10-76 0-47-17-108-12-47-49-117-33-61-80-115-51-57-110-102l-55 49q-8 8-17 21-6 8-6 24 0 15 18 37l17.5 17.5t23.5 27.5q12 12 45 59 25 35 33 72-37 4-63 19-33 18-49.5 36.5t-30.5 55.5q-12 30-12 65zM121 860q0 33 14 70 10 27 37 53 29 29 57 39 39 14 72 14t72-14q29-10 57-39 27-27 37-53 14-37 14-70t-14-69q-12-31-36.5-55.5t-57.5-37.5q-39-14-72-14t-72 14q-33 12-57.5 37t-36.5 56q-14 36-14 69z" horiz-adv-x="483" unicode="&#x3b;"/><glyph d="M139 629l17 125 880 434-26-221q-3-25-19-43-18-23-43-35l-309-156q-27-14-59-24l-64-19q57-14 59-16 37-12 54-23l272-159q43-25 43-64 0-4-1-8l-1-4-29-219z" horiz-adv-x="1091" unicode="&#x3c;"/><glyph d="M115 393l28 217h928l-29-217h-927zM162 762l28 221h926l-26-221h-928z" unicode="&#x3d;"/><glyph d="M102 197l27 219q3 25 18 43 18 23 43 35l310 157q18 10 59 22.5t64 18.5q-57 16-60 17-31 10-53 24l-272 156q-43 25-43 65 0 4 1 9l1 4 28 221 774-434-16-123z" horiz-adv-x="1091" unicode="&#x3e;"/><glyph d="M141 1354q43 33 84 59 39 25 94 49 43 18 107 33 55 12 121 12 88 0 153.5-24.5t108.5-67.5 63-96q23-57 23-115 0-84-23-147-20-57-55-103-39-49-76-75l-82-60q-33-27-69-65-33-35-47-80l-45-146h-211v164q0 53 24 96 25 45 60 76 41 39 80 66 12 8 77 63 29 25 60 70 25 37 24 84 0 55-26.5 88t-96.5 33q-47 0-81-13-37-14-60-24-20-10-45-27-18-12-39-12-18 0-35 10-12 8-22 27zM188 160q0 33 15 69 12 31 36.5 55.5t57.5 37.5q39 14 72 14 31 0 69-14 33-12 58-37 29-29 39-56 14-37 14-69.5t-14-67.5q-10-27-39-55-25-25-58-37-39-14-69-14-33 0-72 14-33 12-57.5 36.5t-36.5 55.5q-15 35-15 68z" horiz-adv-x="839" unicode="&#x3f;"/><glyph d="M47 483q0 127 31 248 31 119 86 223 57 109 135 193 90 98 174 151 98 63 205 97 115 35 229 35 121 0 238-46 111-43 194.5-126.5t131-196.5 47.5-258q0-127-37-240-37-117-101-196-61-80-151-131-86-49-189-50-29 0-57 7-20 4-49 22-23 14-41 39-16 23-27 57-66-70-129-96-61-27-137-27-55 0-94 18.5t-67.5 53.5-41 80-12.5 100q0 57 16 129 12 53 50 127 31 61 79 117 53 59 112.5 96t145.5 64q74 23 177 22 53 0 75.5-2t63.5-10q37-8 55-14 33-12 51-21l-141-387q-14-35-20-69-8-41-9-54 0-37 20.5-53t47.5-16q37 0 76 34 31 27 61 95 25 51 41.5 137t16.5 168q0 106-29 188-29 84-82 137-59 59-131 84-82 29-178 29-135 0-248-57-115-59-193-158-82-102-127-238-47-137-47-292 0-141 35-240 37-102 103-172 63-66 159-104 92-37 209-37 53 0 135 8 47 4 111 20 49 12 84 27 41 16 57 29 27 12 33 14 20 4 27 4 25 0 41-16 14-14 20-37l23-82q-59-39-111-62-78-35-129-51-61-20-147-33-80-12-166-12-166 0-293 51-125 51-221 150-92 94-142 231-49 135-49 299zM623 471q0-94 63-94 14 0 39 8 18 6 37 25 20 20 37 47 18 29 32 71l103 283q-14 2-43 2-45 0-96-29-47-27-86-75-37-45-62-109-24-61-24-129z" horiz-adv-x="1521" unicode="&#x40;"/><glyph d="M-82 0l713 1491h342l346-1491h-258q-43 0-70 20-25 18-30 54l-48 266h-505l-111-266q-14-33-43-51-35-23-74-23h-262zM500 569h377l-74 426q-12 70-21 107-8 33-16 100-4-10-12.5-28.5t-10.5-26.5q-6-18-14-34.5t-12-27.5q-18-43-25-55l-9-22.5t-7-16.5z" horiz-adv-x="1357" unicode="&#x41;"/><glyph d="M45 0l184 1491h512q131 0 224-25 96-25 151-69 59-47 86-108.5t27-141.5q0-59-16.5-118.5t-49.5-106.5q-29-41-90-86-51-37-131-66 121-35 180-102 57-66 58-176 0-106-39-192.5t-115-156.5q-74-68-182-104-113-39-242-39h-557zM410 250h219q61 0 104 18 41 16 68 51 25 31 37 74t12 94q0 37-8 62-10 29-31 47-22 18-55 31-29 10-84 10h-215zM483 858h160q63 0 102 10 47 12 76 39 35 31 51.5 72t16.5 113q0 83-43 116-45 35-135 35h-181z" horiz-adv-x="1236" unicode="&#x42;"/><glyph d="M51 635q0 123 29 242 29 115 80 213 49 94 127 174 78 82 162 133 76 47 190 82 94 29 215 28 90 0 153.5-14t125.5-45q59-31 100-68 39-37 76-86l-117-135q-4-4-29-24-15-12-43-13-16 0-30 8-20 12-31 21l-33 27q-14 12-43 26-20 10-61 21-33 8-84 8-94 0-176-41-78-39-142-115-59-70-94-180-33-100-33-238 0-100 23-167 27-78 63-127 41-53 94.5-80t120.5-27q59 0 99 8 33 6 71 23 20 8 49 28 10 8 19.5 16.5t17.5 14.5q10 8 31 21 14 8 31 8 18 0 26.5-4t16.5-13l116-141q-96-115-231-176-131-59-303-59-139 0-250 49-109 47-184.5 137t-112.5 207q-39 127-39 258z" horiz-adv-x="1210" unicode="&#x43;"/><glyph d="M45 0l184 1491h537q147 0 264-49 115-49 199-135 84-88 127-207 43-120 43-258 0-125-27-232-28-111-80-202-55-98-125-168-84-84-163-129-100-57-197-82-111-29-225-29h-537zM414 258h200q104 0 185 39 76 37 139 117 57 72 88 180t31 240q0 96-21 165-23 78-63 127-45 55-101 80-63 29-139 29h-201z" horiz-adv-x="1396" unicode="&#x44;"/><glyph d="M45 0l184 1491h889l-33-256h-553l-45-361h424l-32-247h-420l-45-369h555l-33-258h-891z" horiz-adv-x="1060" unicode="&#x45;"/><glyph d="M45 0l184 1491h889l-33-256h-553l-49-393h463l-35-256h-458l-72-586h-336z" horiz-adv-x="1048" unicode="&#x46;"/><glyph d="M51 649q0 121 29 236 29 117 80 209 53 98 125 172 70 72 164 131 78 47 192 82 98 29 217 28 104 0 172-16 86-20 139-47 55-27 109-68 45-35 86-78l-109-135q-37-45-84-45-28 0-55 19-6 4-67 41-23 14-66 30-23 8-68 17-49 8-81 8-98 0-179-43-82-43-139-117-59-74-90-180-33-111-33-234 0-96 25-176 23-74 67-131 41-53 104.5-81.5t137.5-28.5q70 0 111 10 47 12 94 31l29 241h-127q-25 0-43 15-16 12-17 34l23 193h497l-77-623q-51-39-119-71-70-35-129-52-74-20-142-28-66-8-157-8-133 0-252 51-117 51-197 139-84 94-125 211-45 129-45 264z" horiz-adv-x="1337" unicode="&#x47;"/><glyph d="M45 0l184 1491h336l-78-629h539l78 629h336l-185-1491h-335l77 635h-538l-78-635h-336z" horiz-adv-x="1425" unicode="&#x48;"/><glyph d="M74 0l182 1491h336l-182-1491h-336z" horiz-adv-x="606" unicode="&#x49;"/><glyph d="M-49 10l24 191q3 25 19 43 14 18 47 18 25 0 55.5-6t67.5-6q82 0 135 65.5t72 212.5l116 963h334l-116-954q-14-119-58-228-41-102-106-174-66-70-162-112-90-39-215-39-53 0-107 6-57 6-106 20z" horiz-adv-x="806" unicode="&#x4a;"/><glyph d="M45 0l182 1491h334l-76-610h50q35 0 63 12 27 12 45 37l354 495q29 41 66 53.5t86 12.5h289l-469-608q-23-27-49-52-23-20-54-36 41-18 62-37 25-23 45-66l315-692h-297q-25 0-49 4-12 2-33 12-16 8-24 18.5t-15 26.5l-231 525q-10 27-39 41-25 12-68 12h-77l-78-639h-332z" horiz-adv-x="1351" unicode="&#x4b;"/><glyph d="M45 0l184 1491h334l-151-1225h501l-32-266h-836z" horiz-adv-x="978" unicode="&#x4c;"/><glyph d="M45 0l184 1491h254 37q18 0 31-6 16-8 22-15 8-8 15-28l262-787q23-68 37-131 4 10 35 66l36 65 457 787q20 31 51 41 27 8 60 8h262l-184-1491h-293l104 868 10 62q8 45 15 69l-449-770q-25-37-53-53-31-16-72-16h-45q-41 0-67.5 16.5t-40.5 52.5l-262 770q-4-45-5-65 0-25-4-62l-102-872h-295z" horiz-adv-x="1773" unicode="&#x4d;"/><glyph d="M45 0l184 1491h177 36q10 0 27-8 8-4 20-17 9-9 19-24l524-922q0 12 1 33.5t3 34 5 33 3 28.5l101 842h295l-185-1491h-174q-41 0-65 12-27 14-43 43l-522 920q0-8-2.5-26.5t-2.5-27-1-25.5-3-26l-102-870h-295z" horiz-adv-x="1425" unicode="&#x4e;"/><glyph d="M51 649q0 117 29 232 29 113 80 206 55 102 125 175 72 74 166 131t196 86q100 29 225 28 150 0 265-51 121-53 198-141 82-92 125-213 43-123 43-260 0-117-28-232-27-109-80-204-55-102-125-175-78-82-164-133-88-53-197-84-106-31-225-30-150 0-264.5 51t-198.5 141q-86 92-127 211-43 123-43 262zM393 655q0-96 21-166 23-80 63-129 41-51 105-81 57-29 139-29 109 0 184 41 84 45 137 119 59 82 88 184 31 108 31 240 0 90-22 167-23 76-64 129-37 49-104 82-57 29-140 29-109 0-184-41-84-45-137-119-55-76-86-186-31-108-31-240z" horiz-adv-x="1499" unicode="&#x4f;"/><glyph d="M45 0l182 1491h494q132 0 227-31 86-29 156-90 61-55 90-133 29-80 29-168 0-121-37-225-35-100-115-180-74-74-194-119-111-41-279-41h-160l-61-504h-332zM471 754h160q74 0 121 20 45 20 77 60 31 35 43 92 14 61 15 116 0 43-13 80-14 43-34.5 65.5t-63.5 41.5q-35 14-88 14h-158z" horiz-adv-x="1208" unicode="&#x50;"/><glyph d="M51 649q0 117 29 232 29 113 80 206 55 102 125 175 72 74 166 131t196 86q100 29 225 28 150 0 265-51 121-53 198-141 82-92 125-213 43-123 43-260 0-115-24.5-219.5t-69.5-194.5q-41-84-113-168-66-78-145-133l297-408h-274q-51 0-105 15-45 12-78 57l-143 209q-86-16-164-16-150 0-264.5 51t-198.5 141q-86 92-127 211-43 123-43 262zM393 655q0-96 21-166 23-80 63-129 41-51 105-81 57-29 139-29 109 0 184 41 84 45 137 119 59 82 88 184 31 108 31 240 0 90-22 167-23 76-64 129-37 49-104 82-57 29-140 29-109 0-184-41-84-45-137-119-55-76-86-186-31-108-31-240z" horiz-adv-x="1499" unicode="&#x51;"/><glyph d="M45 0l182 1491h453q141 0 233-29 104-33 160-80 61-51 88-120 29-74 29-152 0-80-23-158-23-76-63-135-45-66-103-110-55-45-139-78 27-16 58-43 28-25 43-62l217-524h-301q-43 0-72 16-27 14-39 47l-162 441q-12 29-30.5 41t-55.5 12h-74l-69-557h-332zM475 786h121q70 0 121 22.5t82 59.5q33 41 45 86 14 57 14 102.5t-12 78.5q-10 29-39 57-25 25-66 37-47 14-92 14h-119z" horiz-adv-x="1257" unicode="&#x52;"/><glyph d="M-31 180l119 156q10 14 35 29 22 12 43 12 25 0 55-21l62-45q35-27 75-43 47-20 107-20 92 0 143 51t51 150q0 47-22 75-20 25-62 49-39 23-83 37-33 10-99 35-49 18-98 43-47 25-86 66-35 39-62 100-23 53-22 145 0 98 37 191 35 88 108 162 70 70 168.5 112.5t223.5 42.5q51 0 122-14 59-12 113-37 49-23 94-55 39-29 74-70l-100-139q-18-23-35-35-16-10-43-10-25 0-47 14l-54 35q-31 18-65 33-39 16-90 16-39 0-82-14-33-10-60-37-20-20-34-55-12-31-13-70 0-45 23-70 20-23 61-47 29-16 88-39 10-4 31-11t37-13l31-12q49-22 98-50 57-33 88-65 37-39 62-96 23-51 22-136 0-115-39-211-43-104-113-174-78-78-176-118-104-43-233-43-70 0-129 14-55 12-125 41-55 23-111 61-49 35-88 80z" horiz-adv-x="1024" unicode="&#x53;"/><glyph d="M106 1229l33 262h1096l-35-262h-379l-151-1229h-332l149 1229h-381z" horiz-adv-x="1130" unicode="&#x54;"/><glyph d="M96 506q0 47 6 100l107 885h334l-109-885q-4-25-4-37v-37q0-127 57.5-198.5t167.5-71.5q61 0 115 25 49 23 90 67 37 41 64 109 27 70 34 143l109 885h334l-109-885q-20-145-71-252-53-111-144-196-86-83-203-129-115-45-253-45-125 0-224 36-88 33-164 109-68 68-102.5 166t-34.5 211z" horiz-adv-x="1366" unicode="&#x55;"/><glyph d="M121 1491h268q47 0 70-21 25-23 30-51l156-821 23-115q8-41 20-127 23 68 49 127 29 61 49 115l349 821q10 20 16 27 18 18 29 24 18 10 34 17 12 4 39 4h271l-733-1491h-304z" horiz-adv-x="1400" unicode="&#x56;"/><glyph d="M131 1491h262q45 0 69.5-18.5t31.5-53.5l104-805q4-37 6-57 0-10 1-28.5t3-26.5q2-20 2-58 16 51 33 91l31 79 305 805q14 31 43 51.5t74 20.5h78q43 0 69.5-18.5t32.5-53.5l115-805q2-29 10-77 8-57 10-88 6 20 9 32.5t8.5 26.5 9.5 29q4 16 14 43.5t12 33.5l295 805q10 31 43 51.5t76 20.5h264l-608-1491h-303l-137 942q0 4-3.5 21.5l-5.5 27.5q-4 37-6 58-4-10-22-58l-19-49-364-942h-301z" horiz-adv-x="2027" unicode="&#x57;"/><glyph d="M-78 0l561 795-323 696h303q37 0 47-8 14-12 22-29l197-471q2 4 6 10t6 11q4 4 6.5 9t6.5 11l262 426q16 25 31 33 16 8 40 8h351l-496-680 358-811h-299q-31 0-51 16-16 14-26 37l-219 549q-4-8-11-14-4-4-8-13l-330-522q-16-27-45-41-25-12-55-12h-334z" horiz-adv-x="1355" unicode="&#x58;"/><glyph d="M100 1491h297q43 0 68-18 20-16 35-54l143-452 27-86q4-16 10-47t8-35q8 16 45 82l49 86 254 452q18 33 45 51 29 20 72 21h277l-611-920-71-571h-334l69 569z" horiz-adv-x="1286" unicode="&#x59;"/><glyph d="M-29 0l13 98q2 20 12 39 2 4 22 35l756 1063h-598l33 256h1032l-14-98q-4-23-13-41-2-4-22-35l-754-1059h631l-33-258h-1065z" horiz-adv-x="1146" unicode="&#x5a;"/><glyph d="M-23-328l236 1921h430l-14-118q-2-27-29-49.5t-59-22.5h-95l-192-1540h100q31 0 49.5-18.5t18.5-47.5v-4l-1-5q-1-5-1-9t-1-13.5-3-23.5q-4-25-8-70h-431z" horiz-adv-x="565" unicode="&#x5b;"/><glyph d="M102 1495h129q51 0 91-29 35-27 51-77l332-1491h-130q-49 0-90 26-39 25-55 84z" horiz-adv-x="765" unicode="&#x5c;"/><glyph d="M-47-328l16 115q6 35 29 53 27 23 57 23h97l192 1540h-100q-33 0-51 18-20 20-21 45l1 2 1 2v5l16 118h431l-238-1921h-430z" horiz-adv-x="565" unicode="&#x5d;"/><glyph d="M143 786l396 705h206l396-705h-234q-27 0-47 15-14 10-29 35l-126 241-33 64q-4 8-25 59-4-12-13-33.5t-11-25.5q-10-27-31-64l-123-241q-10-18-31-35-16-14-49-15h-246z" unicode="&#x5e;"/><glyph d="M-100-307l24 190h744l-25-190h-743z" horiz-adv-x="743" unicode="&#x5f;"/><glyph d="M-2 1507h287q43 0 65-16 20-14 33-45l96-250h-174q-37 0-53 8-18 10-39 33z" horiz-adv-x="626" unicode="&#x60;"/><glyph d="M33 365q0 143 53 274 52 129 147 227 90 92 226 154 127 57 284 57 86 0 154-8 77-9 154-37l-129-1032h-170q-25 0-50 8-18 6-32 21-8 8-17 32-4 12-4 39v76q-63-88-145-141-78-51-176-51-63 0-111 22-57 27-94 70-43 49-66 119-24 74-24 170zM350 422q0-53 8-86 8-35 23-60 12-20 33-30 25-12 41-13 31 0 67 27 27 18 62 72 31 47 55 106 20 49 41 127l37 295h-19q-76 0-141-34.5t-111-94.5q-49-66-71-139-25-80-25-170z" horiz-adv-x="1089" unicode="&#x61;"/><glyph d="M47 0l186 1532h312l-78-637q71 86 154 135 80 47 176 47 70 0 121-22 53-25 92-72 41-49 61-125 23-80 23-182 0-138-43-264-43-129-113-222-70-94-166-151-92-55-197-55-78 0-139 30-53 27-100 80l-4-12q-15-43-37-62-25-20-74-20h-174zM387 262q33-27 68-35 41-10 69-10 57 0 103 37 47 39 80 96 37 66 53 137 18 78 18 156 0 104-28 148-31 47-80 47-31 0-70-27-35-25-72-70-25-33-61-104-33-63-49-127z" horiz-adv-x="1132" unicode="&#x62;"/><glyph d="M45 434q0 129 43 246t119 205q74 86 180.5 139t228.5 53q104 0 183-37 74-35 137-114l-102-119q-6-6-27-19-16-10-31-10-20 0-35 10-6 4-9 6.5t-8 5.5-11 7q-14 8-41 18-23 8-62 9-51 0-92-27-51-33-80-78-33-51-55-127-20-70-21-170 0-52 13-92 12-39 35-66 27-31 49-41 28-12 61-12 45 0 80 15 18 8 51 30l23.5 15.5t19.5 13.5q23 14 47 14 15 0 31-6 12-6 25-20l82-97q-57-61-99-96-37-31-96-61-39-18-109-35-47-10-124-10-90 0-168 32-74 31-127 90-57 63-82 140-29 86-29 188z" horiz-adv-x="903" unicode="&#x63;"/><glyph d="M39 387q0 94 18 180 16 74 56 164 33 74 84 141 49 66 104 109 61 47 123 72 63 25 133 24.5t119-20.5q53-23 92-58l68 533h311l-191-1532h-170q-25 0-49 8-18 6-32 21-8 8-17 32-4 12-4 39v88q-76-96-160-149-90-55-188-55-68 0-119 22-55 25-94 72-39 49-62 127-22 80-22 182zM354 418q0-101 31-148 31-45 78-45 31 0 67 25 35 23 70 67.5t62 100.5q29 61 49 125l32 258q-33 27-65.5 35t-69.5 8q-55 0-102-37-47-39-80-96-37-66-53-138-19-77-19-155z" horiz-adv-x="1134" unicode="&#x64;"/><glyph d="M45 434q0 84 18 164 20 86 56 154 41 78 86 131 51 59 114 102 65 43 142 68 76 25 162 24 84 0 151-24 59-23 111-66 45-39 69-88 23-45 23-98 0-70-29-133-27-57-100-107-71-46-191-80-113-33-303-51 4-113 47-160 46-49 136-49 33 0 73 8 35 6 54 17 16 8 41 24 18 12 34 25 14 10 35 16 25 8 43 8 10 0 31-8 6-2 24-20l82-94q-59-59-110-97-59-43-111-65-63-29-121-39-63-12-139-12-88 0-174 32-78 31-135 90-57 61-88 144t-31 184zM377 627q104 16 160 32 63 18 96 37t45 43.5 12 48.5q0 29-20.5 51.5t-65.5 22.5q-78 0-137-63t-90-172z" horiz-adv-x="997" unicode="&#x65;"/><glyph d="M55-252l133 1096-63 14q-25 6-45 23-18 15-19 43 0 2 1 6l1 4 17 127h133l8 59q12 100 49 166 39 74 101 125 63 53 139 80 82 29 172 29 45 0 66-4 41-8 61-15l-29-160q-6-27-28.5-35t-46.5-8q-82 0-125-41-47-45-60-147l-6-49h215l-29-217h-200l-97-793-55-178q-18-55-57-92-35-33-107-33h-129z" horiz-adv-x="686" unicode="&#x66;"/><glyph d="M-74-86q0 90 45 149 43 55 119 97 68 35 158 51 80 14 170 14 33 0 90-4 8 0 78-12-2 8-2 27v26q0 55 26 123-37-25-90-41-55-16-129-16-55 0-117 20-47 16-96 62-43 39-67 102-27 66-27 147 0 80 31 154 35 82 90 135 61 59 147 94 84 35 207 35 61 0 117-12 53-12 102-41h305l-14-100q-10-63-59-80l-90-29q6-33 6-70 0-66-19-112-25-61-39-88-18-35-39-82-18-43-18-103 0-35 14-77 4-14 16.5-40t14.5-32q18-43 29-78 14-47 14-94 0-86-35-155.5t-104-127.5q-72-59-166-88-104-33-225-33-98 0-185 23-82 20-139 59-59 39-88 86-31 50-31 111zM227-49q0-49 39-78 35-27 129-27 47 0 88 13 37 12 68 35 27 20 43 53t16 67v13 10q-51 8-96 12-57 4-80 4-59 0-94-8-45-10-66-20-23-12-36-33-11-16-11-41zM373 657q0-68 28.5-106.5t81.5-38.5q35 0 66 20 27 18 47 52 20 35 29 69 10 45 10 80 0 63-29 103-29 37-84 36-39 0-65-18-31-20-47-47-20-35-28.5-70t-8.5-80z" horiz-adv-x="1038" unicode="&#x67;"/><glyph d="M47 0l186 1532h318l-76-610q76 82 156 118.5t166 36.5q63 0 110-20 51-23 86-64 35-39 56-100 20-59 20-139v-39q0-10-4-39l-80-676h-317l80 676q2 10 2 29 0 4 1 13t1 13q0 55-19 76-18 23-59 22-35 0-68-18-35-18-65-53-35-37-62-86-27-47-45-109l-69-563h-318z" horiz-adv-x="1140" unicode="&#x68;"/><glyph d="M59 0l127 1061h314l-127-1061h-314zM186 1352q0 43 15 73 12 27 43 58 27 25 59 41 37 16 68 16 35 0 71.5-16.5t59.5-38.5q27-27 41-60 16-37 16-73 0-33-16-70-16-35-43-59-25-23-62-39.5t-69.5-16.5-69.5 17q-33 16-57 39-25 27-41 59-15 31-15 70z" horiz-adv-x="559" unicode="&#x69;"/><glyph d="M-162-348l31 168q2 20 18 33 10 8 47 8 27 0 56 8 20 6 34.5 20.5t24.5 40.5q4 8 12 68l129 1063h312l-129-1063q-9-74-37-141-25-61-78-115-51-51-119-78-74-29-159-29-57 0-78 5-8 2-20.5 4t-23 4zM176 1352q0 37 17 73 14 31 40.5 57.5t57.5 41.5q37 16 69.5 16t69.5-16q41-18 62-39 25-27 40-60 16-37 17-73 0-33-17-70-16-35-43-59-25-23-61.5-39.5t-69.5-16.5q-31 0-67.5 16.5t-59 39-39 59.5-16.5 70z" horiz-adv-x="552" unicode="&#x6a;"/><glyph d="M51 0l189 1532h313l-107-858h23q29 0 43 8 18 12 33 31l219 299q14 23 43 37 25 12 57 12h285l-297-377q-18-25-45-47-20-18-51-35 25-20 37-41 20-33 28-53l213-508h-276q-34 0-56 12-25 14-34 41l-148 377q-14 27-24 33-16 8-41 8h-33l-57-471h-314z" horiz-adv-x="1105" unicode="&#x6b;"/><glyph d="M47 0l186 1532h314l-187-1532h-313z" horiz-adv-x="538" unicode="&#x6c;"/><glyph d="M39 0l129 1061h164q53 0 78-23 27-25 26-75v-62q70 90 142 133 74 43 157 43 92 0 150-57 61-61 76-170 74 121 153.5 174t190.5 53q61 0 108-20.5t82-61.5 53-100q20-66 21-137 0-6-1-19.5t-1-21.5q0-12-4-41l-80-676h-314l80 676q4 25 4 31v26q0 51-16 74-14 20-49 20t-62-16q-31-18-55-49-27-33-47-78t-37-102l-69-582h-314l80 676q4 25 4 31v26q0 51-16 74-14 20-49 20t-62-16q-33-18-55-51-27-37-47-80-27-59-39-102l-70-578h-311z" horiz-adv-x="1638" unicode="&#x6d;"/><glyph d="M39 0l127 1061h164q51 0 76-23 29-25 28-75v-84q78 104 168 151 88 47 189 47 61 0 108-20 51-23 86-64 35-39 55-100 20-59 21-139v-39q0-10-4-39l-80-676h-318l80 676q2 10 2 29 0 4 1 13t1 13q0 55-18 75.5t-57 20.5-74-20q-39-23-72-62-41-47-63-94-31-63-45-123l-58-528h-317z" horiz-adv-x="1132" unicode="&#x6e;"/><glyph d="M35 432q0 141 47 260 49 123 125 205 78 84 182 133 100 47 219 47 94 0 166-28 78-31 133.5-86.5t89.5-141.5q33-80 33-190 0-139-47-258-49-123-125-205-82-88-182-135-104-49-219-49-94 0-166 28-78 31-135.5 88.5t-87.5 139.5q-33 88-33 192zM352 434q0-115 31-164 33-51 102-51 51 0 97 33 35 25 69 88 29 53 45 129 16 78 17 158 0 117-31 166-33 51-102 51-51 0-97-33-35-25-69-88-29-53-45-129-17-78-17-160z" horiz-adv-x="1064" unicode="&#x6f;"/><glyph d="M-2-336l170 1397h164q53 0 78-23 27-25 26-75v-95q74 100 162 154 89 55 190 55 70 0 121-22 53-25 92-72 41-49 62-125 23-80 22-182 0-138-43-264-43-129-112-222-70-94-166-151-92-55-197-55-70 0-118 20-53 23-93 57l-49-397h-309zM381 262q33-27 65-35 41-10 70-10 57 0 102 37 47 39 80 96 37 66 54 137 18 78 18 156 0 104-29 148-31 47-79 47-31 0-68-25-31-20-70-70-33-41-63-100-27-49-47-127z" horiz-adv-x="1114" unicode="&#x70;"/><glyph d="M33 365q0 143 53 274 52 129 147 227 90 92 226 154 127 57 284 57 86 0 154-8 77-9 154-37l-172-1368h-209q-27 0-43.5 8.5t-28.5 20.5q-6 6-16 31-4 10-4 32v15l49 374q-57-72-138-118-74-43-161-43-63 0-111 22-57 27-94 70-43 49-66 119-24 74-24 170zM350 422q0-53 8-86 8-35 23-60 12-20 33-30 25-12 41-13 29 0 65 27 25 18 64 72 27 37 53 104 27 66 43 127l37 297h-19q-76 0-141-34.5t-111-94.5q-49-66-71-139-25-80-25-170z" horiz-adv-x="1089" unicode="&#x71;"/><glyph d="M39 0l129 1061h164q53 0 78-23 27-25 26-75v-119q61 106 133 165.5t148 59.5q39 0 86-20l-58-295q-59 25-98 24-80 0-141-71-61-70-98-230l-58-477h-311z" horiz-adv-x="774" unicode="&#x72;"/><glyph d="M-23 115l78 116q14 20 33 33 14 10 47 10 27 0 45-12 8-6 18.5-11t20.5-13q27-18 51-29 31-12 78-12 66 0 101 30 33 31 32 72 0 35-16 53.5t-45 34.5q-18 10-64 27l-30.5 10t-38.5 14q-41 18-74 35-31 16-61 47-27 27-46 70-16 39-16 102 0 76 26.5 143.5t82.5 122.5q51 51 133 86 78 33 186 33t191-37q80-35 137-90l-82-110q-18-23-27-29-10-8-32-8-20 0-41 10-6 2-20.5 9t-22.5 12q-35 18-52 22-27 8-67 8-72 0-101-26-31-27-30-72 0-29 16-45 27-27 45-37 25-14 64-27 14-4 71-28 31-12 72-37 37-20 63-51 27-29 46-70 16-35 16-98 0-78-31-150-31-70-92-125t-143-84q-86-31-191-30-43 0-98 10-57 10-94 26.5t-78.5 43-59.5 51.5z" horiz-adv-x="815" unicode="&#x73;"/><glyph d="M81 901q0 5 1 10 0 6 2 18.5t2 18.5 1 17.5 3 17.5q0 4 1 8t2 7l1 3 2 27 162 33 88 260q14 49 70 49h172l-39-309h237l-26-217h-238l-51-418-8-66q-4-33-4-37t-1-10-1-8v-6q0-29 14-49.5t43-20.5q10 0 27 4 12 4 20 9 6 4 14.5 8t16.5 4q16 0 22.5-6t12.5-23l69-149q-66-47-135-70-68-23-147-22-68 0-111 16-45 16-84 49-37 31-55 78-20 49-23 102v17q0 2 1 13t1 17q0 8 4 50 2 12 11 84l55 434h-86q-20 0-33 12-13 13-13 45z" horiz-adv-x="753" unicode="&#x74;"/><glyph d="M70 311q0 6 1 18.5t1 18.5q0 12 4 41l80 672h317l-80-672q-4-20-4-31v-26q0-53 18.5-76t57.5-23q27 0 67 21 29 14 68 53 35 35 62 82 31 53 47 111l67 561h318l-129-1061h-162q-113 0-113 104v68q-80-98-166-143-88-45-182-45-61 0-109 20-51 23-86 64-41 47-57 102-20 67-20 141z" horiz-adv-x="1130" unicode="&#x75;"/><glyph d="M68 1061h262q35 0 51-14 23-18 25-39l69-478q12-86 17-118 4-39 8-117 8 25 41 115l47 120 186 478q8 25 33 39 23 14 51 14h252l-516-1061h-268z" horiz-adv-x="1062" unicode="&#x76;"/><glyph d="M78 1061h244q31 0 51-14 23-16 24-39l31-478v-8l2-6q0-16 1-48t3-48q4-61 4-92 25 66 39 98l41 104 178 478q8 25 33 39 27 16 51 16h138q33 0 53-16.5t22-38.5l62-478q8-53 14-102l12-100q4 16 14.5 49t14.5 49l35 104 149 478q10 27 31 39 23 14 51 14h234l-432-1061h-248q-18 0-31 12-10 10-16 41l-78 529-6 45q0 8-2 22.5t-2 22.5l-7.5-21.5t-9.5-23.5l-18-45-203-529q-23-53-68-53h-237z" horiz-adv-x="1552" unicode="&#x77;"/><glyph d="M-57 0l413 575-237 486h291q35 0 45-8 14-12 22-29l117-272q8 14 16 26l17 25 139 217q27 41 68 41h288l-368-483 264-578h-291q-29 0-49 16-16 12-27 39l-131 326q-8-16-12-23l-12-18-189-285q-10-14-35-39-16-16-49-16h-280z" horiz-adv-x="1101" unicode="&#x78;"/><glyph d="M78 1061h268q31 0 51-17 16-12 23-36l92-459 12-60q4-23 8-59 2 6 7.5 19.5l9.5 23.5t8 19q6 12 14.5 27.5t14.5 31.5l196 457q12 23 37 39 23 14 47 14h256l-688-1337q-16-31-41-48-20-12-57-12h-238l242 430z" horiz-adv-x="1062" unicode="&#x79;"/><glyph d="M-2 0l16 129q4 25 17 49 14 29 35 55l462 594h-403l29 234h776l-17-127q-2-31-18-61.5t-33-51.5l-459-585h418l-28-236h-795z" horiz-adv-x="919" unicode="&#x7a;"/><glyph d="M12-22.5q0 63.5 13 124.5 4 23 30 117 29 102 31 113 12 55 12 110 0 45-18 76-16 29-66 29l23 170q35 0 61 16 23 14 37 49 12 31 19 82 4 33 4 115v29q0 6-1 18t-1 18v37 29q0 119 24.5 207t79.5 149q59 66 137 95 88 33 201 32h47l-16-135q-2-12-11-24-6-10-16-17-16-10-22-12-8-2-19-2-59 0-90-43-31-41-39-115t-10-106.5-2-96.5l-4-90q0-47-6-92-6-39-21-74-18-45-37-67-29-37-53-53-33-23-72-35 63-20 97-76 31-52 30-117 0-59-12-114-16-74-27-111-6-23-14-65t-10-48q-12-55-12-116 0-53 22-88 20-33 72-33 16 0 34.5-12.5t18.5-38.5q0-16-2-28.5t-6-41.5l-4-41q-2-10-3-17.5t-1-11.5h-50q-86 0-157 23-63 20-109 61-43 39-61 97-21 61-21 124.5z" horiz-adv-x="565" unicode="&#x7b;"/><glyph d="M123-336v1929h246v-1929h-246z" horiz-adv-x="614" unicode="&#x7c;"/><glyph d="M-49-328l18 131q6 31 28.5 45.5t41.5 14.5q57 0 88 43 31 41 39 114 8 76 10 105 4 66 4 96 0 16 1 46t1 44q0 45 6 90 2 39 19 76 18 45 37 68 27 33 55.5 53t69.5 33q-66 23-96.5 78t-30.5 118q0 59 12 115 16 74 26.5 111t26.5 110q12 55 12 119 0 51-22.5 86t-69.5 35q-12 0-18 2-8 2-16 8-6 4-15 17-6 8-6 22 0 8 2 18 2 6 3 17.5t1 17.5q2 6 2 18.5t2 18.5l2 19 4 32h50q88 0 155-22 63-20 109-64 43-39 61-96 20-61 21-125 0-53-15-125-10-49-28-117-20-74-29-110-12-55-12-111 0-45 18.5-75.5t63.5-30.5l-21-170q-35 0-61-17-25-16-37-47-12-35-19-82-4-33-4-116v-129q0-111-26-207-27-94-78-152-55-61-137-92-88-33-199-33h-49z" horiz-adv-x="565" unicode="&#x7d;"/><glyph d="M20 393q0 92 23 158 25 70 68 119t104 73q68 27 143 27 53 0 103-12 53-14 88-27l76-26q34-12 61-13 47 0 76 33 27 29 26 94h256q0-92-22-157-25-70-68-119t-104-74q-68-27-143-27-53 0-103 13-53 14-88 26l-76 27q-34 12-61 12-47 0-76-33-27-29-27-94h-256z" unicode="&#x7e;"/><glyph d="M113 457q0 123 41 235 39 109 116 193 74 80 188.5 131t252.5 57l32 148q4 20 11 26 12 16 20 23 16 12 27 16 20 8 33 8h112l-53-235q72-14 139-51 57-31 109-86l-92-105q-14-18-29-24-16-8-37-9-16 0-29 7-4 2-14 5t-16 7q-16 8-35 16-6 2-13.5 5l-16.5 6.5t-15 5.5l-137-627q37 4 79 20 14 6 58 27l45 25q18 10 45 10 37 0 53-25l72-104q-55-51-94-76-47-29-101-51-37-16-102-31-57-14-105-16l-28-131q-8-33-31-53.5t-59-20.5h-113l45 209q-70 14-143 55-66 37-115 96-43 51-74 140-26 78-26 174zM414 471q0-84 28-147 27-59 82-91l135 615q-65-12-110-43-47-33-78-80-27-41-43-113-14-59-14-141z" unicode="&#xa2;"/><glyph d="M-12 0l24 184q72 16 107 54 35 39 45 116l31 252h-150l25 193h147l29 225q12 98 55 184t117 154q68 61 172 104 100 41 221 41 94 0 158-20 70-23 116-57 55-41 86-86.5t56-110.5l-133-78q-20-14-37-16-25-4-37-4-45 0-76 36-2 2-15.5 18.5t-19.5 22.5q-16 16-32 25-25 12-41.5 16t-55.5 4q-90 0-147-59-58-61-74-172l-27-227h435l-25-193h-434l-19-170q-10-66-30-114-25-55-60-97 49 12 98.5 18.5t100.5 6.5h530l-16-123q-4-27-14.5-45.5t-32.5-40.5q-12-12-45-29-25-12-53-12h-979z" unicode="&#xa3;"/><glyph d="M92 236l23 161h311l10 90h-311l20 164h261l-300 840h256q41 0 68-21 23-16 33-53l127-450q16-55 24-95 12-53 17-88 23 63 35 88l47 95 231 450q18 33 45 51 33 23 72 23h258l-508-840h262l-20-164h-312l-10-90h309l-20-161h-309l-29-236h-305l29 236h-314z" unicode="&#xa5;"/><glyph d="M72 745q0 111 26 205 25 86 78 180 49 86 119 156t156 119 180 75.5 202.5 26.5 202.5-26q98-27 183-76 86-49 155.5-118.5t118.5-156.5q53-94 78-180 27-94 26-205 0-106-26-200-25-90-78-183-47-82-119-153-70-70-155-119-92-53-183-78-94-27-202.5-26.5t-202.5 26.5q-86 25-180 78-86 49-156 119-72 72-119 153-53 92-78 183-26 94-26 200zM242 745q0-131 45-241 45-113 127-197 80-82 186-131 102-47 234-47 129 0 235 47 109 49 188 131 82 84 127 197 47 117 48 241 0 92-21 168-23 80-59 150-37 68-95 125-70 70-118 98-68 41-144 62-74 20-161 20-131 0-234-47-109-49-186-133-84-90-127-197-45-111-45-246zM383 750q0 106 37 192 39 90 100 152 57 57 152 98 86 37 184 37 115 0 203-41 82-39 137-103l-84-112q-4-6-20.5-18.5t-32.5-12.5q-18 0-35 10-14 8-33 21-14 10-47 20-31 10-72 11-102 0-155-70t-53-184q0-55 14-109 12-47 38.5-80t57.5-47q37-16 76-16 51 0 76 8 31 10 47 18 10 4 31 21 14 10 34 10 10 0 23-6 8-4 20-17l105-106q-55-76-146-117-86-39-206-39-104 0-187 37-84 37-143.5 102.5t-90 152-30.5 188.5z" horiz-adv-x="1607" unicode="&#xa9;"/><glyph d="M94 498l31 247h514l-33-247h-512z" horiz-adv-x="702" unicode="&#xad;"/><glyph d="M66 745q0 111 26 205 25 86 78 180 49 86 119 156 72 72 153 119 84 49 183 76 94 27 202.5 26.5t202.5-26.5q98-27 182-76 86-49 156-118.5t119-156.5q53-94 78-180 27-94 26-205 0-106-26-200-25-90-78-183-47-82-119-153-70-70-156-119-92-53-182-78-94-27-202.5-26.5t-202.5 26.5q-90 25-183 78-82 47-153.5 119t-118.5 153q-53 92-78 183-26 94-26 200zM236 745q0-131 45-241 47-115 125-197 78-80 188-131 102-47 233-47 117 0 221.5 43t182.5 115h-221q-55 0-78 41l-94 237q-12 18-25 25-16 8-37 8h-33v-311h-274v923h360q102 0 177-18 72-18 122-53 47-33 70-86 23-55 23-117 0-37-11-82-9-40-30-74-18-29-56-59-31-27-80-45 31-14 52-39 23-27 37-57l127-265q80 86 120 193 45 117 45 237 0 92-20 168-23 80-59 150-39 72-93 125-63 63-123 98-68 41-143 62-74 20-160 20-131 0-233-47-113-51-188-133-80-86-125-197t-45-246zM743 786h66q51 0 77.5 6.5t43.5 22.5q12 12 16 37 4 29 4 49 0 23-4 47-4 20-16 33-18 18-35 23-25 6-66 6h-86v-224z" horiz-adv-x="1607" unicode="&#xae;"/><glyph d="M254 1196l158 250q20 31 43 45 27 16 71 16h295l-280-270q-25-25-47.5-33t-57.5-8h-182z" horiz-adv-x="626" unicode="&#xb4;"/><glyph horiz-adv-x="845" unicode="&#x2000;"/><glyph horiz-adv-x="1691" unicode="&#x2001;"/><glyph horiz-adv-x="845" unicode="&#x2002;"/><glyph horiz-adv-x="1691" unicode="&#x2003;"/><glyph horiz-adv-x="563" unicode="&#x2004;"/><glyph horiz-adv-x="421" unicode="&#x2005;"/><glyph horiz-adv-x="280" unicode="&#x2006;"/><glyph horiz-adv-x="280" unicode="&#x2007;"/><glyph horiz-adv-x="210" unicode="&#x2008;"/><glyph horiz-adv-x="337" unicode="&#x2009;"/><glyph horiz-adv-x="92" unicode="&#x200a;"/><glyph d="M94 498l31 247h514l-33-247h-512z" horiz-adv-x="702" unicode="&#x2010;"/><glyph d="M94 498l31 247h514l-33-247h-512z" horiz-adv-x="702" unicode="&#x2011;"/><glyph d="M94 498l31 247h514l-33-247h-512z" horiz-adv-x="702" unicode="&#x2012;"/><glyph d="M164 516l26 209h775l-27-209h-774z" horiz-adv-x="1097" unicode="&#x2013;"/><glyph d="M164 516l26 209h1307l-27-209h-1306z" horiz-adv-x="1630" unicode="&#x2014;"/><glyph d="M164 1180q0 123 65.5 233.5t198.5 206.5l88-55q4-4 12-15 6-10 7-20 0-15-7-25l-11-11t-13-15q-2-2-9.5-14.5t-13.5-18.5q-16-20-28-47-14-31-23-64-10-37-10-73 0-20 8-66 6-39 25-74 4-12 4-18 0-20-15-35-12-12-39-22l-192-68q-25 49-37 98-10 42-10 103z" horiz-adv-x="448" unicode="&#x2018;"/><glyph d="M123 1028q0 12 8 25 14 20 21 28 14 14 24 29 18 25 29 49 14 33 22 62 10 37 11 75 0 20-9 66-6 35-24 72-4 12-4 20 0 18 14 33 16 16 39 24l192 70q23-45 37-102 12-49 13-99 0-123-68-235-66-111-199-207l-86 55q-12 8-16 14.5t-4 20.5z" horiz-adv-x="448" unicode="&#x2019;"/><glyph d="M164 1180q0 123 65.5 233.5t198.5 206.5l88-55q4-4 12-15 6-10 7-20 0-15-7-25l-11-11t-13-15q-2-2-9.5-14.5t-13.5-18.5q-16-20-28-47-14-31-23-64-10-37-10-73 0-20 8-66 6-39 25-74 4-12 4-18 0-20-15-35-12-12-39-22l-192-68q-25 49-37 98-10 42-10 103zM508 1180q0 123 65.5 233.5t198.5 206.5l88-55q4-4 12-15 6-10 7-20 0-15-7-25l-11-11t-13-15q-2-2-9.5-14.5t-13.5-18.5q-16-20-28-47-14-31-23-64-10-37-10-73 0-20 8-66 6-39 25-74 4-12 4-18 0-20-15-35-12-12-38-22l-193-68q-25 49-37 98-10 42-10 103z" horiz-adv-x="792" unicode="&#x201c;"/><glyph d="M123 1028q0 12 8 25 14 20 21 28 14 14 24 29 18 25 29 49 14 33 22 62 10 37 11 75 0 20-9 66-6 35-24 72-4 12-4 20 0 18 14 33 16 16 39 24l192 70q23-45 37-102 12-49 13-99 0-123-68-235-66-111-199-207l-86 55q-12 8-16 14.5t-4 20.5zM465 1028q0 15 6 25 6 8 23 28 14 14 24 29 18 25 29 49 14 33 22 62 10 37 11 75 0 20-9 66-6 35-24 72-4 12-4 20 0 18 14 33 16 16 39 24l192 70q23-45 37-102 10-41 11-99 0-125-65.5-235.5t-199.5-206.5l-88 55q-4 4-12 15-6 8-6 20z" horiz-adv-x="792" unicode="&#x201d;"/><glyph d="M102 606.5q0 100.5 41 192.5t107 157q63 63 162 107 90 39 196 39 109 0 199-39 94-41 160-107 72-72 110.5-157.5t38.5-192-39-192.5q-37-82-110-156-66-66-160-106-86-37-199-37-111 0-196 37-98 43-162 106-66 66-107 156-41 92-41 192.5z" unicode="&#x2022;"/><glyph d="M25 160q0 33 14 69 12 31 36.5 55.5t57.5 37.5q39 14 72 14 31 0 69-14 33-12 58-37 29-29 39-56 14-37 14-69.5t-14-67.5q-10-27-39-55-25-25-58-37-39-14-69-14-33 0-72 14-33 12-57.5 36.5t-36.5 55.5q-14 35-14 68zM590 160q0 33 14 69 12 31 37 55.5t57 37.5q39 14 72 14 31 0 70-14 33-12 57-37 29-29 39-56 14-37 14-69.5t-14-67.5q-10-27-39-55-25-25-57-37-39-14-70-14-33 0-72 14-33 12-57.5 36.5t-36.5 55.5q-14 35-14 68zM1155 160q0 33 14 69 12 31 37 55.5t58 37.5q39 14 71 14 31 0 70-14 33-12 57-37 29-29 39-56 14-37 14.5-69.5t-14.5-67.5q-10-27-39-55-25-25-57-37-39-14-70-14-33 0-71 14-33 12-57.5 36.5t-37.5 55.5q-14 35-14 68z" horiz-adv-x="1613" unicode="&#x2026;"/><glyph horiz-adv-x="337" unicode="&#x202f;"/><glyph horiz-adv-x="421" unicode="&#x205f;"/><glyph d="M45 545l21 162h102q0 8 2 25.5t2 25.5 4 24.5 4 24.5h-102l20 162h119q41 127 105 223 63 98 149 168 86 72 184 106 102 37 211 37 76 0 133.5-14t108.5-43 88-66q29-29 64-86l-123-112q-27-20-29-23-16-10-39-10-10 0-27 8-12 6-24 19l-25 24q-2 2-32 23-18 12-48 18-37 8-67 8-104 0-189-71-83-71-129-209h490l-10-92q-2-8-11-25-6-14-18-23-14-10-29-16-16-6-37-6h-421l-7-49q-2-8-2-25.5t-2-25.5h408l-12-91q-4-12-11-26-8-16-18-25-14-10-29-16-10-4-35-4h-301q12-154 72-228 61-76 156-75 72 0 106 16 37 16 68 41 37 29 47 39 18 18 45 18 10 0 22.5-4t18.5-12l119-121q-90-119-207-174-125-59-266-59-125 0-209 41-94 45-154 116-63 76-96 176-35 104-41 226h-119z" unicode="&#x20ac;"/><glyph d="M145 1323l23 168h483l-22-168h-137l-58-459h-207l56 459h-138zM616 864l76 627h176q20 0 45-4 16-2 25-29l53-229q8-29 13-45 2-8 4-22.5t4-22.5q4 10 10 21t10 22l25 47 114 229q12 27 27 29 20 4 39 4h186l-75-627h-185l33 269 25 108-144-278q-12-20-33-33-18-10-45-10h-28q-25 0-41 10-18 12-25 33l-74 270v-57q0-33-2-43l-30-269h-183z" horiz-adv-x="1380" unicode="&#x2122;"/><glyph d="M0 1060h1060v-1060h-1060v1060z" horiz-adv-x="1060" unicode="&#xe000;"/><glyph d="M53-254l135 1098-57 14q-29 6-49.5 22.5t-20.5 41.5q2 2 2 4l2 6q1 6 1 10t1 14.5 3 26.5q4 29 8 78h137l2 14q12 100 53 180 45 88 115 148 78 66 178 100 98 35 246 35 57 0 88-4 53-6 80-14l-31-156q-4-14-10-21l-18-12q-8-6-21-6-4 0-12-1t-13-1q-106 0-165-14-66-16-107-47-45-35-61-80-20-57-27-113v-8h627l-129-1061h-312l105 844h-307l-95-795-55-178q-18-58-55-92-35-33-109-33h-129z" horiz-adv-x="1198" unicode="&#xfb01;"/><glyph d="M53-254l135 1098-57 14q-29 6-49.5 22.5t-20.5 41.5q2 2 2 4l2 6q1 6 1 10t1 14.5 3 26.5q0 4 3 31.5l5 46.5h135l6 37q10 84 43 159 33 74 94 136 57 57 141.5 94t194.5 37q61 0 164-8 51-4 156-5h200l-186-1511h-307l158 1292q-20 2-41 5l-41 6q-27 4-80 4-86 0-137-52-49-49-60-157l-4-37h203l-27-217h-190l-99-795-55-178q-18-58-55-92-35-33-109-33h-129z" horiz-adv-x="1210" unicode="&#xfb02;"/><glyph d="M1431 0l127 1061h314l-127-1061h-314zM1558 1352q0 43 15 73 12 27 43 58 27 25 59 41 37 16 68 16 35 0 71.5-16.5t59.5-38.5q27-27 41-60 16-37 16-73 0-33-16-70-16-35-43-59-25-23-62-39.5t-69.5-16.5-69.5 17q-33 16-57 39-25 27-41 59-15 31-15 70zM741-252l133 1096-63 14q-25 6-45 23-18 15-19 43 0 2 1 6l1 4 17 127h133l8 59q12 100 49 166 39 74 101 125 63 53 139 80 82 29 172 29 45 0 66-4 41-8 61-15l-29-160q-6-27-28.5-35t-46.5-8q-82 0-125-41-47-45-60-147l-6-49h215l-29-217h-200l-97-793-55-178q-18-55-57-92-35-33-107-33h-129zM55-252l133 1096-63 14q-25 6-45 23-18 15-19 43 0 2 1 6l1 4 17 127h133l8 59q12 100 49 166 39 74 101 125 63 53 139 80 82 29 172 29 45 0 66-4 41-8 61-15l-29-160q-6-27-28.5-35t-46.5-8q-82 0-125-41-47-45-60-147l-6-49h215l-29-217h-200l-97-793-55-178q-18-55-57-92-35-33-107-33h-129z" horiz-adv-x="1931" unicode="&#xfb03;"/><glyph d="M1419 0l186 1532h314l-187-1532h-313zM741-252l133 1096-63 14q-25 6-45 23-18 15-19 43 0 2 1 6l1 4 17 127h133l8 59q12 100 49 166 39 74 101 125 63 53 139 80 82 29 172 29 45 0 66-4 41-8 61-15l-29-160q-6-27-28.5-35t-46.5-8q-82 0-125-41-47-45-60-147l-6-49h215l-29-217h-200l-97-793-55-178q-18-55-57-92-35-33-107-33h-129zM55-252l133 1096-63 14q-25 6-45 23-18 15-19 43 0 2 1 6l1 4 17 127h133l8 59q12 100 49 166 39 74 101 125 63 53 139 80 82 29 172 29 45 0 66-4 41-8 61-15l-29-160q-6-27-28.5-35t-46.5-8q-82 0-125-41-47-45-60-147l-6-49h215l-29-217h-200l-97-793-55-178q-18-55-57-92-35-33-107-33h-129z" horiz-adv-x="1910" unicode="&#xfb04;"/></font>
</defs>
</svg>
