<svg xmlns="http://www.w3.org/2000/svg"><defs><font horiz-adv-x="1187"><font-face ascent="1649" descent="-399" units-per-em="2048"/><missing-glyph horiz-adv-x="395"/><glyph horiz-adv-x="395" unicode="&#x20;"/><glyph horiz-adv-x="395" unicode="&#x09;"/><glyph horiz-adv-x="395" unicode="&#xa0;"/><glyph d="M158 139q0 33 12 62 14 33 31 49 20 20 49 33 28 12 61 12 34 0 62-12 29-12 49-33t32.5-49.5 12.5-61.5q0-34-12-61-12-29-33-49-16-16-49-31-28-12-62-12t-61 12q-33 14-49.5 30.5t-30.5 49.5q-12 27-12 61zM262 600q0 55 4 150 2 70 13 143l73 588h228l-72-588q-14-104-33-182-2-12-18.5-82t-26.5-109h-166v41q0 6-1 19.5t-1 19.5z" horiz-adv-x="684" unicode="&#x21;"/><glyph d="M203 1024v160l37 295h211l-37-295-41-160q-12-45-31-66-23-25-63-24-35 0-54 24-16 23-22 66zM557 1024v160l37 295h211l-37-295-41-160q-12-41-33-66-23-25-63-24-35 0-53 24-15 19-21 66z" horiz-adv-x="802" unicode="&#x22;"/><glyph d="M33 471q0 20 8 47l20 76h197l90 291h-221l33 102q12 39 37 55 29 18 82 19h118l105 336q12 40 43 61 29 20 71 21h113l-133-418h215l131 418h111q33 0 49-17 20-20 20-45 0-8-4-24l-106-332h209l-33-103q-12-37-37-55t-78-18h-108l-91-291h150q33 0 45-10 16-12 16-39 0-23-8-49l-24-78h-226l-129-418h-112q-25 0-45 20-16 16-17 50 0 20 4 32l101 316h-215l-103-328q-14-47-49-70-33-20-72-20h-108l131 418h-123q-25 0-41 12t-16 41zM459 594h217l90 291h-217z" unicode="&#x23;"/><glyph d="M37 178l88 113q10 14 29 22 20 10 36 11 18 0 46-17l16-12t15-12.5 22-14.5q35-25 69-43 45-25 99-32l96 471q-68 20-127 43-59 25-111 65-53 43-81.5 100.5t-28.5 147.5q0 94 35 172 37 83 104 147 66 61 164 107 90 41 217 47l25 129q6 29 26 45 23 18 47 19h90l-41-201q106-18 181-62 70-41 123-100l-70-88q-16-25-29-31-14-8-37-8-18 0-34 8-29 14-45 25l-58 28q-31 14-72 25l-90-434 90-29q18-6 84-37 33-14 74-45 37-27 60-57 27-35 41-78 16-45 16-98 0-94-39-191-37-92-106-161-68-68-170-113-100-45-226-53l-30-154q-6-27-27-43-20-18-47-18h-90l45 221q-123 16-217 63-96 49-162 123zM438 1073q0-34 13-61 12-27 32-47 25-25 54-39 16-8 65-29l78 389q-57-6-111-26-39-16-73-48-31-29-43-63-15-43-15-76zM608 188q121 14 191 84 68 68 67 172 0 34-12 62-10 25-37 47-27 25-53 37-37 18-68 28z" unicode="&#x24;"/><glyph d="M61 0l1192 1442q4 4 35 24 18 12 51 13h177l-1194-1442q-14-16-33-27-20-10-47-10h-181zM127 1069q0 94 29 176 25 72 80 133 49 55 116.5 86t143.5 31q55 0 110-22 51-20 88-64 41-47 58-100 18-59 18-131 0-96-31-177-29-74-84-133-51-53-116-84-68-31-136-30-57 0-112 22-45 18-86 64-41 43-58 98-20 65-20 131zM315 1069q0-33 9-74 6-27 22-47 12-16 35-26 16-8 41-9 29 0 63 15 27 10 52 45 20 29 32 80 12 49 13 123 0 86-31 122.5t-76 36.5q-35 0-63.5-14t-51.5-47q-18-27-32-82-13-49-13-123zM807 295q0 94 29 176 27 78 77 135 49 55 117 86 63 29 141 29 66 0 115-21 47-18 86-65 41-49 58-98 20-66 20-131 0-92-33-179-31-78-82-133-49-53-118-84-63-29-136-28-57 0-112 22-47 20-88 64-37 40-55.5 98t-18.5 129zM995 295q0-84 29-119 31-37 78-37 25 0 61 15 27 10 51 45 23 33 35.5 82t12.5 122q0 84-33 123-29 35-76 35-35 0-63-14-25-12-50-47-23-33-34-82-11-41-11-123z" horiz-adv-x="1517" unicode="&#x25;"/><glyph d="M41 356q0 74 27 150 23 66 69.5 129t104.5 106q63 47 131 80-31 57-47 129-14 59-15 121 0 92 29 164 29 74 88 135 53 57 137 92 78 33 180 33 82 0 142-22 66-25 108-68 47-47 70-102 25-61 25-136l-148-28q-20-4-24-4-35 0-46 41-4 23-20 53-12 25-31 43-16 16-43 26-33 12-55 13-43 0-78-18.5t-57-47.5q-25-31-37-71-14-47-14-87 0-51 18-102 14-43 63-108l304-394q33 59 57.5 127t36.5 138q6 27 16 39t37 12h172q-18-135-67-258-47-119-125-226l245-315h-213q-23 0-51 4-16 2-36.5 12.5t-30.5 20.5q-8 8-29 33l-53 69q-90-70-205-114-104-41-230-41-90 0-170 26-76 25-126 74-51 47-80 119-29 69-29 153zM293 389q0-98 53-156 51-55 152-55 78 0 141 29 72 33 127 82l-303 399q-90-57-131-135-39-76-39-164z" horiz-adv-x="1347" unicode="&#x26;"/><glyph d="M203 1024v160l37 295h211l-37-295-41-160q-12-45-31-66-23-25-63-24-37 0-56 24-18 23-20 66z" horiz-adv-x="450" unicode="&#x27;"/><glyph d="M96 426q0 152 19 295 16 135 65 287 51 162 119 290 77 147 190 308l101-66q8-6 20-18 8-8 8-27 0-6-4-22-2-8-14-29-66-109-125-234-51-109-90-237-41-139-57-252-18-131-19-279 0-68 6-147 8-106 17-160 16-100 28-153 20-82 43-142 6-18 7-35 0-27-11-36-14-14-30-23l-115-65q-39 76-72 180-31 95-49 190-16 84-26.5 190.5t-10.5 184.5z" horiz-adv-x="565" unicode="&#x28;"/><glyph d="M-18-211q0 6 4 23 2 8 14 28 57 94 123 234 57 121 92 237 37 123 55 254 20 147 21 277 0 70-6 149-8 102-17 158-12 86-30 156-23 92-41 139-8 25-9 35 0 25 13 37 20 20 28 24l117 66q43-90 72-183 31-95 49-190 20-106 28.5-190.5t8.5-182.5q0-152-18.5-297t-63.5-286.5-123-290.5q-78-152-188-305l-103 65q-8 6-18 16-8 9-8 27z" horiz-adv-x="565" unicode="&#x29;"/><glyph d="M135 1081l158 95q23 14 39 20 12 4 37 8-37 6-70 29l-135 98 69 99 136-99 28-20 11-9q10-9 14-16-4 12-4 21 0 2-1 9t-1 11v16q0 4 1 8.5t1 8.5l24 190h115l-22-188q-6-35-7-39-8-25-14-35 10 10 27 21 4 2 14 8t14 10l166 103 45-101-157-96q-39-23-76-29 20-4 35-8 12-4 32-20l136-95-70-98-135 94q-14 12-29 23-12 10-22 22 6-22 6-43 0-2-1-7t-1-7-1-7-1-7l-25-191h-115l25 189q4 37 6 38 10 31 12 35-14-12-28-22-16-10-33-23l-158-94z" horiz-adv-x="753" unicode="&#x2a;"/><glyph d="M106 598l23 180h399l52 422h198l-53-422h401l-22-180h-399l-54-426h-198l51 426h-398z" unicode="&#x2b;"/><glyph d="M41 156q0 33 10 53 14 29 31 45 14 14 47 29 27 12 59.5 12t67.5-14q29-12 49.5-39t28.5-56q10-35 10-65 0-45-16-105-12-45-43-106-25-49-72-107-45-53-96-94l-43 41q-20 16-21 37 0 16 19 35l18 21.5 21 23.5q27 31 45 59.5t28 77.5q-37 0-57 10-29 14-45 33-25 29-31 47-10 31-10 62z" horiz-adv-x="460" unicode="&#x2c;"/><glyph d="M96 516l25 205h493l-26-205h-492z" horiz-adv-x="679" unicode="&#x2d;"/><glyph d="M35 139q0 33 12 61.5t32.5 49 49.5 33.5q27 12 59 12 34 0 62-12 29-12 49-33t32.5-49.5 12.5-61.5q0-34-12-61-12-29-33-49-16-16-49-31-28-12-62-12-33 0-59 12-33 14-49 31-20 20-33 49-12 27-12 61z" horiz-adv-x="460" unicode="&#x2e;"/><glyph d="M-90-98l721 1503q23 45 55 63 39 23 80 23h102l-712-1499q-18-41-64-68-37-23-76-22h-106z" horiz-adv-x="741" unicode="&#x2f;"/><glyph d="M72 586q0 221 51 401 49 170 135 284.5t205 170.5q113 53 250 53 101 0 184-37 78-35 143-112 55-68 93-189 35-117 34-264 0-221-51-401-47-166-137-285-84-111-205-168-117-55-250-55-98 0-182 36-76 33-143 115-59 72-95 189-32 110-32 262zM328 592q0-117 18.5-192.5t50.5-125.5q31-46 74-67 41-20 86-21 74 0 139 43 61 41 113 131 47 84 76 218 27 127 26 311 0 115-18 192-16 70-51 125-31 47-76 68-47 20-86 20-72 0-139-45-59-39-111-129-47-82-76-219-26-127-26-309z" unicode="&#x30;"/><glyph d="M217 0l21 184h303l110 903 21 87-250-191q-16-14-29-16-16-4-24-4-20 0-37 10t-21 18l-63 107 495 385h203l-162-1299h271l-23-184h-815z" unicode="&#x31;"/><glyph d="M29 0l8 82q2 16 16 49 10 25 41 51l508 453q61 53 127 123 45 49 90 114 33 49 53 111 16 49 17 119 0 90-53.5 139t-143.5 49q-49 0-88-12-37-10-72-37-37-27-59-57-31-41-41-70-18-41-39-55-27-16-57-17-20 0-33 2l-127 25q27 98 82 184 51 78 127 136 70 51 160 79 86 27 186 27 102 0 170-25 74-27 129-75 49-43 82-117 31-68 31-152 0-88-29-167.5t-78-147.5q-43-59-114-131l-140-133-381-348q68 16 97 20 66 8 88 8h395q35 0 55.5-18.5t20.5-52.5v-4l-1-7q-1-6-1-12t-3-21.5-3-25.5q-2-10-4.5-31.5l-6.5-54.5h-1009z" unicode="&#x32;"/><glyph d="M78 373l115 45q31 12 57 12 25 0 45-10 18-9 24-31 12-43 39-88 25-43 52-63 31-25 69-37 41-12 90-13 70 0 125 25 53 25 92 66 43 47 60 92 18 51 18 108 0 39-12 76t-49 61q-35 23-98 39-66 16-160 17l22 172q94 0 162 18 70 18 111 51t59.5 82 18.5 111q0 92-52 137-53 47-143 47-94 0-162-49-63-47-98-127-16-41-41-55-27-16-55-17-20 0-33 2l-125 25q27 98 82 184 53 82 125 136 70 51 159 79 86 27 187 27 94 0 168-25 70-23 127-73 49-43 77.5-106.5t28.5-135.5q0-76-20-143-20-66-53-105-35-41-91-73-47-27-118-48 119-41 172-116 57-80 57-187 0-119-47-213-45-92-125-155-80-66-180-99-98-33-213-32-109 0-183 22-84 27-135 72-55 49-92 123-41 82-57 172z" unicode="&#x33;"/><glyph d="M31 541l817 942h237l-110-930h184l-20-139q-4-23-17-35-14-14-39-14h-133l-45-365h-221l45 365h-614q-23 0-49 16-20 12-25 37zM299 553h455l61 504q14 88 25 131z" unicode="&#x34;"/><glyph d="M41 156l86 104q16 18 33 25 18 6 33 6 25 0 51-17l57-34q35-23 76-35 49-16 112-17 82 0 142 27 57 27 102 74 41 43 64 108 23 63 22 135 0 102-63.5 164t-194.5 62q-53 0-102-8-45-8-119-29l-145 45 211 715h724l-12-105q-6-49-43-84-35-33-114-32h-414l-96-322q106 20 182 20 111 0 190-30 82-31 135-82 49-47 80-125 27-68 27-156 0-90-21-164-22-77-61-141-35-57-98-117-47-45-123-86-68-37-147.5-55t-163.5-18q-59 0-132 14-55 10-110 37-49 23-94 55-29 21-74 66z" unicode="&#x35;"/><glyph d="M86 430q0 72 14 129 18 74 45 127 39 78 72 127 37 55 102 131l416 477q18 23 58 41 33 16 79 17h218l-504-539-62-68q46 25 99 37t112 13q77 0 148-25 74-27 125-74 55-51 84-121 31-74 30-165 0-109-45-215-43-102-123-177-86-80-184-118-108-43-233-43-111 0-191 32-83 34-141 93-57 57-88 141-31 82-31 180zM317 422q0-57 14.5-98t47.5-74q31-31 74-49.5t104-18.5q66 0 125 24.5t100 65.5q47 47 70 101 25 57 25 127 0 55-19 98-20 47-49 76-31 31-78 47-49 16-100 16-74 0-127-22.5t-98-67.5q-41-41-66-100-23-53-23-125z" unicode="&#x36;"/><glyph d="M156 0l718 1143q29 45 43.5 63.5t49.5 53.5h-717q-20 0-34.5 14t-14.5 37l20 170h1020l-10-97q-2-33-12-63-10-33-21-49l-741-1215q-14-23-41-41-25-16-56-16h-204z" unicode="&#x37;"/><glyph d="M66 365q0 154 79 258 80 102 240 149-88 39-137 113-45 70-45 168t39 176q41 84 106 139 72 61 164 94t205 33q98 0 172-27 78-29 131-75 49-43 82-113 31-63 31-139 0-135-66-228-68-94-195-143 117-41 172-119 55-80 56-188 0-111-43-199t-119-149q-84-68-180-99-100-33-228-32-109 0-190 26-84 27-147 78-59 47-95 121-32 68-32 156zM322 385q0-49 14-84 16-41 45-65 37-33 72-46 41-14 100-14 72 0 125 21 57 23 92 57 39 39 57 90 20 57 21 115 0 49-17 92-14 35-47 65-29 27-73 39-51 14-97 15-66 0-121-18.5t-92-55.5q-39-39-59-88t-20-123zM438 1057q0-25 13-74 8-35 32-61 27-31 62-45 39-16 92-17 76 0 125 25 43 20 78 63 27 33 41 84 12 45 12 90 0 41-12 74-12 35-35 57-27 27-62 41-39 16-90 17-66 0-112-21-45-20-78-55-35-39-49-80-17-49-17-98z" unicode="&#x38;"/><glyph d="M195 963q0 109 43 206 43 96 118 170 74 72 181 115 100 41 223 41 102 0 182-30.5t137-88.5q55-55 86-133 29-72 29-170 0-76-16-147-16-70-45-131-33-70-72-125-41-59-96-127l-402-486q-23-27-55-41-37-16-78-16h-223l530 575 39 43 19.5 24.5t15.5 21.5q-59-37-119-54-57-16-135-16t-137 22q-72 27-117 70-43 41-78 117-30 68-30 160zM442 995q0-104 58-161 55-55 164-56 72 0 124 21 51 20 95 63 37 37 59 92 20 49 21 115 0 55-17 94-18 43-47 72t-74 45-92 16q-63 0-119-22-53-23-90-62-41-45-61-96-21-53-21-121z" unicode="&#x39;"/><glyph d="M35 139q0 33 12 61.5t32.5 49 49.5 33.5q27 12 59 12 34 0 62-12 29-12 49-33t32.5-49.5 12.5-61.5q0-34-12-61-12-29-33-49-16-16-49-31-28-12-62-12-33 0-59 12-33 14-49 31-20 20-33 49-12 27-12 61zM135 868.5q0 32.5 12.5 61t33 49 48.5 33.5q28 12 62 12 33 0 59-12 29-12 49-33 23-23 35-49 12-29 12-61.5t-12-59.5-35-49q-20-20-49-33-23-10-59-10-39 0-62 10-29 12-49 32.5t-33 49.5q-12 27-12 59.5z" horiz-adv-x="460" unicode="&#x3a;"/><glyph d="M37 156q0 33 10 53 14 29 30.5 45t45.5 29q28 12 61 12t68-14q27-10 47-39 20-27 29-56 10-35 10-65 0-53-14-105-10-37-45-106-29-55-70-107-41-49-98-94l-43 41q-18 15-19 37 0 18 17 35 8 10 18 20.5t22 24.5l44 59q20 33 30 78-39 0-59 10-31 14-45 33-25 29-31 47-8 25-8 62zM137 868.5q0 32.5 12.5 61t33 49 48.5 33.5q27 12 60 12 34 0 61-12 29-12 49.5-33t32.5-49.5 12-61-12-59.5q-12-29-32.5-49.5t-49.5-32.5q-23-10-61-10-37 0-60 10-29 12-49 32.5t-32 49.5q-13 27-13 59.5z" horiz-adv-x="460" unicode="&#x3b;"/><glyph d="M152 639l12 102 862 422-22-180q-2-20-15-37-10-14-39-28l-393-191q-16-8-53-20.5t-58-16.5q23-6 54-16 33-12 47-21l350-190q14-8 29-27 8-10 8-30-2-2-2-5 0-12-2-24 0-4-3-22.5t-5-32.5l-13-107z" horiz-adv-x="1091" unicode="&#x3c;"/><glyph d="M129 418l23 182h905l-25-182h-903zM174 776l23 182h901l-21-182h-903z" unicode="&#x3d;"/><glyph d="M115 217l24 180q4 23 12.5 37.5t38.5 28.5l396 190q16 8 53 20.5t57 16.5q-23 6-53 17-39 14-49 20l-348 191q-14 8-29 26-8 10-8 31v4l4 25q0 4 2 22t4 33q2 10 4 26.5l5 40 5 39.5 758-424-12-102z" horiz-adv-x="1091" unicode="&#x3e;"/><glyph d="M139 1346q39 33 78 57 51 33 88 49 47 20 103 33 47 10 112 10 86 0 144-22 59-25 102-64 47-43 65-92 20-53 20.5-116.5t-11.5-113.5q-10-43-37-88-20-37-51-69-18-20-60-53l-63-48q-20-14-58-47-29-25-47-49-22-28-30-61l-41-152h-168v168q0 49 24 90 23 35 64 74 35 33 82 66 57 41 84 65 35 33 63 78 25 41 25 94 0 68-37 105-39 39-115 38-53 0-90-12-25-8-66-31-25-14-47-28.5t-34.5-14.5-28.5 9q-10 6-19 24zM188 139q0 39 11 62 12 29 32.5 49t49.5 33q28 12 61 12 34 0 61-12 29-12 49.5-33t33-49.5 12.5-61.5q0-34-13-61-12-29-32-49-16-16-50-31-28-12-61-12-34 0-61 12-33 14-50 31-20 20-32 49-11 22-11 61z" horiz-adv-x="798" unicode="&#x3f;"/><glyph d="M61 475q0 119 33 246 31 121 86 225 53 102 131 189 72 82 172 147 88 59 201 94 111 35 223 35 125 0 232-43 117-47 190-121 84-84 129-194 47-117 47-254 0-129-37-240-37-113-98-194.5t-145-129-181-47.5q-61 0-110 33-45 31-57 105-66-74-132-105-72-33-139-33-49 0-90 20.5t-61 49.5q-27 37-39 78-12 43-13 96 0 57 17 127 12 55 49 127 29 57 80 115 47 53 110 94 57 37 140 63 78 25 168 25 29 0 69-4 37-4 58-8 41-8 49-13 25-8 47-20l-137-379q-18-46-25-80-6-33-6-59 0-45 22-64 18-16 54-16 45 0 90 35 43 33 74 96 35 68 51 145 18 84 18 183 0 111-30.5 196.5t-88.5 143.5q-53 53-141 86-84 31-182 30-94 0-174-26-90-31-156-76-72-49-131-119-55-66-100-153-37-76-66-187-23-90-22-211 0-133 39-245 35-104 106.5-178t167.5-111q98-37 215-37 80 0 135 8 53 8 115 23 52 12 92 30 51 23 70 35 14 8 28 12 8 2 21 3 20 0 33-13 8-10 16-30l20-70q-104-68-243-113-135-43-305-43-157 0-283 49-123 47-217 146-88 92-139 227-50 131-50 299zM594 459q0-53 20.5-82t61.5-29q27 0 49 8 25 10 47 29 25 23 47 59 25 41 43 91l105 290q-29 6-58 6-59 0-118-32-61-33-101-82-45-55-69-121-27-74-27-137z" horiz-adv-x="1525" unicode="&#x40;"/><glyph d="M-74 0l717 1481h270l353-1481h-205q-33 0-55 16-20 14-27 45l-61 308h-551l-138-308q-12-25-36.5-43t-57.5-18h-209zM451 557h430l-101 508q-4 12-9 38.5t-7 39.5q-8 33-14 90-6-18-39-94-8-16-20.5-44t-14.5-32z" horiz-adv-x="1312" unicode="&#x41;"/><glyph d="M72 0l182 1481h475q125 0 211-25 90-25 143-67 53-41 82-107 27-59 27-139 0-70-16-121-20-66-54-109-35-45-90-86-57-41-133-65 123-31 186-103 61-70 62-180 0-104-37-190-35-84-111-152-70-63-174-100t-231-37h-522zM362 207h252q71 0 123 18 49 16 84 56 34 37 49 86 14 45 15 108 0 82-49.5 129t-167.5 47h-250zM438 836h197q137 0 213 65 74 65 74 197 0 92-53.5 135t-163.5 43h-211z" horiz-adv-x="1228" unicode="&#x42;"/><glyph d="M76 627q0 135 26 243 27 113 80 211 49 90 123 172 68 72 158 131 88 57 188 84 104 29 211 29 84 0 148-14 72-16 120-41 53-27 99-66 47-41 78-82l-95-110q-10-12-22-23-14-10-35-10-18 0-43 20l-51 39t-82 41q-49 18-131 19-104 0-197-43-90-41-159-125-68-80-105-195-39-121-39-256 0-96 27-186 25-82 71-139 46-55 111-86 66-31 137-31 57 0 109 10 49 10 82 25 35 16 57 32 8 6 23.5 15.5t21.5 15.5q31 25 33 27 16 10 28.5 10t20.5-6q6-4 12-10l95-115q-94-111-228-170-131-59-299-59-137 0-243.5 49t-180 135-110.5 203q-39 123-39 256z" horiz-adv-x="1234" unicode="&#x43;"/><glyph d="M72 0l182 1481h522q145 0 254-47 113-49 193-136 78-84 120.5-200.5t42.5-257.5q0-184-59-340-55-147-166-264-106-113-252-175-143-61-315-61h-522zM365 213h253q117 0 205 41t156 125q63 80 100 194 35 111 35 261 0 100-24 180-25 82-72 137-49 59-113 88-68 31-155 31h-254z" horiz-adv-x="1406" unicode="&#x44;"/><glyph d="M72 0l182 1481h864l-28-211h-594l-54-422h469l-26-205h-467l-53-430h598l-27-213h-864z" horiz-adv-x="1075" unicode="&#x45;"/><glyph d="M72 0l182 1481h864l-28-211h-594l-58-451h504l-29-213h-499l-74-606h-268z" horiz-adv-x="1056" unicode="&#x46;"/><glyph d="M76 639q0 131 26 238 27 104 80 208 45 88 121 170 68 74 160 131 84 53 192 82 104 29 213 29 86 0 164-16 80-16 135-43 59-29 107-66 39-31 82-78l-86-110q-27-35-66-35-25 0-45 14l-65 41q-41 25-66 35-27 10-80 23-39 8-98 8-106 0-203-45-90-41-160-125-63-74-102-197-37-113-37-254 0-111 27-190 29-88 76-143.5t118-88.5q68-31 156-30 86 0 145 14 51 12 121 45l37 283h-164q-25 0-37 12t-12 31l16 155h461l-73-594q-109-78-244-120-125-39-295-39-137 0-248 49-106 47-190 137-80 86-123 207-43 119-43 262z" horiz-adv-x="1357" unicode="&#x47;"/><glyph d="M72 0l182 1481h266l-78-641h623l80 641h268l-184-1481h-266l77 651h-622l-78-651h-268z" horiz-adv-x="1425" unicode="&#x48;"/><glyph d="M102 0l181 1481h266l-180-1481h-267z" horiz-adv-x="593" unicode="&#x49;"/><glyph d="M-29 12l21 156q2 20 14 34.5t39 14.5q14 0 55-8 31-6 80-6 43 0 86 16 41 16 72 53 33 39 53 95 22 58 31 141l119 973h266l-119-969q-16-131-53-221-40-98-104.5-166t-153.5-105q-90-37-199-36-55 0-104 6-46 6-103 22z" horiz-adv-x="821" unicode="&#x4a;"/><glyph d="M78 0l182 1483h266l-77-627h57q41 0 61 10 27 12 45 35l428 522q27 33 57.5 45.5t69.5 12.5h228l-525-621q-25-27-45-45-27-23-47-33 35-14 53-32 20-20 41-58l375-692h-233q-18 0-39 4-14 2-29 10-14 6-20 17-4 6-13 22l-307 551q-14 27-37 39-20 12-65 12h-80l-80-655h-266z" horiz-adv-x="1320" unicode="&#x4b;"/><glyph d="M72 0l182 1481h266l-155-1260h536l-24-221h-805z" horiz-adv-x="974" unicode="&#x4c;"/><glyph d="M72 0l182 1481h201q6 0 15-1t13-1q12 0 25-4 10-4 16-13 12-16 15-24l305-846q12-37 16-55l17-56 24 56q4 8 16.5 26.5t16.5 28.5l512 846q6 10 20 24 10 10 21 13 16 4 24 4 4 0 13.5 1t15.5 1h203l-182-1481h-234l119 965q4 41 8 59 2 8 7 29.5t7 33.5l-510-845q-18-28-43-43-23-14-55-15h-37q-33 0-55.5 14.5t-32.5 43.5l-305 843q0-10-1-30.5t-1-30.5q0-6-6-55l-115-969h-235z" horiz-adv-x="1755" unicode="&#x4d;"/><glyph d="M72 0l182 1481h139q6 0 15.5-1t13.5-1q12 0 20-6 14-10 16.5-12.5t7.5-9.5l9-13 578-1012q0 10 1 29.5t3 29.5q0 8 1 25.5t3 26.5l117 944h235l-184-1481h-135q-29 0-54 10-23 10-36 35l-574 1012-4-47q0-8-1-21.5t-3-21.5l-115-967h-235z" horiz-adv-x="1425" unicode="&#x4e;"/><glyph d="M76 639q0 129 26 235 27 109 78 207 45 88 123 172 68 74 160 131 84 51 192 84 98 29 217 29 135 0 254-51 113-49 193-137 74-82 119-209 43-121 43-260 0-127-27-234-27-109-78-207-45-88-123-172-68-74-159-131-84-51-193-84-98-29-217-28-139 0-254 49-106 47-190 139-76 86-121 209-43 119-43 258zM348 647q0-101 25-184 23-78 71-139 45-55 115-88 68-31 156-31 113 0 203 45 92 47 155 127 63 82 101 196 35 111 34 261 0 100-24 182-25 80-74 139-51 61-115 90-72 33-155 33-111 0-201-45-92-47-156-127-61-80-100-201-35-111-35-258z" horiz-adv-x="1499" unicode="&#x4f;"/><glyph d="M78 0l182 1481h451q125 0 217-31 94-31 149-84 58-55 86-129 29-76 29-164 0-113-39-219-35-96-113-174-70-70-186-115-104-41-260-41h-186l-64-524h-266zM434 731h184q82 0 136 23 59 25 96 67.5t55 100.5 19 129q0 51-14.5 92t-45.5 71q-29 29-74 45.5t-106 16.5h-184z" horiz-adv-x="1181" unicode="&#x50;"/><glyph d="M76 639q0 129 26 235 27 109 78 207 45 88 123 172 68 74 160 131 84 51 192 84 98 29 217 29 135 0 254-51 113-49 193-137 74-82 119-209 43-121 43-260 0-119-24.5-225.5t-72.5-200.5q-43-88-114-168-70-80-148-131l295-406h-217q-47 0-84 12-39 12-63 50l-168 237q-43-12-99-18-49-6-102-6-139 0-254 49-106 47-190 139-76 86-121 209-43 119-43 258zM348 647q0-101 25-184 23-78 71-139 45-55 115-88 68-31 156-31 113 0 203 45 92 47 155 127 63 82 101 196 35 111 34 261 0 100-24 182-25 80-74 139-51 61-115 90-72 33-155 33-111 0-201-45-92-47-156-127-61-80-100-201-35-111-35-258z" horiz-adv-x="1499" unicode="&#x51;"/><glyph d="M78 0l182 1481h420q133 0 221-27 90-27 148-76t86-116q29-70 28-148 0-88-24-162-27-80-70-137-45-59-111-106-72-51-147-74 33-20 43-33 20-25 35-49l262-553h-238q-29 0-57 14-18 8-33 39l-217 479q-12 27-30.5 39.5t-55.5 12.5h-106l-70-584h-266zM438 774h154q84 0 137 23 61 27 96 63 37 41 56 94 18 55 18 117 0 94-59 150-57 55-185 55h-155z" horiz-adv-x="1236" unicode="&#x52;"/><glyph d="M-10 178l94 127q10 14 29 23 20 10 34 10 16 0 33-10 18-12 35-25l41-33q14-12 51-32 29-16 64-25 49-12 84-12 115 0 180 65.5t65 182.5q0 51-24 83-27 37-62 56-37 18-88 39-27 8-53.5 18t-46.5 19q-55 20-102 43-41 20-86 65-39 39-64 96-23 53-22 142 0 98 34 182 37 90 101 156 63 68 159 108 90 39 211 39 61 0 116.5-12.5t103.5-32.5q43-18 90-55 37-29 69-68l-78-113q-16-25-28-30-14-8-37-8-18 0-41 16l-51 35q-47 29-70 37-43 16-98 16t-101-16q-37-12-71-45-27-23-43-68-16-43-17-84 0-47 25-78 25-33 63-55 33-20 89-41l102-41q84-35 102-45 55-31 90-65.5t62-94.5q25-55 24-133 0-109-36-205-35-92-109-168-66-70-170-114-98-43-225-43-55 0-127 14-53 10-117 39-57 25-102 61-51 41-82 80z" horiz-adv-x="1011" unicode="&#x53;"/><glyph d="M115 1262l28 219h1078l-29-219h-406l-155-1262h-262l153 1262h-407z" horiz-adv-x="1122" unicode="&#x54;"/><glyph d="M123 494q0 61 4 96l109 891h266l-109-889q-4-25-4-39v-35q0-76 17-125 23-66 49-98 35-41 82-61.5t114-20.5q72 0 131 27 55 25 105 77 41 43 74 119 31 68 38 154l111 891h266l-110-891q-14-125-70-242-53-115-135-192-84-82-195-127-109-45-243-45-121 0-213 36-90 37-158 107-61 63-96 160-33 90-33 207z" horiz-adv-x="1370" unicode="&#x55;"/><glyph d="M123 1481h213q39 0 57.5-16.5t24.5-43.5l196-923q4-16 10.5-48t10.5-49q4-18 9-54l7-50q18 53 41 106 14 35 41 95l422 923q10 23 34.5 41.5t59.5 18.5h215l-731-1481h-241z" horiz-adv-x="1347" unicode="&#x56;"/><glyph d="M131 1481h209q37 0 55-17 25-20 27-43l129-909q6-33 6-70 0-25 4-82 39 115 53 152l369 909q8 20 37 41 25 18 57 19h62q39 0 57-17 20-18 27-43l147-909q2-12 5-34.5t5-35.5q0-2 6-77 4 16 10.5 36.5l12.5 40.5q16 49 25 70l350 909q8 23 37 41 27 18 59 19h209l-604-1481h-240l-168 1026q-2 10-3 21.5t-3 21.5l-6 49q-4-8-8-24.5t-8-24.5q-16-41-17-43l-420-1026h-239z" horiz-adv-x="1978" unicode="&#x57;"/><glyph d="M-74 0l570 791-332 690h242q20 0 36-8 10-4 21-27l227-510q9 22 25 43l313 465q25 37 62 37h278l-504-678 371-803h-238q-27 0-41 14.5t-22 30.5l-258 594q-2-4-5-8t-5-8.5-5.5-8.5-5.5-8l-381-561q-20-27-38-35-25-10-46-10h-264z" horiz-adv-x="1290" unicode="&#x58;"/><glyph d="M111 1481h237q37 0 53-17 20-23 29-43l193-512q10-25 22-73 6-25 14-70 16 35 35 70 27 51 43 73l320 512q16 25 37 41 25 18 57 19h219l-608-903-70-578h-266l70 578z" horiz-adv-x="1241" unicode="&#x59;"/><glyph d="M-8 0l12 82q4 20 8 33 2 6 21 28l819 1127h-657l26 211h1012l-12-84q-4-27-9-33l-20-29-819-1122h688l-29-213h-1040z" horiz-adv-x="1159" unicode="&#x5a;"/><glyph d="M4-311l234 1892h391l-11-94q-4-27-24-45-18-16-49-17h-123l-197-1581h127q25 0 41.5-12t16.5-37l-13-106h-393z" horiz-adv-x="565" unicode="&#x5b;"/><glyph d="M106 1491h103q39 0 74-25 33-23 41-61l350-1503h-103q-43 0-73 22-33 25-45 68z" horiz-adv-x="739" unicode="&#x5c;"/><glyph d="M-33-311l13 94q2 20 24 43 18 18 47 18h125l197 1581h-127q-27 0-41 15-16 16-17 39l13 102h393l-234-1892h-393z" horiz-adv-x="565" unicode="&#x5d;"/><glyph d="M180 795l381 686h164l383-686h-186q-20 0-37 12-15 12-25 31l-164 297q-10 18-26 53-10 20-23 53-12-37-20-53-4-6-11.5-24.5t-13.5-28.5l-160-297q-9-18-24.5-30.5t-42.5-12.5h-195z" unicode="&#x5e;"/><glyph d="M-98-299l18 158h744l-21-158h-741z" horiz-adv-x="743" unicode="&#x5f;"/><glyph d="M37 1495h229q39 0 58-12 14-10 28-41l103-248h-140q-27 0-45 6-14 4-30 29z" horiz-adv-x="604" unicode="&#x60;"/><glyph d="M41 360q0 94 25 183 27 94 65 168 39 72 106.5 143.5t137.5 112.5q88 53 164 73 88 25 186 25 80 0 143-8 72-10 140-37l-127-1020h-133q-45 0-64 20-20 25-20 56l8 143q-76-115-156-172-88-63-192-63-58 0-111 24-55 27-90 70-39 49-60 117-22 73-22 165zM295 406q0-113 33-164 33-49 96-49 41 0 82 28 37 25 76 78 35 45 67.5 119t52.5 147l39 320q-18 2-49 2-88 0-160-39-76-41-124-105-53-70-84-153-29-80-29-184z" horiz-adv-x="1062" unicode="&#x61;"/><glyph d="M63 0l187 1522h246l-82-678q74 102 164 164 90 59 192 59 63 0 119-25 57-27 92-71 39-51 59-123 20-70 21-172 0-80-21-176-18-88-51-162-34-77-80-141.5t-104.5-110.5-122.5-74q-68-29-133-28-80 0-146 32-59 29-104 88l-8-34q-10-37-29-54-20-16-61-16h-138zM340 246q37-39 78-53 49-16 90-17 68 0 123 43t94 109q40 68 61 153 20 82 21 170 0 111-35 164t-100 53q-41 0-86-28-39-25-82-78t-76-119q-35-68-59-147z" horiz-adv-x="1105" unicode="&#x62;"/><glyph d="M53 422q0 127 41 246 39 113 115 204 74 88 176 142 100 51 221 51 102 0 176-37 72-37 131-110l-82-95q-16-16-20-18-12-6-25-6-20 0-32 10-4 4-33 22l-47 23q-23 10-74 10-59 0-113-30-51-31-92-91-41-61-65-141-23-76-23-180 0-121 49-178 53-63 140-64 63 0 96 17 41 20 65 36l48 37q18 16 45 17 12 0 24-6 8-4 21-17l65-78q-49-53-100-96-43-35-96.5-61.5t-102.5-34.5q-61-10-119-10-86 0-163 32-76 31-123 88-53 63-76 138-27 86-27 180z" horiz-adv-x="894" unicode="&#x63;"/><glyph d="M45 377q0 78 21 174 18 88 51 162 37 82 80 143 46 65 104 111t123 73q61 27 133 27 66 0 129-27 53-23 100-69l70 551h246l-187-1522h-133q-47 0-65 20-18 22-19 56l9 153q-74-111-170-178-94-68-201-67-63 0-118.5 24.5t-92.5 73.5q-39 53-59 121-21 70-21 174zM299 401q0-111 35-164t100-53q43 0 84 27 43 29 84 78 40 49 74 117 31 59 57 145l33 256q-35 39-80 53-43 14-88 14-68 0-123-43t-94-108q-41-70-61.5-152t-20.5-170z" horiz-adv-x="1107" unicode="&#x64;"/><glyph d="M53 422q0 90 17 162 18 78 53 151 37 76 82 133.5t110.5 102.5 137.5 69q74 25 157.5 25t145.5-25q66-27 104-59 37-33 62-84 20-43 20-90 0-68-29-129-29-59-100-105-74-46-197-79-117-33-317-52v-14q0-248 209-248 51 0 82 8 41 10 59 21 23 12 47 29 20 16 39 28.5t35 20.5 39 8q12 0 24.5-6t20.5-17l64-77q-53-55-107-95-57-43-106-65-66-29-115-39-61-12-131-12-90 0-168 32-72 31-127 88-49 51-82 138-29 74-29 180zM319 602q137 20 205 39 78 23 119 45 47 27 57 51 12 29 13 62 0 15-6 30-6 14-20.5 28.5t-35.5 23.5q-18 8-53 8-55 0-96-20.5t-80-59.5q-37-37-62-90.5t-41-116.5z" horiz-adv-x="972" unicode="&#x65;"/><glyph d="M61-254l136 1114-82 17q-20 2-37 16-14 12-15 37v4l2 4q1 4 1 8t4 33q0 4 3 24.5t5 36.5h139l10 78q14 100 47 164 37 72 93 121 53 47 128.5 75.5t155.5 28.5q61 0 123-20l-24-131q-4-14-9-19-6-6-20-10-16-4-25-4h-28q-40 0-74-12-41-14-62-35-25-25-43-66-16-33-22-100l-8-70h233l-22-180h-226l-100-817-51-193q-14-49-45-75-33-29-84-29h-103z" horiz-adv-x="655" unicode="&#x66;"/><glyph d="M-70-100q0 84 45 145t113 96q74 39 156 54 80 14 174 14 55 0 82-2 23-2 73-10 0 4-2 16t-4 16q-2 10-2 35 0 63 33 131-35-25-88-41-45-14-119-14-51 0-112 20-55 18-95 58-43 43-65 100-25 61-25 141 0 74 29 150 25 68 86 131 55 57 139 92 86 35 193 35 49 0 110-14 51-12 97-41h292l-10-82q-2-20-16-41-12-18-35-25l-107-28q4-16 9-41 2-14 2-50 0-43-11-83-9-37-24-68-25-49-33-62-16-25-33-57-15-31-24-61-10-35-10-70 0-41 18-78l37-73q12-23 37-78 18-43 18-99 0-74-35-147-33-68-100-123-61-51-160-82-102-33-213-33-88 0-174 21-74 18-133 57-53 37-84 84-29 46-29 107zM170-70q0-61 49-92t152-31q68 0 104 13 47 16 82 41 29 20 51 61 18 34 19 74v29q0 8-4 24-76 12-103 14-61 4-86 5-80 0-121-11-53-12-82-30-33-18-47-43-14-23-14-54zM324 657q0-78 36-120 39-45 103-45 47 0 82 22 33 20 57 55 23 33 37 80 12 43 12 88 0 78-36.5 119t-102.5 41q-45 0-82-20-31-16-57-54-25-33-37-78-12-43-12-88z" horiz-adv-x="997" unicode="&#x67;"/><glyph d="M63 0l187 1522h250l-78-650q77 98 166 148 86 47 182 47 61 0 108.5-20.5t82.5-61.5q31-37 51-100 20-66 20-135 0-6-1-19.5t-1-19.5q0-14-4-43l-80-668h-252l80 668q2 12 2 37 0 4 1 14t1 14q0 68-24 98-23 29-78 29-41 0-82-20-37-18-82-64-37-39-72-96-31-53-57-129l-68-551h-252z" horiz-adv-x="1114" unicode="&#x68;"/><glyph d="M78 0l127 1051h250l-127-1051h-250zM203 1356q0 29 14 63 12 31 33 51 23 23 51 35 33 14 57 15 27 0 60-15 29-12 51-35 25-25 35-49 12-31 12-65t-12-62q-10-23-37-49-23-23-49-35-29-12-62-12-29 0-57 12-27 12-49.5 35t-34.5 49q-12 28-12 62z" horiz-adv-x="530" unicode="&#x69;"/><glyph d="M-160-348l25 135q6 18 20 27 12 6 49 6 33 0 58 6 27 6 41 24 16 18 24 46 10 33 17 67l131 1088h250l-136-1088q-10-68-32-127-23-55-70-106-43-47-106-72-66-27-144-27-47 0-67 4-27 5-60 17zM195 1356q0 29 14 63 12 31 33 51 23 23 51 35 33 14 57 15 27 0 60-15 29-12 51-35 25-25 35-49 12-31 12-65t-12-62q-10-23-37-49-23-23-49-35-29-12-62-12-29 0-57 12-27 12-49.5 35t-34.5 49q-12 28-12 62z" horiz-adv-x="522" unicode="&#x6a;"/><glyph d="M66 0l186 1522h250l-107-871h27q20 0 36.5 6.5t33.5 26.5l278 324q12 14 37 30 18 12 49 13h225l-346-392-39-38q-16-16-41-31 25-20 33-35l25-45 260-510h-219q-25 0-45 10-18 8-31 35l-203 397q-12 27-26 33-12 6-41 6h-35l-58-481h-249z" horiz-adv-x="1046" unicode="&#x6b;"/><glyph d="M70 0l184 1522h248l-185-1522h-247z" horiz-adv-x="514" unicode="&#x6c;"/><glyph d="M55 0l129 1053h127q37 0 62-21 23-18 22-57v-4-13q0-4-1-13t-1-23q0-10-4-68 70 104 156 160 84 53 172 53 98 0 153-63 53-63 64-189 74 127 164 191 90 61 196 61 115 0 181-80 66-82 65-229 0-6-1-20.5t-1-22.5q0-14-4-47l-80-668h-250q10 94 20.5 169t16.5 126l23 203q4 43 8 75.5t6 53.5q2 18 5 41.5t3 27.5q2 16 2 35 0 4 1 8t1 6q0 61-20.5 88t-67.5 27q-41 0-76-20-39-23-69-60-33-39-62-96-27-53-49-127l-65-557h-250l78 668q4 29 4 41 0 6 1 19t1 17q0 57-21 89-18 27-65 26-43 0-78-20.5t-72-63.5q-34-40-61.5-98t-48.5-129l-66-549h-248z" horiz-adv-x="1622" unicode="&#x6d;"/><glyph d="M55 0l125 1053h131q37 0 62-21 20-18 20-61l-6-137q82 119 178.5 176t200.5 57q57 0 104.5-20.5t81.5-61.5q31-37 52-100 20-66 20-135 0-6-1-19.5t-1-19.5q0-14-4-43l-80-668h-252l35 293q6 53 13 105.5t11 95.5q8 80 13 124 2 25 5 42.5t3 27.5q0 6 1 13.5t2 11.5 1 6v14q0 66-24.5 96.5t-77.5 30.5q-41 0-86-24-47-25-86-70-43-49-74-109-39-74-57-141l-58-516h-252z" horiz-adv-x="1105" unicode="&#x6e;"/><glyph d="M45 426q0 131 45 254 41 113 119 203 74 86 176 135t213 49q92 0 162-29 74-31 129-86 53-53 84-137 31-82 31-188 0-129-46-252-43-117-118-205-74-86-176-135-106-51-213-51-88 0-162 30.5t-127 83.5q-51 51-84 139.5t-33 188.5zM299 426q0-125 43-186 41-59 131-60 66 0 115 35 51 35 88 98 37 61 55.5 141.5t18.5 170.5q0 127-43 188-41 59-132 59-66 0-114-34-53-37-88-97-33-55-53.5-143t-20.5-172z" horiz-adv-x="1048" unicode="&#x6f;"/><glyph d="M12-344l172 1397h127q33 0 60-17 25-15 24-49v-2l-1-6q-1-6-1-12v-52q0-14-4-96 78 115 170 180 95 68 203 68 63 0 119-25 57-27 92-71 39-51 59-123 20-70 21-172 0-80-21-176-18-88-51-162-34-77-80-141.5t-104.5-110.5-122.5-74q-68-29-133.5-28.5t-128.5 26.5q-57 25-101 70l-53-424h-246zM332 246q33-37 80-53 45-16 88-17 68 0 123 43t94 109q40 68 61 153 20 82 21 170 0 111-35 164t-100 53q-41 0-86-28-39-25-82-78-40-49-74-117-35-72-60-145z" horiz-adv-x="1089" unicode="&#x70;"/><glyph d="M41 360q0 94 25 183 27 94 65 168 39 72 106.5 143.5t137.5 112.5q88 53 164 73 88 25 186 25 80 0 143-8 72-10 140-37l-170-1364h-164q-16 0-37 8-12 4-23 19-10 12-12 26-4 20-4 29v4l1 6q1 6 1 10t1 14.5 3 26.5q2 10 5 36l5 42 5.5 50t9.5 75l24 188q-70-98-149-151-82-55-180-55-58 0-111 24-55 27-90 70-39 49-60 117-22 73-22 165zM295 406q0-113 33-164 33-49 96-49 43 0 82 26 37 25 76 78 31 43 65 117 31 68 53 147l41 324q-6 0-13 1t-11 1h-25q-88 0-160-39-76-41-124-105-53-70-84-153-29-80-29-184z" horiz-adv-x="1062" unicode="&#x71;"/><glyph d="M55 0l129 1053h127q35 0 62-17 23-14 22-53v-4l-1-3q-1-3-1-7v-11-55q0-14-4-104 68 129 139 192 74 66 160 66 47 0 86-17l-45-241q-49 20-98 20-92 0-160-86-70-88-113-274l-55-459h-248z" horiz-adv-x="747" unicode="&#x72;"/><glyph d="M-6 113l61 96q12 18 27 27 16 10 36.5 10t41.5-15q4-2 17-12t24-16q41-25 55-31 34-12 86-12 43 0 74 12 41 16 55 29 18 16 33 45 12 25 12 55 0 33-18 57-16 23-47 41-25 14-66 29-37 12-76 27-49 20-73 32-31 14-66 48-27 23-47 69-16 35-17 98 0 76 25 136 28 68 80 116 55 51 127 82 74 31 172 31t178-35 131-86l-65-94q-12-16-22.5-22.5t-27-6.5-36.5 11q-37 20-41 22-41 20-56 25-27 8-75 8-82 0-123-35-45-39-45-92 0-33 18.5-53.5t46.5-36.5q41-23 66-31l76-31q27-10 75-35 33-16 66-49 29-29 47-69 18-39 18-97 0-76-30-143-31-66-88-121-53-51-136-82-80-31-178-30-45 0-96 10-53 10-88 26-47 23-74 41-32 25-57 52z" horiz-adv-x="806" unicode="&#x73;"/><glyph d="M90 905v4 13q0 4 4 32 8 53 8 62l160 26 82 287q4 16 23 31 14 12 34 12h136l-41-332h254l-21-180h-254l-57-457-5-42-3-25q-2-20-4-37 0-4-1.5-11t-1.5-9v-9q0-40 19-61 18-20 53-21 27 0 37 5 20 8 29 12l18 12q6 4 18.5 4t16.5-4q8-8 12-16l53-123q-53-45-122-70-68-25-140-24-111 0-176 61-68 63-69 168v18q0 2 1 12.5t1 16.5 3 23.5 3 25.5q8 72 8 80l59 471h-100q-14 0-27 12-10 10-10 33z" horiz-adv-x="729" unicode="&#x74;"/><glyph d="M84 299q0 8 1 20.5t1 20.5q0 16 4 45l78 666h254q-10-94-20.5-169t-16.5-124l-23-201q-4-43-8-73.5t-6-51.5q-2-25-5-42t-3-28q-2-16-2-30 0-4-1-8.5t-1-6.5q0-63 26-96 23-29 76-28 41 0 82 20 37 18 82 63 37 37 74 101 31 53 57 129l66 545h254l-127-1051h-129q-23 0-33 4-20 8-29 14-16 12-20 23-8 20-8 35v4l6 129q-80-113-174-168-98-57-197-57-55 0-106 22-47 20-80 60-35 41-53.5 100t-18.5 133z" horiz-adv-x="1103" unicode="&#x75;"/><glyph d="M74 1051h205q25 0 43-14.5t20-32.5l111-562q12-66 14-100 0-16 4-49t4-49l31 98q33 86 39 100l252 562q8 18 28 32 23 14 41 15h199l-516-1051h-213z" horiz-adv-x="1021" unicode="&#x76;"/><glyph d="M82 1051h190q23 0 43-15 18-12 21-32l61-562q6-45 6-90 0-57 3-86 20 57 32 86l35 90 227 564q10 23 29 35t41 12h107q28 0 43-13 14-12 18-34l88-564 12-90q8-57 11-86 4 14 11 43t11 43q14 47 31 90l205 562q6 20 24 32 20 14 41 15h184l-432-1051h-194q-35 0-41 45l-98 606q-8 51-11 80-4-10-7-20.5t-7-20.5q0-2-16-39l-250-606q-18-45-54-45h-188z" horiz-adv-x="1505" unicode="&#x77;"/><glyph d="M-53 0l418 569-246 482h229q25 0 37-7 10-6 21-24l143-315q2 4 7 13t7 13q6 14 17 27l184 258q6 8 27 24 14 10 28 11h230l-369-484 270-567h-229q-23 0-41 14-15 12-25 31l-159 369q-2-4-6.5-10.5t-6.5-10.5q-4-8-12-20l-233-328q-4-6-29-31-14-14-41-14h-221z" horiz-adv-x="1034" unicode="&#x78;"/><glyph d="M82 1051h211q27 0 41-15 10-12 18-32l131-545q4-16 9-53 4-33 6-52l11 26.5 11 27.5 25 51 258 545q8 20 31 34 18 12 38 13h205l-696-1342q-29-53-82-53h-186l233 424z" horiz-adv-x="1021" unicode="&#x79;"/><glyph d="M0 0l14 106q4 25 13 41 14 29 28 46l531 663h-453l23 195h749l-12-105q-4-31-14-53-14-29-27-41l-526-657h460l-20-195h-766z" horiz-adv-x="901" unicode="&#x7a;"/><glyph d="M33 565l16 140q74 0 107 63 29 57 28 195v36q0 6-1 21.5t-1 24-1 23.5-1 22v38q0 106 25 193 25 84 74 143 49 57 124 88 72 29 179 29h49l-13-108q-4-16-8-22.5t-16-14.5q-8-6-16-9-6-2-17-2h-8q-66 0-107-49-37-47-47-139-6-53-6-100v-95q0-16-1-44.5t-1-43.5q0-2-6-88-2-39-16-80-12-37-37-67-29-37-53-53-29-20-70-31 61-23 92-72t31-117q0-59-13-114-12-57-28-115-27-98-31-115-14-68-14-118 0-61 28.5-100.5t83.5-39.5h9q14 0 30-10 14-8 15-33v-4l-1-4q-1-4-1-8 0-6-4-35 0-4-3.5-24.5t-5.5-36.5h-49q-84 0-139 20-61 23-98 60-39 39-58 92-20 57-20 118.5t16 126.5q16 61 33 117 8 23 18.5 64l12.5 49q14 51 14 115 0 53-23 81-26 33-71 33z" horiz-adv-x="565" unicode="&#x7b;"/><glyph d="M147-344v1929h197v-1929h-197z" horiz-adv-x="614" unicode="&#x7c;"/><glyph d="M-33-311l13 108q0 10 8 23 6 8 14 14 6 4 18 8 6 2 17 2h8q66 0 107 50 35 43 45 139 8 70 8 100v94 88q0 2 6 88 2 31 18 80 12 37 37 68t53.5 51.5 67.5 32.5q-61 23-92 72t-31 116q0 49 15 115 12 57 28 115 18 68 29 114 14 68 14 119 0 61-28.5 100t-83.5 39h-9q-12 0-28.5 10.5t-16.5 32.5v5l1 4q1 4 1 8 0 6 4 35 0 4 3.5 24.5t5.5 36.5h49q82 0 141.5-20.5t98-59.5 57-92 18.5-119q0-70-14-127-16-61-33-116-12-39-33-113-14-51-14-115 0-53 23-82 27-33 73-32l-16-140q-74 0-107-63-29-57-28-195v-37q0-6 1-21.5t1-23.5 1-23.5 1-21.5v-39q0-106-25-192-25-84-74-144-47-55-126-88-72-29-179-28h-47z" horiz-adv-x="565" unicode="&#x7d;"/><glyph d="M39 408q0 82 20.5 143t61.5 108q39 45 96 70t131 25q66 0 105-13 66-20 94-32l84-31q37-14 69-14 59 0 91 36 33 39 32 103h203q0-80-20-141-22-65-62-111-39-45-96-69.5t-131-24.5q-59 0-105 14-84 27-94 31l-84 30q-43 16-69 17-59 0-91-37-33-39-32-104h-203z" unicode="&#x7e;"/><glyph d="M127 451q0 127 39 235 39 106 115 193 72 80 186 131 106 47 246 53l35 164q6 27 26 43 25 20 47 20h90l-49-237q86-16 142-47 66-37 110-84l-74-86q-12-16-22-21-16-8-31-8-8 0-29 8-6 4-14 7t-18 9q-6 2-20.5 9.5l-22.5 11.5q-12 6-58 18l-145-700q61 6 96 20 40 15 68 31l26.5 14.5t22.5 12.5q20 12 41 12 31 0 43-20l55-86q-43-43-86-72-47-31-94-49.5t-102-30.5q-45-10-107-14l-33-156q-6-25-24-41-25-20-49-20h-91l46 221q-80 12-148 49-66 35-115 94-47 55-75 139-27 79-27 177zM367 463q0-111 43-182 41-68 122-97l144 693q-84-10-137-41-63-37-97-86-41-61-57-127-18-74-18-160z" unicode="&#xa2;"/><glyph d="M0 0l20 154q70 14 111 59 39 43 51 127l35 276h-160l21 158h158l30 248q12 102 53 182 43 88 111 152 70 66 164 102.5t213 36.5q90 0 156-18 63-18 112-56 51-39 80-84 29-47 51-106l-106-64q-16-10-29-12-20-4-29-4-12 0-32 8-16 6-29 25-31 41-35 45-25 25-39 33-27 16-51 20-41 8-72 8-55 0-100-18-43-16-82-53-35-31-57-84-23-51-29-111l-31-250h459l-18-158h-459l-25-210q-10-74-32-123-25-51-68-95l80 13q40 6 80 6h612l-12-101q-4-20-12-38-8-16-25-33-15-15-37-25-25-10-45-10h-983z" unicode="&#xa3;"/><glyph d="M111 276l16 138h330l10 98h-328l17 135h286l-307 832h205q37 0 53-17 20-20 29-43l168-510q12-37 20-82l13-73q8 25 28 73 16 37 41 82l293 510q12 25 37 43 23 16 57 17h207l-514-832h289l-17-135h-331l-13-98h330l-16-138h-330l-33-276h-245l34 276h-329z" unicode="&#xa5;"/><glyph d="M82 741q0 98 29 201 29 100 75 180 51 86 119 154 66 66 152 117 84 49 180 77 92 27 201 27 106 0 200-27 96-27 182.5-78t151.5-116q68-68 119-154 47-80 76-180 27-94 26.5-200.5t-26.5-200.5q-29-100-76-181-51-86-119-153-66-66-151.5-117t-182.5-78q-94-27-200.5-26.5t-200.5 26.5q-92 27-180 78-86 51-152 117-68 68-119 153-45 78-75 181-29 98-29 200zM221 741q0-137 47-249 49-115 131-201 84-88 195-135 115-49 244-50 82 0 166 23 78 20 149 64 78 45 127 98 61 63 96 127 39 70 62 151 23 84 22 172 0 84-22 170-22 83-62 154-39 68-96 129-41 45-127 98-63 41-149 64-92 25-166 24.5t-166-24.5q-82-23-148-64-80-51-125-98-57-61-96-129-40-71-61-154-21-80-21-170zM391 743q0 109 35 191 41 94 100 151 72 68 150 99 84 33 184 33 114 0 197-37 76-35 137-99l-68-90q-6-8-16-16t-27-8q-18 0-32 8-4 2-16.5 11t-20.5 13q-18 10-56 21-45 12-86 12-53 0-108-20-41-16-80-58-31-35-51-90-18-53-19-121 0-71 19-122 18-53 49-91 29-35 76-55 43-18 94-18 57 0 84 8 49 14 55 18 14 8 39 25 14 8 39 16 14 0 21-4 14-10 16-12l84-90q-57-74-146-111-90-39-204-39-101 0-185 37t-141 101q-63 72-92 149-31 86-31 188z" horiz-adv-x="1619" unicode="&#xa9;"/><glyph d="M96 516l25 205h493l-26-205h-492z" horiz-adv-x="679" unicode="&#xad;"/><glyph d="M78 741q0 106 26 201 29 100 76 180 51 86 119 154 63 63 154 117 84 49 180 77 92 27 201 27 106 0 200-27 96-27 182.5-78t151.5-116q68-68 119-154 47-80 76-180 27-94 26.5-200.5t-26.5-200.5q-29-100-76-181-51-86-119-153-66-66-152-117t-182-78q-94-27-200-26-109 0-201 26-96 29-180 78-90 53-154 117-68 68-119 153-45 78-76 181-26 91-26 200zM217 741q0-137 47-249 49-115 131-201 84-88 195-135 115-49 244-49.5t243 49.5q114 49 197 135 86 90 133 201 47 113 47 249 0 90-20 170-22 83-62 154-35 63-98 129-45 47-125 98-63 41-150 64-92 25-165.5 24.5t-165.5-24.5q-82-23-148-64-80-51-125-98-57-61-96-129-40-71-61-154-21-80-21-170zM500 283v919h327q193 0 283-67 88-68 88-197 0-90-47-159.5t-147-100.5q23-12 40-33 8-8 29-47l187-315h-211q-47 0-66 34l-147 269q-12 20-21 24-12 6-41 6h-55v-333h-219zM719 774h92q55 0 86 8 37 10 51 25 20 20 27 45 8 33 8 57 0 23-8 56-6 29-23 41-20 16-47 22-41 8-78 8h-108v-262z" horiz-adv-x="1619" unicode="&#xae;"/><glyph d="M262 1194l164 248q20 33 37 41 22 12 61 12h236l-268-266q-25-25-39-29-18-6-47-6h-144z" horiz-adv-x="604" unicode="&#xb4;"/><glyph horiz-adv-x="841" unicode="&#x2000;"/><glyph horiz-adv-x="1685" unicode="&#x2001;"/><glyph horiz-adv-x="841" unicode="&#x2002;"/><glyph horiz-adv-x="1685" unicode="&#x2003;"/><glyph horiz-adv-x="561" unicode="&#x2004;"/><glyph horiz-adv-x="419" unicode="&#x2005;"/><glyph horiz-adv-x="280" unicode="&#x2006;"/><glyph horiz-adv-x="280" unicode="&#x2007;"/><glyph horiz-adv-x="208" unicode="&#x2008;"/><glyph horiz-adv-x="335" unicode="&#x2009;"/><glyph horiz-adv-x="92" unicode="&#x200a;"/><glyph d="M96 516l25 205h493l-26-205h-492z" horiz-adv-x="679" unicode="&#x2010;"/><glyph d="M96 516l25 205h493l-26-205h-492z" horiz-adv-x="679" unicode="&#x2011;"/><glyph d="M96 516l25 205h493l-26-205h-492z" horiz-adv-x="679" unicode="&#x2012;"/><glyph d="M160 524l20 176h766l-22-176h-764z" horiz-adv-x="1075" unicode="&#x2013;"/><glyph d="M160 524l20 176h1282l-20-176h-1282z" horiz-adv-x="1591" unicode="&#x2014;"/><glyph d="M176 1184q0 115 62 219 61 102 176 190l67-45q14-8 15-28 0-14-4-21-2-4-9.5-12l-11.5-12q-16-20-27-35-20-29-30.5-51.5t-20.5-61.5q-10-37-10-72 0-31 6-61 6-29 23-66 2-6 2-16 0-18-11-29-12-12-30-20l-156-57q-41 92-41 178z" horiz-adv-x="425" unicode="&#x2018;"/><glyph d="M133 1049q0 12 6 20 2 4 9.5 10t11.5 13q2 4 26 36 20 29 30.5 51.5t21.5 61.5q10 37 10 72 0 31-6 61-4 25-23 64-2 6-2 16 0 20 10 31 12 12 31 20l156 58q41-92 41-179 0-115-62-219-61-102-176-190l-70 45q-14 9-14 29z" horiz-adv-x="425" unicode="&#x2019;"/><glyph d="M176 1184q0 115 62 219 61 102 176 190l67-45q14-8 15-28 0-14-4-21-2-4-9.5-12l-11.5-12q-16-20-27-35-20-29-30.5-51.5t-20.5-61.5q-10-37-10-72 0-31 6-61 6-29 23-66 2-6 2-16 0-18-11-29-12-12-30-20l-156-57q-41 92-41 178zM496 1184q0 115 61 219 61 106 174 190l68-45q16-10 16-28 0-12-6-21t-18-24q-2-2-12.5-14.5t-16.5-20.5q-16-23-29-51-14-33-22-62-10-37-11-72 0-20 9-61 8-37 20-66 4-12 4-16 0-16-12-28.5t-31-20.5l-153-57q-41 92-41 178z" horiz-adv-x="743" unicode="&#x201c;"/><glyph d="M137 1049q0 12 6 20 2 4 9.5 10t11.5 13q2 4 26 36 20 29 30.5 51.5t21.5 61.5q10 37 10 72 0 31-6 61-4 25-23 64-2 6-2 16 0 20 10 31 12 12 31 20l156 58q41-92 41-179 0-115-62-219-61-102-176-190l-69 45q-15 9-15 29zM455 1049q0 12 6 20 2 4 9 12 5 7 9 11 23 27 29 36 16 23 29 52 20 45 24 61 8 31 8 72 0 31-6 61-4 25-22 64-4 12-4 16 0 18 12 31 12 10 33 20l153 58q41-92 41-179 0-115-61-219-61-102-176-190l-68 45q-16 11-16 29z" horiz-adv-x="743" unicode="&#x201d;"/><glyph d="M166 606q0 98 35 174 39 84 96 142 63 63 141 96 82 35 172 35 94 0 176-35 78-33 142-96 57-57 96-142 35-76 35-174 0-94-35-170-39-84-96-141-59-59-142-94-88-37-176-37-84 0-172 37-82 35-141 94-57 57-96 141-35 76-35 170z" unicode="&#x2022;"/><glyph d="M35 139q0 33 12 61.5t32.5 49 49.5 33.5q27 12 59 12 34 0 62-12 29-12 49-33t32.5-49.5 12.5-61.5q0-34-12-61-12-29-33-49-16-16-49-31-28-12-62-12-33 0-59 12-33 14-49 31-20 20-33 49-12 27-12 61zM582 139q0 33 12 61.5t32.5 49 49.5 33.5q28 12 61 12t60-12q29-12 49-33 23-23 35-49 12-29 12-62 0-34-12-61t-35-49q-16-16-49-31-27-12-60-12-34 0-61 12-33 14-49 31-20 20-33 49-12 27-12 61zM1128 139q0 33 13 62 14 33 30 49 20 20 50 33 28 12 61 12 34 0 61-12 29-12 49.5-33t33-49.5 12.5-61.5q0-34-13-61-12-29-32-49-16-16-50-31-28-12-61-12-34 0-61 12-33 14-49.5 30.5t-30.5 49.5q-13 27-13 61z" horiz-adv-x="1552" unicode="&#x2026;"/><glyph horiz-adv-x="335" unicode="&#x202f;"/><glyph horiz-adv-x="419" unicode="&#x205f;"/><glyph d="M45 553l16 135h119q0 10 2 31.5t2 32.5q4 37 9 59h-117l16 135h133q39 129 99 230 57 96 147 172 86 74 182 108 106 39 213 39 141 0 235.5-55.5t151.5-145.5l-98-94q-2-2-6-7t-7-8-7-5q-10-8-33-9-22 0-37 19-10 12-41 39-16 14-66 37-41 18-108 18-129 0-227-86-100-88-150-252h528l-8-76q-4-25-22-41-20-18-53-18h-476q-9-58-12-123h444l-10-74q-2-23-24-41-25-20-49-20h-361q12-180 82-266 72-90 193-90 57 0 90 8 39 10 65 24 37 20 49 31 20 16 37 31 15 15 31 24 16 10 29 11 10 0 18-4.5t16-12.5l93-96q-88-111-203-168-119-59-262-59-123 0-207 41-88 43-150 116-59 70-94 181-33 100-39 229h-133z" unicode="&#x20ac;"/><glyph d="M156 1339l16 140h471l-16-140h-152l-59-475h-166l57 475h-151zM633 864l76 615h143q27 0 35-2 12-2 18-23l82-270q14-41 19-68 4 8 8 17.5t8 17.5l8 15.5t10 17.5l154 270q12 20 25 23 8 2 34 2h144l-76-615h-147l38 316q4 29 9 43 2 6 6 23.5t8 29.5l-178-311q-8-16-25-27-14-8-37-8h-24q-18 0-32.5 8t-20.5 27l-99 305v-58-32l-39-316h-147z" horiz-adv-x="1370" unicode="&#x2122;"/><glyph d="M0 1050h1050v-1050h-1050v1050z" horiz-adv-x="1050" unicode="&#xe000;"/><glyph d="M59-254l138 1114-78 14q-31 8-41 17-14 12-15 35l11 114h145l4 35q12 102 51 178 41 82 107 142 61 55 164 92 98 35 223 35 55 0 84-4 49-6 74-15l-25-127q-6-25-27-26-29-4-53-4-102 0-159-17-66-18-107-51-45-35-66-86-22-52-30-123l-4-29h606l-127-1040h-250l107 860h-349l-98-819-53-193q-12-47-43-75-29-27-88-27h-101z" horiz-adv-x="1142" unicode="&#xfb01;"/><glyph d="M59-254l138 1114-78 14q-31 8-41 17-14 12-15 35l13 114h141l8 47q9 83 43 160t92 135q59 59 138 93 82 35 186 34 82 0 151.5-6t143.5-6h164l-185-1497h-245l159 1317q-14 2-42.5 5t-43.5 5q-29 4-86 4-102 0-163.5-61.5t-73.5-182.5l-6-47h223l-21-180h-215l-100-819-53-193q-12-47-43-75-29-27-88-27h-101z" horiz-adv-x="1169" unicode="&#xfb02;"/><glyph d="M1389 0l127 1051h250l-127-1051h-250zM1514 1356q0 29 14 63 12 31 33 51 23 23 51 35 33 14 57 15 27 0 60-15 29-12 51-35 25-25 35-49 12-31 12-65t-12-62q-10-23-37-49-23-23-49-35-29-12-62-12-29 0-57 12-27 12-49.5 35t-34.5 49q-12 28-12 62zM716-254l136 1114-82 17q-20 2-37 16-14 12-15 37v4l2 4q1 4 1 8t4 33q0 4 3 24.5t5 36.5h139l10 78q14 100 47 164 37 72 93 121 53 47 128.5 75.5t155.5 28.5q61 0 123-20l-24-131q-4-14-9-19-6-6-20-10-16-4-25-4h-28q-40 0-74-12-41-14-62-35-25-25-43-66-16-33-22-100l-8-70h233l-22-180h-226l-100-817-51-193q-14-49-45-75-33-29-84-29h-103zM61-254l136 1114-82 17q-20 2-37 16-14 12-15 37v4l2 4q1 4 1 8t4 33q0 4 3 24.5t5 36.5h139l10 78q14 100 47 164 37 72 93 121 53 47 128.5 75.5t155.5 28.5q61 0 123-20l-24-131q-4-14-9-19-6-6-20-10-16-4-25-4h-28q-40 0-74-12-41-14-62-35-25-25-43-66-16-33-22-100l-8-70h233l-22-180h-226l-100-817-51-193q-14-49-45-75-33-29-84-29h-103z" horiz-adv-x="1841" unicode="&#xfb03;"/><glyph d="M1381 0l184 1522h248l-185-1522h-247zM716-254l136 1114-82 17q-20 2-37 16-14 12-15 37v4l2 4q1 4 1 8t4 33q0 4 3 24.5t5 36.5h139l10 78q14 100 47 164 37 72 93 121 53 47 128.5 75.5t155.5 28.5q61 0 123-20l-24-131q-4-14-9-19-6-6-20-10-16-4-25-4h-28q-40 0-74-12-41-14-62-35-25-25-43-66-16-33-22-100l-8-70h233l-22-180h-226l-100-817-51-193q-14-49-45-75-33-29-84-29h-103zM61-254l136 1114-82 17q-20 2-37 16-14 12-15 37v4l2 4q1 4 1 8t4 33q0 4 3 24.5t5 36.5h139l10 78q14 100 47 164 37 72 93 121 53 47 128.5 75.5t155.5 28.5q61 0 123-20l-24-131q-4-14-9-19-6-6-20-10-16-4-25-4h-28q-40 0-74-12-41-14-62-35-25-25-43-66-16-33-22-100l-8-70h233l-22-180h-226l-100-817-51-193q-14-49-45-75-33-29-84-29h-103z" horiz-adv-x="1824" unicode="&#xfb04;"/></font>
</defs>
</svg>
