<svg xmlns="http://www.w3.org/2000/svg"><defs><font horiz-adv-x="1187"><font-face ascent="1649" descent="-399" units-per-em="2048"/><missing-glyph horiz-adv-x="395"/><glyph horiz-adv-x="395" unicode="&#x20;"/><glyph horiz-adv-x="395" unicode="&#x09;"/><glyph horiz-adv-x="395" unicode="&#xa0;"/><glyph d="M164 112.5q0 28.5 8 51t26.5 41 41.5 26.5q27 10 51 11 23 0 49-11 23-8 41-26.5t27-40.5q10-27 10-51.5t-10-51.5q-8-23-27-41t-41-26q-27-10-49-10-25 0-51 10-23 8-41.5 26.5t-26.5 41-8 51zM270 512q0 18 1 51t1 47q0 35 4 92l7 89q4 61 8 90l74 585h165l-71-585-13-90q-4-35-16-89l-18-92q-2-12-23-98h-119z" horiz-adv-x="649" unicode="&#x21;"/><glyph d="M223 1012v157l39 297h152l-37-297-37-157q-6-29-23-49-14-18-45-19-27 0-39 19-10 16-10 49zM543 1012v157l39 297h151l-37-297-37-157q-6-29-22-49-14-18-45-19-27 0-39 19-10 16-10 49z" horiz-adv-x="753" unicode="&#x22;"/><glyph d="M55 475q0 2 1 7t1 7q2 8 4 19l15 57h211l106 338h-237l20 72q10 31 29 43 20 14 59 14h166l119 371q10 31 35 47 27 16 51 16h82l-144-434h258l140 434h80q22 0 36-12t15-33q0-8-4-20l-121-369h219l-22-74q-10-31-27-40-20-14-57-15h-148l-108-338h186q18 0 33-10 12-9 12-31v-16q0-4-4-16l-17-58h-245l-140-434h-81q-18 0-33 14-12 12-13 35 0 12 5 29l114 356h-254l-118-366q-12-35-37-52-27-16-54-16h-77l139 434h-152q-43 0-43 41zM430 565h258l109 338h-256z" unicode="&#x23;"/><glyph d="M74 176l61 78q20 27 49 27 20 0 41-19 37-33 56-45 34-25 79-49 43-23 119-33l105 553q-43 12-125 45-51 20-109 64-41 31-76 94-29 51-28 141 0 86 33 164 33 76 98 139 70 66 153 103 88 37 203 41l29 149q2 16 20 35 14 14 37 14h66l-41-202q111-12 180-54 76-43 125-102l-49-66q-12-16-23-20-16-8-26-8-14 0-33 12l-47 33-66 33q-37 18-88 24l-96-504 131-45q61-23 115-63 53-39 82-92 33-59 32-138 0-98-37-184-41-92-102-156-68-68-164-110-100-45-217-51l-33-181q-2-14-20-32-16-16-37-17h-65l45 234q-121 12-218 61-93 49-159 127zM414 1073q0-43 16-76 16-35 43-57 35-31 64-45 45-23 79-35l89 469q-78-6-127-29-53-25-93-59-33-31-53-78-18-43-18-90zM590 135q72 6 135 33 59 25 100 65 39 39 61.5 94.5t22.5 114.5q0 45-18 78-18 35-47 58-33 27-70 43-47 23-86 34z" unicode="&#x24;"/><glyph d="M92 0l1165 1438q6 6 27 18 16 10 39 10h127l-1167-1437q-10-14-27-21-20-8-35-8h-129zM139 1053q0 104 27 182t76 133q53 59 110 84 68 29 135 29 59 0 106.5-20.5t82.5-61.5q37-43 53-96 20-66 21-132 0-100-31-180-29-76-80-133-47-53-110.5-81.5t-131.5-28.5q-57 0-104 20t-82 61-53.5 96.5-18.5 127.5zM274 1053q0-35 13-84 8-31 28-60 14-18 43-32 25-12 56-13 39 0 75.5 18.5t63.5 53.5q29 37 43 94 14 55 14 141 0 55-10 86-14 41-29 62-16 20-43 35-20 10-53 10-45 0-78-16-35-18-63-56-27-37-43-96-17-61-17-143zM795 287q0 100 28.5 182t73.5 133q53 61 113 86 68 29 135 29 53 0 104-22.5t82-59.5q39-45 55-98 18-57 19-131 0-106-29-181-29-76-80-133-49-55-112-82-61-27-131-26-57 0-105 20-51 23-82 59-35 41-53 96.5t-18 127.5zM930 287q0-37 12-86 8-29 29-58 16-20 43-34 20-10 55-11 43 0 76 17 37 18 63 53 27 37 43 96 16 61 17 142 0 57-11 88-12 39-28 59-14 20-45 35-20 10-54 10-45 0-77.5-16.5t-63.5-57.5q-29-37-43-94-16-61-16-143z" horiz-adv-x="1486" unicode="&#x25;"/><glyph d="M57 344q0 78 29 152 31 76 74 131 49 61 112 106 74 53 138 82-43 72-60 131-18 66-18 131 0 88 28 158 33 78 84 129 57 57 129 86 82 33 168 33 63 0 131-25 53-20 99-61 41-37 65-94 25-55 25-119v-4l-1-3q-1-3-1-6l-105-20q-2 0-5-1l-3-1h-8q-31 0-37 35-8 37-16 57-10 23-35 51-20 25-51 39-25 12-74 12-51 0-94-18-39-16-72-53-31-35-47-82-16-49-16-100 0-57 24-119 27-66 76-127l330-418q43 68 69 139 25 63 41 146 2 14 15 30 8 10 28 11h121q-16-119-61-232-49-119-119-213l242-307h-152q-27 0-37 2-14 2-29 10-2 0-22 17l-23 24-98 123q-90-84-213-139-119-53-250-53-86 0-155 24-68 23-119 72t-78 113q-29 69-29 151zM242 365q0-61 16-101 20-47 49-76 33-33 74-47t94-14q98 0 184 43 78 39 156 117l-340 434q-119-66-176-155.5t-57-200.5z" horiz-adv-x="1327" unicode="&#x26;"/><glyph d="M223 1012v157l39 297h152l-37-297-37-157q-6-29-23-49-14-18-45-19-27 0-39 19-10 16-10 49z" horiz-adv-x="436" unicode="&#x27;"/><glyph d="M125 434q0 137 16 281 14 129 60 272 45 145 118 287 74 139 197 311l74-47q4-4 12-14 8-12 8-21 0-14-16-37-68-104-133-233-58-117-99-240-41-125-61-256-20-129-20-286 0-76 6-156 2-25 22-164 10-68 35-160 22-80 49-147 6-16 6-29 0-14-10-28-8-10-20-17l-82-49q-41 86-74 182-31 90-49 189-20 106-29 186-10 102-10 176z" horiz-adv-x="565" unicode="&#x28;"/><glyph d="M-8-217q0 20 14 41 84 135 133 233 58 120 98.5 246t61.5 258q20 125 20 275 0 74-6 157-6 70-22 164-18 104-35 162-22 80-49 147-6 16-6 25 0 20 8 29 6 6 22 18l84 47q37-78 72-180 35-104 51-188 20-106 29-187 8-82 8-178 0-135-16-279-14-131-60-274-43-141-118-285-77-147-197-313l-72 49q-10 8-14 12-6 9-6 21z" horiz-adv-x="565" unicode="&#x29;"/><glyph d="M152 1085l172 103q37 22 73 24-35 2-65 25l-150 106 51 74 150-102q20-16 29-25 6-6 18-26-8 23-8 47 0 2 1 6t1 6 1 7 1 7l25 203h86l-25-201q-4-25-8-36-10-31-12-35 10 14 24 24 20 16 33 23l172 102 33-76-172-104q-37-23-70-25 31-4 33-6 15-6 30-18l150-103-53-73-148 102q-6 4-28 21-10 8-21 24 8-29 8-45v-12q0-2-1-6t-1-6l-24-205h-88l26 205q2 6 4 17t2 17q2 14 13 31-16-16-25-22-12-9-31-19l-174-102z" horiz-adv-x="753" unicode="&#x2a;"/><glyph d="M119 621l16 133h416l55 438h144l-54-438h418l-16-133h-418l-55-441h-146l56 441h-416z" unicode="&#x2b;"/><glyph d="M51 127q0 49 33 82t88 33q31 0 55-13 23-12 39-30 14-16 25-45 8-23 8-58 0-47-12-96-10-41-39-98-27-53-60-95-39-49-82-86l-32 31q-12 12-13 29 0 10 17 31l37 47q27 33 41 63 25 49 28 78h-12q-55 0-88 35t-33 92z" horiz-adv-x="434" unicode="&#x2c;"/><glyph d="M98 539l21 149h467l-21-149h-467z" horiz-adv-x="655" unicode="&#x2d;"/><glyph d="M45 112.5q0 24.5 10 51.5 8 23 26.5 41t41.5 26q27 10 51 11 23 0 49-11 23-8 41.5-26.5t26.5-40.5q12-33 12-51.5t-12-51.5q-8-23-26.5-41t-41.5-26q-27-10-49-10-25 0-51 10-23 8-41.5 26.5t-26.5 40.5q-10 27-10 51.5z" horiz-adv-x="434" unicode="&#x2e;"/><glyph d="M-82-94l741 1515q14 29 41 47 29 18 58 19h76l-740-1512q-14-33-45-51t-57-18h-74z" horiz-adv-x="710" unicode="&#x2f;"/><glyph d="M82 582q0 229 49 397 51 174 135 283 86 111 201 166t246 55q90 0 178-39 83-37 141-111 57-72 92-186 33-106 33-262 0-221-51-398-51-174-135-282-86-111-201-166t-242-55q-92 0-180 39-83 37-141 110-57 72-92 186-33 107-33 263zM266 586q0-131 23-209 27-92 61-141 39-53 90.5-78t108.5-25q88 0 164 45 78 47 135 137 58 92 92 234 35 145 35 332 0 123-25 209-27 92-61 141-41 57-90 80-52 25-111 24-84 0-161.5-47t-135.5-137q-58-92-92-233-33-137-33-332z" unicode="&#x30;"/><glyph d="M233 0l17 135h317l125 1028 21 80-301-235q-14-12-39-13-16 0-29 6-10 6-16 15l-45 78 481 376h143l-164-1335h291l-16-135h-785z" unicode="&#x31;"/><glyph d="M49 0l6 61q2 14 13 37 8 20 28 37l531 475q96 88 133 127 61 63 98 119 41 59 62 119 23 63 22 133 0 53-18 96-16 39-52 70-31 28-73 43-41 14-94 14-119 0-197-59-82-63-119-166-12-31-29-41-18-12-43-12h-10q-2 0-6 1t-6 1l-90 14q23 96 76 178 45 70 120 129 63 49 152 78 90 29 180 29 82 0 156-24.5t125-70 82-112.5q29-63 28-150 0-100-28-172-31-74-80-143-57-78-117-135l-48-45.5t-42-38l-53-47.5-441-402q33 10 82 17 43 6 82 6h502q27 0 41-14.5t14-36.5q0-16-2-29 0-6-1-16.5t-3-16.5l-6-53h-975z" unicode="&#x32;"/><glyph d="M94 365l82 32q18 8 41 9 25 0 35-9 12-9 18-24 14-55 39-105 23-47 56-75 27-25 81-43 43-14 115-15 80 0 148 29 70 31 110 74 47 49 70 104 23 53 22 119 0 49-14 90-14 39-57 72-41 31-107 49-59 16-172 16l17 127q197 4 290 82 94 80 95 217 0 59-17 94-20 43-49 70-31 29-76 41-43 12-94 12-117 0-196.5-61.5t-118.5-163.5q-12-31-29-41-18-12-43-12h-10q-2 0-5 1t-6 1l-90 14q23 96 76 178 47 74 119 129 61 47 154 78 86 29 176 29 86 0 157.5-24.5t120.5-67.5q51-45 78-105 29-63 29-135 0-84-21-143-23-63-61-109-37-43-96-76-53-29-125-49 129-37 188-115 63-82 63-194 0-109-43-199-43-88-118-151-78-66-174.5-98.5t-206.5-32.5q-102 0-180 24.5t-132 69.5q-51 43-88 119-37 78-51 168z" unicode="&#x33;"/><glyph d="M45 516l832 950h170l-117-940h223l-14-100q-4-18-13-27-10-10-32-10h-181l-47-389h-159l47 389h-643q-25 0-39.5 10.5t-18.5 28.5zM242 526h528l78 617q4 37 8 53 8 37 14 57z" unicode="&#x34;"/><glyph d="M70 135l61 78q20 25 51 25 16 0 43-17l60-35q39-23 82-34 53-16 116-17 84 0 158 29 68 27 121 80t80 125q29 76 28 159 0 57-18 107-18 47-55 82-39 35-92 53-49 16-136 16-57 0-108-8-68-10-129-26l-107 30 203 684h692l-10-77q-6-35-30.5-59.5t-84.5-24.5h-465l-116-396q115 25 207 25 115 0 188-29 82-31 133-80 55-51 82-120 25-63 25-154 0-133-48-234-49-104-129-178-82-76-188-114-111-41-227-41-63 0-121 12-61 12-107 33-51 23-90 49-40 28-69 57z" unicode="&#x35;"/><glyph d="M106 414q0 66 15 123 18 74 43 122 33 66 74 127 37 55 106 136l438 501q14 18 41 31 25 12 58 12h155l-504-551-41.5-45.5-44.5-50.5q51 33 125 58 63 20 142 20 82 0 151-25 68-23 123-75 49-47 82-121 29-66 29-160 0-111-43-209-45-102-119-170-82-76-178-112-106-41-226-41-98 0-178 30-74 29-133 88-55 55-86 136-29 74-29 176zM274 406q0-68 17-111 18-47 53-86 33-35 86-57 49-20 119-21 82 0 147 27 74 31 119 75 51 51 78 113t27 143q0 57-21 113-18 49-55 86t-88 55q-52 18-117 19-78 0-147-29-61-25-115-78-49-49-76-112-27-61-27-137z" unicode="&#x36;"/><glyph d="M193 0l770 1219q10 16 30 45 14 23 35 41h-770q-18 0-28.5 10t-10.5 28v5l14 118h996l-8-69q-4-29-9-47-4-20-16-39l-784-1266q-14-23-31-33-18-12-45-12h-143z" unicode="&#x37;"/><glyph d="M84 352q0 164 88 266 88 104 250 148-102 41-150 113-51 76-51 174 0 90 37 170 33 74 102 135 63 57 156 92 86 33 197 33 92 0 167.5-29t125.5-72q49-45 79-110 27-59 27-133 0-133-72-234-70-96-209-143 123-37 185-115 61-76 61-196 0-113-41-195-45-88-114-147-76-63-172-93-109-33-220-32-94 0-184 26-83 25-141 74-59 51-90 117-31 67-31 151zM270 369q0-61 17-101 20-47 55-75 41-35 88-52 53-18 117-18 80 0 145 24 68 27 111 66 43 41 69 102 25 57 25 131 0 68-23 111-25 45-63 76-41 31-88 43-49 12-105 12-76 0-131-16-63-18-110-58-47-37-78-100-29-57-29-145zM393 1057q0-45 12.5-86t43-72 75.5-49q46-18 111-19 88 0 139 25 57 27 94 70 39 45 54 94 16 55 16 106 0 49-14 86-14 41-45 70-29 29-76 47-45 18-105 19-76 0-131-25-63-29-96-61-39-39-57-93-21-57-21-112z" unicode="&#x38;"/><glyph d="M213 969q0 109 43 200 47 102 115 164 74 68 174 109t213 41q95 0 172-31 84-33 131-84 55-59 82-131 29-80 28-166 0-68-16-137-16-66-45-125-27-55-74-121-33-47-98-127l-422-520q-12-14-41-29-25-12-55-12h-162l516 586 51 57q12 14 43 53-59-45-135-69-74-25-155-25-76 0-144 25-59 20-115 73-49 47-77 115-29 70-29 154zM393 991q0-117 67.5-184.5t190.5-67.5q86 0 147.5 27t108.5 74q49 49 72 106 25 61 25 127 0 51-21 107-18 49-53 83.5t-84 53-109 18.5q-76 0-137-24.5t-108.5-71.5-71.5-109q-27-65-27-139z" unicode="&#x39;"/><glyph d="M45 112.5q0 24.5 10 51.5 8 23 26.5 41t41.5 26q27 10 51 11 23 0 49-11 23-8 41.5-26.5t26.5-40.5q12-33 12-51.5t-12-51.5q-8-23-26.5-41t-41.5-26q-27-10-49-10-25 0-51 10-23 8-41.5 26.5t-26.5 40.5q-10 27-10 51.5zM147 881q0 23 11 49 8 23 26 41 20 20 41 28 27 10 51 11 23 0 50-11 20-8 41-28 18-18 26-41 12-33 13-49 0-18-13-52-8-20-26-38-20-20-41-29-23-8-50-8-29 0-51 8-20 8-41 29-18 18-26 38-11 27-11 52z" horiz-adv-x="434" unicode="&#x3a;"/><glyph d="M47 127q0 49 33 82t88 33q31 0 55-13 23-12 39-30 14-16 25-45 8-23 8-58 0-47-12-96-10-41-39-98-27-53-60-95-39-49-82-86l-32 31q-12 12-13 29 0 10 17 31l37 47q27 33 41 63 25 49 28 78h-12q-55 0-88 35t-33 92zM156 881q0 27 8 49 8 20 29 41 23 23 38 28 27 10 52 11 23 0 49-11 20-8 40.5-28.5t28.5-40.5q8-23 9-49 0-29-9-52-6-16-28-38-20-20-41-29-23-8-49-8-29 0-52 8-16 6-38.5 28.5t-28.5 38.5q-8 23-8 52z" horiz-adv-x="434" unicode="&#x3b;"/><glyph d="M164 651l8 76 842 412-17-131q-3-18-12-31-10-14-31-23l-487-233q-20-12-47-19-6-2-23.5-7t-27.5-7q45-10 47-12 14-6 43-21l430-231q20-12 24-21 8-16 9-22-2-6-2-14.5t-5-32.5q-2-20-6-45-2-12-3-24.5t-3-24.5z" horiz-adv-x="1091" unicode="&#x3c;"/><glyph d="M143 453l17 133h880l-16-133h-881zM188 795l17 133h876l-16-133h-877z" unicode="&#x3d;"/><glyph d="M127 242l16 129q3 18 13 30t32 23l488 233q23 12 45 19 6 2 23.5 7t27.5 7q-33 8-47 15l-20.5 7t-20.5 9l-432 233q-18 10-23 21-8 16-8 22 2 6 2 14.5t4 32.5q2 20 6 46 2 12 2.5 24t2.5 25l741-412-8-76z" horiz-adv-x="1091" unicode="&#x3e;"/><glyph d="M135 1335l72 56q20 14 84 47 37 18 94 32 49 12 109 13 68 0 129-23 57-20 98-59 43-39 63-90 23-55 23-111 0-86-24.5-147.5t-61.5-104.5q-43-49-82-78l-84-61q-47-35-72-64-33-35-41-77l-39-156h-120l10 168q4 51 31 88 33 45 65 72 43 35 84 65 51 37 82 68 35 35 61.5 84t26.5 108q0 80-49 125-51 47-131 47-59 0-101-14-33-12-71-35-33-20-51-35-16-14-33-14-25 0-35 23zM188 112.5q0 28.5 8.5 51t27 41 40.5 26.5q27 10 51 11 23 0 50-11 23-8 41-26.5t26-40.5q10-27 10-51.5t-10-51.5q-8-23-26.5-41t-40.5-26q-27-10-50-10-25 0-51 10-23 8-41 26.5t-26.5 41-8.5 51z" horiz-adv-x="753" unicode="&#x3f;"/><glyph d="M78 461q0 123 33 250 31 121 84 221 51 96 133 188 70 78 168 144 84 55 196 92 100 33 217 33 123 0 226-39 104-40 184-117 80-78 127-189 45-109 45-251 0-135-35-240-39-115-96-191-63-84-139-126-78-45-170-46-68 0-113 39-45 37-47 115-59-76-133-117-63-35-144-34-47 0-83.5 18t-59.5 47q-25 31-37 74t-12 90q0 57 16 127 12 51 49 125 25 51 80 112 51 59 107 95 51 33 135 61 74 25 160 25 49 0 110-13 51-10 88-28l-135-369q-14-41-26-94-10-45-11-66 0-23 9-47 4-12 20-28 12-12 29-15 25-4 37-4 53 0 102 37 53 41 88 100 37 65 61 154 23 82 23 199 0 123-33 208-31 82-98 150-59 59-150 92-86 31-190 31-143 0-262-60-127-63-217-167-94-111-150-256-55-147-55-322 0-143 41-256t115-186q76-76 174-115t223-39q135 0 254 33 109 31 186 80l9.5 5 9.5 5h16q16 0 25-8 12-12 14-23l12-51q-113-76-244-117-135-43-296-43-150 0-273 49-121 49-211 142-88 90-137 221-49 129-49 295zM561 442q0-53 27-94 25-37 78-37 33 0 59 8 20 6 59 37 27 23 60 72 29 43 53 113l109 303q-33 8-78 8-78 0-142-35-66-37-116-96-45-55-78-131-31-74-31-148z" horiz-adv-x="1531" unicode="&#x40;"/><glyph d="M-66 0l721 1466h193l360-1466h-147q-25 0-41 12-12 10-19 33l-79 361h-598l-168-361q-8-16-29-30.5t-41-14.5h-152zM389 545h502l-135 606q-12 53-15 61-8 45-12 72-27-70-29-74-4-10-14-30.5l-14-28.5z" horiz-adv-x="1265" unicode="&#x41;"/><glyph d="M98 0l183 1466h434q121 0 196-22 90-27 138-66 55-45 77-102 25-61 25-137 0-65-18-123-20-63-56-111-33-45-96-90-47-35-133-61 133-31 201-105 66-72 65-188 0-100-37-187-35-82-104-145-68-61-168-96-96-33-223-33h-484zM309 152h289q84 0 143 20 63 23 102.5 61.5t61.5 98.5q20 53 21 127 0 94-65.5 153.5t-198.5 59.5h-289zM389 807h238q86 0 145 20 57 20 102 62 43 39 64 94 20 53 20 123 0 104-65.5 157.5t-196.5 53.5h-241z" horiz-adv-x="1218" unicode="&#x42;"/><glyph d="M102 621q0 188 60 350 57 156 164 272 111 121 243 178 141 61 303 62 74 0 140-13 57-10 116-38 49-23 95-62 43-37 80-80l-66-80q-12-12-18-16-10-6-26.5-6t-37.5 20q-14 14-57 43-37 25-90.5 45.5t-145.5 20.5q-123 0-223-47t-178-137q-76-88-119-215-43-126-43-283 0-119 29-203 33-96 82-153 53-61 127-97 76-35 159-35 66 0 119 13 45 10 92 28 37 14 68 35 10 6 27.5 19.5t21.5 17.5q10 8 20.5 14.5t16.5 12.5q16 12 24.5 12t16.5-4q6-2 8-8l68-82q-96-106-222-164-123-57-292-57-129 0-236 47-102 45-176 131t-111 203q-39 123-39 256z" horiz-adv-x="1263" unicode="&#x43;"/><glyph d="M98 0l183 1466h505q135 0 244-45t187-129q74-78 114-200 41-119 41-256 0-188-57-340-58-154-160-265-98-109-242-170-141-61-307-61h-508zM311 156h314q125 0 223 45t176 135q72 84 113 213 39 123 39 282 0 115-27 201t-82 152q-51 59-129 94-74 33-170 33h-313z" horiz-adv-x="1417" unicode="&#x44;"/><glyph d="M98 0l183 1466h833l-18-155h-641l-62-496h520l-20-149h-520l-62-510h643l-18-156h-838z" horiz-adv-x="1091" unicode="&#x45;"/><glyph d="M98 0l183 1466h833l-18-155h-641l-66-523h549l-20-155h-547l-78-633h-195z" horiz-adv-x="1064" unicode="&#x46;"/><glyph d="M102 629q0 186 60 346 59 158 162 270 104 115 247 176 141 61 312 62 96 0 153-13 68-14 127-40 47-20 103-62 43-31 82-74l-62-82q-12-16-20-20-12-6-25-6-16 0-33 10-25 14-51 35-23 16-65 39-45 23-93 33-66 14-131 14-131 0-231-47-106-49-180-140-76-90-117-212-41-121-41-283 0-121 29-207 31-94 86-157.5t133-98.5q74-33 174-33 68 0 98 4 61 8 88 17 35 10 78 28 37 15 74 37l39 332h-203q-18 0-27 8-10 10-10 25v4q0 2 1 6t1 6v10 7l10 79h420l-69-559q-53-39-113-69-63-35-125-51-70-20-139-29-82-10-156-10-139 0-242 47-111 51-184 133-76 84-119 205-41 115-41 260z" horiz-adv-x="1380" unicode="&#x47;"/><glyph d="M98 0l183 1466h192l-80-657h715l80 657h192l-180-1466h-192l82 670h-715l-82-670h-195z" horiz-adv-x="1425" unicode="&#x48;"/><glyph d="M131 0l180 1466h193l-180-1466h-193z" horiz-adv-x="579" unicode="&#x49;"/><glyph d="M-4 12l12 111q4 16 12 29 8 10 31 10 14 0 23-2 12-3 30-6 25-4 39-7 29-4 52-4 55 0 100 19 53 20 86 57 41 43 63 105 25 65 37 159l121 983h191l-121-979q-31-248-152-374-123-129-323-129-39 0-105 8-51 6-96 20z" horiz-adv-x="835" unicode="&#x4a;"/><glyph d="M117 0l178 1466h192l-79-645h67q33 0 60 10 20 8 43 33l507 557q25 27 48 37 18 8 53 8h162l-586-635q-20-25-39-38-20-16-39-25 20-8 41-29 25-25 37-43l442-696h-166q-14 0-30.5 4t-22.5 8-14 13q-4 4-13 16l-385 586q-12 20-36 37-16 10-64 10h-84l-82-674h-190z" horiz-adv-x="1286" unicode="&#x4b;"/><glyph d="M98 0l183 1466h190l-160-1304h580l-19-162h-774z" horiz-adv-x="968" unicode="&#x4c;"/><glyph d="M98 0l183 1466h141q29 0 39-4 14-6 22-28l357-922 12-41q2-6 5-20.5t5-20.5q16 39 43 82l578 922q14 23 28 28 10 4 41 4h142l-181-1466h-167l133 1085q4 25 8 43l8 50-569-920q-29-45-74-45h-29q-45 0-63 45l-354 922v-50q0-14-5-43l-133-1087h-170z" horiz-adv-x="1736" unicode="&#x4d;"/><glyph d="M98 0l183 1466h98q29 0 37-4 12-6 24-28l633-1121q0 8 1 22.5t3 22.5q0 10 2 19.5t2 19.5l131 1069h168l-180-1466h-94q-20 0-41 8-10 4-25 29l-632 1122v-16q0-4-1-10.5t-1-8.5q0-6-1.5-10t-1.5-10q0-4-1-10.5t-1-8.5l-133-1085h-170z" horiz-adv-x="1423" unicode="&#x4e;"/><glyph d="M102 627q0 193 58 346 59 158 162 270 106 115 243 178 135 61 307 62 139 0 242-47 108-49 184-136 76-84 117-204 41-119 41-258 0-129-26-236-29-117-76-207t-117-170q-70-78-156-131-92-55-184-82-102-29-209-28-135 0-244 49-111 51-184 133-77 86-117 203-41 119-41 258zM299 633q0-111 29-203 27-86 80-151 52-65 129-99 80-35 172-35 127 0 223 48 98 47 174 139 72 88 113 217 41 133 41 285 0 106-29 202-25 84-82 154-52 65-129 98-80 35-172 35-120 0-221-49-98-47-174-139-72-88-113-217-41-133-41-285z" horiz-adv-x="1499" unicode="&#x4f;"/><glyph d="M117 0l178 1466h405q121 0 203-26 86-28 141-80 57-53 84-123 27-68 27-160 0-113-37-211-35-94-110-166-74-71-179-110-102-39-241-39h-213l-68-551h-190zM393 702h213q88 0 154 27 70 29 112.5 74t67.5 115q23 61 23 143 0 66-17 106-18 45-53 80-33 33-86 51.5t-125 18.5h-213z" horiz-adv-x="1155" unicode="&#x50;"/><glyph d="M102 627q0 193 58 346 59 158 162 270 106 115 243 178 135 61 307 62 139 0 242-47 108-49 184-136 76-84 117-204 41-119 41-258 0-117-26-236-25-109-74-205-47-90-117-170-66-76-152-129l297-401h-155q-37 0-62 8-23 8-45 37l-202 278q-51-16-113-26-66-10-119-10-135 0-244 49-111 51-184 133-77 86-117 203-41 119-41 258zM299 633q0-111 29-203 27-86 80-151 52-65 129-99 80-35 172-35 127 0 223 48 98 47 174 139 72 88 113 217 41 133 41 285 0 106-29 202-25 84-82 154-52 65-129 98-80 35-172 35-120 0-221-49-98-47-174-139-72-88-113-217-41-133-41-285z" horiz-adv-x="1499" unicode="&#x51;"/><glyph d="M117 0l178 1466h387q117 0 203-24 88-25 141-70t82-110q27-61 27-144 0-100-25-168-27-72-78-137-45-55-121-102-68-41-159-64 34-22 55-61l315-586h-170q-49 0-71 41l-277 528q-14 29-30.5 37t-55.5 8h-135l-76-614h-190zM401 754h187q86 0 153 24 61 23 113 70 39 37 68 106 25 61 24 133 0 111-71.5 170.5t-210.5 59.5h-193z" horiz-adv-x="1216" unicode="&#x52;"/><glyph d="M12 176l68 90q10 12 20 19 12 6 27 6 20 0 41-23 12-14 57-51 31-25 86-51 47-23 129-23 70 0 127 23 53 20 97 63 41 41 61 94.5t20 122.5q0 57-24 95-27 41-64 63-47 29-90 45l-104 39q-55 18-105 43-51 25-92 64-39 35-63 92-25 55-25 137 0 92 33 172 35 84 94 147 61 63 150 101 94 39 198 39 109 0 203-45 89-43 148-117l-56-80q-12-16-22-22-12-8-25-9-18 0-37 19-14 14-49 39-27 18-74 39-39 16-106.5 16t-116.5-20q-51-20-86-56-37-37-55-82-16-41-17-100 0-53 25-90 27-41 64-64 47-29 92-45l104-41q35-14 105-47 47-23 92-63 35-33 63-92 25-53 25-127 0-111-35-199-37-94-102-162-68-72-162-110-98-41-215-41-131 0-234 51-100 51-170 141z" horiz-adv-x="999" unicode="&#x53;"/><glyph d="M127 1307l18 159h1059l-20-159h-432l-160-1307h-191l160 1307h-434z" horiz-adv-x="1112" unicode="&#x54;"/><glyph d="M150 479q0 45 6 94l108 893h191l-109-893q-4-29-4-38 0-6-1-19.5t-1-19.5q0-68 20-140 16-57 60-110 35-43 94-70 55-25 131-24 84 0 152 30 66 31 121 88 47 51 83 133 33 74 46 170l108 893h193l-109-893q-14-123-65-233-49-106-132-188-74-74-186-123-102-45-231-45-114 0-203 36-88 37-148 103-68 74-94 156-30 91-30 200z" horiz-adv-x="1374" unicode="&#x55;"/><glyph d="M127 1466h152q25 0 40-12 12-10 21-33l244-1048q12-45 16-72l12-84 31 82q4 10 33 74l500 1048q10 16 26.5 30.5t42.5 14.5h156l-731-1466h-174z" horiz-adv-x="1288" unicode="&#x56;"/><glyph d="M131 1466h152q25 0 41-12 12-10 16-33l160-1038q2-10 2-35 0-16 4-41 0-10 1-21.5t1-23.5q10 39 20 64 2 6 10.5 26.5l12.5 30.5 440 1038q10 20 24.5 32.5t45.5 12.5h43q27 0 41-12 16-12 18-33l185-1038q4-23 8-55 2-10 3-32t1-32q4 14 10 30.5t10 33.5l19 55 411 1038q4 12 29 33 14 12 45 12h148l-600-1466h-175l-196 1130q-2 10-6 35t-6 39l-13-39q-2-8-8-20t-6-15l-477-1130h-172z" horiz-adv-x="1927" unicode="&#x57;"/><glyph d="M-72 0l584 782-344 684h172q22 0 31-6 10-6 16-22l262-553q10 20 23 39l372 514q14 18 23 22 12 6 27 6h196l-512-675 385-791h-172q-18 0-30.5 12.5t-18.5 24.5l-299 639q-6-12-18-29l-441-610q-29-37-65-37h-191z" horiz-adv-x="1220" unicode="&#x58;"/><glyph d="M123 1466h172q25 0 37-12t22-33l244-585q14-47 16-58l13-53q4 8 28 53l33 58 389 585q20 27 29 33 14 12 41 12h160l-605-880-71-586h-193l74 586z" horiz-adv-x="1191" unicode="&#x59;"/><glyph d="M16 0l9 61q2 14 8 25 8 16 14 25l897 1200h-731l20 155h992l-8-61q-2-14-9-25-4-8-16-24l-897-1200h756l-21-156h-1014z" horiz-adv-x="1175" unicode="&#x5a;"/><glyph d="M33-295l229 1864h352l-8-70q-2-20-18-33-15-12-37-12h-154l-202-1630h157q18 0 31-12 10-10 10-29v-8-15q0-2-2-8t-2-10-1-10-1-8l-2-19h-352z" horiz-adv-x="565" unicode="&#x5b;"/><glyph d="M111 1487h73q34 0 56-19 23-18 30-47l369-1515h-74q-29 0-53.5 18.5t-32.5 50.5z" horiz-adv-x="710" unicode="&#x5c;"/><glyph d="M-16-295l10 70q4 25 16 35 18 14 39 14h156l201 1630h-156q-23 0-33 10-12 12-12 31l6 49 2 25h352l-229-1864h-352z" horiz-adv-x="565" unicode="&#x5d;"/><glyph d="M221 807l367 659h117l368-659h-135q-18 0-28.5 8t-20.5 25l-201 360q-16 33-22 47l-19 43q-20-61-37-90l-196-360q-10-16-20.5-24.5t-33.5-8.5h-139z" unicode="&#x5e;"/><glyph d="M-98-291l16 119h741l-14-119h-743z" horiz-adv-x="743" unicode="&#x5f;"/><glyph d="M78 1483h168q25 0 45-13 14-8 24-32l111-246h-102q-25 0-33 4t-23 23z" horiz-adv-x="581" unicode="&#x60;"/><glyph d="M49 352q0 92 25 178 29 100 65 166 45 80 102.5 143.5t131 112.5 157.5 74q90 27 177 27 68 0 129-13 78-16 125-36l-125-1004h-95q-35 0-47 18-14 23-14 45l20 211q-41-72-79-118-53-63-91-93-47-35-100-57-49-20-108-20-63 0-113 24-47 23-84 70-37 45-55 115-21 75-21 157zM233 385q0-248 156-248 49 0 98.5 31t92.5 86q41 53 79 133 43 88 66 166l45 356q-29 8-45 9h-43q-59 0-118.5-18.5t-108.5-55.5q-51-39-90-86-33-39-70-111-29-55-45-125-17-71-17-137z" horiz-adv-x="1036" unicode="&#x61;"/><glyph d="M82 0l182 1507h178l-90-733q43 66 86 115 45 51 94.5 88t102.5 55q57 20 106 21 133 0 207-96.5t74-280.5q0-86-18-168-20-88-50-162-27-66-77-141-45-66-101-115-57-51-121-78-61-27-139-26-80 0-149 34-63 33-109 99l-14-66q-10-31-21-41-12-12-43-12h-98zM287 229q41-55 94-79 51-23 111-23 49 0 98 23 39 18 86 61 37 33 69.5 90t53.5 111q18 51 32 120 10 51 11 125 0 121-43 187-41 61-125 61-55 0-101-28-51-33-96-86-51-61-88-129t-70-164z" horiz-adv-x="1077" unicode="&#x62;"/><glyph d="M61 410q0 123 41 241 39 115 111 205 74 94 168 143 100 53 213 54 101 0 172-37 72-37 123-107l-58-69q-2-2-16-13-6-4-20-4-16 0-28.5 12.5t-35.5 28.5q-25 18-55 29-34 12-86 12-68 0-133-39-68-41-111-104-47-70-73.5-158t-26.5-194q0-76 12-117 14-45 45-88 29-37 70-55 47-20 96-21 41 0 82 10 35 8 63 25 37 20 50 31 20 16 36 30l31 25q10 8 29 8 20 0 35-16l45-56q-49-53-101-96-49-41-96-63-41-20-100-31-57-10-111-10-92 0-160 30-70 31-114 86-47 57-72 136-25 80-25 172z" horiz-adv-x="888" unicode="&#x63;"/><glyph d="M55 365q0 86 19 167 18 83 49 160 29 72 78 144 45 66 100 114 47 43 121 74 68 29 139 29 80 0 137-29 68-35 109-86l70 569h180l-189-1507h-94q-35 0-47 18-14 23-14 45l20 216q-31-53-86-119-49-59-96-94-51-39-104.5-59.5t-110.5-20.5q-135 0-207 96-74 99-74 283zM236 381q0-119 43-184.5t124-65.5q49 0 99 31 55 35 96 84 51 61 88 129 39 70 70 162l35 274q-41 57-94.5 77.5t-110.5 20.5q-84 0-146-47-66-49-110.5-124.5t-69.5-170.5q-24-96-24-186z" horiz-adv-x="1079" unicode="&#x64;"/><glyph d="M61 406q0 88 17 159 18 82 49 152 27 63 80 133 51 68 106 106 72 49 131 70 80 27 156 27 70 0 137-25 53-20 94-57 35-31 54-76 18-43 18-80 0-72-26-125-29-55-103-102-74-46-203-80-117-31-331-53 0-4-1-11.5t-1-11.5v-22q0-135 61-209 59-72 180-72 47 0 88 10 37 9 68 25 29 14 53 33 23 18 43 32l35 25q20 12 33 12 20 0 35-18l45-55q-57-59-103-95-57-43-100-63-49-23-111-37-55-12-123-12-89 0-159 30-72 31-119 84.5t-76 132.5q-27 75-27 173zM258 575q141 16 252 46 98 25 145 53 55 33 70 63 16 37 16 70 0 23-8 39-12 25-26.5 37t-47.5 26q-29 12-69 13-61 0-119-29-55-27-96-72-35-37-72-110-29-58-45-136z" horiz-adv-x="946" unicode="&#x65;"/><glyph d="M66 938l8 78h147l12 102q12 94 46 158 33 66 83 117 43 43 117 71 66 25 139 25 66 0 115-21l-16-94q-4-16-15-18-16-4-30-4-2 0-8.5 1t-10.5 1h-22q-45 0-82-13-33-10-65.5-42.5t-49.5-73.5q-20-51-28-113l-13-96h260l-18-131h-250l-104-852-48-211q-18-76-94-76h-71l137 1137-103 14q-20 8-26 12-10 11-10 29z" horiz-adv-x="620" unicode="&#x66;"/><glyph d="M-66-115q0 84 41 140 41 57 111 94 72 39 156 57 76 16 180 17 23 0 72-5 45-4 71-8-6 12-14 41-6 20-6 45 0 29 10 66 8 27 33 78-35-25-88.5-41.5t-108.5-16.5q-53 0-110 21-49 16-93 57-39 35-61 94-20 53-21 133 0 78 27 146 29 72 80 127 55 59 127 90 74 33 178 33 111 0 195-54h282l-8-61q-2-14-12-31-8-14-29-18l-129-21q6-20 14-57 4-20 5-61 0-52-13-93-16-53-28-75-33-57-37-66-14-20-39-61-10-16-29-64-12-31-12-69 0-45 20-78l47-72q20-31 46-80 20-41 20-104 0-74-33-138-35-66-96-114.5t-152-79.5q-84-29-202-29-88 0-162 18.5t-125 51.5q-53 35-80 82t-27 106zM106-94q0-70 62-111 63-41 176-41 68 0 123 19 61 20 96 47 41 31 62 69 23 41 22 86 0 25-6 50-6 23-14 43-76 12-103 14-66 4-92 4-80 0-145.5-16.5t-102.5-39-57.5-57-20.5-67.5zM272 655q0-88 45-139 43-49 125-49 53 0 97 25 41 23 71 63 29 39 45 88 14 45 15 100 0 92-45 137.5t-125 45.5q-53 0-99-23-41-20-69-59-31-41-45.5-86.5t-14.5-102.5z" horiz-adv-x="952" unicode="&#x67;"/><glyph d="M82 0l182 1507h182l-86-700q82 123 180.5 184.5t202.5 61.5q117 0 183-78 61-74 61-225v-43q0-14-4-48l-78-659h-182l78 659q4 29 4 41 0 6 1 18.5t1 18.5q0 80-33 123-31 41-98 41-45 0-94.5-24.5t-94.5-69.5q-43-43-86-113-37-59-69-145l-68-549h-182z" horiz-adv-x="1087" unicode="&#x68;"/><glyph d="M98 0l125 1036h178l-122-1036h-181zM221 1364q0 23 10 49 8 23 27 41 12 12 41 29 20 12 45 12 20 0 49-12 20-8 39-27 20-20 29-43 10-27 10-49 0-31-10-51-12-25-28.5-41.5t-41.5-26.5q-29-12-47-12-16 0-45 12-25 10-41 27-18 18-27 41-10 26-10 51z" horiz-adv-x="499" unicode="&#x69;"/><glyph d="M-156-352l19 98q6 14 12 16 8 4 23 5h14 20q72 0 109 36.5t45 118.5l135 1114h180l-137-1114q-10-70-31-115-27-59-61-94-39-39-94-63-51-23-123-23-45 0-61.5 4.5t-49.5 16.5zM217 1364q0 27 8 49 8 20 29 41 14 14 39 29 23 12 47 12 18 0 47-12 25-10 41-26.5t27-43.5q12-33 12-49 0-27-12.5-51.5t-28.5-40.5q-18-18-41-27-33-12-45-12-18 0-47 12-23 8-39 27-20 20-29 41-8 22-8 51z" horiz-adv-x="487" unicode="&#x6a;"/><glyph d="M82 0l184 1507h180l-110-886h33q20 0 32 6 20 10 31 22l342 350q23 23 33 29 14 8 41 8h160l-402-405q-4-4-13-15.5t-15-15.5q-20-16-33-22 16-12 28-29 4-6 10.5-18.5t10.5-18.5l311-512h-155q-27 0-37.5 8t-24.5 29l-264 424q-10 18-26.5 26.5t-41.5 8.5h-34l-60-496h-180z" horiz-adv-x="983" unicode="&#x6b;"/><glyph d="M90 0l184 1507h181l-185-1507h-180z" horiz-adv-x="487" unicode="&#x6c;"/><glyph d="M74 0l125 1038h92q61 0 61-61l-16-186q78 131 168 196.5t192 65.5q109 0 156-72 51-76 51-207 80 145 174 211 98 68 205 68 115 0 170-74 57-76 57-217 0-33-2-49-2-8-3-26.5t-1-27.5l-78-659h-180l78 659q6 49 6 93 0 72-26 112-25 37-86 37-41 0-87-22-51-25-86-64-33-37-75-106-35-59-64-144l-65-565h-181l78 659q0 8 1 27t3 27q4 33 4 45 0 74-24.5 108.5t-85.5 34.5q-49 0-94-24.5t-86-71.5-74-113q-45-90-66-151l-63-541h-178z" horiz-adv-x="1605" unicode="&#x6d;"/><glyph d="M74 0l123 1038h92q61 0 61-61l-14-201q82 135 186 207 102 70 215 70 115 0 181-78 63-76 63-227 0-6-1-20.5t-1-22.5q0-12-4-46l-78-659h-180l78 659q2 14 2 41 0 6 1 18.5t1 18.5q0 83-31 123-31 41-98 41-53 0-101-27-57-33-98-75-46-49-86-117-45-76-70-154l-59-528h-182z" horiz-adv-x="1079" unicode="&#x6e;"/><glyph d="M57 418q0 127 41 246 39 113 113 202.5t168 137.5q98 49 209 49 90 0 155-29 70-31 121-84 55-59 82-135 29-82 29-182 0-127-41-246-39-113-113-203-74-88-170-137-102-51-209-51-90 0-155 28-70 31-121 84-52 55-80 135-29 83-29 185zM242 418q0-143 55-217t162-74q74 0 137 41 57 37 104 111 39 63 66 155 25 90 25 189 0 139-58 215-53 72-162 71-78 0-137-39-57-37-102-108-43-68-68-158-22-82-22-186z" horiz-adv-x="1030" unicode="&#x6f;"/><glyph d="M29-352l170 1390h92q61 0 61-61l-18-221q45 76 84 123 31 39 98 92 47 39 107 61 53 20 110 21 133 0 207-96.5t74-280.5q0-86-19-168-20-88-49-162-27-66-78-141-45-66-100-115-57-51-121-78-61-27-139-26-74 0-139 30-63 31-107 86l-55-454h-178zM279 229q41-57 92-79.5t112-22.5q49 0 99 23 39 18 86 61 37 33 69.5 90t53.5 111q18 51 32 120 10 51 11 125 0 121-43 187-41 61-125 61-55 0-101-28-55-35-98-86-47-57-86-132-37-72-70-165z" horiz-adv-x="1062" unicode="&#x70;"/><glyph d="M49 352q0 92 25 178 29 100 65 166 45 80 102.5 143.5t131 112.5 157.5 74q90 27 177 27 68 0 129-13 78-16 125-36l-168-1356h-115q-33 0-47 20-12 18-13 45v11q0 4 2.5 8t2.5 8v16q0 2 1 6l1 5 59 481q-35-59-76-109-35-43-88-82-49-37-94-53-49-18-104-18-63 0-113 24-47 23-84 70-37 45-55 115-21 75-21 157zM233 385q0-248 156-248 49 0 98 31 45 29 91 86 43 55 79 129 39 78 66 164l47 362q-29 8-45 9h-43q-59 0-118.5-18.5t-108.5-55.5q-51-39-90-86-33-39-70-111-29-55-45-125-17-71-17-137z" horiz-adv-x="1036" unicode="&#x71;"/><glyph d="M74 0l125 1038h92q27 0 45-14 16-12 16-41l-1-4q-1-4-1-6v-17q0-4-1-8t-1-6v-8l-14-189q68 145 149 222 84 78 172 77 47 0 86-16l-32-176q-55 20-93 20-100 0-178-98-78-100-129-293l-57-481h-178z" horiz-adv-x="720" unicode="&#x72;"/><glyph d="M12 111l45 69q14 18 19 21 12 6 28 6 18 0 33-14 8-8 41-33 23-16 62-33 29-12 96-12 53 0 90 14 39 14 68 41 27 25 43 59 16 37 16 74 0 49-33 82t-80 53q-20 8-104 37-45 14-103 47-51 29-79 72-31 45-31 121 0 66 24 127 25 59 76 108 49 47 119 74 74 29 158 29 94 0 166-31 66-29 120-84l-45-66q-12-14-16-18-8-6-20.5-6t-30.5 12q-25 16-41 25-23 10-60 24-33 12-84 13-47 0-83-13-33-10-66-37-29-23-43-51t-14-63q0-49 32.5-78t77.5-49q59-27 105-41 55-18 104-49 51-31 80-76 31-47 31-121t-27-135q-29-66-82-117-51-49-127-80-70-29-166-28-104 0-176 35t-123 92z" horiz-adv-x="798" unicode="&#x73;"/><glyph d="M98 918v12q0 2 2 9t2 11v12.5t2 12.5q0 4 1 11t1 11l160 23 78 319q2 14 16.5 24.5t26.5 10.5h96l-45-358h273l-15-131h-274l-62-510-5-42-3-26q-2-25-4-41 0-6-1-12t-1-8-1-6l-1-4q0-53 24.5-78t65.5-25q20 0 49 8 14 4 35 17l25 16q12 8 18 8 4 0 12-4l11-14 39-86q-53-45-115-70-66-25-127-24-102 0-157.5 53t-59.5 160v14q0 2 1 12t1 16.5 3 23 3 24.5q6 61 8 78l66 520h-117q-10 0-23 8-8 7-8 25z" horiz-adv-x="702" unicode="&#x74;"/><glyph d="M98 291q0 8 1 20.5t1 20.5q0 12 4 45l78 659h183l-78-659q-4-29-4-37 0-6-1-18.5t-1-18.5q0-86 30-125 31-41 99-41 45 0 98 27 49 25 96 72t86 112.5 70 149.5l63 538h183l-125-1036h-90q-33 0-49.5 14.5t-16.5 42.5v21q0 6 1 17t1 19.5 2 19.5 2 18l2 20 6 82q-82-131-186-201-101-68-209-67-115 0-180 80-66 82-66 225z" horiz-adv-x="1077" unicode="&#x75;"/><glyph d="M78 1036h147q23 0 33-10 14-14 16-27l154-667q8-37 12-76l6-76q6 18 11.5 38t11.5 38q10 33 31 76l321 667q10 16 22.5 26.5t33.5 10.5h141l-520-1036h-154z" horiz-adv-x="976" unicode="&#x76;"/><glyph d="M84 1036h137q23 0 33-8t14-29l97-667q4-25 4-70 0-12 1-32.5t1-32.5l24 65 27 70 285 672q6 12 20 24 16 12 31 12h76q14 0 30-12 10-8 15-24l116-672q4-25 9-70 0-12 4-34.5t4-32.5q6 16 10 33.5l8 33.5q8 31 25 70l262 667q6 14 20 27 12 10 33 10h131l-436-1036h-137q-25 0-31 35l-125 702q-2 10-6 35l-4 33q-2-8-4-17.5t-4-17.5l-13-33-301-702q-16-35-41-35h-133z" horiz-adv-x="1454" unicode="&#x77;"/><glyph d="M-49 0l418 557-248 479h162q25 0 30-4 8-6 15-20l176-357 10 21q2 2 6 10t8 12l234 310q14 18 20 22 8 6 23 6h166l-373-479 279-557h-164q-23 0-33 10t-16 27l-197 414q-12-29-21-39l-282-377q-6-10-25-25-14-10-28-10h-160z" horiz-adv-x="960" unicode="&#x78;"/><glyph d="M84 1036h149q23 0 33-10 14-14 17-27l166-653q4-14 8-43l6-43 16 43q16 37 21 45l327 653q12 20 23 27 14 8 31 8h143l-700-1345q-20-43-62-43h-135l225 413z" horiz-adv-x="976" unicode="&#x79;"/><glyph d="M4 0l8 76q3 12 13 30 12 25 20 35l602 752h-504l17 143h719l-11-78q-4-25-10-36-10-18-20-33l-598-746h512l-17-143h-731z" horiz-adv-x="880" unicode="&#x7a;"/><glyph d="M49 586l14 106q78 0 113 60 37 61 37 188v49l-4 55v27.5t-2 28.5q0 10-1 27.5t-1 23.5q0 106 22 176 25 78 70 131 45 55 113 82 70 29 155 29h49l-8-78q-2-18-18-29-14-8-27-8h-16q-37 0-74-16.5t-59-51.5q-25-37-37-92-14-66-15-139v-51q0-10 1-30.5t1-31.5v-63-49q0-82-18-133-18-52-43-86-20-29-55-49-29-18-58-25 55-18 88-63.5t33-111-14-120.5q-10-39-35-117-14-47-33-119-14-57-14-124 0-74 33-115 33-43 98-43h18q6 0 23-8 12-6 12-25l-1-5q-1-5-1-7t-1-7-1-8v-14l-2-6-4-39h-51q-74 0-123 21-53 23-86 57-35 39-53 86-16 43-17 111 0 63 17 129 4 20 37 120 25 78 34 117 16 61 17 117 0 53-29 88t-84 35z" horiz-adv-x="565" unicode="&#x7b;"/><glyph d="M176-352v1921h139v-1921h-139z" horiz-adv-x="614" unicode="&#x7c;"/><glyph d="M-16-293l8 80q0 8 8 16l10 11q2 2 8 4l7 2q8 4 12 4h18q43 0 74 14 33 14 57 51 27 41 39 93 12 55 13 139v51 61 64 51q0 84 16 131 18 52 43 86 18 27 57 49 31 18 56 25-53 16-86 63-33 45-33 113 0 63 14 119 20 78 33 117 25 78 35 118 14 57 14 125 0 70-35 115t-96 45h-18q-10 0-22.5 6t-12.5 27l1 3q1 3 1 5v16q0 2 1 6.5t1 6.5l2 8 4 37h49q74 0 123-21 59-25 88-55 31-33 51-88 16-43 17-109 0-63-17-129-12-51-35-120-25-78-34-117-16-61-17-119 0-51 29-86 27-33 82-33l-12-106q-78 0-115-61.5t-37-188.5q0-6 1-22.5t1-26.5q2-12 2-26.5v-29.5l4-55v-49q0-109-22-178-27-82-68-131-45-53-114.5-82t-155.5-29h-49z" horiz-adv-x="565" unicode="&#x7d;"/><glyph d="M57 424q0 59 21 125 20 61 53 98 39 43 88 66 47 23 117 22 59 0 106-16l101-37q63-27 92-37 43-18 82-18 66 0 104.5 45t38.5 114h148q0-61-21-127-20-61-53-98-37-41-88-61-59-25-117-25-51 0-106 17-10 2-101 36-63 27-92 37-39 16-82 17-70 0-104-41-39-45-39-117h-148z" unicode="&#x7e;"/><glyph d="M141 442q0 129 39 238 41 113 115 192 76 82 180 127 109 47 242 50l35 186q4 20 18 34.5t37 14.5h65l-45-240q83-12 148-43 55-27 112-83l-53-62q-6-6-16-14-10-6-22.5-6t-28.5 10q-8 4-16.5 10t-20.5 12q-18 10-53 25-31 12-74 18l-152-788q68 4 113 18.5t78 34.5q12 6 31.5 17.5t23.5 13.5q25 14 37 14 23 0 33-16l39-62q-33-37-76-63-47-31-92-47-51-20-103-31-49-10-108-14l-35-181q-4-20-18.5-34.5t-36.5-14.5h-66l45 232q-86 10-154 43-68 35-118 94-47 57-76 137-27 78-27 178zM315 451q0-137 57.5-219t168.5-105l151 786q-90-6-164-41-68-33-116-94-47-57-72-143-25-83-25-184z" unicode="&#xa2;"/><glyph d="M16 0l13 115q25 6 65 26 31 14 51 39 27 31 37 60 12 34 19 79l37 312h-166l14 119h168l33 270q12 90 53 180 41 88 106 148 68 61 156 98 90 37 203 37 82 0 149-21 57-16 107-53 45-33 76-80 27-41 47-100l-78-45q-20-12-38.5-12.5t-27.5 4.5q-12 6-20 20-25 37-37 53-16 20-45 43-27 20-61 29-41 10-91 10-63 0-120-22-51-20-97-62-43-40-67-98-27-61-35-129l-33-270h486l-15-119h-483l-33-262q-8-76-37-131-27-53-78-99 41 8 61.5 10.5t61.5 2.5h701l-8-74q-4-20-9-27-8-16-18-26.5t-27-16.5q-20-8-32-8h-988z" unicode="&#xa3;"/><glyph d="M129 328l14 102h349l14 107h-350l12 102h315l-315 827h147q20 0 37-12 16-14 23-33l215-585q12-33 18-66 8-43 10-57 16 49 21 59 12 33 33 64l358 585q14 20 29 31 23 14 43 14h147l-522-827h317l-12-102h-350l-14-107h352l-12-102h-353l-39-328h-176l39 328h-350z" unicode="&#xa5;"/><glyph d="M94 733q0 100 29 199 33 109 74 180 47 80 118 152 66 66 152 116 82 49 176 76 92 27 201 27 106 0 198-27 98-29 179-76 86-51 151.5-116.5t116.5-151.5q45-78 76-180 27-92 26.5-198.5t-26.5-198.5q-29-98-76-179-51-86-116.5-151.5t-151.5-116.5q-80-47-179-76-92-27-198.5-26.5t-198.5 26.5q-98 29-178 76-86 51-152 117-72 72-118 151-43 74-74 179-29 98-29 198zM199 733q0-90 22-176 23-84 64-156 45-78 100-133 57-57 131-102 63-39 154-66 76-23 174-22 96 0 172 22 88 27 155 66 70 41 132 102 59 59 102 133 35 61 63 156 23 76 23 176 0 138-49 258-47 113-139 209-86 90-205 141-117 51-254 52-98 0-174-23-90-27-154-65-76-45-131-105-59-61-100-133-43-72-64-158-22-90-22-176zM401 735q0 106 33 191 33 82 98 147 63 63 148 96 88 35 186 35 109 0 189-34.5t137-92.5l-49-65-4-5q-4-5-9-8-8-6-20-6-16 0-29 11-20 16-41 26-23 12-65 25-40 12-98 12-78 0-132-23-61-27-98-65-39-41-61-107-23-63-23-137 0-78 23-141 20-55 59-102 37-43 90-66 49-20 117-20 66 0 109 12 47 14 73 26 8 4 45 29 18 12 31 12 8 0 12-2t11-8l61-65q-61-72-143-107-86-37-203-37-96 0-182 35-82 33-142 96-61 66-92 150-31 86-31 188z" horiz-adv-x="1634" unicode="&#xa9;"/><glyph d="M98 539l21 149h467l-21-149h-467z" horiz-adv-x="655" unicode="&#xad;"/><glyph d="M92 733q0 106 27 199 31 102 76 180 51 86 116.5 151.5t151.5 116.5q80 47 178 76 92 27 198.5 27t198.5-27q98-29 179-76 86-51 151-116 72-72 119-152 41-72 74-180 29-98 28.5-198.5t-28.5-198.5q-31-104-74-179-47-80-119-151-66-66-151-117-80-47-179-76-92-27-198.5-26.5t-198.5 26.5q-98 29-178 76-86 51-151.5 116.5t-116.5 151.5q-47 80-76 179-27 92-27 198zM195 733q0-90 22-176 20-78 66-156 49-84 98-133 57-57 131-102 61-37 156-66 76-23 172-22 98 0 174 22 88 27 155 66 70 41 131 102 55 55 101 133 39 68 65 156 23 76 23 176 0 133-51 258-47 117-138 209-86 88-206 141-117 51-254 52-139 0-254-52-121-53-205-141-86-89-135-209-51-125-51-258zM532 279v913h295q178 0 262.5-63.5t84.5-190.5q0-94-55.5-161.5t-162.5-92.5q12-8 29-29 18-25 25-34l235-342h-153q-31 0-50 24l-206 311q-10 14-22.5 20.5t-39.5 6.5h-82v-362h-160zM692 758h119q63 0 96 10 43 14 64 31 23 18 35 51 10 27 10 68 0 43-8 67-8 27-33 47.5t-57.5 28.5-90.5 8h-135v-311z" horiz-adv-x="1634" unicode="&#xae;"/><glyph d="M270 1192l168 246q18 25 33 32 25 12 49 13h172l-254-264q-18-18-28.5-22.5t-36.5-4.5h-103z" horiz-adv-x="581" unicode="&#xb4;"/><glyph horiz-adv-x="837" unicode="&#x2000;"/><glyph horiz-adv-x="1677" unicode="&#x2001;"/><glyph horiz-adv-x="837" unicode="&#x2002;"/><glyph horiz-adv-x="1677" unicode="&#x2003;"/><glyph horiz-adv-x="559" unicode="&#x2004;"/><glyph horiz-adv-x="417" unicode="&#x2005;"/><glyph horiz-adv-x="278" unicode="&#x2006;"/><glyph horiz-adv-x="278" unicode="&#x2007;"/><glyph horiz-adv-x="208" unicode="&#x2008;"/><glyph horiz-adv-x="333" unicode="&#x2009;"/><glyph horiz-adv-x="92" unicode="&#x200a;"/><glyph d="M98 539l21 149h467l-21-149h-467z" horiz-adv-x="655" unicode="&#x2010;"/><glyph d="M98 539l21 149h467l-21-149h-467z" horiz-adv-x="655" unicode="&#x2011;"/><glyph d="M98 539l21 149h467l-21-149h-467z" horiz-adv-x="655" unicode="&#x2012;"/><glyph d="M154 541l14 127h756l-15-127h-755z" horiz-adv-x="1050" unicode="&#x2013;"/><glyph d="M154 541l14 127h1257l-16-127h-1255z" horiz-adv-x="1552" unicode="&#x2014;"/><glyph d="M193 1192q0 104 53 197 57 98 151 174l47-31q12-8 13-25 0-10-4-14-2-2-7.5-8l-9.5-10q-6-6-17-22.5t-16-22.5q-20-27-30-54-18-45-23-61-8-31-8-70 0-25 6-53 8-41 17-57l4-13q0-27-31-39l-113-43q-20 41-26 76-6 37-6 76z" horiz-adv-x="403" unicode="&#x2018;"/><glyph d="M143 1071q0 8 7 14 2 2 6 9.5t8 11.5q10 12 35 45 16 23 30 53 10 23 21 62 8 31 8 67.5t-4 55.5q-6 28-18 55-2 4-3 14 0 25 29 37l115 45q16-35 24-78 8-49 9-73 0-106-54-199-57-98-151-174l-49 33q-13 8-13 22z" horiz-adv-x="403" unicode="&#x2019;"/><glyph d="M193 1192q0 104 53 197 57 98 151 174l47-31q12-8 13-25 0-10-4-14-2-2-7.5-8l-9.5-10q-6-6-17-22.5t-16-22.5q-20-27-30-54-18-45-23-61-8-31-8-70 0-25 6-53 8-41 17-57l4-13q0-27-31-39l-113-43q-20 41-26 76-6 37-6 76zM483 1192q0 104 54 197 57 98 151 174l47-31q12-8 13-25 0-10-5-14-2-2-7-8t-9-10q-6-6-17.5-22.5l-15.5-22.5q-20-27-30-54-18-45-23-61-8-31-8-70 0-25 6-53 8-41 16-57l4-13q0-27-30-39l-113-43q-20 41-27 76-6 37-6 76z" horiz-adv-x="692" unicode="&#x201c;"/><glyph d="M154 1071q0 10 4 14 2 2 7 9.5t9 11.5q6 6 17.5 22.5l15.5 22.5q16 23 31 53 14 33 22 62 8 31 8 67 0 28-6 56-8 37-16 55-4 8-4 14 0 25 30 37l113 45q20-41 26.5-78t6.5-73q0-106-53-199-57-98-152-174l-49 33q-10 8-10 22zM442 1071q0 8 7 14 2 2 6 9.5t8 11.5q10 12 35 45 16 23 30 53 10 23 21 62 8 31 8 67.5t-4 55.5q-6 28-18 55-2 4-3 14 0 25 29 37l115 45q16-35 24-78 8-49 9-73 0-106-54-199-57-98-151-174l-49 33q-13 8-13 22z" horiz-adv-x="692" unicode="&#x201d;"/><glyph d="M238 610q0 82 28 148 31 70 82 121t119 81.5 147 30.5q78 0 148-30 72-31 123-82.5t82-120.5q29-66 28-148 0-86-28-149-33-72-82-121-47-47-123-80-70-31-148-31-80 0-147 31-72 33-119 80-49 49-82 121-28 63-28 149z" unicode="&#x2022;"/><glyph d="M45 112.5q0 24.5 10 51.5 8 23 26.5 41t41.5 26q27 10 51 11 23 0 49-11 23-8 41.5-26.5t26.5-40.5q12-33 12-51.5t-12-51.5q-8-23-26.5-41t-41.5-26q-27-10-49-10-25 0-51 10-23 8-41.5 26.5t-26.5 40.5q-10 27-10 51.5zM573 112.5q0 28.5 9 51.5 8 20 28 41 18 18 39 26 27 10 51 11 23 0 50-11 23-8 41-26 20-20 28-41 8-23 8-51.5t-8-51.5q-8-20-28-41-18-18-41-26-27-10-50-10-25 0-51 10-20 8-39 26-20 20-28 41-9 23-9 51.5zM1100 112.5q0 24.5 10 51.5 8 23 26.5 41t39.5 26q27 10 51 10.5t51-10.5q23-8 41-26.5t27-40.5q10-27 10-51.5t-10-51.5q-8-23-27-41t-41-26q-27-10-51.5-10t-50.5 10q-20 8-39 26.5t-27 40.5q-10 27-10 51.5z" horiz-adv-x="1488" unicode="&#x2026;"/><glyph horiz-adv-x="333" unicode="&#x202f;"/><glyph horiz-adv-x="417" unicode="&#x205f;"/><glyph d="M43 567l12 101h138q2 68 16 149h-135l12 101h143q35 129 97 235 63 106 143 178 78 70 182 111 98 39 217 39 129 0 226-51 88-47 151-140l-67-67q-14-14-19-17-8-4-22-4-12 0-23 10l-22 23q-10 10-35 31-23 18-45 28-43 18-66 25-33 8-90 8-82 0-149-27-72-29-127-79-61-59-101-127-41-72-69-176h573l-4-56q-3-18-18-31-18-14-41-14h-531q-8-51-10-72l-6-77h487l-8-54q-2-16-18-32-14-14-39-15h-422q6-209 92-319 84-109 235-109 88 0 140 23 63 29 94 51 49 37 61 49 25 25 41 25 6 0 15-4 10-4 12-9l67-69q-84-102-200-162-115-59-258-59-115 0-205 43-86 41-148 118-66 82-94 183-29 104-32 239h-150z" unicode="&#x20ac;"/><glyph d="M164 1362l14 104h459l-14-104h-168l-62-502h-123l62 502h-168zM651 860l74 606h104q12 0 25-4 8-2 14-16l117-316q10-29 12-51l6.5 13.5 6.5 13.5q8 16 14 24l195 316q8 12 18 16 12 4 25 4h104l-72-606h-110l47 381 16 72-211-346q-14-27-45-27h-18q-31 0-39 27l-127 348v-74l-49-381h-107z" horiz-adv-x="1357" unicode="&#x2122;"/><glyph d="M0 1035h1035v-1035h-1035v1035z" horiz-adv-x="1035" unicode="&#xe000;"/><glyph d="M66 936l6 80h151l6 57q12 96 50 176 35 76 100 135 59 53 149 86 92 33 195 33 6 0 19.5-1t19.5-1q14 0 39-4 6-2 19.5-4t19.5-2q20-4 30-8l-18-94q-2-12-12-15-16-4-29-4h-25q-4 0-13 1t-15 1q-80 0-147.5-20.5t-106.5-53.5q-45-39-70-94-23-51-33-133l-8-55h582l-123-1016h-180l108 885h-395l-106-852-46-213q-18-76-94-76h-73l141 1139-101 12q-40 6-40 41z" horiz-adv-x="1081" unicode="&#xfb01;"/><glyph d="M66 934l8 82h147l8 57q8 82 45 164 31 72 91 133 51 53 133 90 80 35 178 35 49 0 143-8 70-6 127-6h121l-182-1481h-176l163 1348q-61 4-94 8-49 6-94 6-117 0-192-76-74-74-91-213l-6-57h244l-16-131h-238l-106-852-46-213q-18-76-94-76h-73l139 1139-99 12q-40 6-40 39z" horiz-adv-x="1122" unicode="&#xfb02;"/><glyph d="M1341 0l125 1036h178l-122-1036h-181zM1464 1364q0 23 10 49 8 23 27 41 12 12 41 29 20 12 45 12 20 0 49-12 20-8 39-27 20-20 29-43 10-27 10-49 0-31-10-51-12-25-28.5-41.5t-41.5-26.5q-29-12-47-12-16 0-45 12-25 10-41 27-18 18-27 41-10 26-10 51zM689 938l8 78h147l12 102q12 94 46 158 33 66 83 117 43 43 117 71 66 25 139 25 66 0 115-21l-16-94q-4-16-15-18-16-4-30-4-2 0-8.5 1t-10.5 1h-22q-45 0-82-13-33-10-65.5-42.5t-49.5-73.5q-20-51-28-113l-13-96h260l-18-131h-250l-104-852-48-211q-18-76-94-76h-71l137 1137-103 14q-20 8-26 12-10 11-10 29zM66 938l8 78h147l12 102q12 94 46 158 33 66 83 117 43 43 117 71 66 25 139 25 66 0 115-21l-16-94q-4-16-15-18-16-4-30-4-2 0-8.5 1t-10.5 1h-22q-45 0-82-13-33-10-65.5-42.5t-49.5-73.5q-20-51-28-113l-13-96h260l-18-131h-250l-104-852-48-211q-18-76-94-76h-71l137 1137-103 14q-20 8-26 12-10 11-10 29z" horiz-adv-x="1742" unicode="&#xfb03;"/><glyph d="M1333 0l184 1507h181l-185-1507h-180zM689 938l8 78h147l12 102q12 94 46 158 33 66 83 117 43 43 117 71 66 25 139 25 66 0 115-21l-16-94q-4-16-15-18-16-4-30-4-2 0-8.5 1t-10.5 1h-22q-45 0-82-13-33-10-65.5-42.5t-49.5-73.5q-20-51-28-113l-13-96h260l-18-131h-250l-104-852-48-211q-18-76-94-76h-71l137 1137-103 14q-20 8-26 12-10 11-10 29zM66 938l8 78h147l12 102q12 94 46 158 33 66 83 117 43 43 117 71 66 25 139 25 66 0 115-21l-16-94q-4-16-15-18-16-4-30-4-2 0-8.5 1t-10.5 1h-22q-45 0-82-13-33-10-65.5-42.5t-49.5-73.5q-20-51-28-113l-13-96h260l-18-131h-250l-104-852-48-211q-18-76-94-76h-71l137 1137-103 14q-20 8-26 12-10 11-10 29z" horiz-adv-x="1730" unicode="&#xfb04;"/></font>
</defs>
</svg>
