<svg width="86" height="55" xmlns="http://www.w3.org/2000/svg"><path d="M4.04 54.24c-1.44 0-2.48-.44-3.12-1.32-.64-.88-.72-1.96-.24-3.24L17 3.36C17.64 1.12 19.24 0 21.8 0h17.76c1.44 0 2.48.44 3.12 1.32.64.88.8 1.96.48 3.24L32.6 50.64c-.48 2.4-1.92 3.6-4.32 3.6H4.04zm42.48 0c-1.44 0-2.48-.44-3.12-1.32-.64-.88-.72-1.96-.24-3.24L59.24 3.36C59.88 1.12 61.48 0 64.04 0h17.52c1.44 0 2.48.4 3.12 1.2.64.8.8 1.92.48 3.36L75.08 50.64c-.48 2.4-1.92 3.6-4.32 3.6H46.52z" fill="#E88124" fill-rule="evenodd"/></svg>