<svg height="46" width="56" xmlns="http://www.w3.org/2000/svg"><path d="M43.928.735c1.03-1.04 2.745-.953 3.833.114l2.353 2.305c1.09 1.066 1.205 2.77.176 3.812L34.17 23.261l3.635 3.569c1.166 1.144.984 3.08-.266 4.339l-3.761 3.795L15.9 17.413l.697-.703 3.066-3.091c1.25-1.26 3.193-1.466 4.357-.323l3.796 3.727zm2.441 1.52c-.343-.336-.805-.36-1.028-.135L27.837 19.816l-.706-.694-4.503-4.421c-.315-.31-1.018-.235-1.553.304l-2.369 2.39L33.76 32.171l2.368-2.39c.535-.539.601-1.237.285-1.547l-5.045-4.954.695-.702L48.875 5.583c.223-.226.192-.686-.152-1.023L46.37 2.255zM29.536 35.622L15.35 21.656l-7.544 7.587 14.187 13.966 7.544-7.587zM5 29.258l10.334-10.393L32.34 35.607 22.007 46zm15.054 12.81l-1.439-1.358 8.461-8.87 1.439 1.36-8.461 8.869zm5.491-12.057l-9.105 9.544L15 38.196l9.106-9.543 1.438 1.358zm-12.28 6.272l-1.438-1.358 9.105-9.544 1.439 1.359zm-4.87-4.525l9.106-9.544 1.438 1.359-9.105 9.544-1.439-1.36z" fill="#e88124"/></svg>