<svg viewBox="0 0 628.8 383.8" xmlns="http://www.w3.org/2000/svg"><path d="M180.4 118.4c-1.5-.1-3.1-.1-4.6-.1-1.6 0-3.1 0-4.6.1-19.8 1.1-37.7 9.4-51.1 22.4l55.7 55.7c.7.7.8 1.6.3 2.1s-1.4.3-2-.4c0 0-23.2-27-64.6-44.8-8.8 12.9-13.9 28.5-13.9 45.2 0 44.4 36 80.4 80.4 80.4s80.4-36 80.4-80.4c-.2-42.8-33.7-77.8-76-80.2zm358.8.1V197c0 .9-.6 1.7-1.3 1.7s-1.2-.8-1.2-1.7c0 0 2.7-36-14-78.5H431v80.4c0 36.8 24.7 67.8 58.3 77.4L458 319.4l42 32.3 76.3-105.2c9.8-13.3 15.5-29.7 15.5-47.5v-80.5zm-191-.1H332c-16.7 42.5-14 78.5-14 78.5.1.9-.5 1.7-1.2 1.7s-1.3-.8-1.3-1.7V41h-52.4v238s78.8.2 80.4.2c44.4 0 80.4-36 80.4-80.4.1-42.9-33.5-78-75.7-80.4zm-248-44.8c0-21.1-17.1-38.3-38.3-38.3-21.1 0-38.3 17.1-38.3 38.3 0 21.1 17.1 38.3 38.3 38.3 4.3 0 8.4-.7 12.3-2 5.2-1.7 9.8-4.5 13.7-8.2 7.5-7 12.3-17 12.3-28.1zM36 117.9h52.7v161.7H36z" fill="#e78124"/></svg>