<svg width="56" height="46" xmlns="http://www.w3.org/2000/svg"><path d="M16.49 27.122l-1.682 1.6V6.26l.619-.253c.11-.044.304-.118.572-.21.438-.15.93-.3 1.466-.44 2.108-.548 4.262-.79 6.304-.547 1.158.138 2.24.432 3.225.901 6.851 3.261 11.036 3.748 17.503.355 1.456-.765 2.66-.636 3.206.61.295.673.322 1.253.283 3.205-.012.601-.016.924-.013 1.298.008 1.183.013 3.352.017 6.227a5742.921 5742.921 0 0 1 .003 6.162v.925c0 1.545-1.485 3.026-3.18 3.623a23.657 23.657 0 0 1-2.085.64c-4.125 1.052-8.57 1.067-13.047-.65-5.91-2.263-11.762-2.346-13.192-.985zm13.904-.869c4.046 1.552 8.085 1.538 11.842.58.738-.189 1.19-.334 1.915-.59.986-.346 1.853-1.21 1.853-1.75v-.924a7041.596 7041.596 0 0 0-.004-6.16 1476.74 1476.74 0 0 0-.016-6.216 47.76 47.76 0 0 1 .013-1.35c.027-1.332.011-1.923-.072-2.238a3.14 3.14 0 0 0-.503.22c-7.13 3.74-11.924 3.184-19.284-.32-.78-.371-1.652-.608-2.605-.722-1.76-.21-3.679.006-5.565.497-.424.11-.816.228-1.17.345v17.128c2.972-.98 8.296-.53 13.596 1.5zM46.06 7.574a.211.211 0 0 0 .01.002l-.01-.002zM10 45V3h6.75v42H10zm4.76-1.986V4.986h-2.77v38.028h2.77z" fill="#E88124"/></svg>